%TF.GenerationSoftware,KiCad,Pcbnew,(5.1.6)-1*%
%TF.CreationDate,2022-09-12T11:24:03-04:00*%
%TF.ProjectId,A500-tower-power,41353030-2d74-46f7-9765-722d706f7765,rev?*%
%TF.SameCoordinates,Original*%
%TF.FileFunction,Legend,Top*%
%TF.FilePolarity,Positive*%
%FSLAX46Y46*%
G04 Gerber Fmt 4.6, Leading zero omitted, Abs format (unit mm)*
G04 Created by KiCad (PCBNEW (5.1.6)-1) date 2022-09-12 11:24:03*
%MOMM*%
%LPD*%
G01*
G04 APERTURE LIST*
%ADD10C,0.150000*%
%ADD11C,0.250000*%
%ADD12C,0.120000*%
%ADD13C,0.127000*%
%ADD14C,0.200000*%
%ADD15C,0.254000*%
G04 APERTURE END LIST*
D10*
X148034952Y-89876380D02*
X148034952Y-90590666D01*
X147987333Y-90733523D01*
X147892095Y-90828761D01*
X147749238Y-90876380D01*
X147654000Y-90876380D01*
X148987333Y-90876380D02*
X148511142Y-90876380D01*
X148511142Y-89876380D01*
X149892095Y-90781142D02*
X149844476Y-90828761D01*
X149701619Y-90876380D01*
X149606380Y-90876380D01*
X149463523Y-90828761D01*
X149368285Y-90733523D01*
X149320666Y-90638285D01*
X149273047Y-90447809D01*
X149273047Y-90304952D01*
X149320666Y-90114476D01*
X149368285Y-90019238D01*
X149463523Y-89924000D01*
X149606380Y-89876380D01*
X149701619Y-89876380D01*
X149844476Y-89924000D01*
X149892095Y-89971619D01*
X150606380Y-89876380D02*
X150606380Y-90590666D01*
X150558761Y-90733523D01*
X150463523Y-90828761D01*
X150320666Y-90876380D01*
X150225428Y-90876380D01*
X151558761Y-90876380D02*
X151082571Y-90876380D01*
X151082571Y-89876380D01*
X152463523Y-90781142D02*
X152415904Y-90828761D01*
X152273047Y-90876380D01*
X152177809Y-90876380D01*
X152034952Y-90828761D01*
X151939714Y-90733523D01*
X151892095Y-90638285D01*
X151844476Y-90447809D01*
X151844476Y-90304952D01*
X151892095Y-90114476D01*
X151939714Y-90019238D01*
X152034952Y-89924000D01*
X152177809Y-89876380D01*
X152273047Y-89876380D01*
X152415904Y-89924000D01*
X152463523Y-89971619D01*
X153177809Y-89876380D02*
X153177809Y-90590666D01*
X153130190Y-90733523D01*
X153034952Y-90828761D01*
X152892095Y-90876380D01*
X152796857Y-90876380D01*
X154130190Y-90876380D02*
X153654000Y-90876380D01*
X153654000Y-89876380D01*
X155034952Y-90781142D02*
X154987333Y-90828761D01*
X154844476Y-90876380D01*
X154749238Y-90876380D01*
X154606380Y-90828761D01*
X154511142Y-90733523D01*
X154463523Y-90638285D01*
X154415904Y-90447809D01*
X154415904Y-90304952D01*
X154463523Y-90114476D01*
X154511142Y-90019238D01*
X154606380Y-89924000D01*
X154749238Y-89876380D01*
X154844476Y-89876380D01*
X154987333Y-89924000D01*
X155034952Y-89971619D01*
X155749238Y-89876380D02*
X155749238Y-90590666D01*
X155701619Y-90733523D01*
X155606380Y-90828761D01*
X155463523Y-90876380D01*
X155368285Y-90876380D01*
X156701619Y-90876380D02*
X156225428Y-90876380D01*
X156225428Y-89876380D01*
X157606380Y-90781142D02*
X157558761Y-90828761D01*
X157415904Y-90876380D01*
X157320666Y-90876380D01*
X157177809Y-90828761D01*
X157082571Y-90733523D01*
X157034952Y-90638285D01*
X156987333Y-90447809D01*
X156987333Y-90304952D01*
X157034952Y-90114476D01*
X157082571Y-90019238D01*
X157177809Y-89924000D01*
X157320666Y-89876380D01*
X157415904Y-89876380D01*
X157558761Y-89924000D01*
X157606380Y-89971619D01*
X148114095Y-103068380D02*
X148114095Y-102068380D01*
X148495047Y-102068380D01*
X148590285Y-102116000D01*
X148637904Y-102163619D01*
X148685523Y-102258857D01*
X148685523Y-102401714D01*
X148637904Y-102496952D01*
X148590285Y-102544571D01*
X148495047Y-102592190D01*
X148114095Y-102592190D01*
X149018857Y-102068380D02*
X149256952Y-103068380D01*
X149447428Y-102354095D01*
X149637904Y-103068380D01*
X149876000Y-102068380D01*
X150828380Y-103068380D02*
X150495047Y-102592190D01*
X150256952Y-103068380D02*
X150256952Y-102068380D01*
X150637904Y-102068380D01*
X150733142Y-102116000D01*
X150780761Y-102163619D01*
X150828380Y-102258857D01*
X150828380Y-102401714D01*
X150780761Y-102496952D01*
X150733142Y-102544571D01*
X150637904Y-102592190D01*
X150256952Y-102592190D01*
X152209333Y-102068380D02*
X152399809Y-102068380D01*
X152495047Y-102116000D01*
X152590285Y-102211238D01*
X152637904Y-102401714D01*
X152637904Y-102735047D01*
X152590285Y-102925523D01*
X152495047Y-103020761D01*
X152399809Y-103068380D01*
X152209333Y-103068380D01*
X152114095Y-103020761D01*
X152018857Y-102925523D01*
X151971238Y-102735047D01*
X151971238Y-102401714D01*
X152018857Y-102211238D01*
X152114095Y-102116000D01*
X152209333Y-102068380D01*
X153066476Y-103068380D02*
X153066476Y-102068380D01*
X153637904Y-103068380D01*
X153637904Y-102068380D01*
X143700666Y-103576380D02*
X143700666Y-102576380D01*
X144081619Y-102576380D01*
X144176857Y-102624000D01*
X144224476Y-102671619D01*
X144272095Y-102766857D01*
X144272095Y-102909714D01*
X144224476Y-103004952D01*
X144176857Y-103052571D01*
X144081619Y-103100190D01*
X143700666Y-103100190D01*
X144605428Y-102576380D02*
X144843523Y-103576380D01*
X145034000Y-102862095D01*
X145224476Y-103576380D01*
X145462571Y-102576380D01*
X146414952Y-103576380D02*
X146081619Y-103100190D01*
X145843523Y-103576380D02*
X145843523Y-102576380D01*
X146224476Y-102576380D01*
X146319714Y-102624000D01*
X146367333Y-102671619D01*
X146414952Y-102766857D01*
X146414952Y-102909714D01*
X146367333Y-103004952D01*
X146319714Y-103052571D01*
X146224476Y-103100190D01*
X145843523Y-103100190D01*
D11*
X137590476Y-110315333D02*
X138542857Y-110315333D01*
X137400000Y-110886761D02*
X138066666Y-108886761D01*
X138733333Y-110886761D01*
X140352380Y-108886761D02*
X139400000Y-108886761D01*
X139304761Y-109839142D01*
X139400000Y-109743904D01*
X139590476Y-109648666D01*
X140066666Y-109648666D01*
X140257142Y-109743904D01*
X140352380Y-109839142D01*
X140447619Y-110029619D01*
X140447619Y-110505809D01*
X140352380Y-110696285D01*
X140257142Y-110791523D01*
X140066666Y-110886761D01*
X139590476Y-110886761D01*
X139400000Y-110791523D01*
X139304761Y-110696285D01*
X141685714Y-108886761D02*
X141876190Y-108886761D01*
X142066666Y-108982000D01*
X142161904Y-109077238D01*
X142257142Y-109267714D01*
X142352380Y-109648666D01*
X142352380Y-110124857D01*
X142257142Y-110505809D01*
X142161904Y-110696285D01*
X142066666Y-110791523D01*
X141876190Y-110886761D01*
X141685714Y-110886761D01*
X141495238Y-110791523D01*
X141400000Y-110696285D01*
X141304761Y-110505809D01*
X141209523Y-110124857D01*
X141209523Y-109648666D01*
X141304761Y-109267714D01*
X141400000Y-109077238D01*
X141495238Y-108982000D01*
X141685714Y-108886761D01*
X143590476Y-108886761D02*
X143780952Y-108886761D01*
X143971428Y-108982000D01*
X144066666Y-109077238D01*
X144161904Y-109267714D01*
X144257142Y-109648666D01*
X144257142Y-110124857D01*
X144161904Y-110505809D01*
X144066666Y-110696285D01*
X143971428Y-110791523D01*
X143780952Y-110886761D01*
X143590476Y-110886761D01*
X143400000Y-110791523D01*
X143304761Y-110696285D01*
X143209523Y-110505809D01*
X143114285Y-110124857D01*
X143114285Y-109648666D01*
X143209523Y-109267714D01*
X143304761Y-109077238D01*
X143400000Y-108982000D01*
X143590476Y-108886761D01*
X146352380Y-108886761D02*
X147495238Y-108886761D01*
X146923809Y-110886761D02*
X146923809Y-108886761D01*
X148542857Y-108886761D02*
X148923809Y-108886761D01*
X149114285Y-108982000D01*
X149304761Y-109172476D01*
X149400000Y-109553428D01*
X149400000Y-110220095D01*
X149304761Y-110601047D01*
X149114285Y-110791523D01*
X148923809Y-110886761D01*
X148542857Y-110886761D01*
X148352380Y-110791523D01*
X148161904Y-110601047D01*
X148066666Y-110220095D01*
X148066666Y-109553428D01*
X148161904Y-109172476D01*
X148352380Y-108982000D01*
X148542857Y-108886761D01*
X150066666Y-108886761D02*
X150542857Y-110886761D01*
X150923809Y-109458190D01*
X151304761Y-110886761D01*
X151780952Y-108886761D01*
X152542857Y-109839142D02*
X153209523Y-109839142D01*
X153495238Y-110886761D02*
X152542857Y-110886761D01*
X152542857Y-108886761D01*
X153495238Y-108886761D01*
X155495238Y-110886761D02*
X154828571Y-109934380D01*
X154352380Y-110886761D02*
X154352380Y-108886761D01*
X155114285Y-108886761D01*
X155304761Y-108982000D01*
X155400000Y-109077238D01*
X155495238Y-109267714D01*
X155495238Y-109553428D01*
X155400000Y-109743904D01*
X155304761Y-109839142D01*
X155114285Y-109934380D01*
X154352380Y-109934380D01*
X157876190Y-110886761D02*
X157876190Y-108886761D01*
X158638095Y-108886761D01*
X158828571Y-108982000D01*
X158923809Y-109077238D01*
X159019047Y-109267714D01*
X159019047Y-109553428D01*
X158923809Y-109743904D01*
X158828571Y-109839142D01*
X158638095Y-109934380D01*
X157876190Y-109934380D01*
X160257142Y-108886761D02*
X160638095Y-108886761D01*
X160828571Y-108982000D01*
X161019047Y-109172476D01*
X161114285Y-109553428D01*
X161114285Y-110220095D01*
X161019047Y-110601047D01*
X160828571Y-110791523D01*
X160638095Y-110886761D01*
X160257142Y-110886761D01*
X160066666Y-110791523D01*
X159876190Y-110601047D01*
X159780952Y-110220095D01*
X159780952Y-109553428D01*
X159876190Y-109172476D01*
X160066666Y-108982000D01*
X160257142Y-108886761D01*
X161780952Y-108886761D02*
X162257142Y-110886761D01*
X162638095Y-109458190D01*
X163019047Y-110886761D01*
X163495238Y-108886761D01*
X164257142Y-109839142D02*
X164923809Y-109839142D01*
X165209523Y-110886761D02*
X164257142Y-110886761D01*
X164257142Y-108886761D01*
X165209523Y-108886761D01*
X167209523Y-110886761D02*
X166542857Y-109934380D01*
X166066666Y-110886761D02*
X166066666Y-108886761D01*
X166828571Y-108886761D01*
X167019047Y-108982000D01*
X167114285Y-109077238D01*
X167209523Y-109267714D01*
X167209523Y-109553428D01*
X167114285Y-109743904D01*
X167019047Y-109839142D01*
X166828571Y-109934380D01*
X166066666Y-109934380D01*
D10*
X148463047Y-103703428D02*
X149224952Y-103703428D01*
X152527047Y-103703428D02*
X153288952Y-103703428D01*
X152908000Y-104084380D02*
X152908000Y-103322476D01*
X159766095Y-112530000D02*
X159670857Y-112482380D01*
X159528000Y-112482380D01*
X159385142Y-112530000D01*
X159289904Y-112625238D01*
X159242285Y-112720476D01*
X159194666Y-112910952D01*
X159194666Y-113053809D01*
X159242285Y-113244285D01*
X159289904Y-113339523D01*
X159385142Y-113434761D01*
X159528000Y-113482380D01*
X159623238Y-113482380D01*
X159766095Y-113434761D01*
X159813714Y-113387142D01*
X159813714Y-113053809D01*
X159623238Y-113053809D01*
X160242285Y-113482380D02*
X160242285Y-112482380D01*
X160813714Y-113482380D01*
X160813714Y-112482380D01*
X161289904Y-113482380D02*
X161289904Y-112482380D01*
X161528000Y-112482380D01*
X161670857Y-112530000D01*
X161766095Y-112625238D01*
X161813714Y-112720476D01*
X161861333Y-112910952D01*
X161861333Y-113053809D01*
X161813714Y-113244285D01*
X161766095Y-113339523D01*
X161670857Y-113434761D01*
X161528000Y-113482380D01*
X161289904Y-113482380D01*
X155257523Y-112482380D02*
X154781333Y-112482380D01*
X154733714Y-112958571D01*
X154781333Y-112910952D01*
X154876571Y-112863333D01*
X155114666Y-112863333D01*
X155209904Y-112910952D01*
X155257523Y-112958571D01*
X155305142Y-113053809D01*
X155305142Y-113291904D01*
X155257523Y-113387142D01*
X155209904Y-113434761D01*
X155114666Y-113482380D01*
X154876571Y-113482380D01*
X154781333Y-113434761D01*
X154733714Y-113387142D01*
X155590857Y-112482380D02*
X155924190Y-113482380D01*
X156257523Y-112482380D01*
X148352095Y-113101428D02*
X149114000Y-113101428D01*
X150114000Y-113482380D02*
X149542571Y-113482380D01*
X149828285Y-113482380D02*
X149828285Y-112482380D01*
X149733047Y-112625238D01*
X149637809Y-112720476D01*
X149542571Y-112768095D01*
X150494952Y-112577619D02*
X150542571Y-112530000D01*
X150637809Y-112482380D01*
X150875904Y-112482380D01*
X150971142Y-112530000D01*
X151018761Y-112577619D01*
X151066380Y-112672857D01*
X151066380Y-112768095D01*
X151018761Y-112910952D01*
X150447333Y-113482380D01*
X151066380Y-113482380D01*
X151352095Y-112482380D02*
X151685428Y-113482380D01*
X152018761Y-112482380D01*
X144414952Y-113482380D02*
X143843523Y-113482380D01*
X144129238Y-113482380D02*
X144129238Y-112482380D01*
X144034000Y-112625238D01*
X143938761Y-112720476D01*
X143843523Y-112768095D01*
X144795904Y-112577619D02*
X144843523Y-112530000D01*
X144938761Y-112482380D01*
X145176857Y-112482380D01*
X145272095Y-112530000D01*
X145319714Y-112577619D01*
X145367333Y-112672857D01*
X145367333Y-112768095D01*
X145319714Y-112910952D01*
X144748285Y-113482380D01*
X145367333Y-113482380D01*
X145653047Y-112482380D02*
X145986380Y-113482380D01*
X146319714Y-112482380D01*
D12*
%TO.C,D1*%
X149316000Y-106490000D02*
X149316000Y-106646000D01*
X149316000Y-104174000D02*
X149316000Y-104330000D01*
X152548335Y-104331392D02*
G75*
G03*
X149316000Y-104174484I-1672335J-1078608D01*
G01*
X152548335Y-106488608D02*
G75*
G02*
X149316000Y-106645516I-1672335J1078608D01*
G01*
X151917130Y-104330163D02*
G75*
G03*
X149835039Y-104330000I-1041130J-1079837D01*
G01*
X151917130Y-106489837D02*
G75*
G02*
X149835039Y-106490000I-1041130J1079837D01*
G01*
D13*
%TO.C,J1*%
X126040000Y-93980000D02*
X125040000Y-94480000D01*
X125040000Y-93480000D02*
X126040000Y-93980000D01*
X125040000Y-94480000D02*
X125040000Y-93480000D01*
X178440000Y-80080000D02*
X178440000Y-100380000D01*
X126840000Y-80080000D02*
X178440000Y-80080000D01*
X126840000Y-100380000D02*
X126840000Y-80080000D01*
D14*
%TO.C,J2*%
X141278000Y-114224000D02*
X141278000Y-118364000D01*
X164538000Y-114224000D02*
X141278000Y-114224000D01*
X164538000Y-122504000D02*
X164538000Y-114224000D01*
X145288000Y-122504000D02*
X164538000Y-122504000D01*
D12*
%TO.C,J3*%
X142434000Y-106740000D02*
X142434000Y-105410000D01*
X143764000Y-106740000D02*
X142434000Y-106740000D01*
X145034000Y-106740000D02*
X145034000Y-104080000D01*
X145034000Y-104080000D02*
X147634000Y-104080000D01*
X145034000Y-106740000D02*
X147634000Y-106740000D01*
X147634000Y-106740000D02*
X147634000Y-104080000D01*
D14*
%TO.C,FAN1*%
X181436000Y-80062000D02*
X181436000Y-83312000D01*
X188906000Y-80062000D02*
X181436000Y-80062000D01*
X188906000Y-86412000D02*
X188906000Y-80062000D01*
X182626000Y-86412000D02*
X188906000Y-86412000D01*
%TO.C,FAN2*%
X182626000Y-94032000D02*
X188906000Y-94032000D01*
X188906000Y-94032000D02*
X188906000Y-87682000D01*
X188906000Y-87682000D02*
X181436000Y-87682000D01*
X181436000Y-87682000D02*
X181436000Y-90932000D01*
%TO.C,FAN3*%
X181436000Y-95302000D02*
X181436000Y-98552000D01*
X188906000Y-95302000D02*
X181436000Y-95302000D01*
X188906000Y-101652000D02*
X188906000Y-95302000D01*
X182626000Y-101652000D02*
X188906000Y-101652000D01*
D12*
%TO.C,R1*%
X162020000Y-106780000D02*
X162020000Y-106450000D01*
X155480000Y-106780000D02*
X162020000Y-106780000D01*
X155480000Y-106450000D02*
X155480000Y-106780000D01*
X162020000Y-104040000D02*
X162020000Y-104370000D01*
X155480000Y-104040000D02*
X162020000Y-104040000D01*
X155480000Y-104370000D02*
X155480000Y-104040000D01*
%TO.C,J1*%
D15*
X129116666Y-93284523D02*
X129116666Y-94191666D01*
X129056190Y-94373095D01*
X128935238Y-94494047D01*
X128753809Y-94554523D01*
X128632857Y-94554523D01*
X130386666Y-94554523D02*
X129660952Y-94554523D01*
X130023809Y-94554523D02*
X130023809Y-93284523D01*
X129902857Y-93465952D01*
X129781904Y-93586904D01*
X129660952Y-93647380D01*
%TO.C,J2*%
X139276666Y-117668523D02*
X139276666Y-118575666D01*
X139216190Y-118757095D01*
X139095238Y-118878047D01*
X138913809Y-118938523D01*
X138792857Y-118938523D01*
X139820952Y-117789476D02*
X139881428Y-117729000D01*
X140002380Y-117668523D01*
X140304761Y-117668523D01*
X140425714Y-117729000D01*
X140486190Y-117789476D01*
X140546666Y-117910428D01*
X140546666Y-118031380D01*
X140486190Y-118212809D01*
X139760476Y-118938523D01*
X140546666Y-118938523D01*
%TO.C,J3*%
D10*
X140890666Y-104862380D02*
X140890666Y-105576666D01*
X140843047Y-105719523D01*
X140747809Y-105814761D01*
X140604952Y-105862380D01*
X140509714Y-105862380D01*
X141271619Y-104862380D02*
X141890666Y-104862380D01*
X141557333Y-105243333D01*
X141700190Y-105243333D01*
X141795428Y-105290952D01*
X141843047Y-105338571D01*
X141890666Y-105433809D01*
X141890666Y-105671904D01*
X141843047Y-105767142D01*
X141795428Y-105814761D01*
X141700190Y-105862380D01*
X141414476Y-105862380D01*
X141319238Y-105814761D01*
X141271619Y-105767142D01*
%TO.C,FAN1*%
D15*
X180249285Y-84944857D02*
X180249285Y-85368190D01*
X180914523Y-85368190D02*
X179644523Y-85368190D01*
X179644523Y-84763428D01*
X180551666Y-84340095D02*
X180551666Y-83735333D01*
X180914523Y-84461047D02*
X179644523Y-84037714D01*
X180914523Y-83614380D01*
X180914523Y-83191047D02*
X179644523Y-83191047D01*
X180914523Y-82465333D01*
X179644523Y-82465333D01*
X180914523Y-81195333D02*
X180914523Y-81921047D01*
X180914523Y-81558190D02*
X179644523Y-81558190D01*
X179825952Y-81679142D01*
X179946904Y-81800095D01*
X180007380Y-81921047D01*
%TO.C,FAN2*%
X180249285Y-92564857D02*
X180249285Y-92988190D01*
X180914523Y-92988190D02*
X179644523Y-92988190D01*
X179644523Y-92383428D01*
X180551666Y-91960095D02*
X180551666Y-91355333D01*
X180914523Y-92081047D02*
X179644523Y-91657714D01*
X180914523Y-91234380D01*
X180914523Y-90811047D02*
X179644523Y-90811047D01*
X180914523Y-90085333D01*
X179644523Y-90085333D01*
X179765476Y-89541047D02*
X179705000Y-89480571D01*
X179644523Y-89359619D01*
X179644523Y-89057238D01*
X179705000Y-88936285D01*
X179765476Y-88875809D01*
X179886428Y-88815333D01*
X180007380Y-88815333D01*
X180188809Y-88875809D01*
X180914523Y-89601523D01*
X180914523Y-88815333D01*
%TO.C,FAN3*%
X180249285Y-100184857D02*
X180249285Y-100608190D01*
X180914523Y-100608190D02*
X179644523Y-100608190D01*
X179644523Y-100003428D01*
X180551666Y-99580095D02*
X180551666Y-98975333D01*
X180914523Y-99701047D02*
X179644523Y-99277714D01*
X180914523Y-98854380D01*
X180914523Y-98431047D02*
X179644523Y-98431047D01*
X180914523Y-97705333D01*
X179644523Y-97705333D01*
X179644523Y-97221523D02*
X179644523Y-96435333D01*
X180128333Y-96858666D01*
X180128333Y-96677238D01*
X180188809Y-96556285D01*
X180249285Y-96495809D01*
X180370238Y-96435333D01*
X180672619Y-96435333D01*
X180793571Y-96495809D01*
X180854047Y-96556285D01*
X180914523Y-96677238D01*
X180914523Y-97040095D01*
X180854047Y-97161047D01*
X180793571Y-97221523D01*
%TO.C,R1*%
D10*
X158583333Y-103576380D02*
X158250000Y-103100190D01*
X158011904Y-103576380D02*
X158011904Y-102576380D01*
X158392857Y-102576380D01*
X158488095Y-102624000D01*
X158535714Y-102671619D01*
X158583333Y-102766857D01*
X158583333Y-102909714D01*
X158535714Y-103004952D01*
X158488095Y-103052571D01*
X158392857Y-103100190D01*
X158011904Y-103100190D01*
X159535714Y-103576380D02*
X158964285Y-103576380D01*
X159250000Y-103576380D02*
X159250000Y-102576380D01*
X159154761Y-102719238D01*
X159059523Y-102814476D01*
X158964285Y-102862095D01*
%TD*%
M02*
