%TF.GenerationSoftware,KiCad,Pcbnew,(5.1.6)-1*%
%TF.CreationDate,2022-09-12T11:02:43-04:00*%
%TF.ProjectId,A500-tower-power,41353030-2d74-46f7-9765-722d706f7765,rev?*%
%TF.SameCoordinates,Original*%
%TF.FileFunction,Copper,L4,Bot*%
%TF.FilePolarity,Positive*%
%FSLAX46Y46*%
G04 Gerber Fmt 4.6, Leading zero omitted, Abs format (unit mm)*
G04 Created by KiCad (PCBNEW (5.1.6)-1) date 2022-09-12 11:02:43*
%MOMM*%
%LPD*%
G01*
G04 APERTURE LIST*
%TA.AperFunction,ComponentPad*%
%ADD10R,1.800000X1.800000*%
%TD*%
%TA.AperFunction,ComponentPad*%
%ADD11C,1.800000*%
%TD*%
%TA.AperFunction,ComponentPad*%
%ADD12C,7.400000*%
%TD*%
%TA.AperFunction,ComponentPad*%
%ADD13C,0.800000*%
%TD*%
%TA.AperFunction,ComponentPad*%
%ADD14R,2.150000X2.150000*%
%TD*%
%TA.AperFunction,ComponentPad*%
%ADD15C,2.150000*%
%TD*%
%TA.AperFunction,ComponentPad*%
%ADD16R,2.775000X2.775000*%
%TD*%
%TA.AperFunction,ComponentPad*%
%ADD17C,2.775000*%
%TD*%
%TA.AperFunction,ComponentPad*%
%ADD18R,1.700000X1.700000*%
%TD*%
%TA.AperFunction,ComponentPad*%
%ADD19O,1.700000X1.700000*%
%TD*%
%TA.AperFunction,ComponentPad*%
%ADD20R,1.500000X1.500000*%
%TD*%
%TA.AperFunction,ComponentPad*%
%ADD21C,1.500000*%
%TD*%
%TA.AperFunction,ComponentPad*%
%ADD22C,1.600000*%
%TD*%
%TA.AperFunction,ComponentPad*%
%ADD23O,1.600000X1.600000*%
%TD*%
%TA.AperFunction,Conductor*%
%ADD24C,0.254000*%
%TD*%
G04 APERTURE END LIST*
D10*
%TO.P,D1,1*%
%TO.N,/GND*%
X149606000Y-105410000D03*
D11*
%TO.P,D1,2*%
%TO.N,Net-(D1-Pad2)*%
X152146000Y-105410000D03*
%TD*%
D12*
%TO.P,H1,1*%
%TO.N,N/C*%
X131064000Y-108204000D03*
D13*
X133839000Y-108204000D03*
X133026221Y-110166221D03*
X131064000Y-110979000D03*
X129101779Y-110166221D03*
X128289000Y-108204000D03*
X129101779Y-106241779D03*
X131064000Y-105429000D03*
X133026221Y-106241779D03*
%TD*%
%TO.P,H2,1*%
%TO.N,N/C*%
X175514000Y-106172000D03*
X173551779Y-105359221D03*
X171589558Y-106172000D03*
X170776779Y-108134221D03*
X171589558Y-110096442D03*
X173551779Y-110909221D03*
X175514000Y-110096442D03*
X176326779Y-108134221D03*
D12*
X173551779Y-108134221D03*
%TD*%
D14*
%TO.P,J1,1*%
%TO.N,/3.3V*%
X129540000Y-93980000D03*
D15*
%TO.P,J1,2*%
X133740000Y-93980000D03*
%TO.P,J1,3*%
%TO.N,/GND*%
X137940000Y-93980000D03*
%TO.P,J1,4*%
%TO.N,/5V*%
X142140000Y-93980000D03*
%TO.P,J1,5*%
%TO.N,/GND*%
X146340000Y-93980000D03*
%TO.P,J1,6*%
%TO.N,/5V*%
X150540000Y-93980000D03*
%TO.P,J1,7*%
%TO.N,/GND*%
X154740000Y-93980000D03*
%TO.P,J1,8*%
%TO.N,/PG*%
X158940000Y-93980000D03*
%TO.P,J1,9*%
%TO.N,/5VSB*%
X163140000Y-93980000D03*
%TO.P,J1,10*%
%TO.N,/12V*%
X167340000Y-93980000D03*
%TO.P,J1,11*%
X171540000Y-93980000D03*
%TO.P,J1,12*%
%TO.N,/3.3V*%
X175740000Y-93980000D03*
%TO.P,J1,13*%
X129540000Y-99480000D03*
%TO.P,J1,14*%
%TO.N,/-12V*%
X133740000Y-99480000D03*
%TO.P,J1,15*%
%TO.N,/GND*%
X137940000Y-99480000D03*
%TO.P,J1,16*%
%TO.N,/PS-ON*%
X142140000Y-99480000D03*
%TO.P,J1,17*%
%TO.N,/GND*%
X146340000Y-99480000D03*
%TO.P,J1,18*%
X150540000Y-99480000D03*
%TO.P,J1,19*%
X154740000Y-99480000D03*
%TO.P,J1,20*%
%TO.N,Net-(J1-Pad20)*%
X158940000Y-99480000D03*
%TO.P,J1,21*%
%TO.N,/5V*%
X163140000Y-99480000D03*
%TO.P,J1,22*%
X167340000Y-99480000D03*
%TO.P,J1,23*%
X171540000Y-99480000D03*
%TO.P,J1,24*%
%TO.N,/GND*%
X175740000Y-99480000D03*
%TD*%
D16*
%TO.P,J2,1*%
%TO.N,/12V*%
X145288000Y-118364000D03*
D17*
%TO.P,J2,2*%
%TO.N,/-12V*%
X150368000Y-118364000D03*
%TO.P,J2,3*%
%TO.N,/5V*%
X155448000Y-118364000D03*
%TO.P,J2,4*%
%TO.N,/GND*%
X160528000Y-118364000D03*
%TD*%
D18*
%TO.P,J3,1*%
%TO.N,/PS-ON*%
X143764000Y-105410000D03*
D19*
%TO.P,J3,2*%
%TO.N,/GND*%
X146304000Y-105410000D03*
%TD*%
D20*
%TO.P,FAN1,1*%
%TO.N,Net-(J4-Pad1)*%
X182626000Y-83312000D03*
D21*
%TO.P,FAN1,2*%
%TO.N,/12V*%
X185166000Y-83312000D03*
%TO.P,FAN1,3*%
%TO.N,/GND*%
X187706000Y-83312000D03*
%TD*%
%TO.P,FAN2,3*%
%TO.N,/GND*%
X187706000Y-90932000D03*
%TO.P,FAN2,2*%
%TO.N,/12V*%
X185166000Y-90932000D03*
D20*
%TO.P,FAN2,1*%
%TO.N,Net-(J5-Pad1)*%
X182626000Y-90932000D03*
%TD*%
%TO.P,FAN3,1*%
%TO.N,Net-(J6-Pad1)*%
X182626000Y-98552000D03*
D21*
%TO.P,FAN3,2*%
%TO.N,/12V*%
X185166000Y-98552000D03*
%TO.P,FAN3,3*%
%TO.N,/GND*%
X187706000Y-98552000D03*
%TD*%
D22*
%TO.P,R1,1*%
%TO.N,Net-(D1-Pad2)*%
X154940000Y-105410000D03*
D23*
%TO.P,R1,2*%
%TO.N,/PG*%
X162560000Y-105410000D03*
%TD*%
D24*
%TO.N,/GND*%
G36*
X188824001Y-82680494D02*
G01*
X188749228Y-82654852D01*
X188092080Y-83312000D01*
X188749228Y-83969148D01*
X188824001Y-83943506D01*
X188824001Y-90300494D01*
X188749228Y-90274852D01*
X188092080Y-90932000D01*
X188749228Y-91589148D01*
X188824000Y-91563506D01*
X188824000Y-97920494D01*
X188749228Y-97894852D01*
X188092080Y-98552000D01*
X188749228Y-99209148D01*
X188824000Y-99183506D01*
X188824000Y-101448000D01*
X178086419Y-101448000D01*
X178054000Y-101444807D01*
X178021581Y-101448000D01*
X177924617Y-101457550D01*
X177800207Y-101495290D01*
X177685550Y-101556575D01*
X177585052Y-101639052D01*
X177502575Y-101739550D01*
X177441290Y-101854207D01*
X177403550Y-101978617D01*
X177390807Y-102108000D01*
X177394001Y-102140429D01*
X177394001Y-106082264D01*
X177393406Y-106080829D01*
X176918993Y-105370820D01*
X176315180Y-104767007D01*
X175605171Y-104292594D01*
X174816252Y-103965813D01*
X173978739Y-103799221D01*
X173124819Y-103799221D01*
X172287306Y-103965813D01*
X171498387Y-104292594D01*
X170788378Y-104767007D01*
X170184565Y-105370820D01*
X169710152Y-106080829D01*
X169383371Y-106869748D01*
X169216779Y-107707261D01*
X169216779Y-108561181D01*
X169383371Y-109398694D01*
X169710152Y-110187613D01*
X170184565Y-110897622D01*
X170788378Y-111501435D01*
X171498387Y-111975848D01*
X172287306Y-112302629D01*
X173124819Y-112469221D01*
X173978739Y-112469221D01*
X174816252Y-112302629D01*
X175605171Y-111975848D01*
X176315180Y-111501435D01*
X176918993Y-110897622D01*
X177393406Y-110187613D01*
X177394000Y-110186179D01*
X177394000Y-110958489D01*
X164846326Y-122276000D01*
X140952319Y-122276000D01*
X134500754Y-116976500D01*
X143262428Y-116976500D01*
X143262428Y-119751500D01*
X143274688Y-119875982D01*
X143310998Y-119995680D01*
X143369963Y-120105994D01*
X143449315Y-120202685D01*
X143546006Y-120282037D01*
X143656320Y-120341002D01*
X143776018Y-120377312D01*
X143900500Y-120389572D01*
X146675500Y-120389572D01*
X146799982Y-120377312D01*
X146919680Y-120341002D01*
X147029994Y-120282037D01*
X147126685Y-120202685D01*
X147206037Y-120105994D01*
X147265002Y-119995680D01*
X147301312Y-119875982D01*
X147313572Y-119751500D01*
X147313572Y-118164801D01*
X148345500Y-118164801D01*
X148345500Y-118563199D01*
X148423224Y-118953941D01*
X148575684Y-119322013D01*
X148797022Y-119653269D01*
X149078731Y-119934978D01*
X149409987Y-120156316D01*
X149778059Y-120308776D01*
X150168801Y-120386500D01*
X150567199Y-120386500D01*
X150957941Y-120308776D01*
X151326013Y-120156316D01*
X151657269Y-119934978D01*
X151938978Y-119653269D01*
X152160316Y-119322013D01*
X152312776Y-118953941D01*
X152390500Y-118563199D01*
X152390500Y-118164801D01*
X153425500Y-118164801D01*
X153425500Y-118563199D01*
X153503224Y-118953941D01*
X153655684Y-119322013D01*
X153877022Y-119653269D01*
X154158731Y-119934978D01*
X154489987Y-120156316D01*
X154858059Y-120308776D01*
X155248801Y-120386500D01*
X155647199Y-120386500D01*
X156037941Y-120308776D01*
X156406013Y-120156316D01*
X156737269Y-119934978D01*
X156804557Y-119867690D01*
X159410390Y-119867690D01*
X159565141Y-120153717D01*
X159932799Y-120307173D01*
X160323330Y-120385953D01*
X160721726Y-120387031D01*
X161112677Y-120310365D01*
X161481160Y-120158901D01*
X161490859Y-120153717D01*
X161645610Y-119867690D01*
X160528000Y-118750080D01*
X159410390Y-119867690D01*
X156804557Y-119867690D01*
X157018978Y-119653269D01*
X157240316Y-119322013D01*
X157392776Y-118953941D01*
X157470500Y-118563199D01*
X157470500Y-118557726D01*
X158504969Y-118557726D01*
X158581635Y-118948677D01*
X158733099Y-119317160D01*
X158738283Y-119326859D01*
X159024310Y-119481610D01*
X160141920Y-118364000D01*
X160914080Y-118364000D01*
X162031690Y-119481610D01*
X162317717Y-119326859D01*
X162471173Y-118959201D01*
X162549953Y-118568670D01*
X162551031Y-118170274D01*
X162474365Y-117779323D01*
X162322901Y-117410840D01*
X162317717Y-117401141D01*
X162031690Y-117246390D01*
X160914080Y-118364000D01*
X160141920Y-118364000D01*
X159024310Y-117246390D01*
X158738283Y-117401141D01*
X158584827Y-117768799D01*
X158506047Y-118159330D01*
X158504969Y-118557726D01*
X157470500Y-118557726D01*
X157470500Y-118164801D01*
X157392776Y-117774059D01*
X157240316Y-117405987D01*
X157018978Y-117074731D01*
X156804557Y-116860310D01*
X159410390Y-116860310D01*
X160528000Y-117977920D01*
X161645610Y-116860310D01*
X161490859Y-116574283D01*
X161123201Y-116420827D01*
X160732670Y-116342047D01*
X160334274Y-116340969D01*
X159943323Y-116417635D01*
X159574840Y-116569099D01*
X159565141Y-116574283D01*
X159410390Y-116860310D01*
X156804557Y-116860310D01*
X156737269Y-116793022D01*
X156406013Y-116571684D01*
X156037941Y-116419224D01*
X155647199Y-116341500D01*
X155248801Y-116341500D01*
X154858059Y-116419224D01*
X154489987Y-116571684D01*
X154158731Y-116793022D01*
X153877022Y-117074731D01*
X153655684Y-117405987D01*
X153503224Y-117774059D01*
X153425500Y-118164801D01*
X152390500Y-118164801D01*
X152312776Y-117774059D01*
X152160316Y-117405987D01*
X151938978Y-117074731D01*
X151657269Y-116793022D01*
X151326013Y-116571684D01*
X150957941Y-116419224D01*
X150567199Y-116341500D01*
X150168801Y-116341500D01*
X149778059Y-116419224D01*
X149409987Y-116571684D01*
X149078731Y-116793022D01*
X148797022Y-117074731D01*
X148575684Y-117405987D01*
X148423224Y-117774059D01*
X148345500Y-118164801D01*
X147313572Y-118164801D01*
X147313572Y-116976500D01*
X147301312Y-116852018D01*
X147265002Y-116732320D01*
X147206037Y-116622006D01*
X147126685Y-116525315D01*
X147029994Y-116445963D01*
X146919680Y-116386998D01*
X146799982Y-116350688D01*
X146675500Y-116338428D01*
X143900500Y-116338428D01*
X143776018Y-116350688D01*
X143656320Y-116386998D01*
X143546006Y-116445963D01*
X143449315Y-116525315D01*
X143369963Y-116622006D01*
X143310998Y-116732320D01*
X143274688Y-116852018D01*
X143262428Y-116976500D01*
X134500754Y-116976500D01*
X127152000Y-110940025D01*
X127152000Y-110087497D01*
X127222373Y-110257392D01*
X127696786Y-110967401D01*
X128300599Y-111571214D01*
X129010608Y-112045627D01*
X129799527Y-112372408D01*
X130637040Y-112539000D01*
X131490960Y-112539000D01*
X132328473Y-112372408D01*
X133117392Y-112045627D01*
X133827401Y-111571214D01*
X134431214Y-110967401D01*
X134905627Y-110257392D01*
X135232408Y-109468473D01*
X135399000Y-108630960D01*
X135399000Y-107777040D01*
X135232408Y-106939527D01*
X134905627Y-106150608D01*
X134431214Y-105440599D01*
X133827401Y-104836786D01*
X133413162Y-104560000D01*
X142275928Y-104560000D01*
X142275928Y-106260000D01*
X142288188Y-106384482D01*
X142324498Y-106504180D01*
X142383463Y-106614494D01*
X142462815Y-106711185D01*
X142559506Y-106790537D01*
X142669820Y-106849502D01*
X142789518Y-106885812D01*
X142914000Y-106898072D01*
X144614000Y-106898072D01*
X144738482Y-106885812D01*
X144858180Y-106849502D01*
X144968494Y-106790537D01*
X145065185Y-106711185D01*
X145144537Y-106614494D01*
X145203502Y-106504180D01*
X145226658Y-106427846D01*
X145417421Y-106601316D01*
X145666871Y-106751388D01*
X145806015Y-106809012D01*
X146031000Y-106707848D01*
X146031000Y-105683000D01*
X146577000Y-105683000D01*
X146577000Y-106707848D01*
X146801985Y-106809012D01*
X146941129Y-106751388D01*
X147190579Y-106601316D01*
X147405958Y-106405462D01*
X147476514Y-106310000D01*
X148067928Y-106310000D01*
X148080188Y-106434482D01*
X148116498Y-106554180D01*
X148175463Y-106664494D01*
X148254815Y-106761185D01*
X148351506Y-106840537D01*
X148461820Y-106899502D01*
X148581518Y-106935812D01*
X148706000Y-106948072D01*
X149174250Y-106945000D01*
X149333000Y-106786250D01*
X149333000Y-105683000D01*
X148229750Y-105683000D01*
X148071000Y-105841750D01*
X148067928Y-106310000D01*
X147476514Y-106310000D01*
X147578989Y-106171353D01*
X147703023Y-105907986D01*
X147604951Y-105683000D01*
X146577000Y-105683000D01*
X146031000Y-105683000D01*
X146011000Y-105683000D01*
X146011000Y-105137000D01*
X146031000Y-105137000D01*
X146031000Y-104112152D01*
X146577000Y-104112152D01*
X146577000Y-105137000D01*
X147604951Y-105137000D01*
X147703023Y-104912014D01*
X147578989Y-104648647D01*
X147476515Y-104510000D01*
X148067928Y-104510000D01*
X148071000Y-104978250D01*
X148229750Y-105137000D01*
X149333000Y-105137000D01*
X149333000Y-104033750D01*
X149879000Y-104033750D01*
X149879000Y-105137000D01*
X149899000Y-105137000D01*
X149899000Y-105683000D01*
X149879000Y-105683000D01*
X149879000Y-106786250D01*
X150037750Y-106945000D01*
X150506000Y-106948072D01*
X150630482Y-106935812D01*
X150750180Y-106899502D01*
X150860494Y-106840537D01*
X150957185Y-106761185D01*
X151036537Y-106664494D01*
X151095502Y-106554180D01*
X151101056Y-106535873D01*
X151167495Y-106602312D01*
X151418905Y-106770299D01*
X151698257Y-106886011D01*
X151994816Y-106945000D01*
X152297184Y-106945000D01*
X152593743Y-106886011D01*
X152873095Y-106770299D01*
X153124505Y-106602312D01*
X153338312Y-106388505D01*
X153506299Y-106137095D01*
X153597120Y-105917835D01*
X153668320Y-106089727D01*
X153825363Y-106324759D01*
X154025241Y-106524637D01*
X154260273Y-106681680D01*
X154521426Y-106789853D01*
X154798665Y-106845000D01*
X155081335Y-106845000D01*
X155358574Y-106789853D01*
X155619727Y-106681680D01*
X155854759Y-106524637D01*
X156054637Y-106324759D01*
X156211680Y-106089727D01*
X156319853Y-105828574D01*
X156375000Y-105551335D01*
X156375000Y-105268665D01*
X161125000Y-105268665D01*
X161125000Y-105551335D01*
X161180147Y-105828574D01*
X161288320Y-106089727D01*
X161445363Y-106324759D01*
X161645241Y-106524637D01*
X161880273Y-106681680D01*
X162141426Y-106789853D01*
X162418665Y-106845000D01*
X162701335Y-106845000D01*
X162978574Y-106789853D01*
X163239727Y-106681680D01*
X163474759Y-106524637D01*
X163674637Y-106324759D01*
X163831680Y-106089727D01*
X163939853Y-105828574D01*
X163995000Y-105551335D01*
X163995000Y-105268665D01*
X163939853Y-104991426D01*
X163831680Y-104730273D01*
X163674637Y-104495241D01*
X163474759Y-104295363D01*
X163239727Y-104138320D01*
X162978574Y-104030147D01*
X162701335Y-103975000D01*
X162418665Y-103975000D01*
X162141426Y-104030147D01*
X161880273Y-104138320D01*
X161645241Y-104295363D01*
X161445363Y-104495241D01*
X161288320Y-104730273D01*
X161180147Y-104991426D01*
X161125000Y-105268665D01*
X156375000Y-105268665D01*
X156319853Y-104991426D01*
X156211680Y-104730273D01*
X156054637Y-104495241D01*
X155854759Y-104295363D01*
X155619727Y-104138320D01*
X155358574Y-104030147D01*
X155081335Y-103975000D01*
X154798665Y-103975000D01*
X154521426Y-104030147D01*
X154260273Y-104138320D01*
X154025241Y-104295363D01*
X153825363Y-104495241D01*
X153668320Y-104730273D01*
X153597120Y-104902165D01*
X153506299Y-104682905D01*
X153338312Y-104431495D01*
X153124505Y-104217688D01*
X152873095Y-104049701D01*
X152593743Y-103933989D01*
X152297184Y-103875000D01*
X151994816Y-103875000D01*
X151698257Y-103933989D01*
X151418905Y-104049701D01*
X151167495Y-104217688D01*
X151101056Y-104284127D01*
X151095502Y-104265820D01*
X151036537Y-104155506D01*
X150957185Y-104058815D01*
X150860494Y-103979463D01*
X150750180Y-103920498D01*
X150630482Y-103884188D01*
X150506000Y-103871928D01*
X150037750Y-103875000D01*
X149879000Y-104033750D01*
X149333000Y-104033750D01*
X149174250Y-103875000D01*
X148706000Y-103871928D01*
X148581518Y-103884188D01*
X148461820Y-103920498D01*
X148351506Y-103979463D01*
X148254815Y-104058815D01*
X148175463Y-104155506D01*
X148116498Y-104265820D01*
X148080188Y-104385518D01*
X148067928Y-104510000D01*
X147476515Y-104510000D01*
X147405958Y-104414538D01*
X147190579Y-104218684D01*
X146941129Y-104068612D01*
X146801985Y-104010988D01*
X146577000Y-104112152D01*
X146031000Y-104112152D01*
X145806015Y-104010988D01*
X145666871Y-104068612D01*
X145417421Y-104218684D01*
X145226658Y-104392154D01*
X145203502Y-104315820D01*
X145144537Y-104205506D01*
X145065185Y-104108815D01*
X144968494Y-104029463D01*
X144858180Y-103970498D01*
X144738482Y-103934188D01*
X144614000Y-103921928D01*
X142914000Y-103921928D01*
X142789518Y-103934188D01*
X142669820Y-103970498D01*
X142559506Y-104029463D01*
X142462815Y-104108815D01*
X142383463Y-104205506D01*
X142324498Y-104315820D01*
X142288188Y-104435518D01*
X142275928Y-104560000D01*
X133413162Y-104560000D01*
X133117392Y-104362373D01*
X132328473Y-104035592D01*
X131490960Y-103869000D01*
X130637040Y-103869000D01*
X129799527Y-104035592D01*
X129010608Y-104362373D01*
X128300599Y-104836786D01*
X127696786Y-105440599D01*
X127222373Y-106150608D01*
X127152000Y-106320503D01*
X127152000Y-99311580D01*
X127830000Y-99311580D01*
X127830000Y-99648420D01*
X127895714Y-99978789D01*
X128024618Y-100289989D01*
X128211756Y-100570061D01*
X128449939Y-100808244D01*
X128730011Y-100995382D01*
X129041211Y-101124286D01*
X129371580Y-101190000D01*
X129708420Y-101190000D01*
X130038789Y-101124286D01*
X130349989Y-100995382D01*
X130630061Y-100808244D01*
X130868244Y-100570061D01*
X131055382Y-100289989D01*
X131184286Y-99978789D01*
X131250000Y-99648420D01*
X131250000Y-99311580D01*
X132030000Y-99311580D01*
X132030000Y-99648420D01*
X132095714Y-99978789D01*
X132224618Y-100289989D01*
X132411756Y-100570061D01*
X132649939Y-100808244D01*
X132930011Y-100995382D01*
X133241211Y-101124286D01*
X133571580Y-101190000D01*
X133908420Y-101190000D01*
X134238789Y-101124286D01*
X134549989Y-100995382D01*
X134830061Y-100808244D01*
X134879543Y-100758762D01*
X137047318Y-100758762D01*
X137163715Y-101012921D01*
X137477689Y-101134912D01*
X137809429Y-101193306D01*
X138146187Y-101185859D01*
X138475022Y-101112857D01*
X138716285Y-101012921D01*
X138832682Y-100758762D01*
X137940000Y-99866080D01*
X137047318Y-100758762D01*
X134879543Y-100758762D01*
X135068244Y-100570061D01*
X135255382Y-100289989D01*
X135384286Y-99978789D01*
X135450000Y-99648420D01*
X135450000Y-99349429D01*
X136226694Y-99349429D01*
X136234141Y-99686187D01*
X136307143Y-100015022D01*
X136407079Y-100256285D01*
X136661238Y-100372682D01*
X137553920Y-99480000D01*
X138326080Y-99480000D01*
X139218762Y-100372682D01*
X139472921Y-100256285D01*
X139594912Y-99942311D01*
X139653306Y-99610571D01*
X139646695Y-99311580D01*
X140430000Y-99311580D01*
X140430000Y-99648420D01*
X140495714Y-99978789D01*
X140624618Y-100289989D01*
X140811756Y-100570061D01*
X141049939Y-100808244D01*
X141330011Y-100995382D01*
X141641211Y-101124286D01*
X141971580Y-101190000D01*
X142308420Y-101190000D01*
X142638789Y-101124286D01*
X142949989Y-100995382D01*
X143230061Y-100808244D01*
X143279543Y-100758762D01*
X145447318Y-100758762D01*
X145563715Y-101012921D01*
X145877689Y-101134912D01*
X146209429Y-101193306D01*
X146546187Y-101185859D01*
X146875022Y-101112857D01*
X147116285Y-101012921D01*
X147232682Y-100758762D01*
X149647318Y-100758762D01*
X149763715Y-101012921D01*
X150077689Y-101134912D01*
X150409429Y-101193306D01*
X150746187Y-101185859D01*
X151075022Y-101112857D01*
X151316285Y-101012921D01*
X151432682Y-100758762D01*
X153847318Y-100758762D01*
X153963715Y-101012921D01*
X154277689Y-101134912D01*
X154609429Y-101193306D01*
X154946187Y-101185859D01*
X155275022Y-101112857D01*
X155516285Y-101012921D01*
X155632682Y-100758762D01*
X154740000Y-99866080D01*
X153847318Y-100758762D01*
X151432682Y-100758762D01*
X150540000Y-99866080D01*
X149647318Y-100758762D01*
X147232682Y-100758762D01*
X146340000Y-99866080D01*
X145447318Y-100758762D01*
X143279543Y-100758762D01*
X143468244Y-100570061D01*
X143655382Y-100289989D01*
X143784286Y-99978789D01*
X143850000Y-99648420D01*
X143850000Y-99349429D01*
X144626694Y-99349429D01*
X144634141Y-99686187D01*
X144707143Y-100015022D01*
X144807079Y-100256285D01*
X145061238Y-100372682D01*
X145953920Y-99480000D01*
X146726080Y-99480000D01*
X147618762Y-100372682D01*
X147872921Y-100256285D01*
X147994912Y-99942311D01*
X148053306Y-99610571D01*
X148047532Y-99349429D01*
X148826694Y-99349429D01*
X148834141Y-99686187D01*
X148907143Y-100015022D01*
X149007079Y-100256285D01*
X149261238Y-100372682D01*
X150153920Y-99480000D01*
X150926080Y-99480000D01*
X151818762Y-100372682D01*
X152072921Y-100256285D01*
X152194912Y-99942311D01*
X152253306Y-99610571D01*
X152247532Y-99349429D01*
X153026694Y-99349429D01*
X153034141Y-99686187D01*
X153107143Y-100015022D01*
X153207079Y-100256285D01*
X153461238Y-100372682D01*
X154353920Y-99480000D01*
X155126080Y-99480000D01*
X156018762Y-100372682D01*
X156272921Y-100256285D01*
X156394912Y-99942311D01*
X156453306Y-99610571D01*
X156446695Y-99311580D01*
X157230000Y-99311580D01*
X157230000Y-99648420D01*
X157295714Y-99978789D01*
X157424618Y-100289989D01*
X157611756Y-100570061D01*
X157849939Y-100808244D01*
X158130011Y-100995382D01*
X158441211Y-101124286D01*
X158771580Y-101190000D01*
X159108420Y-101190000D01*
X159438789Y-101124286D01*
X159749989Y-100995382D01*
X160030061Y-100808244D01*
X160268244Y-100570061D01*
X160455382Y-100289989D01*
X160584286Y-99978789D01*
X160650000Y-99648420D01*
X160650000Y-99311580D01*
X161430000Y-99311580D01*
X161430000Y-99648420D01*
X161495714Y-99978789D01*
X161624618Y-100289989D01*
X161811756Y-100570061D01*
X162049939Y-100808244D01*
X162330011Y-100995382D01*
X162641211Y-101124286D01*
X162971580Y-101190000D01*
X163308420Y-101190000D01*
X163638789Y-101124286D01*
X163949989Y-100995382D01*
X164230061Y-100808244D01*
X164468244Y-100570061D01*
X164655382Y-100289989D01*
X164784286Y-99978789D01*
X164850000Y-99648420D01*
X164850000Y-99311580D01*
X165630000Y-99311580D01*
X165630000Y-99648420D01*
X165695714Y-99978789D01*
X165824618Y-100289989D01*
X166011756Y-100570061D01*
X166249939Y-100808244D01*
X166530011Y-100995382D01*
X166841211Y-101124286D01*
X167171580Y-101190000D01*
X167508420Y-101190000D01*
X167838789Y-101124286D01*
X168149989Y-100995382D01*
X168430061Y-100808244D01*
X168668244Y-100570061D01*
X168855382Y-100289989D01*
X168984286Y-99978789D01*
X169050000Y-99648420D01*
X169050000Y-99311580D01*
X169830000Y-99311580D01*
X169830000Y-99648420D01*
X169895714Y-99978789D01*
X170024618Y-100289989D01*
X170211756Y-100570061D01*
X170449939Y-100808244D01*
X170730011Y-100995382D01*
X171041211Y-101124286D01*
X171371580Y-101190000D01*
X171708420Y-101190000D01*
X172038789Y-101124286D01*
X172349989Y-100995382D01*
X172630061Y-100808244D01*
X172679543Y-100758762D01*
X174847318Y-100758762D01*
X174963715Y-101012921D01*
X175277689Y-101134912D01*
X175609429Y-101193306D01*
X175946187Y-101185859D01*
X176275022Y-101112857D01*
X176516285Y-101012921D01*
X176632682Y-100758762D01*
X175740000Y-99866080D01*
X174847318Y-100758762D01*
X172679543Y-100758762D01*
X172868244Y-100570061D01*
X173055382Y-100289989D01*
X173184286Y-99978789D01*
X173250000Y-99648420D01*
X173250000Y-99349429D01*
X174026694Y-99349429D01*
X174034141Y-99686187D01*
X174107143Y-100015022D01*
X174207079Y-100256285D01*
X174461238Y-100372682D01*
X175353920Y-99480000D01*
X176126080Y-99480000D01*
X177018762Y-100372682D01*
X177272921Y-100256285D01*
X177394912Y-99942311D01*
X177453306Y-99610571D01*
X177445859Y-99273813D01*
X177372857Y-98944978D01*
X177272921Y-98703715D01*
X177018762Y-98587318D01*
X176126080Y-99480000D01*
X175353920Y-99480000D01*
X174461238Y-98587318D01*
X174207079Y-98703715D01*
X174085088Y-99017689D01*
X174026694Y-99349429D01*
X173250000Y-99349429D01*
X173250000Y-99311580D01*
X173184286Y-98981211D01*
X173055382Y-98670011D01*
X172868244Y-98389939D01*
X172679543Y-98201238D01*
X174847318Y-98201238D01*
X175740000Y-99093920D01*
X176632682Y-98201238D01*
X176516285Y-97947079D01*
X176202311Y-97825088D01*
X176071147Y-97802000D01*
X181237928Y-97802000D01*
X181237928Y-99302000D01*
X181250188Y-99426482D01*
X181286498Y-99546180D01*
X181345463Y-99656494D01*
X181424815Y-99753185D01*
X181521506Y-99832537D01*
X181631820Y-99891502D01*
X181751518Y-99927812D01*
X181876000Y-99940072D01*
X183376000Y-99940072D01*
X183500482Y-99927812D01*
X183620180Y-99891502D01*
X183730494Y-99832537D01*
X183827185Y-99753185D01*
X183906537Y-99656494D01*
X183965502Y-99546180D01*
X184001812Y-99426482D01*
X184012445Y-99318517D01*
X184090201Y-99434886D01*
X184283114Y-99627799D01*
X184509957Y-99779371D01*
X184762011Y-99883775D01*
X185029589Y-99937000D01*
X185302411Y-99937000D01*
X185569989Y-99883775D01*
X185822043Y-99779371D01*
X186048886Y-99627799D01*
X186081457Y-99595228D01*
X187048852Y-99595228D01*
X187124733Y-99816500D01*
X187382594Y-99905602D01*
X187652884Y-99942687D01*
X187925214Y-99926328D01*
X188189119Y-99857154D01*
X188287267Y-99816500D01*
X188363148Y-99595228D01*
X187706000Y-98938080D01*
X187048852Y-99595228D01*
X186081457Y-99595228D01*
X186241799Y-99434886D01*
X186393371Y-99208043D01*
X186432922Y-99112558D01*
X186441500Y-99133267D01*
X186662772Y-99209148D01*
X187319920Y-98552000D01*
X186662772Y-97894852D01*
X186441500Y-97970733D01*
X186433697Y-97993314D01*
X186393371Y-97895957D01*
X186241799Y-97669114D01*
X186081457Y-97508772D01*
X187048852Y-97508772D01*
X187706000Y-98165920D01*
X188363148Y-97508772D01*
X188287267Y-97287500D01*
X188029406Y-97198398D01*
X187759116Y-97161313D01*
X187486786Y-97177672D01*
X187222881Y-97246846D01*
X187124733Y-97287500D01*
X187048852Y-97508772D01*
X186081457Y-97508772D01*
X186048886Y-97476201D01*
X185822043Y-97324629D01*
X185569989Y-97220225D01*
X185302411Y-97167000D01*
X185029589Y-97167000D01*
X184762011Y-97220225D01*
X184509957Y-97324629D01*
X184283114Y-97476201D01*
X184090201Y-97669114D01*
X184012445Y-97785483D01*
X184001812Y-97677518D01*
X183965502Y-97557820D01*
X183906537Y-97447506D01*
X183827185Y-97350815D01*
X183730494Y-97271463D01*
X183620180Y-97212498D01*
X183500482Y-97176188D01*
X183376000Y-97163928D01*
X181876000Y-97163928D01*
X181751518Y-97176188D01*
X181631820Y-97212498D01*
X181521506Y-97271463D01*
X181424815Y-97350815D01*
X181345463Y-97447506D01*
X181286498Y-97557820D01*
X181250188Y-97677518D01*
X181237928Y-97802000D01*
X176071147Y-97802000D01*
X175870571Y-97766694D01*
X175533813Y-97774141D01*
X175204978Y-97847143D01*
X174963715Y-97947079D01*
X174847318Y-98201238D01*
X172679543Y-98201238D01*
X172630061Y-98151756D01*
X172349989Y-97964618D01*
X172038789Y-97835714D01*
X171708420Y-97770000D01*
X171371580Y-97770000D01*
X171041211Y-97835714D01*
X170730011Y-97964618D01*
X170449939Y-98151756D01*
X170211756Y-98389939D01*
X170024618Y-98670011D01*
X169895714Y-98981211D01*
X169830000Y-99311580D01*
X169050000Y-99311580D01*
X168984286Y-98981211D01*
X168855382Y-98670011D01*
X168668244Y-98389939D01*
X168430061Y-98151756D01*
X168149989Y-97964618D01*
X167838789Y-97835714D01*
X167508420Y-97770000D01*
X167171580Y-97770000D01*
X166841211Y-97835714D01*
X166530011Y-97964618D01*
X166249939Y-98151756D01*
X166011756Y-98389939D01*
X165824618Y-98670011D01*
X165695714Y-98981211D01*
X165630000Y-99311580D01*
X164850000Y-99311580D01*
X164784286Y-98981211D01*
X164655382Y-98670011D01*
X164468244Y-98389939D01*
X164230061Y-98151756D01*
X163949989Y-97964618D01*
X163638789Y-97835714D01*
X163308420Y-97770000D01*
X162971580Y-97770000D01*
X162641211Y-97835714D01*
X162330011Y-97964618D01*
X162049939Y-98151756D01*
X161811756Y-98389939D01*
X161624618Y-98670011D01*
X161495714Y-98981211D01*
X161430000Y-99311580D01*
X160650000Y-99311580D01*
X160584286Y-98981211D01*
X160455382Y-98670011D01*
X160268244Y-98389939D01*
X160030061Y-98151756D01*
X159749989Y-97964618D01*
X159438789Y-97835714D01*
X159108420Y-97770000D01*
X158771580Y-97770000D01*
X158441211Y-97835714D01*
X158130011Y-97964618D01*
X157849939Y-98151756D01*
X157611756Y-98389939D01*
X157424618Y-98670011D01*
X157295714Y-98981211D01*
X157230000Y-99311580D01*
X156446695Y-99311580D01*
X156445859Y-99273813D01*
X156372857Y-98944978D01*
X156272921Y-98703715D01*
X156018762Y-98587318D01*
X155126080Y-99480000D01*
X154353920Y-99480000D01*
X153461238Y-98587318D01*
X153207079Y-98703715D01*
X153085088Y-99017689D01*
X153026694Y-99349429D01*
X152247532Y-99349429D01*
X152245859Y-99273813D01*
X152172857Y-98944978D01*
X152072921Y-98703715D01*
X151818762Y-98587318D01*
X150926080Y-99480000D01*
X150153920Y-99480000D01*
X149261238Y-98587318D01*
X149007079Y-98703715D01*
X148885088Y-99017689D01*
X148826694Y-99349429D01*
X148047532Y-99349429D01*
X148045859Y-99273813D01*
X147972857Y-98944978D01*
X147872921Y-98703715D01*
X147618762Y-98587318D01*
X146726080Y-99480000D01*
X145953920Y-99480000D01*
X145061238Y-98587318D01*
X144807079Y-98703715D01*
X144685088Y-99017689D01*
X144626694Y-99349429D01*
X143850000Y-99349429D01*
X143850000Y-99311580D01*
X143784286Y-98981211D01*
X143655382Y-98670011D01*
X143468244Y-98389939D01*
X143279543Y-98201238D01*
X145447318Y-98201238D01*
X146340000Y-99093920D01*
X147232682Y-98201238D01*
X149647318Y-98201238D01*
X150540000Y-99093920D01*
X151432682Y-98201238D01*
X153847318Y-98201238D01*
X154740000Y-99093920D01*
X155632682Y-98201238D01*
X155516285Y-97947079D01*
X155202311Y-97825088D01*
X154870571Y-97766694D01*
X154533813Y-97774141D01*
X154204978Y-97847143D01*
X153963715Y-97947079D01*
X153847318Y-98201238D01*
X151432682Y-98201238D01*
X151316285Y-97947079D01*
X151002311Y-97825088D01*
X150670571Y-97766694D01*
X150333813Y-97774141D01*
X150004978Y-97847143D01*
X149763715Y-97947079D01*
X149647318Y-98201238D01*
X147232682Y-98201238D01*
X147116285Y-97947079D01*
X146802311Y-97825088D01*
X146470571Y-97766694D01*
X146133813Y-97774141D01*
X145804978Y-97847143D01*
X145563715Y-97947079D01*
X145447318Y-98201238D01*
X143279543Y-98201238D01*
X143230061Y-98151756D01*
X142949989Y-97964618D01*
X142638789Y-97835714D01*
X142308420Y-97770000D01*
X141971580Y-97770000D01*
X141641211Y-97835714D01*
X141330011Y-97964618D01*
X141049939Y-98151756D01*
X140811756Y-98389939D01*
X140624618Y-98670011D01*
X140495714Y-98981211D01*
X140430000Y-99311580D01*
X139646695Y-99311580D01*
X139645859Y-99273813D01*
X139572857Y-98944978D01*
X139472921Y-98703715D01*
X139218762Y-98587318D01*
X138326080Y-99480000D01*
X137553920Y-99480000D01*
X136661238Y-98587318D01*
X136407079Y-98703715D01*
X136285088Y-99017689D01*
X136226694Y-99349429D01*
X135450000Y-99349429D01*
X135450000Y-99311580D01*
X135384286Y-98981211D01*
X135255382Y-98670011D01*
X135068244Y-98389939D01*
X134879543Y-98201238D01*
X137047318Y-98201238D01*
X137940000Y-99093920D01*
X138832682Y-98201238D01*
X138716285Y-97947079D01*
X138402311Y-97825088D01*
X138070571Y-97766694D01*
X137733813Y-97774141D01*
X137404978Y-97847143D01*
X137163715Y-97947079D01*
X137047318Y-98201238D01*
X134879543Y-98201238D01*
X134830061Y-98151756D01*
X134549989Y-97964618D01*
X134238789Y-97835714D01*
X133908420Y-97770000D01*
X133571580Y-97770000D01*
X133241211Y-97835714D01*
X132930011Y-97964618D01*
X132649939Y-98151756D01*
X132411756Y-98389939D01*
X132224618Y-98670011D01*
X132095714Y-98981211D01*
X132030000Y-99311580D01*
X131250000Y-99311580D01*
X131184286Y-98981211D01*
X131055382Y-98670011D01*
X130868244Y-98389939D01*
X130630061Y-98151756D01*
X130349989Y-97964618D01*
X130038789Y-97835714D01*
X129708420Y-97770000D01*
X129371580Y-97770000D01*
X129041211Y-97835714D01*
X128730011Y-97964618D01*
X128449939Y-98151756D01*
X128211756Y-98389939D01*
X128024618Y-98670011D01*
X127895714Y-98981211D01*
X127830000Y-99311580D01*
X127152000Y-99311580D01*
X127152000Y-92905000D01*
X127826928Y-92905000D01*
X127826928Y-95055000D01*
X127839188Y-95179482D01*
X127875498Y-95299180D01*
X127934463Y-95409494D01*
X128013815Y-95506185D01*
X128110506Y-95585537D01*
X128220820Y-95644502D01*
X128340518Y-95680812D01*
X128465000Y-95693072D01*
X130615000Y-95693072D01*
X130739482Y-95680812D01*
X130859180Y-95644502D01*
X130969494Y-95585537D01*
X131066185Y-95506185D01*
X131145537Y-95409494D01*
X131204502Y-95299180D01*
X131240812Y-95179482D01*
X131253072Y-95055000D01*
X131253072Y-93811580D01*
X132030000Y-93811580D01*
X132030000Y-94148420D01*
X132095714Y-94478789D01*
X132224618Y-94789989D01*
X132411756Y-95070061D01*
X132649939Y-95308244D01*
X132930011Y-95495382D01*
X133241211Y-95624286D01*
X133571580Y-95690000D01*
X133908420Y-95690000D01*
X134238789Y-95624286D01*
X134549989Y-95495382D01*
X134830061Y-95308244D01*
X134879543Y-95258762D01*
X137047318Y-95258762D01*
X137163715Y-95512921D01*
X137477689Y-95634912D01*
X137809429Y-95693306D01*
X138146187Y-95685859D01*
X138475022Y-95612857D01*
X138716285Y-95512921D01*
X138832682Y-95258762D01*
X137940000Y-94366080D01*
X137047318Y-95258762D01*
X134879543Y-95258762D01*
X135068244Y-95070061D01*
X135255382Y-94789989D01*
X135384286Y-94478789D01*
X135450000Y-94148420D01*
X135450000Y-93849429D01*
X136226694Y-93849429D01*
X136234141Y-94186187D01*
X136307143Y-94515022D01*
X136407079Y-94756285D01*
X136661238Y-94872682D01*
X137553920Y-93980000D01*
X138326080Y-93980000D01*
X139218762Y-94872682D01*
X139472921Y-94756285D01*
X139594912Y-94442311D01*
X139653306Y-94110571D01*
X139646695Y-93811580D01*
X140430000Y-93811580D01*
X140430000Y-94148420D01*
X140495714Y-94478789D01*
X140624618Y-94789989D01*
X140811756Y-95070061D01*
X141049939Y-95308244D01*
X141330011Y-95495382D01*
X141641211Y-95624286D01*
X141971580Y-95690000D01*
X142308420Y-95690000D01*
X142638789Y-95624286D01*
X142949989Y-95495382D01*
X143230061Y-95308244D01*
X143279543Y-95258762D01*
X145447318Y-95258762D01*
X145563715Y-95512921D01*
X145877689Y-95634912D01*
X146209429Y-95693306D01*
X146546187Y-95685859D01*
X146875022Y-95612857D01*
X147116285Y-95512921D01*
X147232682Y-95258762D01*
X146340000Y-94366080D01*
X145447318Y-95258762D01*
X143279543Y-95258762D01*
X143468244Y-95070061D01*
X143655382Y-94789989D01*
X143784286Y-94478789D01*
X143850000Y-94148420D01*
X143850000Y-93849429D01*
X144626694Y-93849429D01*
X144634141Y-94186187D01*
X144707143Y-94515022D01*
X144807079Y-94756285D01*
X145061238Y-94872682D01*
X145953920Y-93980000D01*
X146726080Y-93980000D01*
X147618762Y-94872682D01*
X147872921Y-94756285D01*
X147994912Y-94442311D01*
X148053306Y-94110571D01*
X148046695Y-93811580D01*
X148830000Y-93811580D01*
X148830000Y-94148420D01*
X148895714Y-94478789D01*
X149024618Y-94789989D01*
X149211756Y-95070061D01*
X149449939Y-95308244D01*
X149730011Y-95495382D01*
X150041211Y-95624286D01*
X150371580Y-95690000D01*
X150708420Y-95690000D01*
X151038789Y-95624286D01*
X151349989Y-95495382D01*
X151630061Y-95308244D01*
X151679543Y-95258762D01*
X153847318Y-95258762D01*
X153963715Y-95512921D01*
X154277689Y-95634912D01*
X154609429Y-95693306D01*
X154946187Y-95685859D01*
X155275022Y-95612857D01*
X155516285Y-95512921D01*
X155632682Y-95258762D01*
X154740000Y-94366080D01*
X153847318Y-95258762D01*
X151679543Y-95258762D01*
X151868244Y-95070061D01*
X152055382Y-94789989D01*
X152184286Y-94478789D01*
X152250000Y-94148420D01*
X152250000Y-93849429D01*
X153026694Y-93849429D01*
X153034141Y-94186187D01*
X153107143Y-94515022D01*
X153207079Y-94756285D01*
X153461238Y-94872682D01*
X154353920Y-93980000D01*
X155126080Y-93980000D01*
X156018762Y-94872682D01*
X156272921Y-94756285D01*
X156394912Y-94442311D01*
X156453306Y-94110571D01*
X156446695Y-93811580D01*
X157230000Y-93811580D01*
X157230000Y-94148420D01*
X157295714Y-94478789D01*
X157424618Y-94789989D01*
X157611756Y-95070061D01*
X157849939Y-95308244D01*
X158130011Y-95495382D01*
X158441211Y-95624286D01*
X158771580Y-95690000D01*
X159108420Y-95690000D01*
X159438789Y-95624286D01*
X159749989Y-95495382D01*
X160030061Y-95308244D01*
X160268244Y-95070061D01*
X160455382Y-94789989D01*
X160584286Y-94478789D01*
X160650000Y-94148420D01*
X160650000Y-93811580D01*
X161430000Y-93811580D01*
X161430000Y-94148420D01*
X161495714Y-94478789D01*
X161624618Y-94789989D01*
X161811756Y-95070061D01*
X162049939Y-95308244D01*
X162330011Y-95495382D01*
X162641211Y-95624286D01*
X162971580Y-95690000D01*
X163308420Y-95690000D01*
X163638789Y-95624286D01*
X163949989Y-95495382D01*
X164230061Y-95308244D01*
X164468244Y-95070061D01*
X164655382Y-94789989D01*
X164784286Y-94478789D01*
X164850000Y-94148420D01*
X164850000Y-93811580D01*
X165630000Y-93811580D01*
X165630000Y-94148420D01*
X165695714Y-94478789D01*
X165824618Y-94789989D01*
X166011756Y-95070061D01*
X166249939Y-95308244D01*
X166530011Y-95495382D01*
X166841211Y-95624286D01*
X167171580Y-95690000D01*
X167508420Y-95690000D01*
X167838789Y-95624286D01*
X168149989Y-95495382D01*
X168430061Y-95308244D01*
X168668244Y-95070061D01*
X168855382Y-94789989D01*
X168984286Y-94478789D01*
X169050000Y-94148420D01*
X169050000Y-93811580D01*
X169830000Y-93811580D01*
X169830000Y-94148420D01*
X169895714Y-94478789D01*
X170024618Y-94789989D01*
X170211756Y-95070061D01*
X170449939Y-95308244D01*
X170730011Y-95495382D01*
X171041211Y-95624286D01*
X171371580Y-95690000D01*
X171708420Y-95690000D01*
X172038789Y-95624286D01*
X172349989Y-95495382D01*
X172630061Y-95308244D01*
X172868244Y-95070061D01*
X173055382Y-94789989D01*
X173184286Y-94478789D01*
X173250000Y-94148420D01*
X173250000Y-93811580D01*
X174030000Y-93811580D01*
X174030000Y-94148420D01*
X174095714Y-94478789D01*
X174224618Y-94789989D01*
X174411756Y-95070061D01*
X174649939Y-95308244D01*
X174930011Y-95495382D01*
X175241211Y-95624286D01*
X175571580Y-95690000D01*
X175908420Y-95690000D01*
X176238789Y-95624286D01*
X176549989Y-95495382D01*
X176830061Y-95308244D01*
X177068244Y-95070061D01*
X177255382Y-94789989D01*
X177384286Y-94478789D01*
X177450000Y-94148420D01*
X177450000Y-93811580D01*
X177384286Y-93481211D01*
X177255382Y-93170011D01*
X177068244Y-92889939D01*
X176830061Y-92651756D01*
X176549989Y-92464618D01*
X176238789Y-92335714D01*
X175908420Y-92270000D01*
X175571580Y-92270000D01*
X175241211Y-92335714D01*
X174930011Y-92464618D01*
X174649939Y-92651756D01*
X174411756Y-92889939D01*
X174224618Y-93170011D01*
X174095714Y-93481211D01*
X174030000Y-93811580D01*
X173250000Y-93811580D01*
X173184286Y-93481211D01*
X173055382Y-93170011D01*
X172868244Y-92889939D01*
X172630061Y-92651756D01*
X172349989Y-92464618D01*
X172038789Y-92335714D01*
X171708420Y-92270000D01*
X171371580Y-92270000D01*
X171041211Y-92335714D01*
X170730011Y-92464618D01*
X170449939Y-92651756D01*
X170211756Y-92889939D01*
X170024618Y-93170011D01*
X169895714Y-93481211D01*
X169830000Y-93811580D01*
X169050000Y-93811580D01*
X168984286Y-93481211D01*
X168855382Y-93170011D01*
X168668244Y-92889939D01*
X168430061Y-92651756D01*
X168149989Y-92464618D01*
X167838789Y-92335714D01*
X167508420Y-92270000D01*
X167171580Y-92270000D01*
X166841211Y-92335714D01*
X166530011Y-92464618D01*
X166249939Y-92651756D01*
X166011756Y-92889939D01*
X165824618Y-93170011D01*
X165695714Y-93481211D01*
X165630000Y-93811580D01*
X164850000Y-93811580D01*
X164784286Y-93481211D01*
X164655382Y-93170011D01*
X164468244Y-92889939D01*
X164230061Y-92651756D01*
X163949989Y-92464618D01*
X163638789Y-92335714D01*
X163308420Y-92270000D01*
X162971580Y-92270000D01*
X162641211Y-92335714D01*
X162330011Y-92464618D01*
X162049939Y-92651756D01*
X161811756Y-92889939D01*
X161624618Y-93170011D01*
X161495714Y-93481211D01*
X161430000Y-93811580D01*
X160650000Y-93811580D01*
X160584286Y-93481211D01*
X160455382Y-93170011D01*
X160268244Y-92889939D01*
X160030061Y-92651756D01*
X159749989Y-92464618D01*
X159438789Y-92335714D01*
X159108420Y-92270000D01*
X158771580Y-92270000D01*
X158441211Y-92335714D01*
X158130011Y-92464618D01*
X157849939Y-92651756D01*
X157611756Y-92889939D01*
X157424618Y-93170011D01*
X157295714Y-93481211D01*
X157230000Y-93811580D01*
X156446695Y-93811580D01*
X156445859Y-93773813D01*
X156372857Y-93444978D01*
X156272921Y-93203715D01*
X156018762Y-93087318D01*
X155126080Y-93980000D01*
X154353920Y-93980000D01*
X153461238Y-93087318D01*
X153207079Y-93203715D01*
X153085088Y-93517689D01*
X153026694Y-93849429D01*
X152250000Y-93849429D01*
X152250000Y-93811580D01*
X152184286Y-93481211D01*
X152055382Y-93170011D01*
X151868244Y-92889939D01*
X151679543Y-92701238D01*
X153847318Y-92701238D01*
X154740000Y-93593920D01*
X155632682Y-92701238D01*
X155516285Y-92447079D01*
X155202311Y-92325088D01*
X154870571Y-92266694D01*
X154533813Y-92274141D01*
X154204978Y-92347143D01*
X153963715Y-92447079D01*
X153847318Y-92701238D01*
X151679543Y-92701238D01*
X151630061Y-92651756D01*
X151349989Y-92464618D01*
X151038789Y-92335714D01*
X150708420Y-92270000D01*
X150371580Y-92270000D01*
X150041211Y-92335714D01*
X149730011Y-92464618D01*
X149449939Y-92651756D01*
X149211756Y-92889939D01*
X149024618Y-93170011D01*
X148895714Y-93481211D01*
X148830000Y-93811580D01*
X148046695Y-93811580D01*
X148045859Y-93773813D01*
X147972857Y-93444978D01*
X147872921Y-93203715D01*
X147618762Y-93087318D01*
X146726080Y-93980000D01*
X145953920Y-93980000D01*
X145061238Y-93087318D01*
X144807079Y-93203715D01*
X144685088Y-93517689D01*
X144626694Y-93849429D01*
X143850000Y-93849429D01*
X143850000Y-93811580D01*
X143784286Y-93481211D01*
X143655382Y-93170011D01*
X143468244Y-92889939D01*
X143279543Y-92701238D01*
X145447318Y-92701238D01*
X146340000Y-93593920D01*
X147232682Y-92701238D01*
X147116285Y-92447079D01*
X146802311Y-92325088D01*
X146470571Y-92266694D01*
X146133813Y-92274141D01*
X145804978Y-92347143D01*
X145563715Y-92447079D01*
X145447318Y-92701238D01*
X143279543Y-92701238D01*
X143230061Y-92651756D01*
X142949989Y-92464618D01*
X142638789Y-92335714D01*
X142308420Y-92270000D01*
X141971580Y-92270000D01*
X141641211Y-92335714D01*
X141330011Y-92464618D01*
X141049939Y-92651756D01*
X140811756Y-92889939D01*
X140624618Y-93170011D01*
X140495714Y-93481211D01*
X140430000Y-93811580D01*
X139646695Y-93811580D01*
X139645859Y-93773813D01*
X139572857Y-93444978D01*
X139472921Y-93203715D01*
X139218762Y-93087318D01*
X138326080Y-93980000D01*
X137553920Y-93980000D01*
X136661238Y-93087318D01*
X136407079Y-93203715D01*
X136285088Y-93517689D01*
X136226694Y-93849429D01*
X135450000Y-93849429D01*
X135450000Y-93811580D01*
X135384286Y-93481211D01*
X135255382Y-93170011D01*
X135068244Y-92889939D01*
X134879543Y-92701238D01*
X137047318Y-92701238D01*
X137940000Y-93593920D01*
X138832682Y-92701238D01*
X138716285Y-92447079D01*
X138402311Y-92325088D01*
X138070571Y-92266694D01*
X137733813Y-92274141D01*
X137404978Y-92347143D01*
X137163715Y-92447079D01*
X137047318Y-92701238D01*
X134879543Y-92701238D01*
X134830061Y-92651756D01*
X134549989Y-92464618D01*
X134238789Y-92335714D01*
X133908420Y-92270000D01*
X133571580Y-92270000D01*
X133241211Y-92335714D01*
X132930011Y-92464618D01*
X132649939Y-92651756D01*
X132411756Y-92889939D01*
X132224618Y-93170011D01*
X132095714Y-93481211D01*
X132030000Y-93811580D01*
X131253072Y-93811580D01*
X131253072Y-92905000D01*
X131240812Y-92780518D01*
X131204502Y-92660820D01*
X131145537Y-92550506D01*
X131066185Y-92453815D01*
X130969494Y-92374463D01*
X130859180Y-92315498D01*
X130739482Y-92279188D01*
X130615000Y-92266928D01*
X128465000Y-92266928D01*
X128340518Y-92279188D01*
X128220820Y-92315498D01*
X128110506Y-92374463D01*
X128013815Y-92453815D01*
X127934463Y-92550506D01*
X127875498Y-92660820D01*
X127839188Y-92780518D01*
X127826928Y-92905000D01*
X127152000Y-92905000D01*
X127152000Y-90182000D01*
X181237928Y-90182000D01*
X181237928Y-91682000D01*
X181250188Y-91806482D01*
X181286498Y-91926180D01*
X181345463Y-92036494D01*
X181424815Y-92133185D01*
X181521506Y-92212537D01*
X181631820Y-92271502D01*
X181751518Y-92307812D01*
X181876000Y-92320072D01*
X183376000Y-92320072D01*
X183500482Y-92307812D01*
X183620180Y-92271502D01*
X183730494Y-92212537D01*
X183827185Y-92133185D01*
X183906537Y-92036494D01*
X183965502Y-91926180D01*
X184001812Y-91806482D01*
X184012445Y-91698517D01*
X184090201Y-91814886D01*
X184283114Y-92007799D01*
X184509957Y-92159371D01*
X184762011Y-92263775D01*
X185029589Y-92317000D01*
X185302411Y-92317000D01*
X185569989Y-92263775D01*
X185822043Y-92159371D01*
X186048886Y-92007799D01*
X186081457Y-91975228D01*
X187048852Y-91975228D01*
X187124733Y-92196500D01*
X187382594Y-92285602D01*
X187652884Y-92322687D01*
X187925214Y-92306328D01*
X188189119Y-92237154D01*
X188287267Y-92196500D01*
X188363148Y-91975228D01*
X187706000Y-91318080D01*
X187048852Y-91975228D01*
X186081457Y-91975228D01*
X186241799Y-91814886D01*
X186393371Y-91588043D01*
X186432922Y-91492558D01*
X186441500Y-91513267D01*
X186662772Y-91589148D01*
X187319920Y-90932000D01*
X186662772Y-90274852D01*
X186441500Y-90350733D01*
X186433697Y-90373314D01*
X186393371Y-90275957D01*
X186241799Y-90049114D01*
X186081457Y-89888772D01*
X187048852Y-89888772D01*
X187706000Y-90545920D01*
X188363148Y-89888772D01*
X188287267Y-89667500D01*
X188029406Y-89578398D01*
X187759116Y-89541313D01*
X187486786Y-89557672D01*
X187222881Y-89626846D01*
X187124733Y-89667500D01*
X187048852Y-89888772D01*
X186081457Y-89888772D01*
X186048886Y-89856201D01*
X185822043Y-89704629D01*
X185569989Y-89600225D01*
X185302411Y-89547000D01*
X185029589Y-89547000D01*
X184762011Y-89600225D01*
X184509957Y-89704629D01*
X184283114Y-89856201D01*
X184090201Y-90049114D01*
X184012445Y-90165483D01*
X184001812Y-90057518D01*
X183965502Y-89937820D01*
X183906537Y-89827506D01*
X183827185Y-89730815D01*
X183730494Y-89651463D01*
X183620180Y-89592498D01*
X183500482Y-89556188D01*
X183376000Y-89543928D01*
X181876000Y-89543928D01*
X181751518Y-89556188D01*
X181631820Y-89592498D01*
X181521506Y-89651463D01*
X181424815Y-89730815D01*
X181345463Y-89827506D01*
X181286498Y-89937820D01*
X181250188Y-90057518D01*
X181237928Y-90182000D01*
X127152000Y-90182000D01*
X127152000Y-82562000D01*
X181237928Y-82562000D01*
X181237928Y-84062000D01*
X181250188Y-84186482D01*
X181286498Y-84306180D01*
X181345463Y-84416494D01*
X181424815Y-84513185D01*
X181521506Y-84592537D01*
X181631820Y-84651502D01*
X181751518Y-84687812D01*
X181876000Y-84700072D01*
X183376000Y-84700072D01*
X183500482Y-84687812D01*
X183620180Y-84651502D01*
X183730494Y-84592537D01*
X183827185Y-84513185D01*
X183906537Y-84416494D01*
X183965502Y-84306180D01*
X184001812Y-84186482D01*
X184012445Y-84078517D01*
X184090201Y-84194886D01*
X184283114Y-84387799D01*
X184509957Y-84539371D01*
X184762011Y-84643775D01*
X185029589Y-84697000D01*
X185302411Y-84697000D01*
X185569989Y-84643775D01*
X185822043Y-84539371D01*
X186048886Y-84387799D01*
X186081457Y-84355228D01*
X187048852Y-84355228D01*
X187124733Y-84576500D01*
X187382594Y-84665602D01*
X187652884Y-84702687D01*
X187925214Y-84686328D01*
X188189119Y-84617154D01*
X188287267Y-84576500D01*
X188363148Y-84355228D01*
X187706000Y-83698080D01*
X187048852Y-84355228D01*
X186081457Y-84355228D01*
X186241799Y-84194886D01*
X186393371Y-83968043D01*
X186432922Y-83872558D01*
X186441500Y-83893267D01*
X186662772Y-83969148D01*
X187319920Y-83312000D01*
X186662772Y-82654852D01*
X186441500Y-82730733D01*
X186433697Y-82753314D01*
X186393371Y-82655957D01*
X186241799Y-82429114D01*
X186081457Y-82268772D01*
X187048852Y-82268772D01*
X187706000Y-82925920D01*
X188363148Y-82268772D01*
X188287267Y-82047500D01*
X188029406Y-81958398D01*
X187759116Y-81921313D01*
X187486786Y-81937672D01*
X187222881Y-82006846D01*
X187124733Y-82047500D01*
X187048852Y-82268772D01*
X186081457Y-82268772D01*
X186048886Y-82236201D01*
X185822043Y-82084629D01*
X185569989Y-81980225D01*
X185302411Y-81927000D01*
X185029589Y-81927000D01*
X184762011Y-81980225D01*
X184509957Y-82084629D01*
X184283114Y-82236201D01*
X184090201Y-82429114D01*
X184012445Y-82545483D01*
X184001812Y-82437518D01*
X183965502Y-82317820D01*
X183906537Y-82207506D01*
X183827185Y-82110815D01*
X183730494Y-82031463D01*
X183620180Y-81972498D01*
X183500482Y-81936188D01*
X183376000Y-81923928D01*
X181876000Y-81923928D01*
X181751518Y-81936188D01*
X181631820Y-81972498D01*
X181521506Y-82031463D01*
X181424815Y-82110815D01*
X181345463Y-82207506D01*
X181286498Y-82317820D01*
X181250188Y-82437518D01*
X181237928Y-82562000D01*
X127152000Y-82562000D01*
X127152000Y-80416000D01*
X188824001Y-80416000D01*
X188824001Y-82680494D01*
G37*
X188824001Y-82680494D02*
X188749228Y-82654852D01*
X188092080Y-83312000D01*
X188749228Y-83969148D01*
X188824001Y-83943506D01*
X188824001Y-90300494D01*
X188749228Y-90274852D01*
X188092080Y-90932000D01*
X188749228Y-91589148D01*
X188824000Y-91563506D01*
X188824000Y-97920494D01*
X188749228Y-97894852D01*
X188092080Y-98552000D01*
X188749228Y-99209148D01*
X188824000Y-99183506D01*
X188824000Y-101448000D01*
X178086419Y-101448000D01*
X178054000Y-101444807D01*
X178021581Y-101448000D01*
X177924617Y-101457550D01*
X177800207Y-101495290D01*
X177685550Y-101556575D01*
X177585052Y-101639052D01*
X177502575Y-101739550D01*
X177441290Y-101854207D01*
X177403550Y-101978617D01*
X177390807Y-102108000D01*
X177394001Y-102140429D01*
X177394001Y-106082264D01*
X177393406Y-106080829D01*
X176918993Y-105370820D01*
X176315180Y-104767007D01*
X175605171Y-104292594D01*
X174816252Y-103965813D01*
X173978739Y-103799221D01*
X173124819Y-103799221D01*
X172287306Y-103965813D01*
X171498387Y-104292594D01*
X170788378Y-104767007D01*
X170184565Y-105370820D01*
X169710152Y-106080829D01*
X169383371Y-106869748D01*
X169216779Y-107707261D01*
X169216779Y-108561181D01*
X169383371Y-109398694D01*
X169710152Y-110187613D01*
X170184565Y-110897622D01*
X170788378Y-111501435D01*
X171498387Y-111975848D01*
X172287306Y-112302629D01*
X173124819Y-112469221D01*
X173978739Y-112469221D01*
X174816252Y-112302629D01*
X175605171Y-111975848D01*
X176315180Y-111501435D01*
X176918993Y-110897622D01*
X177393406Y-110187613D01*
X177394000Y-110186179D01*
X177394000Y-110958489D01*
X164846326Y-122276000D01*
X140952319Y-122276000D01*
X134500754Y-116976500D01*
X143262428Y-116976500D01*
X143262428Y-119751500D01*
X143274688Y-119875982D01*
X143310998Y-119995680D01*
X143369963Y-120105994D01*
X143449315Y-120202685D01*
X143546006Y-120282037D01*
X143656320Y-120341002D01*
X143776018Y-120377312D01*
X143900500Y-120389572D01*
X146675500Y-120389572D01*
X146799982Y-120377312D01*
X146919680Y-120341002D01*
X147029994Y-120282037D01*
X147126685Y-120202685D01*
X147206037Y-120105994D01*
X147265002Y-119995680D01*
X147301312Y-119875982D01*
X147313572Y-119751500D01*
X147313572Y-118164801D01*
X148345500Y-118164801D01*
X148345500Y-118563199D01*
X148423224Y-118953941D01*
X148575684Y-119322013D01*
X148797022Y-119653269D01*
X149078731Y-119934978D01*
X149409987Y-120156316D01*
X149778059Y-120308776D01*
X150168801Y-120386500D01*
X150567199Y-120386500D01*
X150957941Y-120308776D01*
X151326013Y-120156316D01*
X151657269Y-119934978D01*
X151938978Y-119653269D01*
X152160316Y-119322013D01*
X152312776Y-118953941D01*
X152390500Y-118563199D01*
X152390500Y-118164801D01*
X153425500Y-118164801D01*
X153425500Y-118563199D01*
X153503224Y-118953941D01*
X153655684Y-119322013D01*
X153877022Y-119653269D01*
X154158731Y-119934978D01*
X154489987Y-120156316D01*
X154858059Y-120308776D01*
X155248801Y-120386500D01*
X155647199Y-120386500D01*
X156037941Y-120308776D01*
X156406013Y-120156316D01*
X156737269Y-119934978D01*
X156804557Y-119867690D01*
X159410390Y-119867690D01*
X159565141Y-120153717D01*
X159932799Y-120307173D01*
X160323330Y-120385953D01*
X160721726Y-120387031D01*
X161112677Y-120310365D01*
X161481160Y-120158901D01*
X161490859Y-120153717D01*
X161645610Y-119867690D01*
X160528000Y-118750080D01*
X159410390Y-119867690D01*
X156804557Y-119867690D01*
X157018978Y-119653269D01*
X157240316Y-119322013D01*
X157392776Y-118953941D01*
X157470500Y-118563199D01*
X157470500Y-118557726D01*
X158504969Y-118557726D01*
X158581635Y-118948677D01*
X158733099Y-119317160D01*
X158738283Y-119326859D01*
X159024310Y-119481610D01*
X160141920Y-118364000D01*
X160914080Y-118364000D01*
X162031690Y-119481610D01*
X162317717Y-119326859D01*
X162471173Y-118959201D01*
X162549953Y-118568670D01*
X162551031Y-118170274D01*
X162474365Y-117779323D01*
X162322901Y-117410840D01*
X162317717Y-117401141D01*
X162031690Y-117246390D01*
X160914080Y-118364000D01*
X160141920Y-118364000D01*
X159024310Y-117246390D01*
X158738283Y-117401141D01*
X158584827Y-117768799D01*
X158506047Y-118159330D01*
X158504969Y-118557726D01*
X157470500Y-118557726D01*
X157470500Y-118164801D01*
X157392776Y-117774059D01*
X157240316Y-117405987D01*
X157018978Y-117074731D01*
X156804557Y-116860310D01*
X159410390Y-116860310D01*
X160528000Y-117977920D01*
X161645610Y-116860310D01*
X161490859Y-116574283D01*
X161123201Y-116420827D01*
X160732670Y-116342047D01*
X160334274Y-116340969D01*
X159943323Y-116417635D01*
X159574840Y-116569099D01*
X159565141Y-116574283D01*
X159410390Y-116860310D01*
X156804557Y-116860310D01*
X156737269Y-116793022D01*
X156406013Y-116571684D01*
X156037941Y-116419224D01*
X155647199Y-116341500D01*
X155248801Y-116341500D01*
X154858059Y-116419224D01*
X154489987Y-116571684D01*
X154158731Y-116793022D01*
X153877022Y-117074731D01*
X153655684Y-117405987D01*
X153503224Y-117774059D01*
X153425500Y-118164801D01*
X152390500Y-118164801D01*
X152312776Y-117774059D01*
X152160316Y-117405987D01*
X151938978Y-117074731D01*
X151657269Y-116793022D01*
X151326013Y-116571684D01*
X150957941Y-116419224D01*
X150567199Y-116341500D01*
X150168801Y-116341500D01*
X149778059Y-116419224D01*
X149409987Y-116571684D01*
X149078731Y-116793022D01*
X148797022Y-117074731D01*
X148575684Y-117405987D01*
X148423224Y-117774059D01*
X148345500Y-118164801D01*
X147313572Y-118164801D01*
X147313572Y-116976500D01*
X147301312Y-116852018D01*
X147265002Y-116732320D01*
X147206037Y-116622006D01*
X147126685Y-116525315D01*
X147029994Y-116445963D01*
X146919680Y-116386998D01*
X146799982Y-116350688D01*
X146675500Y-116338428D01*
X143900500Y-116338428D01*
X143776018Y-116350688D01*
X143656320Y-116386998D01*
X143546006Y-116445963D01*
X143449315Y-116525315D01*
X143369963Y-116622006D01*
X143310998Y-116732320D01*
X143274688Y-116852018D01*
X143262428Y-116976500D01*
X134500754Y-116976500D01*
X127152000Y-110940025D01*
X127152000Y-110087497D01*
X127222373Y-110257392D01*
X127696786Y-110967401D01*
X128300599Y-111571214D01*
X129010608Y-112045627D01*
X129799527Y-112372408D01*
X130637040Y-112539000D01*
X131490960Y-112539000D01*
X132328473Y-112372408D01*
X133117392Y-112045627D01*
X133827401Y-111571214D01*
X134431214Y-110967401D01*
X134905627Y-110257392D01*
X135232408Y-109468473D01*
X135399000Y-108630960D01*
X135399000Y-107777040D01*
X135232408Y-106939527D01*
X134905627Y-106150608D01*
X134431214Y-105440599D01*
X133827401Y-104836786D01*
X133413162Y-104560000D01*
X142275928Y-104560000D01*
X142275928Y-106260000D01*
X142288188Y-106384482D01*
X142324498Y-106504180D01*
X142383463Y-106614494D01*
X142462815Y-106711185D01*
X142559506Y-106790537D01*
X142669820Y-106849502D01*
X142789518Y-106885812D01*
X142914000Y-106898072D01*
X144614000Y-106898072D01*
X144738482Y-106885812D01*
X144858180Y-106849502D01*
X144968494Y-106790537D01*
X145065185Y-106711185D01*
X145144537Y-106614494D01*
X145203502Y-106504180D01*
X145226658Y-106427846D01*
X145417421Y-106601316D01*
X145666871Y-106751388D01*
X145806015Y-106809012D01*
X146031000Y-106707848D01*
X146031000Y-105683000D01*
X146577000Y-105683000D01*
X146577000Y-106707848D01*
X146801985Y-106809012D01*
X146941129Y-106751388D01*
X147190579Y-106601316D01*
X147405958Y-106405462D01*
X147476514Y-106310000D01*
X148067928Y-106310000D01*
X148080188Y-106434482D01*
X148116498Y-106554180D01*
X148175463Y-106664494D01*
X148254815Y-106761185D01*
X148351506Y-106840537D01*
X148461820Y-106899502D01*
X148581518Y-106935812D01*
X148706000Y-106948072D01*
X149174250Y-106945000D01*
X149333000Y-106786250D01*
X149333000Y-105683000D01*
X148229750Y-105683000D01*
X148071000Y-105841750D01*
X148067928Y-106310000D01*
X147476514Y-106310000D01*
X147578989Y-106171353D01*
X147703023Y-105907986D01*
X147604951Y-105683000D01*
X146577000Y-105683000D01*
X146031000Y-105683000D01*
X146011000Y-105683000D01*
X146011000Y-105137000D01*
X146031000Y-105137000D01*
X146031000Y-104112152D01*
X146577000Y-104112152D01*
X146577000Y-105137000D01*
X147604951Y-105137000D01*
X147703023Y-104912014D01*
X147578989Y-104648647D01*
X147476515Y-104510000D01*
X148067928Y-104510000D01*
X148071000Y-104978250D01*
X148229750Y-105137000D01*
X149333000Y-105137000D01*
X149333000Y-104033750D01*
X149879000Y-104033750D01*
X149879000Y-105137000D01*
X149899000Y-105137000D01*
X149899000Y-105683000D01*
X149879000Y-105683000D01*
X149879000Y-106786250D01*
X150037750Y-106945000D01*
X150506000Y-106948072D01*
X150630482Y-106935812D01*
X150750180Y-106899502D01*
X150860494Y-106840537D01*
X150957185Y-106761185D01*
X151036537Y-106664494D01*
X151095502Y-106554180D01*
X151101056Y-106535873D01*
X151167495Y-106602312D01*
X151418905Y-106770299D01*
X151698257Y-106886011D01*
X151994816Y-106945000D01*
X152297184Y-106945000D01*
X152593743Y-106886011D01*
X152873095Y-106770299D01*
X153124505Y-106602312D01*
X153338312Y-106388505D01*
X153506299Y-106137095D01*
X153597120Y-105917835D01*
X153668320Y-106089727D01*
X153825363Y-106324759D01*
X154025241Y-106524637D01*
X154260273Y-106681680D01*
X154521426Y-106789853D01*
X154798665Y-106845000D01*
X155081335Y-106845000D01*
X155358574Y-106789853D01*
X155619727Y-106681680D01*
X155854759Y-106524637D01*
X156054637Y-106324759D01*
X156211680Y-106089727D01*
X156319853Y-105828574D01*
X156375000Y-105551335D01*
X156375000Y-105268665D01*
X161125000Y-105268665D01*
X161125000Y-105551335D01*
X161180147Y-105828574D01*
X161288320Y-106089727D01*
X161445363Y-106324759D01*
X161645241Y-106524637D01*
X161880273Y-106681680D01*
X162141426Y-106789853D01*
X162418665Y-106845000D01*
X162701335Y-106845000D01*
X162978574Y-106789853D01*
X163239727Y-106681680D01*
X163474759Y-106524637D01*
X163674637Y-106324759D01*
X163831680Y-106089727D01*
X163939853Y-105828574D01*
X163995000Y-105551335D01*
X163995000Y-105268665D01*
X163939853Y-104991426D01*
X163831680Y-104730273D01*
X163674637Y-104495241D01*
X163474759Y-104295363D01*
X163239727Y-104138320D01*
X162978574Y-104030147D01*
X162701335Y-103975000D01*
X162418665Y-103975000D01*
X162141426Y-104030147D01*
X161880273Y-104138320D01*
X161645241Y-104295363D01*
X161445363Y-104495241D01*
X161288320Y-104730273D01*
X161180147Y-104991426D01*
X161125000Y-105268665D01*
X156375000Y-105268665D01*
X156319853Y-104991426D01*
X156211680Y-104730273D01*
X156054637Y-104495241D01*
X155854759Y-104295363D01*
X155619727Y-104138320D01*
X155358574Y-104030147D01*
X155081335Y-103975000D01*
X154798665Y-103975000D01*
X154521426Y-104030147D01*
X154260273Y-104138320D01*
X154025241Y-104295363D01*
X153825363Y-104495241D01*
X153668320Y-104730273D01*
X153597120Y-104902165D01*
X153506299Y-104682905D01*
X153338312Y-104431495D01*
X153124505Y-104217688D01*
X152873095Y-104049701D01*
X152593743Y-103933989D01*
X152297184Y-103875000D01*
X151994816Y-103875000D01*
X151698257Y-103933989D01*
X151418905Y-104049701D01*
X151167495Y-104217688D01*
X151101056Y-104284127D01*
X151095502Y-104265820D01*
X151036537Y-104155506D01*
X150957185Y-104058815D01*
X150860494Y-103979463D01*
X150750180Y-103920498D01*
X150630482Y-103884188D01*
X150506000Y-103871928D01*
X150037750Y-103875000D01*
X149879000Y-104033750D01*
X149333000Y-104033750D01*
X149174250Y-103875000D01*
X148706000Y-103871928D01*
X148581518Y-103884188D01*
X148461820Y-103920498D01*
X148351506Y-103979463D01*
X148254815Y-104058815D01*
X148175463Y-104155506D01*
X148116498Y-104265820D01*
X148080188Y-104385518D01*
X148067928Y-104510000D01*
X147476515Y-104510000D01*
X147405958Y-104414538D01*
X147190579Y-104218684D01*
X146941129Y-104068612D01*
X146801985Y-104010988D01*
X146577000Y-104112152D01*
X146031000Y-104112152D01*
X145806015Y-104010988D01*
X145666871Y-104068612D01*
X145417421Y-104218684D01*
X145226658Y-104392154D01*
X145203502Y-104315820D01*
X145144537Y-104205506D01*
X145065185Y-104108815D01*
X144968494Y-104029463D01*
X144858180Y-103970498D01*
X144738482Y-103934188D01*
X144614000Y-103921928D01*
X142914000Y-103921928D01*
X142789518Y-103934188D01*
X142669820Y-103970498D01*
X142559506Y-104029463D01*
X142462815Y-104108815D01*
X142383463Y-104205506D01*
X142324498Y-104315820D01*
X142288188Y-104435518D01*
X142275928Y-104560000D01*
X133413162Y-104560000D01*
X133117392Y-104362373D01*
X132328473Y-104035592D01*
X131490960Y-103869000D01*
X130637040Y-103869000D01*
X129799527Y-104035592D01*
X129010608Y-104362373D01*
X128300599Y-104836786D01*
X127696786Y-105440599D01*
X127222373Y-106150608D01*
X127152000Y-106320503D01*
X127152000Y-99311580D01*
X127830000Y-99311580D01*
X127830000Y-99648420D01*
X127895714Y-99978789D01*
X128024618Y-100289989D01*
X128211756Y-100570061D01*
X128449939Y-100808244D01*
X128730011Y-100995382D01*
X129041211Y-101124286D01*
X129371580Y-101190000D01*
X129708420Y-101190000D01*
X130038789Y-101124286D01*
X130349989Y-100995382D01*
X130630061Y-100808244D01*
X130868244Y-100570061D01*
X131055382Y-100289989D01*
X131184286Y-99978789D01*
X131250000Y-99648420D01*
X131250000Y-99311580D01*
X132030000Y-99311580D01*
X132030000Y-99648420D01*
X132095714Y-99978789D01*
X132224618Y-100289989D01*
X132411756Y-100570061D01*
X132649939Y-100808244D01*
X132930011Y-100995382D01*
X133241211Y-101124286D01*
X133571580Y-101190000D01*
X133908420Y-101190000D01*
X134238789Y-101124286D01*
X134549989Y-100995382D01*
X134830061Y-100808244D01*
X134879543Y-100758762D01*
X137047318Y-100758762D01*
X137163715Y-101012921D01*
X137477689Y-101134912D01*
X137809429Y-101193306D01*
X138146187Y-101185859D01*
X138475022Y-101112857D01*
X138716285Y-101012921D01*
X138832682Y-100758762D01*
X137940000Y-99866080D01*
X137047318Y-100758762D01*
X134879543Y-100758762D01*
X135068244Y-100570061D01*
X135255382Y-100289989D01*
X135384286Y-99978789D01*
X135450000Y-99648420D01*
X135450000Y-99349429D01*
X136226694Y-99349429D01*
X136234141Y-99686187D01*
X136307143Y-100015022D01*
X136407079Y-100256285D01*
X136661238Y-100372682D01*
X137553920Y-99480000D01*
X138326080Y-99480000D01*
X139218762Y-100372682D01*
X139472921Y-100256285D01*
X139594912Y-99942311D01*
X139653306Y-99610571D01*
X139646695Y-99311580D01*
X140430000Y-99311580D01*
X140430000Y-99648420D01*
X140495714Y-99978789D01*
X140624618Y-100289989D01*
X140811756Y-100570061D01*
X141049939Y-100808244D01*
X141330011Y-100995382D01*
X141641211Y-101124286D01*
X141971580Y-101190000D01*
X142308420Y-101190000D01*
X142638789Y-101124286D01*
X142949989Y-100995382D01*
X143230061Y-100808244D01*
X143279543Y-100758762D01*
X145447318Y-100758762D01*
X145563715Y-101012921D01*
X145877689Y-101134912D01*
X146209429Y-101193306D01*
X146546187Y-101185859D01*
X146875022Y-101112857D01*
X147116285Y-101012921D01*
X147232682Y-100758762D01*
X149647318Y-100758762D01*
X149763715Y-101012921D01*
X150077689Y-101134912D01*
X150409429Y-101193306D01*
X150746187Y-101185859D01*
X151075022Y-101112857D01*
X151316285Y-101012921D01*
X151432682Y-100758762D01*
X153847318Y-100758762D01*
X153963715Y-101012921D01*
X154277689Y-101134912D01*
X154609429Y-101193306D01*
X154946187Y-101185859D01*
X155275022Y-101112857D01*
X155516285Y-101012921D01*
X155632682Y-100758762D01*
X154740000Y-99866080D01*
X153847318Y-100758762D01*
X151432682Y-100758762D01*
X150540000Y-99866080D01*
X149647318Y-100758762D01*
X147232682Y-100758762D01*
X146340000Y-99866080D01*
X145447318Y-100758762D01*
X143279543Y-100758762D01*
X143468244Y-100570061D01*
X143655382Y-100289989D01*
X143784286Y-99978789D01*
X143850000Y-99648420D01*
X143850000Y-99349429D01*
X144626694Y-99349429D01*
X144634141Y-99686187D01*
X144707143Y-100015022D01*
X144807079Y-100256285D01*
X145061238Y-100372682D01*
X145953920Y-99480000D01*
X146726080Y-99480000D01*
X147618762Y-100372682D01*
X147872921Y-100256285D01*
X147994912Y-99942311D01*
X148053306Y-99610571D01*
X148047532Y-99349429D01*
X148826694Y-99349429D01*
X148834141Y-99686187D01*
X148907143Y-100015022D01*
X149007079Y-100256285D01*
X149261238Y-100372682D01*
X150153920Y-99480000D01*
X150926080Y-99480000D01*
X151818762Y-100372682D01*
X152072921Y-100256285D01*
X152194912Y-99942311D01*
X152253306Y-99610571D01*
X152247532Y-99349429D01*
X153026694Y-99349429D01*
X153034141Y-99686187D01*
X153107143Y-100015022D01*
X153207079Y-100256285D01*
X153461238Y-100372682D01*
X154353920Y-99480000D01*
X155126080Y-99480000D01*
X156018762Y-100372682D01*
X156272921Y-100256285D01*
X156394912Y-99942311D01*
X156453306Y-99610571D01*
X156446695Y-99311580D01*
X157230000Y-99311580D01*
X157230000Y-99648420D01*
X157295714Y-99978789D01*
X157424618Y-100289989D01*
X157611756Y-100570061D01*
X157849939Y-100808244D01*
X158130011Y-100995382D01*
X158441211Y-101124286D01*
X158771580Y-101190000D01*
X159108420Y-101190000D01*
X159438789Y-101124286D01*
X159749989Y-100995382D01*
X160030061Y-100808244D01*
X160268244Y-100570061D01*
X160455382Y-100289989D01*
X160584286Y-99978789D01*
X160650000Y-99648420D01*
X160650000Y-99311580D01*
X161430000Y-99311580D01*
X161430000Y-99648420D01*
X161495714Y-99978789D01*
X161624618Y-100289989D01*
X161811756Y-100570061D01*
X162049939Y-100808244D01*
X162330011Y-100995382D01*
X162641211Y-101124286D01*
X162971580Y-101190000D01*
X163308420Y-101190000D01*
X163638789Y-101124286D01*
X163949989Y-100995382D01*
X164230061Y-100808244D01*
X164468244Y-100570061D01*
X164655382Y-100289989D01*
X164784286Y-99978789D01*
X164850000Y-99648420D01*
X164850000Y-99311580D01*
X165630000Y-99311580D01*
X165630000Y-99648420D01*
X165695714Y-99978789D01*
X165824618Y-100289989D01*
X166011756Y-100570061D01*
X166249939Y-100808244D01*
X166530011Y-100995382D01*
X166841211Y-101124286D01*
X167171580Y-101190000D01*
X167508420Y-101190000D01*
X167838789Y-101124286D01*
X168149989Y-100995382D01*
X168430061Y-100808244D01*
X168668244Y-100570061D01*
X168855382Y-100289989D01*
X168984286Y-99978789D01*
X169050000Y-99648420D01*
X169050000Y-99311580D01*
X169830000Y-99311580D01*
X169830000Y-99648420D01*
X169895714Y-99978789D01*
X170024618Y-100289989D01*
X170211756Y-100570061D01*
X170449939Y-100808244D01*
X170730011Y-100995382D01*
X171041211Y-101124286D01*
X171371580Y-101190000D01*
X171708420Y-101190000D01*
X172038789Y-101124286D01*
X172349989Y-100995382D01*
X172630061Y-100808244D01*
X172679543Y-100758762D01*
X174847318Y-100758762D01*
X174963715Y-101012921D01*
X175277689Y-101134912D01*
X175609429Y-101193306D01*
X175946187Y-101185859D01*
X176275022Y-101112857D01*
X176516285Y-101012921D01*
X176632682Y-100758762D01*
X175740000Y-99866080D01*
X174847318Y-100758762D01*
X172679543Y-100758762D01*
X172868244Y-100570061D01*
X173055382Y-100289989D01*
X173184286Y-99978789D01*
X173250000Y-99648420D01*
X173250000Y-99349429D01*
X174026694Y-99349429D01*
X174034141Y-99686187D01*
X174107143Y-100015022D01*
X174207079Y-100256285D01*
X174461238Y-100372682D01*
X175353920Y-99480000D01*
X176126080Y-99480000D01*
X177018762Y-100372682D01*
X177272921Y-100256285D01*
X177394912Y-99942311D01*
X177453306Y-99610571D01*
X177445859Y-99273813D01*
X177372857Y-98944978D01*
X177272921Y-98703715D01*
X177018762Y-98587318D01*
X176126080Y-99480000D01*
X175353920Y-99480000D01*
X174461238Y-98587318D01*
X174207079Y-98703715D01*
X174085088Y-99017689D01*
X174026694Y-99349429D01*
X173250000Y-99349429D01*
X173250000Y-99311580D01*
X173184286Y-98981211D01*
X173055382Y-98670011D01*
X172868244Y-98389939D01*
X172679543Y-98201238D01*
X174847318Y-98201238D01*
X175740000Y-99093920D01*
X176632682Y-98201238D01*
X176516285Y-97947079D01*
X176202311Y-97825088D01*
X176071147Y-97802000D01*
X181237928Y-97802000D01*
X181237928Y-99302000D01*
X181250188Y-99426482D01*
X181286498Y-99546180D01*
X181345463Y-99656494D01*
X181424815Y-99753185D01*
X181521506Y-99832537D01*
X181631820Y-99891502D01*
X181751518Y-99927812D01*
X181876000Y-99940072D01*
X183376000Y-99940072D01*
X183500482Y-99927812D01*
X183620180Y-99891502D01*
X183730494Y-99832537D01*
X183827185Y-99753185D01*
X183906537Y-99656494D01*
X183965502Y-99546180D01*
X184001812Y-99426482D01*
X184012445Y-99318517D01*
X184090201Y-99434886D01*
X184283114Y-99627799D01*
X184509957Y-99779371D01*
X184762011Y-99883775D01*
X185029589Y-99937000D01*
X185302411Y-99937000D01*
X185569989Y-99883775D01*
X185822043Y-99779371D01*
X186048886Y-99627799D01*
X186081457Y-99595228D01*
X187048852Y-99595228D01*
X187124733Y-99816500D01*
X187382594Y-99905602D01*
X187652884Y-99942687D01*
X187925214Y-99926328D01*
X188189119Y-99857154D01*
X188287267Y-99816500D01*
X188363148Y-99595228D01*
X187706000Y-98938080D01*
X187048852Y-99595228D01*
X186081457Y-99595228D01*
X186241799Y-99434886D01*
X186393371Y-99208043D01*
X186432922Y-99112558D01*
X186441500Y-99133267D01*
X186662772Y-99209148D01*
X187319920Y-98552000D01*
X186662772Y-97894852D01*
X186441500Y-97970733D01*
X186433697Y-97993314D01*
X186393371Y-97895957D01*
X186241799Y-97669114D01*
X186081457Y-97508772D01*
X187048852Y-97508772D01*
X187706000Y-98165920D01*
X188363148Y-97508772D01*
X188287267Y-97287500D01*
X188029406Y-97198398D01*
X187759116Y-97161313D01*
X187486786Y-97177672D01*
X187222881Y-97246846D01*
X187124733Y-97287500D01*
X187048852Y-97508772D01*
X186081457Y-97508772D01*
X186048886Y-97476201D01*
X185822043Y-97324629D01*
X185569989Y-97220225D01*
X185302411Y-97167000D01*
X185029589Y-97167000D01*
X184762011Y-97220225D01*
X184509957Y-97324629D01*
X184283114Y-97476201D01*
X184090201Y-97669114D01*
X184012445Y-97785483D01*
X184001812Y-97677518D01*
X183965502Y-97557820D01*
X183906537Y-97447506D01*
X183827185Y-97350815D01*
X183730494Y-97271463D01*
X183620180Y-97212498D01*
X183500482Y-97176188D01*
X183376000Y-97163928D01*
X181876000Y-97163928D01*
X181751518Y-97176188D01*
X181631820Y-97212498D01*
X181521506Y-97271463D01*
X181424815Y-97350815D01*
X181345463Y-97447506D01*
X181286498Y-97557820D01*
X181250188Y-97677518D01*
X181237928Y-97802000D01*
X176071147Y-97802000D01*
X175870571Y-97766694D01*
X175533813Y-97774141D01*
X175204978Y-97847143D01*
X174963715Y-97947079D01*
X174847318Y-98201238D01*
X172679543Y-98201238D01*
X172630061Y-98151756D01*
X172349989Y-97964618D01*
X172038789Y-97835714D01*
X171708420Y-97770000D01*
X171371580Y-97770000D01*
X171041211Y-97835714D01*
X170730011Y-97964618D01*
X170449939Y-98151756D01*
X170211756Y-98389939D01*
X170024618Y-98670011D01*
X169895714Y-98981211D01*
X169830000Y-99311580D01*
X169050000Y-99311580D01*
X168984286Y-98981211D01*
X168855382Y-98670011D01*
X168668244Y-98389939D01*
X168430061Y-98151756D01*
X168149989Y-97964618D01*
X167838789Y-97835714D01*
X167508420Y-97770000D01*
X167171580Y-97770000D01*
X166841211Y-97835714D01*
X166530011Y-97964618D01*
X166249939Y-98151756D01*
X166011756Y-98389939D01*
X165824618Y-98670011D01*
X165695714Y-98981211D01*
X165630000Y-99311580D01*
X164850000Y-99311580D01*
X164784286Y-98981211D01*
X164655382Y-98670011D01*
X164468244Y-98389939D01*
X164230061Y-98151756D01*
X163949989Y-97964618D01*
X163638789Y-97835714D01*
X163308420Y-97770000D01*
X162971580Y-97770000D01*
X162641211Y-97835714D01*
X162330011Y-97964618D01*
X162049939Y-98151756D01*
X161811756Y-98389939D01*
X161624618Y-98670011D01*
X161495714Y-98981211D01*
X161430000Y-99311580D01*
X160650000Y-99311580D01*
X160584286Y-98981211D01*
X160455382Y-98670011D01*
X160268244Y-98389939D01*
X160030061Y-98151756D01*
X159749989Y-97964618D01*
X159438789Y-97835714D01*
X159108420Y-97770000D01*
X158771580Y-97770000D01*
X158441211Y-97835714D01*
X158130011Y-97964618D01*
X157849939Y-98151756D01*
X157611756Y-98389939D01*
X157424618Y-98670011D01*
X157295714Y-98981211D01*
X157230000Y-99311580D01*
X156446695Y-99311580D01*
X156445859Y-99273813D01*
X156372857Y-98944978D01*
X156272921Y-98703715D01*
X156018762Y-98587318D01*
X155126080Y-99480000D01*
X154353920Y-99480000D01*
X153461238Y-98587318D01*
X153207079Y-98703715D01*
X153085088Y-99017689D01*
X153026694Y-99349429D01*
X152247532Y-99349429D01*
X152245859Y-99273813D01*
X152172857Y-98944978D01*
X152072921Y-98703715D01*
X151818762Y-98587318D01*
X150926080Y-99480000D01*
X150153920Y-99480000D01*
X149261238Y-98587318D01*
X149007079Y-98703715D01*
X148885088Y-99017689D01*
X148826694Y-99349429D01*
X148047532Y-99349429D01*
X148045859Y-99273813D01*
X147972857Y-98944978D01*
X147872921Y-98703715D01*
X147618762Y-98587318D01*
X146726080Y-99480000D01*
X145953920Y-99480000D01*
X145061238Y-98587318D01*
X144807079Y-98703715D01*
X144685088Y-99017689D01*
X144626694Y-99349429D01*
X143850000Y-99349429D01*
X143850000Y-99311580D01*
X143784286Y-98981211D01*
X143655382Y-98670011D01*
X143468244Y-98389939D01*
X143279543Y-98201238D01*
X145447318Y-98201238D01*
X146340000Y-99093920D01*
X147232682Y-98201238D01*
X149647318Y-98201238D01*
X150540000Y-99093920D01*
X151432682Y-98201238D01*
X153847318Y-98201238D01*
X154740000Y-99093920D01*
X155632682Y-98201238D01*
X155516285Y-97947079D01*
X155202311Y-97825088D01*
X154870571Y-97766694D01*
X154533813Y-97774141D01*
X154204978Y-97847143D01*
X153963715Y-97947079D01*
X153847318Y-98201238D01*
X151432682Y-98201238D01*
X151316285Y-97947079D01*
X151002311Y-97825088D01*
X150670571Y-97766694D01*
X150333813Y-97774141D01*
X150004978Y-97847143D01*
X149763715Y-97947079D01*
X149647318Y-98201238D01*
X147232682Y-98201238D01*
X147116285Y-97947079D01*
X146802311Y-97825088D01*
X146470571Y-97766694D01*
X146133813Y-97774141D01*
X145804978Y-97847143D01*
X145563715Y-97947079D01*
X145447318Y-98201238D01*
X143279543Y-98201238D01*
X143230061Y-98151756D01*
X142949989Y-97964618D01*
X142638789Y-97835714D01*
X142308420Y-97770000D01*
X141971580Y-97770000D01*
X141641211Y-97835714D01*
X141330011Y-97964618D01*
X141049939Y-98151756D01*
X140811756Y-98389939D01*
X140624618Y-98670011D01*
X140495714Y-98981211D01*
X140430000Y-99311580D01*
X139646695Y-99311580D01*
X139645859Y-99273813D01*
X139572857Y-98944978D01*
X139472921Y-98703715D01*
X139218762Y-98587318D01*
X138326080Y-99480000D01*
X137553920Y-99480000D01*
X136661238Y-98587318D01*
X136407079Y-98703715D01*
X136285088Y-99017689D01*
X136226694Y-99349429D01*
X135450000Y-99349429D01*
X135450000Y-99311580D01*
X135384286Y-98981211D01*
X135255382Y-98670011D01*
X135068244Y-98389939D01*
X134879543Y-98201238D01*
X137047318Y-98201238D01*
X137940000Y-99093920D01*
X138832682Y-98201238D01*
X138716285Y-97947079D01*
X138402311Y-97825088D01*
X138070571Y-97766694D01*
X137733813Y-97774141D01*
X137404978Y-97847143D01*
X137163715Y-97947079D01*
X137047318Y-98201238D01*
X134879543Y-98201238D01*
X134830061Y-98151756D01*
X134549989Y-97964618D01*
X134238789Y-97835714D01*
X133908420Y-97770000D01*
X133571580Y-97770000D01*
X133241211Y-97835714D01*
X132930011Y-97964618D01*
X132649939Y-98151756D01*
X132411756Y-98389939D01*
X132224618Y-98670011D01*
X132095714Y-98981211D01*
X132030000Y-99311580D01*
X131250000Y-99311580D01*
X131184286Y-98981211D01*
X131055382Y-98670011D01*
X130868244Y-98389939D01*
X130630061Y-98151756D01*
X130349989Y-97964618D01*
X130038789Y-97835714D01*
X129708420Y-97770000D01*
X129371580Y-97770000D01*
X129041211Y-97835714D01*
X128730011Y-97964618D01*
X128449939Y-98151756D01*
X128211756Y-98389939D01*
X128024618Y-98670011D01*
X127895714Y-98981211D01*
X127830000Y-99311580D01*
X127152000Y-99311580D01*
X127152000Y-92905000D01*
X127826928Y-92905000D01*
X127826928Y-95055000D01*
X127839188Y-95179482D01*
X127875498Y-95299180D01*
X127934463Y-95409494D01*
X128013815Y-95506185D01*
X128110506Y-95585537D01*
X128220820Y-95644502D01*
X128340518Y-95680812D01*
X128465000Y-95693072D01*
X130615000Y-95693072D01*
X130739482Y-95680812D01*
X130859180Y-95644502D01*
X130969494Y-95585537D01*
X131066185Y-95506185D01*
X131145537Y-95409494D01*
X131204502Y-95299180D01*
X131240812Y-95179482D01*
X131253072Y-95055000D01*
X131253072Y-93811580D01*
X132030000Y-93811580D01*
X132030000Y-94148420D01*
X132095714Y-94478789D01*
X132224618Y-94789989D01*
X132411756Y-95070061D01*
X132649939Y-95308244D01*
X132930011Y-95495382D01*
X133241211Y-95624286D01*
X133571580Y-95690000D01*
X133908420Y-95690000D01*
X134238789Y-95624286D01*
X134549989Y-95495382D01*
X134830061Y-95308244D01*
X134879543Y-95258762D01*
X137047318Y-95258762D01*
X137163715Y-95512921D01*
X137477689Y-95634912D01*
X137809429Y-95693306D01*
X138146187Y-95685859D01*
X138475022Y-95612857D01*
X138716285Y-95512921D01*
X138832682Y-95258762D01*
X137940000Y-94366080D01*
X137047318Y-95258762D01*
X134879543Y-95258762D01*
X135068244Y-95070061D01*
X135255382Y-94789989D01*
X135384286Y-94478789D01*
X135450000Y-94148420D01*
X135450000Y-93849429D01*
X136226694Y-93849429D01*
X136234141Y-94186187D01*
X136307143Y-94515022D01*
X136407079Y-94756285D01*
X136661238Y-94872682D01*
X137553920Y-93980000D01*
X138326080Y-93980000D01*
X139218762Y-94872682D01*
X139472921Y-94756285D01*
X139594912Y-94442311D01*
X139653306Y-94110571D01*
X139646695Y-93811580D01*
X140430000Y-93811580D01*
X140430000Y-94148420D01*
X140495714Y-94478789D01*
X140624618Y-94789989D01*
X140811756Y-95070061D01*
X141049939Y-95308244D01*
X141330011Y-95495382D01*
X141641211Y-95624286D01*
X141971580Y-95690000D01*
X142308420Y-95690000D01*
X142638789Y-95624286D01*
X142949989Y-95495382D01*
X143230061Y-95308244D01*
X143279543Y-95258762D01*
X145447318Y-95258762D01*
X145563715Y-95512921D01*
X145877689Y-95634912D01*
X146209429Y-95693306D01*
X146546187Y-95685859D01*
X146875022Y-95612857D01*
X147116285Y-95512921D01*
X147232682Y-95258762D01*
X146340000Y-94366080D01*
X145447318Y-95258762D01*
X143279543Y-95258762D01*
X143468244Y-95070061D01*
X143655382Y-94789989D01*
X143784286Y-94478789D01*
X143850000Y-94148420D01*
X143850000Y-93849429D01*
X144626694Y-93849429D01*
X144634141Y-94186187D01*
X144707143Y-94515022D01*
X144807079Y-94756285D01*
X145061238Y-94872682D01*
X145953920Y-93980000D01*
X146726080Y-93980000D01*
X147618762Y-94872682D01*
X147872921Y-94756285D01*
X147994912Y-94442311D01*
X148053306Y-94110571D01*
X148046695Y-93811580D01*
X148830000Y-93811580D01*
X148830000Y-94148420D01*
X148895714Y-94478789D01*
X149024618Y-94789989D01*
X149211756Y-95070061D01*
X149449939Y-95308244D01*
X149730011Y-95495382D01*
X150041211Y-95624286D01*
X150371580Y-95690000D01*
X150708420Y-95690000D01*
X151038789Y-95624286D01*
X151349989Y-95495382D01*
X151630061Y-95308244D01*
X151679543Y-95258762D01*
X153847318Y-95258762D01*
X153963715Y-95512921D01*
X154277689Y-95634912D01*
X154609429Y-95693306D01*
X154946187Y-95685859D01*
X155275022Y-95612857D01*
X155516285Y-95512921D01*
X155632682Y-95258762D01*
X154740000Y-94366080D01*
X153847318Y-95258762D01*
X151679543Y-95258762D01*
X151868244Y-95070061D01*
X152055382Y-94789989D01*
X152184286Y-94478789D01*
X152250000Y-94148420D01*
X152250000Y-93849429D01*
X153026694Y-93849429D01*
X153034141Y-94186187D01*
X153107143Y-94515022D01*
X153207079Y-94756285D01*
X153461238Y-94872682D01*
X154353920Y-93980000D01*
X155126080Y-93980000D01*
X156018762Y-94872682D01*
X156272921Y-94756285D01*
X156394912Y-94442311D01*
X156453306Y-94110571D01*
X156446695Y-93811580D01*
X157230000Y-93811580D01*
X157230000Y-94148420D01*
X157295714Y-94478789D01*
X157424618Y-94789989D01*
X157611756Y-95070061D01*
X157849939Y-95308244D01*
X158130011Y-95495382D01*
X158441211Y-95624286D01*
X158771580Y-95690000D01*
X159108420Y-95690000D01*
X159438789Y-95624286D01*
X159749989Y-95495382D01*
X160030061Y-95308244D01*
X160268244Y-95070061D01*
X160455382Y-94789989D01*
X160584286Y-94478789D01*
X160650000Y-94148420D01*
X160650000Y-93811580D01*
X161430000Y-93811580D01*
X161430000Y-94148420D01*
X161495714Y-94478789D01*
X161624618Y-94789989D01*
X161811756Y-95070061D01*
X162049939Y-95308244D01*
X162330011Y-95495382D01*
X162641211Y-95624286D01*
X162971580Y-95690000D01*
X163308420Y-95690000D01*
X163638789Y-95624286D01*
X163949989Y-95495382D01*
X164230061Y-95308244D01*
X164468244Y-95070061D01*
X164655382Y-94789989D01*
X164784286Y-94478789D01*
X164850000Y-94148420D01*
X164850000Y-93811580D01*
X165630000Y-93811580D01*
X165630000Y-94148420D01*
X165695714Y-94478789D01*
X165824618Y-94789989D01*
X166011756Y-95070061D01*
X166249939Y-95308244D01*
X166530011Y-95495382D01*
X166841211Y-95624286D01*
X167171580Y-95690000D01*
X167508420Y-95690000D01*
X167838789Y-95624286D01*
X168149989Y-95495382D01*
X168430061Y-95308244D01*
X168668244Y-95070061D01*
X168855382Y-94789989D01*
X168984286Y-94478789D01*
X169050000Y-94148420D01*
X169050000Y-93811580D01*
X169830000Y-93811580D01*
X169830000Y-94148420D01*
X169895714Y-94478789D01*
X170024618Y-94789989D01*
X170211756Y-95070061D01*
X170449939Y-95308244D01*
X170730011Y-95495382D01*
X171041211Y-95624286D01*
X171371580Y-95690000D01*
X171708420Y-95690000D01*
X172038789Y-95624286D01*
X172349989Y-95495382D01*
X172630061Y-95308244D01*
X172868244Y-95070061D01*
X173055382Y-94789989D01*
X173184286Y-94478789D01*
X173250000Y-94148420D01*
X173250000Y-93811580D01*
X174030000Y-93811580D01*
X174030000Y-94148420D01*
X174095714Y-94478789D01*
X174224618Y-94789989D01*
X174411756Y-95070061D01*
X174649939Y-95308244D01*
X174930011Y-95495382D01*
X175241211Y-95624286D01*
X175571580Y-95690000D01*
X175908420Y-95690000D01*
X176238789Y-95624286D01*
X176549989Y-95495382D01*
X176830061Y-95308244D01*
X177068244Y-95070061D01*
X177255382Y-94789989D01*
X177384286Y-94478789D01*
X177450000Y-94148420D01*
X177450000Y-93811580D01*
X177384286Y-93481211D01*
X177255382Y-93170011D01*
X177068244Y-92889939D01*
X176830061Y-92651756D01*
X176549989Y-92464618D01*
X176238789Y-92335714D01*
X175908420Y-92270000D01*
X175571580Y-92270000D01*
X175241211Y-92335714D01*
X174930011Y-92464618D01*
X174649939Y-92651756D01*
X174411756Y-92889939D01*
X174224618Y-93170011D01*
X174095714Y-93481211D01*
X174030000Y-93811580D01*
X173250000Y-93811580D01*
X173184286Y-93481211D01*
X173055382Y-93170011D01*
X172868244Y-92889939D01*
X172630061Y-92651756D01*
X172349989Y-92464618D01*
X172038789Y-92335714D01*
X171708420Y-92270000D01*
X171371580Y-92270000D01*
X171041211Y-92335714D01*
X170730011Y-92464618D01*
X170449939Y-92651756D01*
X170211756Y-92889939D01*
X170024618Y-93170011D01*
X169895714Y-93481211D01*
X169830000Y-93811580D01*
X169050000Y-93811580D01*
X168984286Y-93481211D01*
X168855382Y-93170011D01*
X168668244Y-92889939D01*
X168430061Y-92651756D01*
X168149989Y-92464618D01*
X167838789Y-92335714D01*
X167508420Y-92270000D01*
X167171580Y-92270000D01*
X166841211Y-92335714D01*
X166530011Y-92464618D01*
X166249939Y-92651756D01*
X166011756Y-92889939D01*
X165824618Y-93170011D01*
X165695714Y-93481211D01*
X165630000Y-93811580D01*
X164850000Y-93811580D01*
X164784286Y-93481211D01*
X164655382Y-93170011D01*
X164468244Y-92889939D01*
X164230061Y-92651756D01*
X163949989Y-92464618D01*
X163638789Y-92335714D01*
X163308420Y-92270000D01*
X162971580Y-92270000D01*
X162641211Y-92335714D01*
X162330011Y-92464618D01*
X162049939Y-92651756D01*
X161811756Y-92889939D01*
X161624618Y-93170011D01*
X161495714Y-93481211D01*
X161430000Y-93811580D01*
X160650000Y-93811580D01*
X160584286Y-93481211D01*
X160455382Y-93170011D01*
X160268244Y-92889939D01*
X160030061Y-92651756D01*
X159749989Y-92464618D01*
X159438789Y-92335714D01*
X159108420Y-92270000D01*
X158771580Y-92270000D01*
X158441211Y-92335714D01*
X158130011Y-92464618D01*
X157849939Y-92651756D01*
X157611756Y-92889939D01*
X157424618Y-93170011D01*
X157295714Y-93481211D01*
X157230000Y-93811580D01*
X156446695Y-93811580D01*
X156445859Y-93773813D01*
X156372857Y-93444978D01*
X156272921Y-93203715D01*
X156018762Y-93087318D01*
X155126080Y-93980000D01*
X154353920Y-93980000D01*
X153461238Y-93087318D01*
X153207079Y-93203715D01*
X153085088Y-93517689D01*
X153026694Y-93849429D01*
X152250000Y-93849429D01*
X152250000Y-93811580D01*
X152184286Y-93481211D01*
X152055382Y-93170011D01*
X151868244Y-92889939D01*
X151679543Y-92701238D01*
X153847318Y-92701238D01*
X154740000Y-93593920D01*
X155632682Y-92701238D01*
X155516285Y-92447079D01*
X155202311Y-92325088D01*
X154870571Y-92266694D01*
X154533813Y-92274141D01*
X154204978Y-92347143D01*
X153963715Y-92447079D01*
X153847318Y-92701238D01*
X151679543Y-92701238D01*
X151630061Y-92651756D01*
X151349989Y-92464618D01*
X151038789Y-92335714D01*
X150708420Y-92270000D01*
X150371580Y-92270000D01*
X150041211Y-92335714D01*
X149730011Y-92464618D01*
X149449939Y-92651756D01*
X149211756Y-92889939D01*
X149024618Y-93170011D01*
X148895714Y-93481211D01*
X148830000Y-93811580D01*
X148046695Y-93811580D01*
X148045859Y-93773813D01*
X147972857Y-93444978D01*
X147872921Y-93203715D01*
X147618762Y-93087318D01*
X146726080Y-93980000D01*
X145953920Y-93980000D01*
X145061238Y-93087318D01*
X144807079Y-93203715D01*
X144685088Y-93517689D01*
X144626694Y-93849429D01*
X143850000Y-93849429D01*
X143850000Y-93811580D01*
X143784286Y-93481211D01*
X143655382Y-93170011D01*
X143468244Y-92889939D01*
X143279543Y-92701238D01*
X145447318Y-92701238D01*
X146340000Y-93593920D01*
X147232682Y-92701238D01*
X147116285Y-92447079D01*
X146802311Y-92325088D01*
X146470571Y-92266694D01*
X146133813Y-92274141D01*
X145804978Y-92347143D01*
X145563715Y-92447079D01*
X145447318Y-92701238D01*
X143279543Y-92701238D01*
X143230061Y-92651756D01*
X142949989Y-92464618D01*
X142638789Y-92335714D01*
X142308420Y-92270000D01*
X141971580Y-92270000D01*
X141641211Y-92335714D01*
X141330011Y-92464618D01*
X141049939Y-92651756D01*
X140811756Y-92889939D01*
X140624618Y-93170011D01*
X140495714Y-93481211D01*
X140430000Y-93811580D01*
X139646695Y-93811580D01*
X139645859Y-93773813D01*
X139572857Y-93444978D01*
X139472921Y-93203715D01*
X139218762Y-93087318D01*
X138326080Y-93980000D01*
X137553920Y-93980000D01*
X136661238Y-93087318D01*
X136407079Y-93203715D01*
X136285088Y-93517689D01*
X136226694Y-93849429D01*
X135450000Y-93849429D01*
X135450000Y-93811580D01*
X135384286Y-93481211D01*
X135255382Y-93170011D01*
X135068244Y-92889939D01*
X134879543Y-92701238D01*
X137047318Y-92701238D01*
X137940000Y-93593920D01*
X138832682Y-92701238D01*
X138716285Y-92447079D01*
X138402311Y-92325088D01*
X138070571Y-92266694D01*
X137733813Y-92274141D01*
X137404978Y-92347143D01*
X137163715Y-92447079D01*
X137047318Y-92701238D01*
X134879543Y-92701238D01*
X134830061Y-92651756D01*
X134549989Y-92464618D01*
X134238789Y-92335714D01*
X133908420Y-92270000D01*
X133571580Y-92270000D01*
X133241211Y-92335714D01*
X132930011Y-92464618D01*
X132649939Y-92651756D01*
X132411756Y-92889939D01*
X132224618Y-93170011D01*
X132095714Y-93481211D01*
X132030000Y-93811580D01*
X131253072Y-93811580D01*
X131253072Y-92905000D01*
X131240812Y-92780518D01*
X131204502Y-92660820D01*
X131145537Y-92550506D01*
X131066185Y-92453815D01*
X130969494Y-92374463D01*
X130859180Y-92315498D01*
X130739482Y-92279188D01*
X130615000Y-92266928D01*
X128465000Y-92266928D01*
X128340518Y-92279188D01*
X128220820Y-92315498D01*
X128110506Y-92374463D01*
X128013815Y-92453815D01*
X127934463Y-92550506D01*
X127875498Y-92660820D01*
X127839188Y-92780518D01*
X127826928Y-92905000D01*
X127152000Y-92905000D01*
X127152000Y-90182000D01*
X181237928Y-90182000D01*
X181237928Y-91682000D01*
X181250188Y-91806482D01*
X181286498Y-91926180D01*
X181345463Y-92036494D01*
X181424815Y-92133185D01*
X181521506Y-92212537D01*
X181631820Y-92271502D01*
X181751518Y-92307812D01*
X181876000Y-92320072D01*
X183376000Y-92320072D01*
X183500482Y-92307812D01*
X183620180Y-92271502D01*
X183730494Y-92212537D01*
X183827185Y-92133185D01*
X183906537Y-92036494D01*
X183965502Y-91926180D01*
X184001812Y-91806482D01*
X184012445Y-91698517D01*
X184090201Y-91814886D01*
X184283114Y-92007799D01*
X184509957Y-92159371D01*
X184762011Y-92263775D01*
X185029589Y-92317000D01*
X185302411Y-92317000D01*
X185569989Y-92263775D01*
X185822043Y-92159371D01*
X186048886Y-92007799D01*
X186081457Y-91975228D01*
X187048852Y-91975228D01*
X187124733Y-92196500D01*
X187382594Y-92285602D01*
X187652884Y-92322687D01*
X187925214Y-92306328D01*
X188189119Y-92237154D01*
X188287267Y-92196500D01*
X188363148Y-91975228D01*
X187706000Y-91318080D01*
X187048852Y-91975228D01*
X186081457Y-91975228D01*
X186241799Y-91814886D01*
X186393371Y-91588043D01*
X186432922Y-91492558D01*
X186441500Y-91513267D01*
X186662772Y-91589148D01*
X187319920Y-90932000D01*
X186662772Y-90274852D01*
X186441500Y-90350733D01*
X186433697Y-90373314D01*
X186393371Y-90275957D01*
X186241799Y-90049114D01*
X186081457Y-89888772D01*
X187048852Y-89888772D01*
X187706000Y-90545920D01*
X188363148Y-89888772D01*
X188287267Y-89667500D01*
X188029406Y-89578398D01*
X187759116Y-89541313D01*
X187486786Y-89557672D01*
X187222881Y-89626846D01*
X187124733Y-89667500D01*
X187048852Y-89888772D01*
X186081457Y-89888772D01*
X186048886Y-89856201D01*
X185822043Y-89704629D01*
X185569989Y-89600225D01*
X185302411Y-89547000D01*
X185029589Y-89547000D01*
X184762011Y-89600225D01*
X184509957Y-89704629D01*
X184283114Y-89856201D01*
X184090201Y-90049114D01*
X184012445Y-90165483D01*
X184001812Y-90057518D01*
X183965502Y-89937820D01*
X183906537Y-89827506D01*
X183827185Y-89730815D01*
X183730494Y-89651463D01*
X183620180Y-89592498D01*
X183500482Y-89556188D01*
X183376000Y-89543928D01*
X181876000Y-89543928D01*
X181751518Y-89556188D01*
X181631820Y-89592498D01*
X181521506Y-89651463D01*
X181424815Y-89730815D01*
X181345463Y-89827506D01*
X181286498Y-89937820D01*
X181250188Y-90057518D01*
X181237928Y-90182000D01*
X127152000Y-90182000D01*
X127152000Y-82562000D01*
X181237928Y-82562000D01*
X181237928Y-84062000D01*
X181250188Y-84186482D01*
X181286498Y-84306180D01*
X181345463Y-84416494D01*
X181424815Y-84513185D01*
X181521506Y-84592537D01*
X181631820Y-84651502D01*
X181751518Y-84687812D01*
X181876000Y-84700072D01*
X183376000Y-84700072D01*
X183500482Y-84687812D01*
X183620180Y-84651502D01*
X183730494Y-84592537D01*
X183827185Y-84513185D01*
X183906537Y-84416494D01*
X183965502Y-84306180D01*
X184001812Y-84186482D01*
X184012445Y-84078517D01*
X184090201Y-84194886D01*
X184283114Y-84387799D01*
X184509957Y-84539371D01*
X184762011Y-84643775D01*
X185029589Y-84697000D01*
X185302411Y-84697000D01*
X185569989Y-84643775D01*
X185822043Y-84539371D01*
X186048886Y-84387799D01*
X186081457Y-84355228D01*
X187048852Y-84355228D01*
X187124733Y-84576500D01*
X187382594Y-84665602D01*
X187652884Y-84702687D01*
X187925214Y-84686328D01*
X188189119Y-84617154D01*
X188287267Y-84576500D01*
X188363148Y-84355228D01*
X187706000Y-83698080D01*
X187048852Y-84355228D01*
X186081457Y-84355228D01*
X186241799Y-84194886D01*
X186393371Y-83968043D01*
X186432922Y-83872558D01*
X186441500Y-83893267D01*
X186662772Y-83969148D01*
X187319920Y-83312000D01*
X186662772Y-82654852D01*
X186441500Y-82730733D01*
X186433697Y-82753314D01*
X186393371Y-82655957D01*
X186241799Y-82429114D01*
X186081457Y-82268772D01*
X187048852Y-82268772D01*
X187706000Y-82925920D01*
X188363148Y-82268772D01*
X188287267Y-82047500D01*
X188029406Y-81958398D01*
X187759116Y-81921313D01*
X187486786Y-81937672D01*
X187222881Y-82006846D01*
X187124733Y-82047500D01*
X187048852Y-82268772D01*
X186081457Y-82268772D01*
X186048886Y-82236201D01*
X185822043Y-82084629D01*
X185569989Y-81980225D01*
X185302411Y-81927000D01*
X185029589Y-81927000D01*
X184762011Y-81980225D01*
X184509957Y-82084629D01*
X184283114Y-82236201D01*
X184090201Y-82429114D01*
X184012445Y-82545483D01*
X184001812Y-82437518D01*
X183965502Y-82317820D01*
X183906537Y-82207506D01*
X183827185Y-82110815D01*
X183730494Y-82031463D01*
X183620180Y-81972498D01*
X183500482Y-81936188D01*
X183376000Y-81923928D01*
X181876000Y-81923928D01*
X181751518Y-81936188D01*
X181631820Y-81972498D01*
X181521506Y-82031463D01*
X181424815Y-82110815D01*
X181345463Y-82207506D01*
X181286498Y-82317820D01*
X181250188Y-82437518D01*
X181237928Y-82562000D01*
X127152000Y-82562000D01*
X127152000Y-80416000D01*
X188824001Y-80416000D01*
X188824001Y-82680494D01*
%TD*%
M02*
