%FSLAX45Y45*%
G04 Gerber Fmt 4.5, Leading zero omitted, Abs format (unit mm)*
G04 Created by KiCad (PCBNEW (5.1.6)-1) date 2022-09-12 11:02:47*
%MOMM*%
%LPD*%
G01*
G04 APERTURE LIST*
%TA.AperFunction,Profile*%
%ADD10C,0.050000*%
%TD*%
%ADD11C,0.200000*%
%ADD12C,0.300000*%
G04 APERTURE END LIST*
D10*
X14071600Y-12293600D02*
X12649200Y-11125200D01*
X12649200Y-11023600D02*
X12649200Y-11125200D01*
X14071600Y-12293600D02*
X15290800Y-12293600D01*
X12649200Y-7975600D02*
X12649200Y-11023600D01*
X18948400Y-7975600D02*
X12649200Y-7975600D01*
X18948400Y-10210800D02*
X18948400Y-7975600D01*
X17805400Y-10210800D02*
X18948400Y-10210800D01*
X17805400Y-11125200D02*
X17805400Y-10210800D01*
X16510000Y-12293600D02*
X17805400Y-11125200D01*
X15290800Y-12293600D02*
X16510000Y-12293600D01*
D11*
X17052678Y-10788422D02*
X17102678Y-10838422D01*
X17102678Y-10788422D02*
X17052678Y-10838422D01*
X17133956Y-10592200D02*
X17183956Y-10642200D01*
X17183956Y-10592200D02*
X17133956Y-10642200D01*
X17133956Y-10984644D02*
X17183956Y-11034644D01*
X17183956Y-10984644D02*
X17133956Y-11034644D01*
X17330178Y-10510922D02*
X17380178Y-10560922D01*
X17380178Y-10510922D02*
X17330178Y-10560922D01*
X17330178Y-11065922D02*
X17380178Y-11115922D01*
X17380178Y-11065922D02*
X17330178Y-11115922D01*
X17526400Y-10592200D02*
X17576400Y-10642200D01*
X17576400Y-10592200D02*
X17526400Y-10642200D01*
X17526400Y-10984644D02*
X17576400Y-11034644D01*
X17576400Y-10984644D02*
X17526400Y-11034644D01*
X17607678Y-10788422D02*
X17657678Y-10838422D01*
X17657678Y-10788422D02*
X17607678Y-10838422D01*
X12803900Y-10795400D02*
X12853900Y-10845400D01*
X12853900Y-10795400D02*
X12803900Y-10845400D01*
X12885178Y-10599178D02*
X12935178Y-10649178D01*
X12935178Y-10599178D02*
X12885178Y-10649178D01*
X12885178Y-10991622D02*
X12935178Y-11041622D01*
X12935178Y-10991622D02*
X12885178Y-11041622D01*
X13081400Y-10517900D02*
X13131400Y-10567900D01*
X13131400Y-10517900D02*
X13081400Y-10567900D01*
X13081400Y-11072900D02*
X13131400Y-11122900D01*
X13131400Y-11072900D02*
X13081400Y-11122900D01*
X13277622Y-10599178D02*
X13327622Y-10649178D01*
X13327622Y-10599178D02*
X13277622Y-10649178D01*
X13277622Y-10991622D02*
X13327622Y-11041622D01*
X13327622Y-10991622D02*
X13277622Y-11041622D01*
X13358900Y-10795400D02*
X13408900Y-10845400D01*
X13408900Y-10795400D02*
X13358900Y-10845400D01*
X15534000Y-10541000D02*
G75*
G03*
X15534000Y-10541000I-40000J0D01*
G01*
X16296000Y-10541000D02*
G75*
G03*
X16296000Y-10541000I-40000J0D01*
G01*
X14960600Y-10496000D02*
X14960600Y-10586000D01*
X14915600Y-10541000D02*
X15005600Y-10541000D01*
X15214600Y-10496000D02*
X15214600Y-10586000D01*
X15169600Y-10541000D02*
X15259600Y-10541000D01*
X18297956Y-8366556D02*
X18297956Y-8295844D01*
X18227244Y-8295844D01*
X18227244Y-8366556D01*
X18297956Y-8366556D01*
X18551956Y-8366556D02*
X18551956Y-8295844D01*
X18481244Y-8295844D01*
X18481244Y-8366556D01*
X18551956Y-8366556D01*
X18805956Y-8366556D02*
X18805956Y-8295844D01*
X18735244Y-8295844D01*
X18735244Y-8366556D01*
X18805956Y-8366556D01*
X14411756Y-10576356D02*
X14411756Y-10505644D01*
X14341044Y-10505644D01*
X14341044Y-10576356D01*
X14411756Y-10576356D01*
X14665756Y-10576356D02*
X14665756Y-10505644D01*
X14595044Y-10505644D01*
X14595044Y-10576356D01*
X14665756Y-10576356D01*
X18297956Y-9128556D02*
X18297956Y-9057844D01*
X18227244Y-9057844D01*
X18227244Y-9128556D01*
X18297956Y-9128556D01*
X18551956Y-9128556D02*
X18551956Y-9057844D01*
X18481244Y-9057844D01*
X18481244Y-9128556D01*
X18551956Y-9128556D01*
X18805956Y-9128556D02*
X18805956Y-9057844D01*
X18735244Y-9057844D01*
X18735244Y-9128556D01*
X18805956Y-9128556D01*
X18297956Y-9890556D02*
X18297956Y-9819844D01*
X18227244Y-9819844D01*
X18227244Y-9890556D01*
X18297956Y-9890556D01*
X18551956Y-9890556D02*
X18551956Y-9819844D01*
X18481244Y-9819844D01*
X18481244Y-9890556D01*
X18551956Y-9890556D01*
X18805956Y-9890556D02*
X18805956Y-9819844D01*
X18735244Y-9819844D01*
X18735244Y-9890556D01*
X18805956Y-9890556D01*
X12954000Y-9488000D02*
X13044000Y-9398000D01*
X12954000Y-9308000D01*
X12864000Y-9398000D01*
X12954000Y-9488000D01*
X12954000Y-10038000D02*
X13044000Y-9948000D01*
X12954000Y-9858000D01*
X12864000Y-9948000D01*
X12954000Y-10038000D01*
X13374000Y-9488000D02*
X13464000Y-9398000D01*
X13374000Y-9308000D01*
X13284000Y-9398000D01*
X13374000Y-9488000D01*
X13374000Y-10038000D02*
X13464000Y-9948000D01*
X13374000Y-9858000D01*
X13284000Y-9948000D01*
X13374000Y-10038000D01*
X13794000Y-9488000D02*
X13884000Y-9398000D01*
X13794000Y-9308000D01*
X13704000Y-9398000D01*
X13794000Y-9488000D01*
X13794000Y-10038000D02*
X13884000Y-9948000D01*
X13794000Y-9858000D01*
X13704000Y-9948000D01*
X13794000Y-10038000D01*
X14214000Y-9488000D02*
X14304000Y-9398000D01*
X14214000Y-9308000D01*
X14124000Y-9398000D01*
X14214000Y-9488000D01*
X14214000Y-10038000D02*
X14304000Y-9948000D01*
X14214000Y-9858000D01*
X14124000Y-9948000D01*
X14214000Y-10038000D01*
X14634000Y-9488000D02*
X14724000Y-9398000D01*
X14634000Y-9308000D01*
X14544000Y-9398000D01*
X14634000Y-9488000D01*
X14634000Y-10038000D02*
X14724000Y-9948000D01*
X14634000Y-9858000D01*
X14544000Y-9948000D01*
X14634000Y-10038000D01*
X15054000Y-9488000D02*
X15144000Y-9398000D01*
X15054000Y-9308000D01*
X14964000Y-9398000D01*
X15054000Y-9488000D01*
X15054000Y-10038000D02*
X15144000Y-9948000D01*
X15054000Y-9858000D01*
X14964000Y-9948000D01*
X15054000Y-10038000D01*
X15474000Y-9488000D02*
X15564000Y-9398000D01*
X15474000Y-9308000D01*
X15384000Y-9398000D01*
X15474000Y-9488000D01*
X15474000Y-10038000D02*
X15564000Y-9948000D01*
X15474000Y-9858000D01*
X15384000Y-9948000D01*
X15474000Y-10038000D01*
X15894000Y-9488000D02*
X15984000Y-9398000D01*
X15894000Y-9308000D01*
X15804000Y-9398000D01*
X15894000Y-9488000D01*
X15894000Y-10038000D02*
X15984000Y-9948000D01*
X15894000Y-9858000D01*
X15804000Y-9948000D01*
X15894000Y-10038000D01*
X16314000Y-9488000D02*
X16404000Y-9398000D01*
X16314000Y-9308000D01*
X16224000Y-9398000D01*
X16314000Y-9488000D01*
X16314000Y-10038000D02*
X16404000Y-9948000D01*
X16314000Y-9858000D01*
X16224000Y-9948000D01*
X16314000Y-10038000D01*
X16734000Y-9488000D02*
X16824000Y-9398000D01*
X16734000Y-9308000D01*
X16644000Y-9398000D01*
X16734000Y-9488000D01*
X16734000Y-10038000D02*
X16824000Y-9948000D01*
X16734000Y-9858000D01*
X16644000Y-9948000D01*
X16734000Y-10038000D01*
X17154000Y-9488000D02*
X17244000Y-9398000D01*
X17154000Y-9308000D01*
X17064000Y-9398000D01*
X17154000Y-9488000D01*
X17154000Y-10038000D02*
X17244000Y-9948000D01*
X17154000Y-9858000D01*
X17064000Y-9948000D01*
X17154000Y-10038000D01*
X17574000Y-9488000D02*
X17664000Y-9398000D01*
X17574000Y-9308000D01*
X17484000Y-9398000D01*
X17574000Y-9488000D01*
X17574000Y-10038000D02*
X17664000Y-9948000D01*
X17574000Y-9858000D01*
X17484000Y-9948000D01*
X17574000Y-10038000D01*
X14436300Y-11743900D02*
X14621300Y-11928900D01*
X14621300Y-11743900D02*
X14436300Y-11928900D01*
X14621300Y-11836400D02*
G75*
G03*
X14621300Y-11836400I-92500J0D01*
G01*
X14944300Y-11743900D02*
X15129300Y-11928900D01*
X15129300Y-11743900D02*
X14944300Y-11928900D01*
X15129300Y-11836400D02*
G75*
G03*
X15129300Y-11836400I-92500J0D01*
G01*
X15452300Y-11743900D02*
X15637300Y-11928900D01*
X15637300Y-11743900D02*
X15452300Y-11928900D01*
X15637300Y-11836400D02*
G75*
G03*
X15637300Y-11836400I-92500J0D01*
G01*
X15960300Y-11743900D02*
X16145300Y-11928900D01*
X16145300Y-11743900D02*
X15960300Y-11928900D01*
X16145300Y-11836400D02*
G75*
G03*
X16145300Y-11836400I-92500J0D01*
G01*
X17170178Y-10628422D02*
X17540178Y-10998422D01*
X17540178Y-10628422D02*
X17170178Y-10998422D01*
X17355178Y-10628422D02*
X17355178Y-10998422D01*
X17170178Y-10813422D02*
X17540178Y-10813422D01*
X12921400Y-10635400D02*
X13291400Y-11005400D01*
X13291400Y-10635400D02*
X12921400Y-11005400D01*
X13106400Y-10635400D02*
X13106400Y-11005400D01*
X12921400Y-10820400D02*
X13291400Y-10820400D01*
D12*
X12933128Y-12761814D02*
X12933128Y-12461814D01*
X13004557Y-12461814D01*
X13047414Y-12476100D01*
X13075986Y-12504671D01*
X13090271Y-12533243D01*
X13104557Y-12590386D01*
X13104557Y-12633243D01*
X13090271Y-12690386D01*
X13075986Y-12718957D01*
X13047414Y-12747529D01*
X13004557Y-12761814D01*
X12933128Y-12761814D01*
X13233128Y-12761814D02*
X13233128Y-12561814D01*
X13233128Y-12618957D02*
X13247414Y-12590386D01*
X13261700Y-12576100D01*
X13290271Y-12561814D01*
X13318843Y-12561814D01*
X13418843Y-12761814D02*
X13418843Y-12561814D01*
X13418843Y-12461814D02*
X13404557Y-12476100D01*
X13418843Y-12490386D01*
X13433128Y-12476100D01*
X13418843Y-12461814D01*
X13418843Y-12490386D01*
X13604557Y-12761814D02*
X13575986Y-12747529D01*
X13561700Y-12718957D01*
X13561700Y-12461814D01*
X13761700Y-12761814D02*
X13733128Y-12747529D01*
X13718843Y-12718957D01*
X13718843Y-12461814D01*
X14104557Y-12761814D02*
X14104557Y-12461814D01*
X14204557Y-12676100D01*
X14304557Y-12461814D01*
X14304557Y-12761814D01*
X14575986Y-12761814D02*
X14575986Y-12604671D01*
X14561700Y-12576100D01*
X14533128Y-12561814D01*
X14475986Y-12561814D01*
X14447414Y-12576100D01*
X14575986Y-12747529D02*
X14547414Y-12761814D01*
X14475986Y-12761814D01*
X14447414Y-12747529D01*
X14433128Y-12718957D01*
X14433128Y-12690386D01*
X14447414Y-12661814D01*
X14475986Y-12647529D01*
X14547414Y-12647529D01*
X14575986Y-12633243D01*
X14718843Y-12561814D02*
X14718843Y-12861814D01*
X14718843Y-12576100D02*
X14747414Y-12561814D01*
X14804557Y-12561814D01*
X14833128Y-12576100D01*
X14847414Y-12590386D01*
X14861700Y-12618957D01*
X14861700Y-12704671D01*
X14847414Y-12733243D01*
X14833128Y-12747529D01*
X14804557Y-12761814D01*
X14747414Y-12761814D01*
X14718843Y-12747529D01*
X14990271Y-12733243D02*
X15004557Y-12747529D01*
X14990271Y-12761814D01*
X14975986Y-12747529D01*
X14990271Y-12733243D01*
X14990271Y-12761814D01*
X14990271Y-12576100D02*
X15004557Y-12590386D01*
X14990271Y-12604671D01*
X14975986Y-12590386D01*
X14990271Y-12576100D01*
X14990271Y-12604671D01*
X12596700Y-13231100D02*
X12646700Y-13281100D01*
X12646700Y-13231100D02*
X12596700Y-13281100D01*
X12990271Y-13091814D02*
X13018843Y-13091814D01*
X13047414Y-13106100D01*
X13061700Y-13120386D01*
X13075986Y-13148957D01*
X13090271Y-13206100D01*
X13090271Y-13277529D01*
X13075986Y-13334671D01*
X13061700Y-13363243D01*
X13047414Y-13377529D01*
X13018843Y-13391814D01*
X12990271Y-13391814D01*
X12961700Y-13377529D01*
X12947414Y-13363243D01*
X12933128Y-13334671D01*
X12918843Y-13277529D01*
X12918843Y-13206100D01*
X12933128Y-13148957D01*
X12947414Y-13120386D01*
X12961700Y-13106100D01*
X12990271Y-13091814D01*
X13218843Y-13363243D02*
X13233128Y-13377529D01*
X13218843Y-13391814D01*
X13204557Y-13377529D01*
X13218843Y-13363243D01*
X13218843Y-13391814D01*
X13504557Y-13091814D02*
X13361700Y-13091814D01*
X13347414Y-13234671D01*
X13361700Y-13220386D01*
X13390271Y-13206100D01*
X13461700Y-13206100D01*
X13490271Y-13220386D01*
X13504557Y-13234671D01*
X13518843Y-13263243D01*
X13518843Y-13334671D01*
X13504557Y-13363243D01*
X13490271Y-13377529D01*
X13461700Y-13391814D01*
X13390271Y-13391814D01*
X13361700Y-13377529D01*
X13347414Y-13363243D01*
X13704557Y-13091814D02*
X13733128Y-13091814D01*
X13761700Y-13106100D01*
X13775986Y-13120386D01*
X13790271Y-13148957D01*
X13804557Y-13206100D01*
X13804557Y-13277529D01*
X13790271Y-13334671D01*
X13775986Y-13363243D01*
X13761700Y-13377529D01*
X13733128Y-13391814D01*
X13704557Y-13391814D01*
X13675986Y-13377529D01*
X13661700Y-13363243D01*
X13647414Y-13334671D01*
X13633128Y-13277529D01*
X13633128Y-13206100D01*
X13647414Y-13148957D01*
X13661700Y-13120386D01*
X13675986Y-13106100D01*
X13704557Y-13091814D01*
X13933128Y-13391814D02*
X13933128Y-13191814D01*
X13933128Y-13220386D02*
X13947414Y-13206100D01*
X13975986Y-13191814D01*
X14018843Y-13191814D01*
X14047414Y-13206100D01*
X14061700Y-13234671D01*
X14061700Y-13391814D01*
X14061700Y-13234671D02*
X14075986Y-13206100D01*
X14104557Y-13191814D01*
X14147414Y-13191814D01*
X14175986Y-13206100D01*
X14190271Y-13234671D01*
X14190271Y-13391814D01*
X14333128Y-13391814D02*
X14333128Y-13191814D01*
X14333128Y-13220386D02*
X14347414Y-13206100D01*
X14375986Y-13191814D01*
X14418843Y-13191814D01*
X14447414Y-13206100D01*
X14461700Y-13234671D01*
X14461700Y-13391814D01*
X14461700Y-13234671D02*
X14475986Y-13206100D01*
X14504557Y-13191814D01*
X14547414Y-13191814D01*
X14575986Y-13206100D01*
X14590271Y-13234671D01*
X14590271Y-13391814D01*
X15175986Y-13077529D02*
X14918843Y-13463243D01*
X15561700Y-13091814D02*
X15590271Y-13091814D01*
X15618843Y-13106100D01*
X15633128Y-13120386D01*
X15647414Y-13148957D01*
X15661700Y-13206100D01*
X15661700Y-13277529D01*
X15647414Y-13334671D01*
X15633128Y-13363243D01*
X15618843Y-13377529D01*
X15590271Y-13391814D01*
X15561700Y-13391814D01*
X15533128Y-13377529D01*
X15518843Y-13363243D01*
X15504557Y-13334671D01*
X15490271Y-13277529D01*
X15490271Y-13206100D01*
X15504557Y-13148957D01*
X15518843Y-13120386D01*
X15533128Y-13106100D01*
X15561700Y-13091814D01*
X15790271Y-13363243D02*
X15804557Y-13377529D01*
X15790271Y-13391814D01*
X15775986Y-13377529D01*
X15790271Y-13363243D01*
X15790271Y-13391814D01*
X15990271Y-13091814D02*
X16018843Y-13091814D01*
X16047414Y-13106100D01*
X16061700Y-13120386D01*
X16075986Y-13148957D01*
X16090271Y-13206100D01*
X16090271Y-13277529D01*
X16075986Y-13334671D01*
X16061700Y-13363243D01*
X16047414Y-13377529D01*
X16018843Y-13391814D01*
X15990271Y-13391814D01*
X15961700Y-13377529D01*
X15947414Y-13363243D01*
X15933128Y-13334671D01*
X15918843Y-13277529D01*
X15918843Y-13206100D01*
X15933128Y-13148957D01*
X15947414Y-13120386D01*
X15961700Y-13106100D01*
X15990271Y-13091814D01*
X16204557Y-13120386D02*
X16218843Y-13106100D01*
X16247414Y-13091814D01*
X16318843Y-13091814D01*
X16347414Y-13106100D01*
X16361700Y-13120386D01*
X16375986Y-13148957D01*
X16375986Y-13177529D01*
X16361700Y-13220386D01*
X16190271Y-13391814D01*
X16375986Y-13391814D01*
X16561700Y-13091814D02*
X16590271Y-13091814D01*
X16618843Y-13106100D01*
X16633128Y-13120386D01*
X16647414Y-13148957D01*
X16661700Y-13206100D01*
X16661700Y-13277529D01*
X16647414Y-13334671D01*
X16633128Y-13363243D01*
X16618843Y-13377529D01*
X16590271Y-13391814D01*
X16561700Y-13391814D01*
X16533128Y-13377529D01*
X16518843Y-13363243D01*
X16504557Y-13334671D01*
X16490271Y-13277529D01*
X16490271Y-13206100D01*
X16504557Y-13148957D01*
X16518843Y-13120386D01*
X16533128Y-13106100D01*
X16561700Y-13091814D01*
X16775986Y-13091814D02*
X16775986Y-13148957D01*
X16890271Y-13091814D02*
X16890271Y-13148957D01*
X17333128Y-13506100D02*
X17318843Y-13491814D01*
X17290271Y-13448957D01*
X17275986Y-13420386D01*
X17261700Y-13377529D01*
X17247414Y-13306100D01*
X17247414Y-13248957D01*
X17261700Y-13177529D01*
X17275986Y-13134671D01*
X17290271Y-13106100D01*
X17318843Y-13063243D01*
X17333128Y-13048957D01*
X17604557Y-13391814D02*
X17433128Y-13391814D01*
X17518843Y-13391814D02*
X17518843Y-13091814D01*
X17490271Y-13134671D01*
X17461700Y-13163243D01*
X17433128Y-13177529D01*
X17861700Y-13091814D02*
X17804557Y-13091814D01*
X17775986Y-13106100D01*
X17761700Y-13120386D01*
X17733128Y-13163243D01*
X17718843Y-13220386D01*
X17718843Y-13334671D01*
X17733128Y-13363243D01*
X17747414Y-13377529D01*
X17775986Y-13391814D01*
X17833128Y-13391814D01*
X17861700Y-13377529D01*
X17875986Y-13363243D01*
X17890271Y-13334671D01*
X17890271Y-13263243D01*
X17875986Y-13234671D01*
X17861700Y-13220386D01*
X17833128Y-13206100D01*
X17775986Y-13206100D01*
X17747414Y-13220386D01*
X17733128Y-13234671D01*
X17718843Y-13263243D01*
X18247414Y-13391814D02*
X18247414Y-13091814D01*
X18375986Y-13391814D02*
X18375986Y-13234671D01*
X18361700Y-13206100D01*
X18333128Y-13191814D01*
X18290271Y-13191814D01*
X18261700Y-13206100D01*
X18247414Y-13220386D01*
X18561700Y-13391814D02*
X18533128Y-13377529D01*
X18518843Y-13363243D01*
X18504557Y-13334671D01*
X18504557Y-13248957D01*
X18518843Y-13220386D01*
X18533128Y-13206100D01*
X18561700Y-13191814D01*
X18604557Y-13191814D01*
X18633128Y-13206100D01*
X18647414Y-13220386D01*
X18661700Y-13248957D01*
X18661700Y-13334671D01*
X18647414Y-13363243D01*
X18633128Y-13377529D01*
X18604557Y-13391814D01*
X18561700Y-13391814D01*
X18833128Y-13391814D02*
X18804557Y-13377529D01*
X18790271Y-13348957D01*
X18790271Y-13091814D01*
X19061700Y-13377529D02*
X19033128Y-13391814D01*
X18975986Y-13391814D01*
X18947414Y-13377529D01*
X18933128Y-13348957D01*
X18933128Y-13234671D01*
X18947414Y-13206100D01*
X18975986Y-13191814D01*
X19033128Y-13191814D01*
X19061700Y-13206100D01*
X19075986Y-13234671D01*
X19075986Y-13263243D01*
X18933128Y-13291814D01*
X19190271Y-13377529D02*
X19218843Y-13391814D01*
X19275986Y-13391814D01*
X19304557Y-13377529D01*
X19318843Y-13348957D01*
X19318843Y-13334671D01*
X19304557Y-13306100D01*
X19275986Y-13291814D01*
X19233128Y-13291814D01*
X19204557Y-13277529D01*
X19190271Y-13248957D01*
X19190271Y-13234671D01*
X19204557Y-13206100D01*
X19233128Y-13191814D01*
X19275986Y-13191814D01*
X19304557Y-13206100D01*
X19418843Y-13506100D02*
X19433128Y-13491814D01*
X19461700Y-13448957D01*
X19475986Y-13420386D01*
X19490271Y-13377529D01*
X19504557Y-13306100D01*
X19504557Y-13248957D01*
X19490271Y-13177529D01*
X19475986Y-13134671D01*
X19461700Y-13106100D01*
X19433128Y-13063243D01*
X19418843Y-13048957D01*
X12646700Y-13652100D02*
G75*
G03*
X12646700Y-13652100I-40000J0D01*
G01*
X12990271Y-13487814D02*
X13018843Y-13487814D01*
X13047414Y-13502100D01*
X13061700Y-13516386D01*
X13075986Y-13544957D01*
X13090271Y-13602100D01*
X13090271Y-13673529D01*
X13075986Y-13730671D01*
X13061700Y-13759243D01*
X13047414Y-13773529D01*
X13018843Y-13787814D01*
X12990271Y-13787814D01*
X12961700Y-13773529D01*
X12947414Y-13759243D01*
X12933128Y-13730671D01*
X12918843Y-13673529D01*
X12918843Y-13602100D01*
X12933128Y-13544957D01*
X12947414Y-13516386D01*
X12961700Y-13502100D01*
X12990271Y-13487814D01*
X13218843Y-13759243D02*
X13233128Y-13773529D01*
X13218843Y-13787814D01*
X13204557Y-13773529D01*
X13218843Y-13759243D01*
X13218843Y-13787814D01*
X13404557Y-13616386D02*
X13375986Y-13602100D01*
X13361700Y-13587814D01*
X13347414Y-13559243D01*
X13347414Y-13544957D01*
X13361700Y-13516386D01*
X13375986Y-13502100D01*
X13404557Y-13487814D01*
X13461700Y-13487814D01*
X13490271Y-13502100D01*
X13504557Y-13516386D01*
X13518843Y-13544957D01*
X13518843Y-13559243D01*
X13504557Y-13587814D01*
X13490271Y-13602100D01*
X13461700Y-13616386D01*
X13404557Y-13616386D01*
X13375986Y-13630671D01*
X13361700Y-13644957D01*
X13347414Y-13673529D01*
X13347414Y-13730671D01*
X13361700Y-13759243D01*
X13375986Y-13773529D01*
X13404557Y-13787814D01*
X13461700Y-13787814D01*
X13490271Y-13773529D01*
X13504557Y-13759243D01*
X13518843Y-13730671D01*
X13518843Y-13673529D01*
X13504557Y-13644957D01*
X13490271Y-13630671D01*
X13461700Y-13616386D01*
X13704557Y-13487814D02*
X13733128Y-13487814D01*
X13761700Y-13502100D01*
X13775986Y-13516386D01*
X13790271Y-13544957D01*
X13804557Y-13602100D01*
X13804557Y-13673529D01*
X13790271Y-13730671D01*
X13775986Y-13759243D01*
X13761700Y-13773529D01*
X13733128Y-13787814D01*
X13704557Y-13787814D01*
X13675986Y-13773529D01*
X13661700Y-13759243D01*
X13647414Y-13730671D01*
X13633128Y-13673529D01*
X13633128Y-13602100D01*
X13647414Y-13544957D01*
X13661700Y-13516386D01*
X13675986Y-13502100D01*
X13704557Y-13487814D01*
X13933128Y-13787814D02*
X13933128Y-13587814D01*
X13933128Y-13616386D02*
X13947414Y-13602100D01*
X13975986Y-13587814D01*
X14018843Y-13587814D01*
X14047414Y-13602100D01*
X14061700Y-13630671D01*
X14061700Y-13787814D01*
X14061700Y-13630671D02*
X14075986Y-13602100D01*
X14104557Y-13587814D01*
X14147414Y-13587814D01*
X14175986Y-13602100D01*
X14190271Y-13630671D01*
X14190271Y-13787814D01*
X14333128Y-13787814D02*
X14333128Y-13587814D01*
X14333128Y-13616386D02*
X14347414Y-13602100D01*
X14375986Y-13587814D01*
X14418843Y-13587814D01*
X14447414Y-13602100D01*
X14461700Y-13630671D01*
X14461700Y-13787814D01*
X14461700Y-13630671D02*
X14475986Y-13602100D01*
X14504557Y-13587814D01*
X14547414Y-13587814D01*
X14575986Y-13602100D01*
X14590271Y-13630671D01*
X14590271Y-13787814D01*
X15175986Y-13473529D02*
X14918843Y-13859243D01*
X15561700Y-13487814D02*
X15590271Y-13487814D01*
X15618843Y-13502100D01*
X15633128Y-13516386D01*
X15647414Y-13544957D01*
X15661700Y-13602100D01*
X15661700Y-13673529D01*
X15647414Y-13730671D01*
X15633128Y-13759243D01*
X15618843Y-13773529D01*
X15590271Y-13787814D01*
X15561700Y-13787814D01*
X15533128Y-13773529D01*
X15518843Y-13759243D01*
X15504557Y-13730671D01*
X15490271Y-13673529D01*
X15490271Y-13602100D01*
X15504557Y-13544957D01*
X15518843Y-13516386D01*
X15533128Y-13502100D01*
X15561700Y-13487814D01*
X15790271Y-13759243D02*
X15804557Y-13773529D01*
X15790271Y-13787814D01*
X15775986Y-13773529D01*
X15790271Y-13759243D01*
X15790271Y-13787814D01*
X15990271Y-13487814D02*
X16018843Y-13487814D01*
X16047414Y-13502100D01*
X16061700Y-13516386D01*
X16075986Y-13544957D01*
X16090271Y-13602100D01*
X16090271Y-13673529D01*
X16075986Y-13730671D01*
X16061700Y-13759243D01*
X16047414Y-13773529D01*
X16018843Y-13787814D01*
X15990271Y-13787814D01*
X15961700Y-13773529D01*
X15947414Y-13759243D01*
X15933128Y-13730671D01*
X15918843Y-13673529D01*
X15918843Y-13602100D01*
X15933128Y-13544957D01*
X15947414Y-13516386D01*
X15961700Y-13502100D01*
X15990271Y-13487814D01*
X16190271Y-13487814D02*
X16375986Y-13487814D01*
X16275986Y-13602100D01*
X16318843Y-13602100D01*
X16347414Y-13616386D01*
X16361700Y-13630671D01*
X16375986Y-13659243D01*
X16375986Y-13730671D01*
X16361700Y-13759243D01*
X16347414Y-13773529D01*
X16318843Y-13787814D01*
X16233128Y-13787814D01*
X16204557Y-13773529D01*
X16190271Y-13759243D01*
X16661700Y-13787814D02*
X16490271Y-13787814D01*
X16575986Y-13787814D02*
X16575986Y-13487814D01*
X16547414Y-13530671D01*
X16518843Y-13559243D01*
X16490271Y-13573529D01*
X16775986Y-13487814D02*
X16775986Y-13544957D01*
X16890271Y-13487814D02*
X16890271Y-13544957D01*
X17333128Y-13902100D02*
X17318843Y-13887814D01*
X17290271Y-13844957D01*
X17275986Y-13816386D01*
X17261700Y-13773529D01*
X17247414Y-13702100D01*
X17247414Y-13644957D01*
X17261700Y-13573529D01*
X17275986Y-13530671D01*
X17290271Y-13502100D01*
X17318843Y-13459243D01*
X17333128Y-13444957D01*
X17433128Y-13516386D02*
X17447414Y-13502100D01*
X17475986Y-13487814D01*
X17547414Y-13487814D01*
X17575986Y-13502100D01*
X17590271Y-13516386D01*
X17604557Y-13544957D01*
X17604557Y-13573529D01*
X17590271Y-13616386D01*
X17418843Y-13787814D01*
X17604557Y-13787814D01*
X17961700Y-13787814D02*
X17961700Y-13487814D01*
X18090271Y-13787814D02*
X18090271Y-13630671D01*
X18075986Y-13602100D01*
X18047414Y-13587814D01*
X18004557Y-13587814D01*
X17975986Y-13602100D01*
X17961700Y-13616386D01*
X18275986Y-13787814D02*
X18247414Y-13773529D01*
X18233128Y-13759243D01*
X18218843Y-13730671D01*
X18218843Y-13644957D01*
X18233128Y-13616386D01*
X18247414Y-13602100D01*
X18275986Y-13587814D01*
X18318843Y-13587814D01*
X18347414Y-13602100D01*
X18361700Y-13616386D01*
X18375986Y-13644957D01*
X18375986Y-13730671D01*
X18361700Y-13759243D01*
X18347414Y-13773529D01*
X18318843Y-13787814D01*
X18275986Y-13787814D01*
X18547414Y-13787814D02*
X18518843Y-13773529D01*
X18504557Y-13744957D01*
X18504557Y-13487814D01*
X18775986Y-13773529D02*
X18747414Y-13787814D01*
X18690271Y-13787814D01*
X18661700Y-13773529D01*
X18647414Y-13744957D01*
X18647414Y-13630671D01*
X18661700Y-13602100D01*
X18690271Y-13587814D01*
X18747414Y-13587814D01*
X18775986Y-13602100D01*
X18790271Y-13630671D01*
X18790271Y-13659243D01*
X18647414Y-13687814D01*
X18904557Y-13773529D02*
X18933128Y-13787814D01*
X18990271Y-13787814D01*
X19018843Y-13773529D01*
X19033128Y-13744957D01*
X19033128Y-13730671D01*
X19018843Y-13702100D01*
X18990271Y-13687814D01*
X18947414Y-13687814D01*
X18918843Y-13673529D01*
X18904557Y-13644957D01*
X18904557Y-13630671D01*
X18918843Y-13602100D01*
X18947414Y-13587814D01*
X18990271Y-13587814D01*
X19018843Y-13602100D01*
X19133128Y-13902100D02*
X19147414Y-13887814D01*
X19175986Y-13844957D01*
X19190271Y-13816386D01*
X19204557Y-13773529D01*
X19218843Y-13702100D01*
X19218843Y-13644957D01*
X19204557Y-13573529D01*
X19190271Y-13530671D01*
X19175986Y-13502100D01*
X19147414Y-13459243D01*
X19133128Y-13444957D01*
X12601700Y-14003100D02*
X12601700Y-14093100D01*
X12556700Y-14048100D02*
X12646700Y-14048100D01*
X12990271Y-13883814D02*
X13018843Y-13883814D01*
X13047414Y-13898100D01*
X13061700Y-13912386D01*
X13075986Y-13940957D01*
X13090271Y-13998100D01*
X13090271Y-14069529D01*
X13075986Y-14126671D01*
X13061700Y-14155243D01*
X13047414Y-14169529D01*
X13018843Y-14183814D01*
X12990271Y-14183814D01*
X12961700Y-14169529D01*
X12947414Y-14155243D01*
X12933128Y-14126671D01*
X12918843Y-14069529D01*
X12918843Y-13998100D01*
X12933128Y-13940957D01*
X12947414Y-13912386D01*
X12961700Y-13898100D01*
X12990271Y-13883814D01*
X13218843Y-14155243D02*
X13233128Y-14169529D01*
X13218843Y-14183814D01*
X13204557Y-14169529D01*
X13218843Y-14155243D01*
X13218843Y-14183814D01*
X13375986Y-14183814D02*
X13433128Y-14183814D01*
X13461700Y-14169529D01*
X13475986Y-14155243D01*
X13504557Y-14112386D01*
X13518843Y-14055243D01*
X13518843Y-13940957D01*
X13504557Y-13912386D01*
X13490271Y-13898100D01*
X13461700Y-13883814D01*
X13404557Y-13883814D01*
X13375986Y-13898100D01*
X13361700Y-13912386D01*
X13347414Y-13940957D01*
X13347414Y-14012386D01*
X13361700Y-14040957D01*
X13375986Y-14055243D01*
X13404557Y-14069529D01*
X13461700Y-14069529D01*
X13490271Y-14055243D01*
X13504557Y-14040957D01*
X13518843Y-14012386D01*
X13704557Y-13883814D02*
X13733128Y-13883814D01*
X13761700Y-13898100D01*
X13775986Y-13912386D01*
X13790271Y-13940957D01*
X13804557Y-13998100D01*
X13804557Y-14069529D01*
X13790271Y-14126671D01*
X13775986Y-14155243D01*
X13761700Y-14169529D01*
X13733128Y-14183814D01*
X13704557Y-14183814D01*
X13675986Y-14169529D01*
X13661700Y-14155243D01*
X13647414Y-14126671D01*
X13633128Y-14069529D01*
X13633128Y-13998100D01*
X13647414Y-13940957D01*
X13661700Y-13912386D01*
X13675986Y-13898100D01*
X13704557Y-13883814D01*
X13933128Y-14183814D02*
X13933128Y-13983814D01*
X13933128Y-14012386D02*
X13947414Y-13998100D01*
X13975986Y-13983814D01*
X14018843Y-13983814D01*
X14047414Y-13998100D01*
X14061700Y-14026671D01*
X14061700Y-14183814D01*
X14061700Y-14026671D02*
X14075986Y-13998100D01*
X14104557Y-13983814D01*
X14147414Y-13983814D01*
X14175986Y-13998100D01*
X14190271Y-14026671D01*
X14190271Y-14183814D01*
X14333128Y-14183814D02*
X14333128Y-13983814D01*
X14333128Y-14012386D02*
X14347414Y-13998100D01*
X14375986Y-13983814D01*
X14418843Y-13983814D01*
X14447414Y-13998100D01*
X14461700Y-14026671D01*
X14461700Y-14183814D01*
X14461700Y-14026671D02*
X14475986Y-13998100D01*
X14504557Y-13983814D01*
X14547414Y-13983814D01*
X14575986Y-13998100D01*
X14590271Y-14026671D01*
X14590271Y-14183814D01*
X15175986Y-13869529D02*
X14918843Y-14255243D01*
X15561700Y-13883814D02*
X15590271Y-13883814D01*
X15618843Y-13898100D01*
X15633128Y-13912386D01*
X15647414Y-13940957D01*
X15661700Y-13998100D01*
X15661700Y-14069529D01*
X15647414Y-14126671D01*
X15633128Y-14155243D01*
X15618843Y-14169529D01*
X15590271Y-14183814D01*
X15561700Y-14183814D01*
X15533128Y-14169529D01*
X15518843Y-14155243D01*
X15504557Y-14126671D01*
X15490271Y-14069529D01*
X15490271Y-13998100D01*
X15504557Y-13940957D01*
X15518843Y-13912386D01*
X15533128Y-13898100D01*
X15561700Y-13883814D01*
X15790271Y-14155243D02*
X15804557Y-14169529D01*
X15790271Y-14183814D01*
X15775986Y-14169529D01*
X15790271Y-14155243D01*
X15790271Y-14183814D01*
X15990271Y-13883814D02*
X16018843Y-13883814D01*
X16047414Y-13898100D01*
X16061700Y-13912386D01*
X16075986Y-13940957D01*
X16090271Y-13998100D01*
X16090271Y-14069529D01*
X16075986Y-14126671D01*
X16061700Y-14155243D01*
X16047414Y-14169529D01*
X16018843Y-14183814D01*
X15990271Y-14183814D01*
X15961700Y-14169529D01*
X15947414Y-14155243D01*
X15933128Y-14126671D01*
X15918843Y-14069529D01*
X15918843Y-13998100D01*
X15933128Y-13940957D01*
X15947414Y-13912386D01*
X15961700Y-13898100D01*
X15990271Y-13883814D01*
X16190271Y-13883814D02*
X16375986Y-13883814D01*
X16275986Y-13998100D01*
X16318843Y-13998100D01*
X16347414Y-14012386D01*
X16361700Y-14026671D01*
X16375986Y-14055243D01*
X16375986Y-14126671D01*
X16361700Y-14155243D01*
X16347414Y-14169529D01*
X16318843Y-14183814D01*
X16233128Y-14183814D01*
X16204557Y-14169529D01*
X16190271Y-14155243D01*
X16647414Y-13883814D02*
X16504557Y-13883814D01*
X16490271Y-14026671D01*
X16504557Y-14012386D01*
X16533128Y-13998100D01*
X16604557Y-13998100D01*
X16633128Y-14012386D01*
X16647414Y-14026671D01*
X16661700Y-14055243D01*
X16661700Y-14126671D01*
X16647414Y-14155243D01*
X16633128Y-14169529D01*
X16604557Y-14183814D01*
X16533128Y-14183814D01*
X16504557Y-14169529D01*
X16490271Y-14155243D01*
X16775986Y-13883814D02*
X16775986Y-13940957D01*
X16890271Y-13883814D02*
X16890271Y-13940957D01*
X17333128Y-14298100D02*
X17318843Y-14283814D01*
X17290271Y-14240957D01*
X17275986Y-14212386D01*
X17261700Y-14169529D01*
X17247414Y-14098100D01*
X17247414Y-14040957D01*
X17261700Y-13969529D01*
X17275986Y-13926671D01*
X17290271Y-13898100D01*
X17318843Y-13855243D01*
X17333128Y-13840957D01*
X17433128Y-13912386D02*
X17447414Y-13898100D01*
X17475986Y-13883814D01*
X17547414Y-13883814D01*
X17575986Y-13898100D01*
X17590271Y-13912386D01*
X17604557Y-13940957D01*
X17604557Y-13969529D01*
X17590271Y-14012386D01*
X17418843Y-14183814D01*
X17604557Y-14183814D01*
X17961700Y-14183814D02*
X17961700Y-13883814D01*
X18090271Y-14183814D02*
X18090271Y-14026671D01*
X18075986Y-13998100D01*
X18047414Y-13983814D01*
X18004557Y-13983814D01*
X17975986Y-13998100D01*
X17961700Y-14012386D01*
X18275986Y-14183814D02*
X18247414Y-14169529D01*
X18233128Y-14155243D01*
X18218843Y-14126671D01*
X18218843Y-14040957D01*
X18233128Y-14012386D01*
X18247414Y-13998100D01*
X18275986Y-13983814D01*
X18318843Y-13983814D01*
X18347414Y-13998100D01*
X18361700Y-14012386D01*
X18375986Y-14040957D01*
X18375986Y-14126671D01*
X18361700Y-14155243D01*
X18347414Y-14169529D01*
X18318843Y-14183814D01*
X18275986Y-14183814D01*
X18547414Y-14183814D02*
X18518843Y-14169529D01*
X18504557Y-14140957D01*
X18504557Y-13883814D01*
X18775986Y-14169529D02*
X18747414Y-14183814D01*
X18690271Y-14183814D01*
X18661700Y-14169529D01*
X18647414Y-14140957D01*
X18647414Y-14026671D01*
X18661700Y-13998100D01*
X18690271Y-13983814D01*
X18747414Y-13983814D01*
X18775986Y-13998100D01*
X18790271Y-14026671D01*
X18790271Y-14055243D01*
X18647414Y-14083814D01*
X18904557Y-14169529D02*
X18933128Y-14183814D01*
X18990271Y-14183814D01*
X19018843Y-14169529D01*
X19033128Y-14140957D01*
X19033128Y-14126671D01*
X19018843Y-14098100D01*
X18990271Y-14083814D01*
X18947414Y-14083814D01*
X18918843Y-14069529D01*
X18904557Y-14040957D01*
X18904557Y-14026671D01*
X18918843Y-13998100D01*
X18947414Y-13983814D01*
X18990271Y-13983814D01*
X19018843Y-13998100D01*
X19133128Y-14298100D02*
X19147414Y-14283814D01*
X19175986Y-14240957D01*
X19190271Y-14212386D01*
X19204557Y-14169529D01*
X19218843Y-14098100D01*
X19218843Y-14040957D01*
X19204557Y-13969529D01*
X19190271Y-13926671D01*
X19175986Y-13898100D01*
X19147414Y-13855243D01*
X19133128Y-13840957D01*
X12632056Y-14479456D02*
X12632056Y-14408744D01*
X12561344Y-14408744D01*
X12561344Y-14479456D01*
X12632056Y-14479456D01*
X13090271Y-14579814D02*
X12918843Y-14579814D01*
X13004557Y-14579814D02*
X13004557Y-14279814D01*
X12975986Y-14322671D01*
X12947414Y-14351243D01*
X12918843Y-14365529D01*
X13218843Y-14551243D02*
X13233128Y-14565529D01*
X13218843Y-14579814D01*
X13204557Y-14565529D01*
X13218843Y-14551243D01*
X13218843Y-14579814D01*
X13418843Y-14279814D02*
X13447414Y-14279814D01*
X13475986Y-14294100D01*
X13490271Y-14308386D01*
X13504557Y-14336957D01*
X13518843Y-14394100D01*
X13518843Y-14465529D01*
X13504557Y-14522671D01*
X13490271Y-14551243D01*
X13475986Y-14565529D01*
X13447414Y-14579814D01*
X13418843Y-14579814D01*
X13390271Y-14565529D01*
X13375986Y-14551243D01*
X13361700Y-14522671D01*
X13347414Y-14465529D01*
X13347414Y-14394100D01*
X13361700Y-14336957D01*
X13375986Y-14308386D01*
X13390271Y-14294100D01*
X13418843Y-14279814D01*
X13704557Y-14279814D02*
X13733128Y-14279814D01*
X13761700Y-14294100D01*
X13775986Y-14308386D01*
X13790271Y-14336957D01*
X13804557Y-14394100D01*
X13804557Y-14465529D01*
X13790271Y-14522671D01*
X13775986Y-14551243D01*
X13761700Y-14565529D01*
X13733128Y-14579814D01*
X13704557Y-14579814D01*
X13675986Y-14565529D01*
X13661700Y-14551243D01*
X13647414Y-14522671D01*
X13633128Y-14465529D01*
X13633128Y-14394100D01*
X13647414Y-14336957D01*
X13661700Y-14308386D01*
X13675986Y-14294100D01*
X13704557Y-14279814D01*
X13933128Y-14579814D02*
X13933128Y-14379814D01*
X13933128Y-14408386D02*
X13947414Y-14394100D01*
X13975986Y-14379814D01*
X14018843Y-14379814D01*
X14047414Y-14394100D01*
X14061700Y-14422671D01*
X14061700Y-14579814D01*
X14061700Y-14422671D02*
X14075986Y-14394100D01*
X14104557Y-14379814D01*
X14147414Y-14379814D01*
X14175986Y-14394100D01*
X14190271Y-14422671D01*
X14190271Y-14579814D01*
X14333128Y-14579814D02*
X14333128Y-14379814D01*
X14333128Y-14408386D02*
X14347414Y-14394100D01*
X14375986Y-14379814D01*
X14418843Y-14379814D01*
X14447414Y-14394100D01*
X14461700Y-14422671D01*
X14461700Y-14579814D01*
X14461700Y-14422671D02*
X14475986Y-14394100D01*
X14504557Y-14379814D01*
X14547414Y-14379814D01*
X14575986Y-14394100D01*
X14590271Y-14422671D01*
X14590271Y-14579814D01*
X15175986Y-14265529D02*
X14918843Y-14651243D01*
X15561700Y-14279814D02*
X15590271Y-14279814D01*
X15618843Y-14294100D01*
X15633128Y-14308386D01*
X15647414Y-14336957D01*
X15661700Y-14394100D01*
X15661700Y-14465529D01*
X15647414Y-14522671D01*
X15633128Y-14551243D01*
X15618843Y-14565529D01*
X15590271Y-14579814D01*
X15561700Y-14579814D01*
X15533128Y-14565529D01*
X15518843Y-14551243D01*
X15504557Y-14522671D01*
X15490271Y-14465529D01*
X15490271Y-14394100D01*
X15504557Y-14336957D01*
X15518843Y-14308386D01*
X15533128Y-14294100D01*
X15561700Y-14279814D01*
X15790271Y-14551243D02*
X15804557Y-14565529D01*
X15790271Y-14579814D01*
X15775986Y-14565529D01*
X15790271Y-14551243D01*
X15790271Y-14579814D01*
X15990271Y-14279814D02*
X16018843Y-14279814D01*
X16047414Y-14294100D01*
X16061700Y-14308386D01*
X16075986Y-14336957D01*
X16090271Y-14394100D01*
X16090271Y-14465529D01*
X16075986Y-14522671D01*
X16061700Y-14551243D01*
X16047414Y-14565529D01*
X16018843Y-14579814D01*
X15990271Y-14579814D01*
X15961700Y-14565529D01*
X15947414Y-14551243D01*
X15933128Y-14522671D01*
X15918843Y-14465529D01*
X15918843Y-14394100D01*
X15933128Y-14336957D01*
X15947414Y-14308386D01*
X15961700Y-14294100D01*
X15990271Y-14279814D01*
X16190271Y-14279814D02*
X16375986Y-14279814D01*
X16275986Y-14394100D01*
X16318843Y-14394100D01*
X16347414Y-14408386D01*
X16361700Y-14422671D01*
X16375986Y-14451243D01*
X16375986Y-14522671D01*
X16361700Y-14551243D01*
X16347414Y-14565529D01*
X16318843Y-14579814D01*
X16233128Y-14579814D01*
X16204557Y-14565529D01*
X16190271Y-14551243D01*
X16518843Y-14579814D02*
X16575986Y-14579814D01*
X16604557Y-14565529D01*
X16618843Y-14551243D01*
X16647414Y-14508386D01*
X16661700Y-14451243D01*
X16661700Y-14336957D01*
X16647414Y-14308386D01*
X16633128Y-14294100D01*
X16604557Y-14279814D01*
X16547414Y-14279814D01*
X16518843Y-14294100D01*
X16504557Y-14308386D01*
X16490271Y-14336957D01*
X16490271Y-14408386D01*
X16504557Y-14436957D01*
X16518843Y-14451243D01*
X16547414Y-14465529D01*
X16604557Y-14465529D01*
X16633128Y-14451243D01*
X16647414Y-14436957D01*
X16661700Y-14408386D01*
X16775986Y-14279814D02*
X16775986Y-14336957D01*
X16890271Y-14279814D02*
X16890271Y-14336957D01*
X17333128Y-14694100D02*
X17318843Y-14679814D01*
X17290271Y-14636957D01*
X17275986Y-14608386D01*
X17261700Y-14565529D01*
X17247414Y-14494100D01*
X17247414Y-14436957D01*
X17261700Y-14365529D01*
X17275986Y-14322671D01*
X17290271Y-14294100D01*
X17318843Y-14251243D01*
X17333128Y-14236957D01*
X17604557Y-14579814D02*
X17433128Y-14579814D01*
X17518843Y-14579814D02*
X17518843Y-14279814D01*
X17490271Y-14322671D01*
X17461700Y-14351243D01*
X17433128Y-14365529D01*
X17890271Y-14579814D02*
X17718843Y-14579814D01*
X17804557Y-14579814D02*
X17804557Y-14279814D01*
X17775986Y-14322671D01*
X17747414Y-14351243D01*
X17718843Y-14365529D01*
X18247414Y-14579814D02*
X18247414Y-14279814D01*
X18375986Y-14579814D02*
X18375986Y-14422671D01*
X18361700Y-14394100D01*
X18333128Y-14379814D01*
X18290271Y-14379814D01*
X18261700Y-14394100D01*
X18247414Y-14408386D01*
X18561700Y-14579814D02*
X18533128Y-14565529D01*
X18518843Y-14551243D01*
X18504557Y-14522671D01*
X18504557Y-14436957D01*
X18518843Y-14408386D01*
X18533128Y-14394100D01*
X18561700Y-14379814D01*
X18604557Y-14379814D01*
X18633128Y-14394100D01*
X18647414Y-14408386D01*
X18661700Y-14436957D01*
X18661700Y-14522671D01*
X18647414Y-14551243D01*
X18633128Y-14565529D01*
X18604557Y-14579814D01*
X18561700Y-14579814D01*
X18833128Y-14579814D02*
X18804557Y-14565529D01*
X18790271Y-14536957D01*
X18790271Y-14279814D01*
X19061700Y-14565529D02*
X19033128Y-14579814D01*
X18975986Y-14579814D01*
X18947414Y-14565529D01*
X18933128Y-14536957D01*
X18933128Y-14422671D01*
X18947414Y-14394100D01*
X18975986Y-14379814D01*
X19033128Y-14379814D01*
X19061700Y-14394100D01*
X19075986Y-14422671D01*
X19075986Y-14451243D01*
X18933128Y-14479814D01*
X19190271Y-14565529D02*
X19218843Y-14579814D01*
X19275986Y-14579814D01*
X19304557Y-14565529D01*
X19318843Y-14536957D01*
X19318843Y-14522671D01*
X19304557Y-14494100D01*
X19275986Y-14479814D01*
X19233128Y-14479814D01*
X19204557Y-14465529D01*
X19190271Y-14436957D01*
X19190271Y-14422671D01*
X19204557Y-14394100D01*
X19233128Y-14379814D01*
X19275986Y-14379814D01*
X19304557Y-14394100D01*
X19418843Y-14694100D02*
X19433128Y-14679814D01*
X19461700Y-14636957D01*
X19475986Y-14608386D01*
X19490271Y-14565529D01*
X19504557Y-14494100D01*
X19504557Y-14436957D01*
X19490271Y-14365529D01*
X19475986Y-14322671D01*
X19461700Y-14294100D01*
X19433128Y-14251243D01*
X19418843Y-14236957D01*
X12556700Y-14930100D02*
X12646700Y-14840100D01*
X12556700Y-14750100D01*
X12466700Y-14840100D01*
X12556700Y-14930100D01*
X13090271Y-14975814D02*
X12918843Y-14975814D01*
X13004557Y-14975814D02*
X13004557Y-14675814D01*
X12975986Y-14718671D01*
X12947414Y-14747243D01*
X12918843Y-14761529D01*
X13218843Y-14947243D02*
X13233128Y-14961529D01*
X13218843Y-14975814D01*
X13204557Y-14961529D01*
X13218843Y-14947243D01*
X13218843Y-14975814D01*
X13404557Y-14804386D02*
X13375986Y-14790100D01*
X13361700Y-14775814D01*
X13347414Y-14747243D01*
X13347414Y-14732957D01*
X13361700Y-14704386D01*
X13375986Y-14690100D01*
X13404557Y-14675814D01*
X13461700Y-14675814D01*
X13490271Y-14690100D01*
X13504557Y-14704386D01*
X13518843Y-14732957D01*
X13518843Y-14747243D01*
X13504557Y-14775814D01*
X13490271Y-14790100D01*
X13461700Y-14804386D01*
X13404557Y-14804386D01*
X13375986Y-14818671D01*
X13361700Y-14832957D01*
X13347414Y-14861529D01*
X13347414Y-14918671D01*
X13361700Y-14947243D01*
X13375986Y-14961529D01*
X13404557Y-14975814D01*
X13461700Y-14975814D01*
X13490271Y-14961529D01*
X13504557Y-14947243D01*
X13518843Y-14918671D01*
X13518843Y-14861529D01*
X13504557Y-14832957D01*
X13490271Y-14818671D01*
X13461700Y-14804386D01*
X13704557Y-14675814D02*
X13733128Y-14675814D01*
X13761700Y-14690100D01*
X13775986Y-14704386D01*
X13790271Y-14732957D01*
X13804557Y-14790100D01*
X13804557Y-14861529D01*
X13790271Y-14918671D01*
X13775986Y-14947243D01*
X13761700Y-14961529D01*
X13733128Y-14975814D01*
X13704557Y-14975814D01*
X13675986Y-14961529D01*
X13661700Y-14947243D01*
X13647414Y-14918671D01*
X13633128Y-14861529D01*
X13633128Y-14790100D01*
X13647414Y-14732957D01*
X13661700Y-14704386D01*
X13675986Y-14690100D01*
X13704557Y-14675814D01*
X13933128Y-14975814D02*
X13933128Y-14775814D01*
X13933128Y-14804386D02*
X13947414Y-14790100D01*
X13975986Y-14775814D01*
X14018843Y-14775814D01*
X14047414Y-14790100D01*
X14061700Y-14818671D01*
X14061700Y-14975814D01*
X14061700Y-14818671D02*
X14075986Y-14790100D01*
X14104557Y-14775814D01*
X14147414Y-14775814D01*
X14175986Y-14790100D01*
X14190271Y-14818671D01*
X14190271Y-14975814D01*
X14333128Y-14975814D02*
X14333128Y-14775814D01*
X14333128Y-14804386D02*
X14347414Y-14790100D01*
X14375986Y-14775814D01*
X14418843Y-14775814D01*
X14447414Y-14790100D01*
X14461700Y-14818671D01*
X14461700Y-14975814D01*
X14461700Y-14818671D02*
X14475986Y-14790100D01*
X14504557Y-14775814D01*
X14547414Y-14775814D01*
X14575986Y-14790100D01*
X14590271Y-14818671D01*
X14590271Y-14975814D01*
X15175986Y-14661529D02*
X14918843Y-15047243D01*
X15561700Y-14675814D02*
X15590271Y-14675814D01*
X15618843Y-14690100D01*
X15633128Y-14704386D01*
X15647414Y-14732957D01*
X15661700Y-14790100D01*
X15661700Y-14861529D01*
X15647414Y-14918671D01*
X15633128Y-14947243D01*
X15618843Y-14961529D01*
X15590271Y-14975814D01*
X15561700Y-14975814D01*
X15533128Y-14961529D01*
X15518843Y-14947243D01*
X15504557Y-14918671D01*
X15490271Y-14861529D01*
X15490271Y-14790100D01*
X15504557Y-14732957D01*
X15518843Y-14704386D01*
X15533128Y-14690100D01*
X15561700Y-14675814D01*
X15790271Y-14947243D02*
X15804557Y-14961529D01*
X15790271Y-14975814D01*
X15775986Y-14961529D01*
X15790271Y-14947243D01*
X15790271Y-14975814D01*
X15990271Y-14675814D02*
X16018843Y-14675814D01*
X16047414Y-14690100D01*
X16061700Y-14704386D01*
X16075986Y-14732957D01*
X16090271Y-14790100D01*
X16090271Y-14861529D01*
X16075986Y-14918671D01*
X16061700Y-14947243D01*
X16047414Y-14961529D01*
X16018843Y-14975814D01*
X15990271Y-14975814D01*
X15961700Y-14961529D01*
X15947414Y-14947243D01*
X15933128Y-14918671D01*
X15918843Y-14861529D01*
X15918843Y-14790100D01*
X15933128Y-14732957D01*
X15947414Y-14704386D01*
X15961700Y-14690100D01*
X15990271Y-14675814D01*
X16190271Y-14675814D02*
X16390271Y-14675814D01*
X16261700Y-14975814D01*
X16661700Y-14975814D02*
X16490271Y-14975814D01*
X16575986Y-14975814D02*
X16575986Y-14675814D01*
X16547414Y-14718671D01*
X16518843Y-14747243D01*
X16490271Y-14761529D01*
X16775986Y-14675814D02*
X16775986Y-14732957D01*
X16890271Y-14675814D02*
X16890271Y-14732957D01*
X17333128Y-15090100D02*
X17318843Y-15075814D01*
X17290271Y-15032957D01*
X17275986Y-15004386D01*
X17261700Y-14961529D01*
X17247414Y-14890100D01*
X17247414Y-14832957D01*
X17261700Y-14761529D01*
X17275986Y-14718671D01*
X17290271Y-14690100D01*
X17318843Y-14647243D01*
X17333128Y-14632957D01*
X17433128Y-14704386D02*
X17447414Y-14690100D01*
X17475986Y-14675814D01*
X17547414Y-14675814D01*
X17575986Y-14690100D01*
X17590271Y-14704386D01*
X17604557Y-14732957D01*
X17604557Y-14761529D01*
X17590271Y-14804386D01*
X17418843Y-14975814D01*
X17604557Y-14975814D01*
X17861700Y-14775814D02*
X17861700Y-14975814D01*
X17790271Y-14661529D02*
X17718843Y-14875814D01*
X17904557Y-14875814D01*
X18247414Y-14975814D02*
X18247414Y-14675814D01*
X18375986Y-14975814D02*
X18375986Y-14818671D01*
X18361700Y-14790100D01*
X18333128Y-14775814D01*
X18290271Y-14775814D01*
X18261700Y-14790100D01*
X18247414Y-14804386D01*
X18561700Y-14975814D02*
X18533128Y-14961529D01*
X18518843Y-14947243D01*
X18504557Y-14918671D01*
X18504557Y-14832957D01*
X18518843Y-14804386D01*
X18533128Y-14790100D01*
X18561700Y-14775814D01*
X18604557Y-14775814D01*
X18633128Y-14790100D01*
X18647414Y-14804386D01*
X18661700Y-14832957D01*
X18661700Y-14918671D01*
X18647414Y-14947243D01*
X18633128Y-14961529D01*
X18604557Y-14975814D01*
X18561700Y-14975814D01*
X18833128Y-14975814D02*
X18804557Y-14961529D01*
X18790271Y-14932957D01*
X18790271Y-14675814D01*
X19061700Y-14961529D02*
X19033128Y-14975814D01*
X18975986Y-14975814D01*
X18947414Y-14961529D01*
X18933128Y-14932957D01*
X18933128Y-14818671D01*
X18947414Y-14790100D01*
X18975986Y-14775814D01*
X19033128Y-14775814D01*
X19061700Y-14790100D01*
X19075986Y-14818671D01*
X19075986Y-14847243D01*
X18933128Y-14875814D01*
X19190271Y-14961529D02*
X19218843Y-14975814D01*
X19275986Y-14975814D01*
X19304557Y-14961529D01*
X19318843Y-14932957D01*
X19318843Y-14918671D01*
X19304557Y-14890100D01*
X19275986Y-14875814D01*
X19233128Y-14875814D01*
X19204557Y-14861529D01*
X19190271Y-14832957D01*
X19190271Y-14818671D01*
X19204557Y-14790100D01*
X19233128Y-14775814D01*
X19275986Y-14775814D01*
X19304557Y-14790100D01*
X19418843Y-15090100D02*
X19433128Y-15075814D01*
X19461700Y-15032957D01*
X19475986Y-15004386D01*
X19490271Y-14961529D01*
X19504557Y-14890100D01*
X19504557Y-14832957D01*
X19490271Y-14761529D01*
X19475986Y-14718671D01*
X19461700Y-14690100D01*
X19433128Y-14647243D01*
X19418843Y-14632957D01*
X12461700Y-15143600D02*
X12646700Y-15328600D01*
X12646700Y-15143600D02*
X12461700Y-15328600D01*
X12646700Y-15236100D02*
G75*
G03*
X12646700Y-15236100I-92500J0D01*
G01*
X13090271Y-15371814D02*
X12918843Y-15371814D01*
X13004557Y-15371814D02*
X13004557Y-15071814D01*
X12975986Y-15114671D01*
X12947414Y-15143243D01*
X12918843Y-15157529D01*
X13218843Y-15343243D02*
X13233128Y-15357529D01*
X13218843Y-15371814D01*
X13204557Y-15357529D01*
X13218843Y-15343243D01*
X13218843Y-15371814D01*
X13404557Y-15200386D02*
X13375986Y-15186100D01*
X13361700Y-15171814D01*
X13347414Y-15143243D01*
X13347414Y-15128957D01*
X13361700Y-15100386D01*
X13375986Y-15086100D01*
X13404557Y-15071814D01*
X13461700Y-15071814D01*
X13490271Y-15086100D01*
X13504557Y-15100386D01*
X13518843Y-15128957D01*
X13518843Y-15143243D01*
X13504557Y-15171814D01*
X13490271Y-15186100D01*
X13461700Y-15200386D01*
X13404557Y-15200386D01*
X13375986Y-15214671D01*
X13361700Y-15228957D01*
X13347414Y-15257529D01*
X13347414Y-15314671D01*
X13361700Y-15343243D01*
X13375986Y-15357529D01*
X13404557Y-15371814D01*
X13461700Y-15371814D01*
X13490271Y-15357529D01*
X13504557Y-15343243D01*
X13518843Y-15314671D01*
X13518843Y-15257529D01*
X13504557Y-15228957D01*
X13490271Y-15214671D01*
X13461700Y-15200386D01*
X13790271Y-15071814D02*
X13647414Y-15071814D01*
X13633128Y-15214671D01*
X13647414Y-15200386D01*
X13675986Y-15186100D01*
X13747414Y-15186100D01*
X13775986Y-15200386D01*
X13790271Y-15214671D01*
X13804557Y-15243243D01*
X13804557Y-15314671D01*
X13790271Y-15343243D01*
X13775986Y-15357529D01*
X13747414Y-15371814D01*
X13675986Y-15371814D01*
X13647414Y-15357529D01*
X13633128Y-15343243D01*
X13933128Y-15371814D02*
X13933128Y-15171814D01*
X13933128Y-15200386D02*
X13947414Y-15186100D01*
X13975986Y-15171814D01*
X14018843Y-15171814D01*
X14047414Y-15186100D01*
X14061700Y-15214671D01*
X14061700Y-15371814D01*
X14061700Y-15214671D02*
X14075986Y-15186100D01*
X14104557Y-15171814D01*
X14147414Y-15171814D01*
X14175986Y-15186100D01*
X14190271Y-15214671D01*
X14190271Y-15371814D01*
X14333128Y-15371814D02*
X14333128Y-15171814D01*
X14333128Y-15200386D02*
X14347414Y-15186100D01*
X14375986Y-15171814D01*
X14418843Y-15171814D01*
X14447414Y-15186100D01*
X14461700Y-15214671D01*
X14461700Y-15371814D01*
X14461700Y-15214671D02*
X14475986Y-15186100D01*
X14504557Y-15171814D01*
X14547414Y-15171814D01*
X14575986Y-15186100D01*
X14590271Y-15214671D01*
X14590271Y-15371814D01*
X15175986Y-15057529D02*
X14918843Y-15443243D01*
X15561700Y-15071814D02*
X15590271Y-15071814D01*
X15618843Y-15086100D01*
X15633128Y-15100386D01*
X15647414Y-15128957D01*
X15661700Y-15186100D01*
X15661700Y-15257529D01*
X15647414Y-15314671D01*
X15633128Y-15343243D01*
X15618843Y-15357529D01*
X15590271Y-15371814D01*
X15561700Y-15371814D01*
X15533128Y-15357529D01*
X15518843Y-15343243D01*
X15504557Y-15314671D01*
X15490271Y-15257529D01*
X15490271Y-15186100D01*
X15504557Y-15128957D01*
X15518843Y-15100386D01*
X15533128Y-15086100D01*
X15561700Y-15071814D01*
X15790271Y-15343243D02*
X15804557Y-15357529D01*
X15790271Y-15371814D01*
X15775986Y-15357529D01*
X15790271Y-15343243D01*
X15790271Y-15371814D01*
X15990271Y-15071814D02*
X16018843Y-15071814D01*
X16047414Y-15086100D01*
X16061700Y-15100386D01*
X16075986Y-15128957D01*
X16090271Y-15186100D01*
X16090271Y-15257529D01*
X16075986Y-15314671D01*
X16061700Y-15343243D01*
X16047414Y-15357529D01*
X16018843Y-15371814D01*
X15990271Y-15371814D01*
X15961700Y-15357529D01*
X15947414Y-15343243D01*
X15933128Y-15314671D01*
X15918843Y-15257529D01*
X15918843Y-15186100D01*
X15933128Y-15128957D01*
X15947414Y-15100386D01*
X15961700Y-15086100D01*
X15990271Y-15071814D01*
X16190271Y-15071814D02*
X16390271Y-15071814D01*
X16261700Y-15371814D01*
X16475986Y-15071814D02*
X16661700Y-15071814D01*
X16561700Y-15186100D01*
X16604557Y-15186100D01*
X16633128Y-15200386D01*
X16647414Y-15214671D01*
X16661700Y-15243243D01*
X16661700Y-15314671D01*
X16647414Y-15343243D01*
X16633128Y-15357529D01*
X16604557Y-15371814D01*
X16518843Y-15371814D01*
X16490271Y-15357529D01*
X16475986Y-15343243D01*
X16775986Y-15071814D02*
X16775986Y-15128957D01*
X16890271Y-15071814D02*
X16890271Y-15128957D01*
X17333128Y-15486100D02*
X17318843Y-15471814D01*
X17290271Y-15428957D01*
X17275986Y-15400386D01*
X17261700Y-15357529D01*
X17247414Y-15286100D01*
X17247414Y-15228957D01*
X17261700Y-15157529D01*
X17275986Y-15114671D01*
X17290271Y-15086100D01*
X17318843Y-15043243D01*
X17333128Y-15028957D01*
X17575986Y-15171814D02*
X17575986Y-15371814D01*
X17504557Y-15057529D02*
X17433128Y-15271814D01*
X17618843Y-15271814D01*
X17961700Y-15371814D02*
X17961700Y-15071814D01*
X18090271Y-15371814D02*
X18090271Y-15214671D01*
X18075986Y-15186100D01*
X18047414Y-15171814D01*
X18004557Y-15171814D01*
X17975986Y-15186100D01*
X17961700Y-15200386D01*
X18275986Y-15371814D02*
X18247414Y-15357529D01*
X18233128Y-15343243D01*
X18218843Y-15314671D01*
X18218843Y-15228957D01*
X18233128Y-15200386D01*
X18247414Y-15186100D01*
X18275986Y-15171814D01*
X18318843Y-15171814D01*
X18347414Y-15186100D01*
X18361700Y-15200386D01*
X18375986Y-15228957D01*
X18375986Y-15314671D01*
X18361700Y-15343243D01*
X18347414Y-15357529D01*
X18318843Y-15371814D01*
X18275986Y-15371814D01*
X18547414Y-15371814D02*
X18518843Y-15357529D01*
X18504557Y-15328957D01*
X18504557Y-15071814D01*
X18775986Y-15357529D02*
X18747414Y-15371814D01*
X18690271Y-15371814D01*
X18661700Y-15357529D01*
X18647414Y-15328957D01*
X18647414Y-15214671D01*
X18661700Y-15186100D01*
X18690271Y-15171814D01*
X18747414Y-15171814D01*
X18775986Y-15186100D01*
X18790271Y-15214671D01*
X18790271Y-15243243D01*
X18647414Y-15271814D01*
X18904557Y-15357529D02*
X18933128Y-15371814D01*
X18990271Y-15371814D01*
X19018843Y-15357529D01*
X19033128Y-15328957D01*
X19033128Y-15314671D01*
X19018843Y-15286100D01*
X18990271Y-15271814D01*
X18947414Y-15271814D01*
X18918843Y-15257529D01*
X18904557Y-15228957D01*
X18904557Y-15214671D01*
X18918843Y-15186100D01*
X18947414Y-15171814D01*
X18990271Y-15171814D01*
X19018843Y-15186100D01*
X19133128Y-15486100D02*
X19147414Y-15471814D01*
X19175986Y-15428957D01*
X19190271Y-15400386D01*
X19204557Y-15357529D01*
X19218843Y-15286100D01*
X19218843Y-15228957D01*
X19204557Y-15157529D01*
X19190271Y-15114671D01*
X19175986Y-15086100D01*
X19147414Y-15043243D01*
X19133128Y-15028957D01*
X12276700Y-15447100D02*
X12646700Y-15817100D01*
X12646700Y-15447100D02*
X12276700Y-15817100D01*
X12461700Y-15447100D02*
X12461700Y-15817100D01*
X12276700Y-15632100D02*
X12646700Y-15632100D01*
X12904557Y-15467814D02*
X13090271Y-15467814D01*
X12990271Y-15582100D01*
X13033128Y-15582100D01*
X13061700Y-15596386D01*
X13075986Y-15610671D01*
X13090271Y-15639243D01*
X13090271Y-15710671D01*
X13075986Y-15739243D01*
X13061700Y-15753529D01*
X13033128Y-15767814D01*
X12947414Y-15767814D01*
X12918843Y-15753529D01*
X12904557Y-15739243D01*
X13218843Y-15739243D02*
X13233128Y-15753529D01*
X13218843Y-15767814D01*
X13204557Y-15753529D01*
X13218843Y-15739243D01*
X13218843Y-15767814D01*
X13333128Y-15467814D02*
X13533128Y-15467814D01*
X13404557Y-15767814D01*
X13704557Y-15467814D02*
X13733128Y-15467814D01*
X13761700Y-15482100D01*
X13775986Y-15496386D01*
X13790271Y-15524957D01*
X13804557Y-15582100D01*
X13804557Y-15653529D01*
X13790271Y-15710671D01*
X13775986Y-15739243D01*
X13761700Y-15753529D01*
X13733128Y-15767814D01*
X13704557Y-15767814D01*
X13675986Y-15753529D01*
X13661700Y-15739243D01*
X13647414Y-15710671D01*
X13633128Y-15653529D01*
X13633128Y-15582100D01*
X13647414Y-15524957D01*
X13661700Y-15496386D01*
X13675986Y-15482100D01*
X13704557Y-15467814D01*
X13933128Y-15767814D02*
X13933128Y-15567814D01*
X13933128Y-15596386D02*
X13947414Y-15582100D01*
X13975986Y-15567814D01*
X14018843Y-15567814D01*
X14047414Y-15582100D01*
X14061700Y-15610671D01*
X14061700Y-15767814D01*
X14061700Y-15610671D02*
X14075986Y-15582100D01*
X14104557Y-15567814D01*
X14147414Y-15567814D01*
X14175986Y-15582100D01*
X14190271Y-15610671D01*
X14190271Y-15767814D01*
X14333128Y-15767814D02*
X14333128Y-15567814D01*
X14333128Y-15596386D02*
X14347414Y-15582100D01*
X14375986Y-15567814D01*
X14418843Y-15567814D01*
X14447414Y-15582100D01*
X14461700Y-15610671D01*
X14461700Y-15767814D01*
X14461700Y-15610671D02*
X14475986Y-15582100D01*
X14504557Y-15567814D01*
X14547414Y-15567814D01*
X14575986Y-15582100D01*
X14590271Y-15610671D01*
X14590271Y-15767814D01*
X15175986Y-15453529D02*
X14918843Y-15839243D01*
X15561700Y-15467814D02*
X15590271Y-15467814D01*
X15618843Y-15482100D01*
X15633128Y-15496386D01*
X15647414Y-15524957D01*
X15661700Y-15582100D01*
X15661700Y-15653529D01*
X15647414Y-15710671D01*
X15633128Y-15739243D01*
X15618843Y-15753529D01*
X15590271Y-15767814D01*
X15561700Y-15767814D01*
X15533128Y-15753529D01*
X15518843Y-15739243D01*
X15504557Y-15710671D01*
X15490271Y-15653529D01*
X15490271Y-15582100D01*
X15504557Y-15524957D01*
X15518843Y-15496386D01*
X15533128Y-15482100D01*
X15561700Y-15467814D01*
X15790271Y-15739243D02*
X15804557Y-15753529D01*
X15790271Y-15767814D01*
X15775986Y-15753529D01*
X15790271Y-15739243D01*
X15790271Y-15767814D01*
X16090271Y-15767814D02*
X15918843Y-15767814D01*
X16004557Y-15767814D02*
X16004557Y-15467814D01*
X15975986Y-15510671D01*
X15947414Y-15539243D01*
X15918843Y-15553529D01*
X16347414Y-15567814D02*
X16347414Y-15767814D01*
X16275986Y-15453529D02*
X16204557Y-15667814D01*
X16390271Y-15667814D01*
X16633128Y-15467814D02*
X16575986Y-15467814D01*
X16547414Y-15482100D01*
X16533128Y-15496386D01*
X16504557Y-15539243D01*
X16490271Y-15596386D01*
X16490271Y-15710671D01*
X16504557Y-15739243D01*
X16518843Y-15753529D01*
X16547414Y-15767814D01*
X16604557Y-15767814D01*
X16633128Y-15753529D01*
X16647414Y-15739243D01*
X16661700Y-15710671D01*
X16661700Y-15639243D01*
X16647414Y-15610671D01*
X16633128Y-15596386D01*
X16604557Y-15582100D01*
X16547414Y-15582100D01*
X16518843Y-15596386D01*
X16504557Y-15610671D01*
X16490271Y-15639243D01*
X16775986Y-15467814D02*
X16775986Y-15524957D01*
X16890271Y-15467814D02*
X16890271Y-15524957D01*
X17333128Y-15882100D02*
X17318843Y-15867814D01*
X17290271Y-15824957D01*
X17275986Y-15796386D01*
X17261700Y-15753529D01*
X17247414Y-15682100D01*
X17247414Y-15624957D01*
X17261700Y-15553529D01*
X17275986Y-15510671D01*
X17290271Y-15482100D01*
X17318843Y-15439243D01*
X17333128Y-15424957D01*
X17433128Y-15496386D02*
X17447414Y-15482100D01*
X17475986Y-15467814D01*
X17547414Y-15467814D01*
X17575986Y-15482100D01*
X17590271Y-15496386D01*
X17604557Y-15524957D01*
X17604557Y-15553529D01*
X17590271Y-15596386D01*
X17418843Y-15767814D01*
X17604557Y-15767814D01*
X17961700Y-15767814D02*
X17961700Y-15467814D01*
X18090271Y-15767814D02*
X18090271Y-15610671D01*
X18075986Y-15582100D01*
X18047414Y-15567814D01*
X18004557Y-15567814D01*
X17975986Y-15582100D01*
X17961700Y-15596386D01*
X18275986Y-15767814D02*
X18247414Y-15753529D01*
X18233128Y-15739243D01*
X18218843Y-15710671D01*
X18218843Y-15624957D01*
X18233128Y-15596386D01*
X18247414Y-15582100D01*
X18275986Y-15567814D01*
X18318843Y-15567814D01*
X18347414Y-15582100D01*
X18361700Y-15596386D01*
X18375986Y-15624957D01*
X18375986Y-15710671D01*
X18361700Y-15739243D01*
X18347414Y-15753529D01*
X18318843Y-15767814D01*
X18275986Y-15767814D01*
X18547414Y-15767814D02*
X18518843Y-15753529D01*
X18504557Y-15724957D01*
X18504557Y-15467814D01*
X18775986Y-15753529D02*
X18747414Y-15767814D01*
X18690271Y-15767814D01*
X18661700Y-15753529D01*
X18647414Y-15724957D01*
X18647414Y-15610671D01*
X18661700Y-15582100D01*
X18690271Y-15567814D01*
X18747414Y-15567814D01*
X18775986Y-15582100D01*
X18790271Y-15610671D01*
X18790271Y-15639243D01*
X18647414Y-15667814D01*
X18904557Y-15753529D02*
X18933128Y-15767814D01*
X18990271Y-15767814D01*
X19018843Y-15753529D01*
X19033128Y-15724957D01*
X19033128Y-15710671D01*
X19018843Y-15682100D01*
X18990271Y-15667814D01*
X18947414Y-15667814D01*
X18918843Y-15653529D01*
X18904557Y-15624957D01*
X18904557Y-15610671D01*
X18918843Y-15582100D01*
X18947414Y-15567814D01*
X18990271Y-15567814D01*
X19018843Y-15582100D01*
X19133128Y-15882100D02*
X19147414Y-15867814D01*
X19175986Y-15824957D01*
X19190271Y-15796386D01*
X19204557Y-15753529D01*
X19218843Y-15682100D01*
X19218843Y-15624957D01*
X19204557Y-15553529D01*
X19190271Y-15510671D01*
X19175986Y-15482100D01*
X19147414Y-15439243D01*
X19133128Y-15424957D01*
M02*
