M48
; DRILL file {KiCad (5.1.6)-1} date 09/29/22 14:47:19
; FORMAT={-:-/ absolute / metric / decimal}
; #@! TF.CreationDate,2022-09-29T14:47:19-04:00
; #@! TF.GenerationSoftware,Kicad,Pcbnew,(5.1.6)-1
; #@! TF.FileFunction,Plated,1,4,PTH
FMAT,2
METRIC
T1C0.500
T2C0.800
T3C0.900
T4C1.000
T5C1.800
T6C1.850
T7C3.700
%
G90
G05
T1
X170.777Y-108.134
X171.59Y-106.172
X171.59Y-110.096
X173.552Y-105.359
X173.552Y-110.909
X175.514Y-106.172
X175.514Y-110.096
X176.327Y-108.134
X128.289Y-108.204
X129.102Y-106.242
X129.102Y-110.166
X131.064Y-105.429
X131.064Y-110.979
X133.026Y-106.242
X133.026Y-110.166
X133.839Y-108.204
T2
X154.94Y-105.41
X162.56Y-105.41
T3
X149.606Y-105.41
X152.146Y-105.41
T4
X182.626Y-83.312
X185.166Y-83.312
X187.706Y-83.312
X182.626Y-98.552
X185.166Y-98.552
X187.706Y-98.552
X143.764Y-105.41
X146.304Y-105.41
X182.626Y-90.932
X185.166Y-90.932
X187.706Y-90.932
T5
X129.54Y-93.98
X129.54Y-99.48
X133.74Y-93.98
X133.74Y-99.48
X137.94Y-93.98
X137.94Y-99.48
X142.14Y-93.98
X142.14Y-99.48
X146.34Y-93.98
X146.34Y-99.48
X150.54Y-93.98
X150.54Y-99.48
X154.74Y-93.98
X154.74Y-99.48
X158.94Y-93.98
X158.94Y-99.48
X163.14Y-93.98
X163.14Y-99.48
X167.34Y-93.98
X167.34Y-99.48
X171.54Y-93.98
X171.54Y-99.48
X175.74Y-93.98
X175.74Y-99.48
T6
X145.288Y-118.364
X150.368Y-118.364
X155.448Y-118.364
X160.528Y-118.364
T7
X173.552Y-108.134
X131.064Y-108.204
T0
M30
