%TF.GenerationSoftware,KiCad,Pcbnew,(5.1.6)-1*%
%TF.CreationDate,2022-09-29T14:47:16-04:00*%
%TF.ProjectId,A500-tower-power,41353030-2d74-46f7-9765-722d706f7765,rev?*%
%TF.SameCoordinates,Original*%
%TF.FileFunction,Legend,Bot*%
%TF.FilePolarity,Positive*%
%FSLAX46Y46*%
G04 Gerber Fmt 4.6, Leading zero omitted, Abs format (unit mm)*
G04 Created by KiCad (PCBNEW (5.1.6)-1) date 2022-09-29 14:47:16*
%MOMM*%
%LPD*%
G01*
G04 APERTURE LIST*
%ADD10C,0.250000*%
%ADD11C,0.010000*%
G04 APERTURE END LIST*
D10*
X129174761Y-80629523D02*
X127841428Y-80629523D01*
X128222380Y-80629523D02*
X128031904Y-80724761D01*
X127936666Y-80820000D01*
X127841428Y-81010476D01*
X127841428Y-81200952D01*
X129079523Y-82629523D02*
X129174761Y-82439047D01*
X129174761Y-82058095D01*
X129079523Y-81867619D01*
X128889047Y-81772380D01*
X128127142Y-81772380D01*
X127936666Y-81867619D01*
X127841428Y-82058095D01*
X127841428Y-82439047D01*
X127936666Y-82629523D01*
X128127142Y-82724761D01*
X128317619Y-82724761D01*
X128508095Y-81772380D01*
X127841428Y-83391428D02*
X129174761Y-83867619D01*
X127841428Y-84343809D01*
X128984285Y-85105714D02*
X129079523Y-85200952D01*
X129174761Y-85105714D01*
X129079523Y-85010476D01*
X128984285Y-85105714D01*
X129174761Y-85105714D01*
X129174761Y-87105714D02*
X129174761Y-85962857D01*
X129174761Y-86534285D02*
X127174761Y-86534285D01*
X127460476Y-86343809D01*
X127650952Y-86153333D01*
X127746190Y-85962857D01*
X164320666Y-84915428D02*
X163939714Y-86248761D01*
X163558761Y-85296380D01*
X163177809Y-86248761D01*
X162796857Y-84915428D01*
X162034952Y-86248761D02*
X162034952Y-84915428D01*
X162034952Y-84248761D02*
X162130190Y-84344000D01*
X162034952Y-84439238D01*
X161939714Y-84344000D01*
X162034952Y-84248761D01*
X162034952Y-84439238D01*
X161082571Y-86248761D02*
X161082571Y-84915428D01*
X161082571Y-85296380D02*
X160987333Y-85105904D01*
X160892095Y-85010666D01*
X160701619Y-84915428D01*
X160511142Y-84915428D01*
X159082571Y-86153523D02*
X159273047Y-86248761D01*
X159654000Y-86248761D01*
X159844476Y-86153523D01*
X159939714Y-85963047D01*
X159939714Y-85201142D01*
X159844476Y-85010666D01*
X159654000Y-84915428D01*
X159273047Y-84915428D01*
X159082571Y-85010666D01*
X158987333Y-85201142D01*
X158987333Y-85391619D01*
X159939714Y-85582095D01*
X158415904Y-84915428D02*
X157654000Y-84915428D01*
X158130190Y-84248761D02*
X158130190Y-85963047D01*
X158034952Y-86153523D01*
X157844476Y-86248761D01*
X157654000Y-86248761D01*
X156130190Y-86248761D02*
X156130190Y-85201142D01*
X156225428Y-85010666D01*
X156415904Y-84915428D01*
X156796857Y-84915428D01*
X156987333Y-85010666D01*
X156130190Y-86153523D02*
X156320666Y-86248761D01*
X156796857Y-86248761D01*
X156987333Y-86153523D01*
X157082571Y-85963047D01*
X157082571Y-85772571D01*
X156987333Y-85582095D01*
X156796857Y-85486857D01*
X156320666Y-85486857D01*
X156130190Y-85391619D01*
X155177809Y-84915428D02*
X155177809Y-86915428D01*
X155177809Y-85010666D02*
X154987333Y-84915428D01*
X154606380Y-84915428D01*
X154415904Y-85010666D01*
X154320666Y-85105904D01*
X154225428Y-85296380D01*
X154225428Y-85867809D01*
X154320666Y-86058285D01*
X154415904Y-86153523D01*
X154606380Y-86248761D01*
X154987333Y-86248761D01*
X155177809Y-86153523D01*
X151844476Y-85486857D02*
X150320666Y-85486857D01*
X147939714Y-84439238D02*
X147844476Y-84344000D01*
X147654000Y-84248761D01*
X147177809Y-84248761D01*
X146987333Y-84344000D01*
X146892095Y-84439238D01*
X146796857Y-84629714D01*
X146796857Y-84820190D01*
X146892095Y-85105904D01*
X148034952Y-86248761D01*
X146796857Y-86248761D01*
X145558761Y-84248761D02*
X145368285Y-84248761D01*
X145177809Y-84344000D01*
X145082571Y-84439238D01*
X144987333Y-84629714D01*
X144892095Y-85010666D01*
X144892095Y-85486857D01*
X144987333Y-85867809D01*
X145082571Y-86058285D01*
X145177809Y-86153523D01*
X145368285Y-86248761D01*
X145558761Y-86248761D01*
X145749238Y-86153523D01*
X145844476Y-86058285D01*
X145939714Y-85867809D01*
X146034952Y-85486857D01*
X146034952Y-85010666D01*
X145939714Y-84629714D01*
X145844476Y-84439238D01*
X145749238Y-84344000D01*
X145558761Y-84248761D01*
X144130190Y-84439238D02*
X144034952Y-84344000D01*
X143844476Y-84248761D01*
X143368285Y-84248761D01*
X143177809Y-84344000D01*
X143082571Y-84439238D01*
X142987333Y-84629714D01*
X142987333Y-84820190D01*
X143082571Y-85105904D01*
X144225428Y-86248761D01*
X142987333Y-86248761D01*
X142225428Y-84439238D02*
X142130190Y-84344000D01*
X141939714Y-84248761D01*
X141463523Y-84248761D01*
X141273047Y-84344000D01*
X141177809Y-84439238D01*
X141082571Y-84629714D01*
X141082571Y-84820190D01*
X141177809Y-85105904D01*
X142320666Y-86248761D01*
X141082571Y-86248761D01*
X166130190Y-82121333D02*
X165177809Y-82121333D01*
X166320666Y-82692761D02*
X165654000Y-80692761D01*
X164987333Y-82692761D01*
X163368285Y-80692761D02*
X164320666Y-80692761D01*
X164415904Y-81645142D01*
X164320666Y-81549904D01*
X164130190Y-81454666D01*
X163654000Y-81454666D01*
X163463523Y-81549904D01*
X163368285Y-81645142D01*
X163273047Y-81835619D01*
X163273047Y-82311809D01*
X163368285Y-82502285D01*
X163463523Y-82597523D01*
X163654000Y-82692761D01*
X164130190Y-82692761D01*
X164320666Y-82597523D01*
X164415904Y-82502285D01*
X162034952Y-80692761D02*
X161844476Y-80692761D01*
X161654000Y-80788000D01*
X161558761Y-80883238D01*
X161463523Y-81073714D01*
X161368285Y-81454666D01*
X161368285Y-81930857D01*
X161463523Y-82311809D01*
X161558761Y-82502285D01*
X161654000Y-82597523D01*
X161844476Y-82692761D01*
X162034952Y-82692761D01*
X162225428Y-82597523D01*
X162320666Y-82502285D01*
X162415904Y-82311809D01*
X162511142Y-81930857D01*
X162511142Y-81454666D01*
X162415904Y-81073714D01*
X162320666Y-80883238D01*
X162225428Y-80788000D01*
X162034952Y-80692761D01*
X160130190Y-80692761D02*
X159939714Y-80692761D01*
X159749238Y-80788000D01*
X159654000Y-80883238D01*
X159558761Y-81073714D01*
X159463523Y-81454666D01*
X159463523Y-81930857D01*
X159558761Y-82311809D01*
X159654000Y-82502285D01*
X159749238Y-82597523D01*
X159939714Y-82692761D01*
X160130190Y-82692761D01*
X160320666Y-82597523D01*
X160415904Y-82502285D01*
X160511142Y-82311809D01*
X160606380Y-81930857D01*
X160606380Y-81454666D01*
X160511142Y-81073714D01*
X160415904Y-80883238D01*
X160320666Y-80788000D01*
X160130190Y-80692761D01*
X157368285Y-80692761D02*
X156225428Y-80692761D01*
X156796857Y-82692761D02*
X156796857Y-80692761D01*
X155273047Y-82692761D02*
X155463523Y-82597523D01*
X155558761Y-82502285D01*
X155654000Y-82311809D01*
X155654000Y-81740380D01*
X155558761Y-81549904D01*
X155463523Y-81454666D01*
X155273047Y-81359428D01*
X154987333Y-81359428D01*
X154796857Y-81454666D01*
X154701619Y-81549904D01*
X154606380Y-81740380D01*
X154606380Y-82311809D01*
X154701619Y-82502285D01*
X154796857Y-82597523D01*
X154987333Y-82692761D01*
X155273047Y-82692761D01*
X153939714Y-81359428D02*
X153558761Y-82692761D01*
X153177809Y-81740380D01*
X152796857Y-82692761D01*
X152415904Y-81359428D01*
X150892095Y-82597523D02*
X151082571Y-82692761D01*
X151463523Y-82692761D01*
X151654000Y-82597523D01*
X151749238Y-82407047D01*
X151749238Y-81645142D01*
X151654000Y-81454666D01*
X151463523Y-81359428D01*
X151082571Y-81359428D01*
X150892095Y-81454666D01*
X150796857Y-81645142D01*
X150796857Y-81835619D01*
X151749238Y-82026095D01*
X149939714Y-82692761D02*
X149939714Y-81359428D01*
X149939714Y-81740380D02*
X149844476Y-81549904D01*
X149749238Y-81454666D01*
X149558761Y-81359428D01*
X149368285Y-81359428D01*
X147177809Y-82692761D02*
X147177809Y-80692761D01*
X146415904Y-80692761D01*
X146225428Y-80788000D01*
X146130190Y-80883238D01*
X146034952Y-81073714D01*
X146034952Y-81359428D01*
X146130190Y-81549904D01*
X146225428Y-81645142D01*
X146415904Y-81740380D01*
X147177809Y-81740380D01*
X144892095Y-82692761D02*
X145082571Y-82597523D01*
X145177809Y-82502285D01*
X145273047Y-82311809D01*
X145273047Y-81740380D01*
X145177809Y-81549904D01*
X145082571Y-81454666D01*
X144892095Y-81359428D01*
X144606380Y-81359428D01*
X144415904Y-81454666D01*
X144320666Y-81549904D01*
X144225428Y-81740380D01*
X144225428Y-82311809D01*
X144320666Y-82502285D01*
X144415904Y-82597523D01*
X144606380Y-82692761D01*
X144892095Y-82692761D01*
X143558761Y-81359428D02*
X143177809Y-82692761D01*
X142796857Y-81740380D01*
X142415904Y-82692761D01*
X142034952Y-81359428D01*
X140511142Y-82597523D02*
X140701619Y-82692761D01*
X141082571Y-82692761D01*
X141273047Y-82597523D01*
X141368285Y-82407047D01*
X141368285Y-81645142D01*
X141273047Y-81454666D01*
X141082571Y-81359428D01*
X140701619Y-81359428D01*
X140511142Y-81454666D01*
X140415904Y-81645142D01*
X140415904Y-81835619D01*
X141368285Y-82026095D01*
X139558761Y-82692761D02*
X139558761Y-81359428D01*
X139558761Y-81740380D02*
X139463523Y-81549904D01*
X139368285Y-81454666D01*
X139177809Y-81359428D01*
X138987333Y-81359428D01*
D11*
%TO.C,REF\u002A\u002A*%
G36*
X147434256Y-113425918D02*
G01*
X147378799Y-113453568D01*
X147329852Y-113504480D01*
X147316371Y-113523338D01*
X147301686Y-113548015D01*
X147292158Y-113574816D01*
X147286707Y-113610587D01*
X147284253Y-113662169D01*
X147283714Y-113730267D01*
X147286148Y-113823588D01*
X147294606Y-113893657D01*
X147310826Y-113945931D01*
X147336546Y-113985869D01*
X147373503Y-114018929D01*
X147376218Y-114020886D01*
X147412640Y-114040908D01*
X147456498Y-114050815D01*
X147512276Y-114053257D01*
X147602952Y-114053257D01*
X147602990Y-114141283D01*
X147603834Y-114190308D01*
X147608976Y-114219065D01*
X147622413Y-114236311D01*
X147648142Y-114250808D01*
X147654321Y-114253769D01*
X147683236Y-114267648D01*
X147705624Y-114276414D01*
X147722271Y-114277171D01*
X147733964Y-114267023D01*
X147741490Y-114243073D01*
X147745634Y-114202426D01*
X147747185Y-114142186D01*
X147746929Y-114059455D01*
X147745651Y-113951339D01*
X147745252Y-113919000D01*
X147743815Y-113807524D01*
X147742528Y-113734603D01*
X147603029Y-113734603D01*
X147602245Y-113796499D01*
X147598760Y-113836997D01*
X147590876Y-113863708D01*
X147576895Y-113884244D01*
X147567403Y-113894260D01*
X147528596Y-113923567D01*
X147494237Y-113925952D01*
X147458784Y-113901750D01*
X147457886Y-113900857D01*
X147443461Y-113882153D01*
X147434687Y-113856732D01*
X147430261Y-113817584D01*
X147428882Y-113757697D01*
X147428857Y-113744430D01*
X147432188Y-113661901D01*
X147443031Y-113604691D01*
X147462660Y-113569766D01*
X147492350Y-113554094D01*
X147509509Y-113552514D01*
X147550234Y-113559926D01*
X147578168Y-113584330D01*
X147594983Y-113628980D01*
X147602350Y-113697130D01*
X147603029Y-113734603D01*
X147742528Y-113734603D01*
X147742292Y-113721245D01*
X147740323Y-113656333D01*
X147737550Y-113608958D01*
X147733612Y-113575290D01*
X147728151Y-113551498D01*
X147720808Y-113533753D01*
X147711223Y-113518224D01*
X147707113Y-113512381D01*
X147652595Y-113457185D01*
X147583664Y-113425890D01*
X147503928Y-113417165D01*
X147434256Y-113425918D01*
G37*
X147434256Y-113425918D02*
X147378799Y-113453568D01*
X147329852Y-113504480D01*
X147316371Y-113523338D01*
X147301686Y-113548015D01*
X147292158Y-113574816D01*
X147286707Y-113610587D01*
X147284253Y-113662169D01*
X147283714Y-113730267D01*
X147286148Y-113823588D01*
X147294606Y-113893657D01*
X147310826Y-113945931D01*
X147336546Y-113985869D01*
X147373503Y-114018929D01*
X147376218Y-114020886D01*
X147412640Y-114040908D01*
X147456498Y-114050815D01*
X147512276Y-114053257D01*
X147602952Y-114053257D01*
X147602990Y-114141283D01*
X147603834Y-114190308D01*
X147608976Y-114219065D01*
X147622413Y-114236311D01*
X147648142Y-114250808D01*
X147654321Y-114253769D01*
X147683236Y-114267648D01*
X147705624Y-114276414D01*
X147722271Y-114277171D01*
X147733964Y-114267023D01*
X147741490Y-114243073D01*
X147745634Y-114202426D01*
X147747185Y-114142186D01*
X147746929Y-114059455D01*
X147745651Y-113951339D01*
X147745252Y-113919000D01*
X147743815Y-113807524D01*
X147742528Y-113734603D01*
X147603029Y-113734603D01*
X147602245Y-113796499D01*
X147598760Y-113836997D01*
X147590876Y-113863708D01*
X147576895Y-113884244D01*
X147567403Y-113894260D01*
X147528596Y-113923567D01*
X147494237Y-113925952D01*
X147458784Y-113901750D01*
X147457886Y-113900857D01*
X147443461Y-113882153D01*
X147434687Y-113856732D01*
X147430261Y-113817584D01*
X147428882Y-113757697D01*
X147428857Y-113744430D01*
X147432188Y-113661901D01*
X147443031Y-113604691D01*
X147462660Y-113569766D01*
X147492350Y-113554094D01*
X147509509Y-113552514D01*
X147550234Y-113559926D01*
X147578168Y-113584330D01*
X147594983Y-113628980D01*
X147602350Y-113697130D01*
X147603029Y-113734603D01*
X147742528Y-113734603D01*
X147742292Y-113721245D01*
X147740323Y-113656333D01*
X147737550Y-113608958D01*
X147733612Y-113575290D01*
X147728151Y-113551498D01*
X147720808Y-113533753D01*
X147711223Y-113518224D01*
X147707113Y-113512381D01*
X147652595Y-113457185D01*
X147583664Y-113425890D01*
X147503928Y-113417165D01*
X147434256Y-113425918D01*
G36*
X146317907Y-113433780D02*
G01*
X146271328Y-113460723D01*
X146238943Y-113487466D01*
X146215258Y-113515484D01*
X146198941Y-113549748D01*
X146188661Y-113595227D01*
X146183086Y-113656892D01*
X146180884Y-113739711D01*
X146180629Y-113799246D01*
X146180629Y-114018391D01*
X146242314Y-114046044D01*
X146304000Y-114073697D01*
X146311257Y-113833670D01*
X146314256Y-113744028D01*
X146317402Y-113678962D01*
X146321299Y-113634026D01*
X146326553Y-113604770D01*
X146333769Y-113586748D01*
X146343550Y-113575511D01*
X146346688Y-113573079D01*
X146394239Y-113554083D01*
X146442303Y-113561600D01*
X146470914Y-113581543D01*
X146482553Y-113595675D01*
X146490609Y-113614220D01*
X146495729Y-113642334D01*
X146498559Y-113685173D01*
X146499744Y-113747895D01*
X146499943Y-113813261D01*
X146499982Y-113895268D01*
X146501386Y-113953316D01*
X146506086Y-113992465D01*
X146516013Y-114017780D01*
X146533097Y-114034323D01*
X146559268Y-114047156D01*
X146594225Y-114060491D01*
X146632404Y-114075007D01*
X146627859Y-113817389D01*
X146626029Y-113724519D01*
X146623888Y-113655889D01*
X146620819Y-113606711D01*
X146616206Y-113572198D01*
X146609432Y-113547562D01*
X146599881Y-113528016D01*
X146588366Y-113510770D01*
X146532810Y-113455680D01*
X146465020Y-113423822D01*
X146391287Y-113416191D01*
X146317907Y-113433780D01*
G37*
X146317907Y-113433780D02*
X146271328Y-113460723D01*
X146238943Y-113487466D01*
X146215258Y-113515484D01*
X146198941Y-113549748D01*
X146188661Y-113595227D01*
X146183086Y-113656892D01*
X146180884Y-113739711D01*
X146180629Y-113799246D01*
X146180629Y-114018391D01*
X146242314Y-114046044D01*
X146304000Y-114073697D01*
X146311257Y-113833670D01*
X146314256Y-113744028D01*
X146317402Y-113678962D01*
X146321299Y-113634026D01*
X146326553Y-113604770D01*
X146333769Y-113586748D01*
X146343550Y-113575511D01*
X146346688Y-113573079D01*
X146394239Y-113554083D01*
X146442303Y-113561600D01*
X146470914Y-113581543D01*
X146482553Y-113595675D01*
X146490609Y-113614220D01*
X146495729Y-113642334D01*
X146498559Y-113685173D01*
X146499744Y-113747895D01*
X146499943Y-113813261D01*
X146499982Y-113895268D01*
X146501386Y-113953316D01*
X146506086Y-113992465D01*
X146516013Y-114017780D01*
X146533097Y-114034323D01*
X146559268Y-114047156D01*
X146594225Y-114060491D01*
X146632404Y-114075007D01*
X146627859Y-113817389D01*
X146626029Y-113724519D01*
X146623888Y-113655889D01*
X146620819Y-113606711D01*
X146616206Y-113572198D01*
X146609432Y-113547562D01*
X146599881Y-113528016D01*
X146588366Y-113510770D01*
X146532810Y-113455680D01*
X146465020Y-113423822D01*
X146391287Y-113416191D01*
X146317907Y-113433780D01*
G36*
X147992885Y-113427962D02*
G01*
X147924855Y-113463733D01*
X147874649Y-113521301D01*
X147856815Y-113558312D01*
X147842937Y-113613882D01*
X147835833Y-113684096D01*
X147835160Y-113760727D01*
X147840573Y-113835552D01*
X147851730Y-113900342D01*
X147868286Y-113946873D01*
X147873374Y-113954887D01*
X147933645Y-114014707D01*
X148005231Y-114050535D01*
X148082908Y-114061020D01*
X148161452Y-114044810D01*
X148183311Y-114035092D01*
X148225878Y-114005143D01*
X148263237Y-113965433D01*
X148266768Y-113960397D01*
X148281119Y-113936124D01*
X148290606Y-113910178D01*
X148296210Y-113876022D01*
X148298914Y-113827119D01*
X148299701Y-113756935D01*
X148299714Y-113741200D01*
X148299678Y-113736192D01*
X148154571Y-113736192D01*
X148153727Y-113802430D01*
X148150404Y-113846386D01*
X148143417Y-113874779D01*
X148131584Y-113894325D01*
X148125543Y-113900857D01*
X148090814Y-113925680D01*
X148057097Y-113924548D01*
X148023005Y-113903016D01*
X148002671Y-113880029D01*
X147990629Y-113846478D01*
X147983866Y-113793569D01*
X147983402Y-113787399D01*
X147982248Y-113691513D01*
X147994312Y-113620299D01*
X148019430Y-113574194D01*
X148057440Y-113553635D01*
X148071008Y-113552514D01*
X148106636Y-113558152D01*
X148131006Y-113577686D01*
X148145907Y-113615042D01*
X148153125Y-113674150D01*
X148154571Y-113736192D01*
X148299678Y-113736192D01*
X148299174Y-113666413D01*
X148296904Y-113614159D01*
X148291932Y-113577949D01*
X148283287Y-113551299D01*
X148269995Y-113527722D01*
X148267057Y-113523338D01*
X148217687Y-113464249D01*
X148163891Y-113429947D01*
X148098398Y-113416331D01*
X148076158Y-113415665D01*
X147992885Y-113427962D01*
G37*
X147992885Y-113427962D02*
X147924855Y-113463733D01*
X147874649Y-113521301D01*
X147856815Y-113558312D01*
X147842937Y-113613882D01*
X147835833Y-113684096D01*
X147835160Y-113760727D01*
X147840573Y-113835552D01*
X147851730Y-113900342D01*
X147868286Y-113946873D01*
X147873374Y-113954887D01*
X147933645Y-114014707D01*
X148005231Y-114050535D01*
X148082908Y-114061020D01*
X148161452Y-114044810D01*
X148183311Y-114035092D01*
X148225878Y-114005143D01*
X148263237Y-113965433D01*
X148266768Y-113960397D01*
X148281119Y-113936124D01*
X148290606Y-113910178D01*
X148296210Y-113876022D01*
X148298914Y-113827119D01*
X148299701Y-113756935D01*
X148299714Y-113741200D01*
X148299678Y-113736192D01*
X148154571Y-113736192D01*
X148153727Y-113802430D01*
X148150404Y-113846386D01*
X148143417Y-113874779D01*
X148131584Y-113894325D01*
X148125543Y-113900857D01*
X148090814Y-113925680D01*
X148057097Y-113924548D01*
X148023005Y-113903016D01*
X148002671Y-113880029D01*
X147990629Y-113846478D01*
X147983866Y-113793569D01*
X147983402Y-113787399D01*
X147982248Y-113691513D01*
X147994312Y-113620299D01*
X148019430Y-113574194D01*
X148057440Y-113553635D01*
X148071008Y-113552514D01*
X148106636Y-113558152D01*
X148131006Y-113577686D01*
X148145907Y-113615042D01*
X148153125Y-113674150D01*
X148154571Y-113736192D01*
X148299678Y-113736192D01*
X148299174Y-113666413D01*
X148296904Y-113614159D01*
X148291932Y-113577949D01*
X148283287Y-113551299D01*
X148269995Y-113527722D01*
X148267057Y-113523338D01*
X148217687Y-113464249D01*
X148163891Y-113429947D01*
X148098398Y-113416331D01*
X148076158Y-113415665D01*
X147992885Y-113427962D01*
G36*
X146865697Y-113437239D02*
G01*
X146808473Y-113475735D01*
X146764251Y-113531335D01*
X146737833Y-113602086D01*
X146732490Y-113654162D01*
X146733097Y-113675893D01*
X146738178Y-113692531D01*
X146752145Y-113707437D01*
X146779411Y-113723973D01*
X146824388Y-113745498D01*
X146891489Y-113775374D01*
X146891829Y-113775524D01*
X146953593Y-113803813D01*
X147004241Y-113828933D01*
X147038596Y-113848179D01*
X147051482Y-113858848D01*
X147051486Y-113858934D01*
X147040128Y-113882166D01*
X147013569Y-113907774D01*
X146983077Y-113926221D01*
X146967630Y-113929886D01*
X146925485Y-113917212D01*
X146889192Y-113885471D01*
X146871483Y-113850572D01*
X146854448Y-113824845D01*
X146821078Y-113795546D01*
X146781851Y-113770235D01*
X146747244Y-113756471D01*
X146740007Y-113755714D01*
X146731861Y-113768160D01*
X146731370Y-113799972D01*
X146737357Y-113842866D01*
X146748643Y-113888558D01*
X146764050Y-113928761D01*
X146764829Y-113930322D01*
X146811196Y-113995062D01*
X146871289Y-114039097D01*
X146939535Y-114060711D01*
X147010362Y-114058185D01*
X147078196Y-114029804D01*
X147081212Y-114027808D01*
X147134573Y-113979448D01*
X147169660Y-113916352D01*
X147189078Y-113833387D01*
X147191684Y-113810078D01*
X147196299Y-113700055D01*
X147190767Y-113648748D01*
X147051486Y-113648748D01*
X147049676Y-113680753D01*
X147039778Y-113690093D01*
X147015102Y-113683105D01*
X146976205Y-113666587D01*
X146932725Y-113645881D01*
X146931644Y-113645333D01*
X146894791Y-113625949D01*
X146880000Y-113613013D01*
X146883647Y-113599451D01*
X146899005Y-113581632D01*
X146938077Y-113555845D01*
X146980154Y-113553950D01*
X147017897Y-113572717D01*
X147043966Y-113608915D01*
X147051486Y-113648748D01*
X147190767Y-113648748D01*
X147186806Y-113612027D01*
X147162450Y-113542212D01*
X147128544Y-113493302D01*
X147067347Y-113443878D01*
X146999937Y-113419359D01*
X146931120Y-113417797D01*
X146865697Y-113437239D01*
G37*
X146865697Y-113437239D02*
X146808473Y-113475735D01*
X146764251Y-113531335D01*
X146737833Y-113602086D01*
X146732490Y-113654162D01*
X146733097Y-113675893D01*
X146738178Y-113692531D01*
X146752145Y-113707437D01*
X146779411Y-113723973D01*
X146824388Y-113745498D01*
X146891489Y-113775374D01*
X146891829Y-113775524D01*
X146953593Y-113803813D01*
X147004241Y-113828933D01*
X147038596Y-113848179D01*
X147051482Y-113858848D01*
X147051486Y-113858934D01*
X147040128Y-113882166D01*
X147013569Y-113907774D01*
X146983077Y-113926221D01*
X146967630Y-113929886D01*
X146925485Y-113917212D01*
X146889192Y-113885471D01*
X146871483Y-113850572D01*
X146854448Y-113824845D01*
X146821078Y-113795546D01*
X146781851Y-113770235D01*
X146747244Y-113756471D01*
X146740007Y-113755714D01*
X146731861Y-113768160D01*
X146731370Y-113799972D01*
X146737357Y-113842866D01*
X146748643Y-113888558D01*
X146764050Y-113928761D01*
X146764829Y-113930322D01*
X146811196Y-113995062D01*
X146871289Y-114039097D01*
X146939535Y-114060711D01*
X147010362Y-114058185D01*
X147078196Y-114029804D01*
X147081212Y-114027808D01*
X147134573Y-113979448D01*
X147169660Y-113916352D01*
X147189078Y-113833387D01*
X147191684Y-113810078D01*
X147196299Y-113700055D01*
X147190767Y-113648748D01*
X147051486Y-113648748D01*
X147049676Y-113680753D01*
X147039778Y-113690093D01*
X147015102Y-113683105D01*
X146976205Y-113666587D01*
X146932725Y-113645881D01*
X146931644Y-113645333D01*
X146894791Y-113625949D01*
X146880000Y-113613013D01*
X146883647Y-113599451D01*
X146899005Y-113581632D01*
X146938077Y-113555845D01*
X146980154Y-113553950D01*
X147017897Y-113572717D01*
X147043966Y-113608915D01*
X147051486Y-113648748D01*
X147190767Y-113648748D01*
X147186806Y-113612027D01*
X147162450Y-113542212D01*
X147128544Y-113493302D01*
X147067347Y-113443878D01*
X146999937Y-113419359D01*
X146931120Y-113417797D01*
X146865697Y-113437239D01*
G36*
X145658114Y-113357289D02*
G01*
X145653861Y-113416613D01*
X145648975Y-113451572D01*
X145642205Y-113466820D01*
X145632298Y-113467015D01*
X145629086Y-113465195D01*
X145586356Y-113452015D01*
X145530773Y-113452785D01*
X145474263Y-113466333D01*
X145438918Y-113483861D01*
X145402679Y-113511861D01*
X145376187Y-113543549D01*
X145358001Y-113583813D01*
X145346678Y-113637543D01*
X145340778Y-113709626D01*
X145338857Y-113804951D01*
X145338823Y-113823237D01*
X145338800Y-114028646D01*
X145384509Y-114044580D01*
X145416973Y-114055420D01*
X145434785Y-114060468D01*
X145435309Y-114060514D01*
X145437063Y-114046828D01*
X145438556Y-114009076D01*
X145439674Y-113952224D01*
X145440303Y-113881234D01*
X145440400Y-113838073D01*
X145440602Y-113752973D01*
X145441642Y-113691981D01*
X145444169Y-113650177D01*
X145448836Y-113622642D01*
X145456293Y-113604456D01*
X145467189Y-113590698D01*
X145473993Y-113584073D01*
X145520728Y-113557375D01*
X145571728Y-113555375D01*
X145617999Y-113577955D01*
X145626556Y-113586107D01*
X145639107Y-113601436D01*
X145647812Y-113619618D01*
X145653369Y-113645909D01*
X145656474Y-113685562D01*
X145657824Y-113743832D01*
X145658114Y-113824173D01*
X145658114Y-114028646D01*
X145703823Y-114044580D01*
X145736287Y-114055420D01*
X145754099Y-114060468D01*
X145754623Y-114060514D01*
X145755963Y-114046623D01*
X145757172Y-114007439D01*
X145758199Y-113946700D01*
X145758998Y-113868141D01*
X145759519Y-113775498D01*
X145759714Y-113672509D01*
X145759714Y-113275342D01*
X145712543Y-113255444D01*
X145665371Y-113235547D01*
X145658114Y-113357289D01*
G37*
X145658114Y-113357289D02*
X145653861Y-113416613D01*
X145648975Y-113451572D01*
X145642205Y-113466820D01*
X145632298Y-113467015D01*
X145629086Y-113465195D01*
X145586356Y-113452015D01*
X145530773Y-113452785D01*
X145474263Y-113466333D01*
X145438918Y-113483861D01*
X145402679Y-113511861D01*
X145376187Y-113543549D01*
X145358001Y-113583813D01*
X145346678Y-113637543D01*
X145340778Y-113709626D01*
X145338857Y-113804951D01*
X145338823Y-113823237D01*
X145338800Y-114028646D01*
X145384509Y-114044580D01*
X145416973Y-114055420D01*
X145434785Y-114060468D01*
X145435309Y-114060514D01*
X145437063Y-114046828D01*
X145438556Y-114009076D01*
X145439674Y-113952224D01*
X145440303Y-113881234D01*
X145440400Y-113838073D01*
X145440602Y-113752973D01*
X145441642Y-113691981D01*
X145444169Y-113650177D01*
X145448836Y-113622642D01*
X145456293Y-113604456D01*
X145467189Y-113590698D01*
X145473993Y-113584073D01*
X145520728Y-113557375D01*
X145571728Y-113555375D01*
X145617999Y-113577955D01*
X145626556Y-113586107D01*
X145639107Y-113601436D01*
X145647812Y-113619618D01*
X145653369Y-113645909D01*
X145656474Y-113685562D01*
X145657824Y-113743832D01*
X145658114Y-113824173D01*
X145658114Y-114028646D01*
X145703823Y-114044580D01*
X145736287Y-114055420D01*
X145754099Y-114060468D01*
X145754623Y-114060514D01*
X145755963Y-114046623D01*
X145757172Y-114007439D01*
X145758199Y-113946700D01*
X145758998Y-113868141D01*
X145759519Y-113775498D01*
X145759714Y-113672509D01*
X145759714Y-113275342D01*
X145712543Y-113255444D01*
X145665371Y-113235547D01*
X145658114Y-113357289D01*
G36*
X144994256Y-113456968D02*
G01*
X144937384Y-113478087D01*
X144936733Y-113478493D01*
X144901560Y-113504380D01*
X144875593Y-113534633D01*
X144857330Y-113574058D01*
X144845268Y-113627462D01*
X144837904Y-113699651D01*
X144833736Y-113795432D01*
X144833371Y-113809078D01*
X144828124Y-114014842D01*
X144872284Y-114037678D01*
X144904237Y-114053110D01*
X144923530Y-114060423D01*
X144924422Y-114060514D01*
X144927761Y-114047022D01*
X144930413Y-114010626D01*
X144932044Y-113957452D01*
X144932400Y-113914393D01*
X144932408Y-113844641D01*
X144935597Y-113800837D01*
X144946712Y-113779944D01*
X144970499Y-113778925D01*
X145011704Y-113794741D01*
X145073914Y-113823815D01*
X145119659Y-113847963D01*
X145143187Y-113868913D01*
X145150104Y-113891747D01*
X145150114Y-113892877D01*
X145138701Y-113932212D01*
X145104908Y-113953462D01*
X145053191Y-113956539D01*
X145015939Y-113956006D01*
X144996297Y-113966735D01*
X144984048Y-113992505D01*
X144976998Y-114025337D01*
X144987158Y-114043966D01*
X144990983Y-114046632D01*
X145026999Y-114057340D01*
X145077434Y-114058856D01*
X145129374Y-114051759D01*
X145166178Y-114038788D01*
X145217062Y-113995585D01*
X145245986Y-113935446D01*
X145251714Y-113888462D01*
X145247343Y-113846082D01*
X145231525Y-113811488D01*
X145200203Y-113780763D01*
X145149322Y-113749990D01*
X145074824Y-113715252D01*
X145070286Y-113713288D01*
X145003179Y-113682287D01*
X144961768Y-113656862D01*
X144944019Y-113634014D01*
X144947893Y-113610745D01*
X144971357Y-113584056D01*
X144978373Y-113577914D01*
X145025370Y-113554100D01*
X145074067Y-113555103D01*
X145116478Y-113578451D01*
X145144616Y-113621675D01*
X145147231Y-113630160D01*
X145172692Y-113671308D01*
X145204999Y-113691128D01*
X145251714Y-113710770D01*
X145251714Y-113659950D01*
X145237504Y-113586082D01*
X145195325Y-113518327D01*
X145173376Y-113495661D01*
X145123483Y-113466569D01*
X145060033Y-113453400D01*
X144994256Y-113456968D01*
G37*
X144994256Y-113456968D02*
X144937384Y-113478087D01*
X144936733Y-113478493D01*
X144901560Y-113504380D01*
X144875593Y-113534633D01*
X144857330Y-113574058D01*
X144845268Y-113627462D01*
X144837904Y-113699651D01*
X144833736Y-113795432D01*
X144833371Y-113809078D01*
X144828124Y-114014842D01*
X144872284Y-114037678D01*
X144904237Y-114053110D01*
X144923530Y-114060423D01*
X144924422Y-114060514D01*
X144927761Y-114047022D01*
X144930413Y-114010626D01*
X144932044Y-113957452D01*
X144932400Y-113914393D01*
X144932408Y-113844641D01*
X144935597Y-113800837D01*
X144946712Y-113779944D01*
X144970499Y-113778925D01*
X145011704Y-113794741D01*
X145073914Y-113823815D01*
X145119659Y-113847963D01*
X145143187Y-113868913D01*
X145150104Y-113891747D01*
X145150114Y-113892877D01*
X145138701Y-113932212D01*
X145104908Y-113953462D01*
X145053191Y-113956539D01*
X145015939Y-113956006D01*
X144996297Y-113966735D01*
X144984048Y-113992505D01*
X144976998Y-114025337D01*
X144987158Y-114043966D01*
X144990983Y-114046632D01*
X145026999Y-114057340D01*
X145077434Y-114058856D01*
X145129374Y-114051759D01*
X145166178Y-114038788D01*
X145217062Y-113995585D01*
X145245986Y-113935446D01*
X145251714Y-113888462D01*
X145247343Y-113846082D01*
X145231525Y-113811488D01*
X145200203Y-113780763D01*
X145149322Y-113749990D01*
X145074824Y-113715252D01*
X145070286Y-113713288D01*
X145003179Y-113682287D01*
X144961768Y-113656862D01*
X144944019Y-113634014D01*
X144947893Y-113610745D01*
X144971357Y-113584056D01*
X144978373Y-113577914D01*
X145025370Y-113554100D01*
X145074067Y-113555103D01*
X145116478Y-113578451D01*
X145144616Y-113621675D01*
X145147231Y-113630160D01*
X145172692Y-113671308D01*
X145204999Y-113691128D01*
X145251714Y-113710770D01*
X145251714Y-113659950D01*
X145237504Y-113586082D01*
X145195325Y-113518327D01*
X145173376Y-113495661D01*
X145123483Y-113466569D01*
X145060033Y-113453400D01*
X144994256Y-113456968D01*
G36*
X144504074Y-113455755D02*
G01*
X144438142Y-113480084D01*
X144384727Y-113523117D01*
X144363836Y-113553409D01*
X144341061Y-113608994D01*
X144341534Y-113649186D01*
X144365438Y-113676217D01*
X144374283Y-113680813D01*
X144412470Y-113695144D01*
X144431972Y-113691472D01*
X144438578Y-113667407D01*
X144438914Y-113654114D01*
X144451008Y-113605210D01*
X144482529Y-113570999D01*
X144526341Y-113554476D01*
X144575305Y-113558634D01*
X144615106Y-113580227D01*
X144628550Y-113592544D01*
X144638079Y-113607487D01*
X144644515Y-113630075D01*
X144648683Y-113665328D01*
X144651403Y-113718266D01*
X144653498Y-113793907D01*
X144654040Y-113817857D01*
X144656019Y-113899790D01*
X144658269Y-113957455D01*
X144661643Y-113995608D01*
X144666994Y-114019004D01*
X144675176Y-114032398D01*
X144687041Y-114040545D01*
X144694638Y-114044144D01*
X144726898Y-114056452D01*
X144745889Y-114060514D01*
X144752164Y-114046948D01*
X144755994Y-114005934D01*
X144757400Y-113936999D01*
X144756402Y-113839669D01*
X144756092Y-113824657D01*
X144753899Y-113735859D01*
X144751307Y-113671019D01*
X144747618Y-113625067D01*
X144742136Y-113592935D01*
X144734165Y-113569553D01*
X144723007Y-113549852D01*
X144717170Y-113541410D01*
X144683704Y-113504057D01*
X144646273Y-113475003D01*
X144641691Y-113472467D01*
X144574574Y-113452443D01*
X144504074Y-113455755D01*
G37*
X144504074Y-113455755D02*
X144438142Y-113480084D01*
X144384727Y-113523117D01*
X144363836Y-113553409D01*
X144341061Y-113608994D01*
X144341534Y-113649186D01*
X144365438Y-113676217D01*
X144374283Y-113680813D01*
X144412470Y-113695144D01*
X144431972Y-113691472D01*
X144438578Y-113667407D01*
X144438914Y-113654114D01*
X144451008Y-113605210D01*
X144482529Y-113570999D01*
X144526341Y-113554476D01*
X144575305Y-113558634D01*
X144615106Y-113580227D01*
X144628550Y-113592544D01*
X144638079Y-113607487D01*
X144644515Y-113630075D01*
X144648683Y-113665328D01*
X144651403Y-113718266D01*
X144653498Y-113793907D01*
X144654040Y-113817857D01*
X144656019Y-113899790D01*
X144658269Y-113957455D01*
X144661643Y-113995608D01*
X144666994Y-114019004D01*
X144675176Y-114032398D01*
X144687041Y-114040545D01*
X144694638Y-114044144D01*
X144726898Y-114056452D01*
X144745889Y-114060514D01*
X144752164Y-114046948D01*
X144755994Y-114005934D01*
X144757400Y-113936999D01*
X144756402Y-113839669D01*
X144756092Y-113824657D01*
X144753899Y-113735859D01*
X144751307Y-113671019D01*
X144747618Y-113625067D01*
X144742136Y-113592935D01*
X144734165Y-113569553D01*
X144723007Y-113549852D01*
X144717170Y-113541410D01*
X144683704Y-113504057D01*
X144646273Y-113475003D01*
X144641691Y-113472467D01*
X144574574Y-113452443D01*
X144504074Y-113455755D01*
G36*
X143843883Y-113571358D02*
G01*
X143844067Y-113679837D01*
X143844781Y-113763287D01*
X143846325Y-113825704D01*
X143848999Y-113871085D01*
X143853106Y-113903429D01*
X143858945Y-113926733D01*
X143866818Y-113944995D01*
X143872779Y-113955418D01*
X143922145Y-114011945D01*
X143984736Y-114047377D01*
X144053987Y-114060090D01*
X144123332Y-114048463D01*
X144164625Y-114027568D01*
X144207975Y-113991422D01*
X144237519Y-113947276D01*
X144255345Y-113889462D01*
X144263537Y-113812313D01*
X144264698Y-113755714D01*
X144264542Y-113751647D01*
X144163143Y-113751647D01*
X144162524Y-113816550D01*
X144159686Y-113859514D01*
X144153160Y-113887622D01*
X144141477Y-113907953D01*
X144127517Y-113923288D01*
X144080635Y-113952890D01*
X144030299Y-113955419D01*
X143982724Y-113930705D01*
X143979021Y-113927356D01*
X143963217Y-113909935D01*
X143953307Y-113889209D01*
X143947942Y-113858362D01*
X143945772Y-113810577D01*
X143945429Y-113757748D01*
X143946173Y-113691381D01*
X143949252Y-113647106D01*
X143955939Y-113618009D01*
X143967504Y-113597173D01*
X143976987Y-113586107D01*
X144021040Y-113558198D01*
X144071776Y-113554843D01*
X144120204Y-113576159D01*
X144129550Y-113584073D01*
X144145460Y-113601647D01*
X144155390Y-113622587D01*
X144160722Y-113653782D01*
X144162837Y-113702122D01*
X144163143Y-113751647D01*
X144264542Y-113751647D01*
X144261190Y-113664568D01*
X144249274Y-113596086D01*
X144226865Y-113544600D01*
X144191876Y-113504443D01*
X144164625Y-113483861D01*
X144115093Y-113461625D01*
X144057684Y-113451304D01*
X144004318Y-113454067D01*
X143974457Y-113465212D01*
X143962739Y-113468383D01*
X143954963Y-113456557D01*
X143949535Y-113424866D01*
X143945429Y-113376593D01*
X143940933Y-113322829D01*
X143934687Y-113290482D01*
X143923324Y-113271985D01*
X143903472Y-113259770D01*
X143891000Y-113254362D01*
X143843829Y-113234601D01*
X143843883Y-113571358D01*
G37*
X143843883Y-113571358D02*
X143844067Y-113679837D01*
X143844781Y-113763287D01*
X143846325Y-113825704D01*
X143848999Y-113871085D01*
X143853106Y-113903429D01*
X143858945Y-113926733D01*
X143866818Y-113944995D01*
X143872779Y-113955418D01*
X143922145Y-114011945D01*
X143984736Y-114047377D01*
X144053987Y-114060090D01*
X144123332Y-114048463D01*
X144164625Y-114027568D01*
X144207975Y-113991422D01*
X144237519Y-113947276D01*
X144255345Y-113889462D01*
X144263537Y-113812313D01*
X144264698Y-113755714D01*
X144264542Y-113751647D01*
X144163143Y-113751647D01*
X144162524Y-113816550D01*
X144159686Y-113859514D01*
X144153160Y-113887622D01*
X144141477Y-113907953D01*
X144127517Y-113923288D01*
X144080635Y-113952890D01*
X144030299Y-113955419D01*
X143982724Y-113930705D01*
X143979021Y-113927356D01*
X143963217Y-113909935D01*
X143953307Y-113889209D01*
X143947942Y-113858362D01*
X143945772Y-113810577D01*
X143945429Y-113757748D01*
X143946173Y-113691381D01*
X143949252Y-113647106D01*
X143955939Y-113618009D01*
X143967504Y-113597173D01*
X143976987Y-113586107D01*
X144021040Y-113558198D01*
X144071776Y-113554843D01*
X144120204Y-113576159D01*
X144129550Y-113584073D01*
X144145460Y-113601647D01*
X144155390Y-113622587D01*
X144160722Y-113653782D01*
X144162837Y-113702122D01*
X144163143Y-113751647D01*
X144264542Y-113751647D01*
X144261190Y-113664568D01*
X144249274Y-113596086D01*
X144226865Y-113544600D01*
X144191876Y-113504443D01*
X144164625Y-113483861D01*
X144115093Y-113461625D01*
X144057684Y-113451304D01*
X144004318Y-113454067D01*
X143974457Y-113465212D01*
X143962739Y-113468383D01*
X143954963Y-113456557D01*
X143949535Y-113424866D01*
X143945429Y-113376593D01*
X143940933Y-113322829D01*
X143934687Y-113290482D01*
X143923324Y-113271985D01*
X143903472Y-113259770D01*
X143891000Y-113254362D01*
X143843829Y-113234601D01*
X143843883Y-113571358D01*
G36*
X143254167Y-113464663D02*
G01*
X143251952Y-113502850D01*
X143250216Y-113560886D01*
X143249101Y-113634180D01*
X143248743Y-113711055D01*
X143248743Y-113971196D01*
X143294674Y-114017127D01*
X143326325Y-114045429D01*
X143354110Y-114056893D01*
X143392085Y-114056168D01*
X143407160Y-114054321D01*
X143454274Y-114048948D01*
X143493244Y-114045869D01*
X143502743Y-114045585D01*
X143534767Y-114047445D01*
X143580568Y-114052114D01*
X143598326Y-114054321D01*
X143641943Y-114057735D01*
X143671255Y-114050320D01*
X143700320Y-114027427D01*
X143710812Y-114017127D01*
X143756743Y-113971196D01*
X143756743Y-113484602D01*
X143719774Y-113467758D01*
X143687941Y-113455282D01*
X143669317Y-113450914D01*
X143664542Y-113464718D01*
X143660079Y-113503286D01*
X143656225Y-113562356D01*
X143653278Y-113637663D01*
X143651857Y-113701286D01*
X143647886Y-113951657D01*
X143613241Y-113956556D01*
X143581732Y-113953131D01*
X143566292Y-113942041D01*
X143561977Y-113921308D01*
X143558292Y-113877145D01*
X143555531Y-113815146D01*
X143553988Y-113740909D01*
X143553765Y-113702706D01*
X143553543Y-113482783D01*
X143507834Y-113466849D01*
X143475482Y-113456015D01*
X143457885Y-113450962D01*
X143457377Y-113450914D01*
X143455612Y-113464648D01*
X143453671Y-113502730D01*
X143451718Y-113560482D01*
X143449916Y-113633227D01*
X143448657Y-113701286D01*
X143444686Y-113951657D01*
X143357600Y-113951657D01*
X143353604Y-113723240D01*
X143349608Y-113494822D01*
X143307153Y-113472868D01*
X143275808Y-113457793D01*
X143257256Y-113450951D01*
X143256721Y-113450914D01*
X143254167Y-113464663D01*
G37*
X143254167Y-113464663D02*
X143251952Y-113502850D01*
X143250216Y-113560886D01*
X143249101Y-113634180D01*
X143248743Y-113711055D01*
X143248743Y-113971196D01*
X143294674Y-114017127D01*
X143326325Y-114045429D01*
X143354110Y-114056893D01*
X143392085Y-114056168D01*
X143407160Y-114054321D01*
X143454274Y-114048948D01*
X143493244Y-114045869D01*
X143502743Y-114045585D01*
X143534767Y-114047445D01*
X143580568Y-114052114D01*
X143598326Y-114054321D01*
X143641943Y-114057735D01*
X143671255Y-114050320D01*
X143700320Y-114027427D01*
X143710812Y-114017127D01*
X143756743Y-113971196D01*
X143756743Y-113484602D01*
X143719774Y-113467758D01*
X143687941Y-113455282D01*
X143669317Y-113450914D01*
X143664542Y-113464718D01*
X143660079Y-113503286D01*
X143656225Y-113562356D01*
X143653278Y-113637663D01*
X143651857Y-113701286D01*
X143647886Y-113951657D01*
X143613241Y-113956556D01*
X143581732Y-113953131D01*
X143566292Y-113942041D01*
X143561977Y-113921308D01*
X143558292Y-113877145D01*
X143555531Y-113815146D01*
X143553988Y-113740909D01*
X143553765Y-113702706D01*
X143553543Y-113482783D01*
X143507834Y-113466849D01*
X143475482Y-113456015D01*
X143457885Y-113450962D01*
X143457377Y-113450914D01*
X143455612Y-113464648D01*
X143453671Y-113502730D01*
X143451718Y-113560482D01*
X143449916Y-113633227D01*
X143448657Y-113701286D01*
X143444686Y-113951657D01*
X143357600Y-113951657D01*
X143353604Y-113723240D01*
X143349608Y-113494822D01*
X143307153Y-113472868D01*
X143275808Y-113457793D01*
X143257256Y-113450951D01*
X143256721Y-113450914D01*
X143254167Y-113464663D01*
G36*
X142889124Y-113462335D02*
G01*
X142847333Y-113481344D01*
X142814531Y-113504378D01*
X142790497Y-113530133D01*
X142773903Y-113563358D01*
X142763423Y-113608800D01*
X142757729Y-113671207D01*
X142755493Y-113755327D01*
X142755257Y-113810721D01*
X142755257Y-114026826D01*
X142792226Y-114043670D01*
X142821344Y-114055981D01*
X142835769Y-114060514D01*
X142838528Y-114047025D01*
X142840718Y-114010653D01*
X142842058Y-113957542D01*
X142842343Y-113915372D01*
X142843566Y-113854447D01*
X142846864Y-113806115D01*
X142851679Y-113776518D01*
X142855504Y-113770229D01*
X142881217Y-113776652D01*
X142921582Y-113793125D01*
X142968321Y-113815458D01*
X143013155Y-113839457D01*
X143047807Y-113860930D01*
X143063998Y-113875685D01*
X143064062Y-113875845D01*
X143062670Y-113903152D01*
X143050182Y-113929219D01*
X143028257Y-113950392D01*
X142996257Y-113957474D01*
X142968908Y-113956649D01*
X142930174Y-113956042D01*
X142909842Y-113965116D01*
X142897631Y-113989092D01*
X142896091Y-113993613D01*
X142890797Y-114027806D01*
X142904953Y-114048568D01*
X142941852Y-114058462D01*
X142981711Y-114060292D01*
X143053438Y-114046727D01*
X143090568Y-114027355D01*
X143136424Y-113981845D01*
X143160744Y-113925983D01*
X143162927Y-113866957D01*
X143142371Y-113811953D01*
X143111451Y-113777486D01*
X143080580Y-113758189D01*
X143032058Y-113733759D01*
X142975515Y-113708985D01*
X142966090Y-113705199D01*
X142903981Y-113677791D01*
X142868178Y-113653634D01*
X142856663Y-113629619D01*
X142867420Y-113602635D01*
X142885886Y-113581543D01*
X142929531Y-113555572D01*
X142977554Y-113553624D01*
X143021594Y-113573637D01*
X143053291Y-113613551D01*
X143057451Y-113623848D01*
X143081673Y-113661724D01*
X143117035Y-113689842D01*
X143161657Y-113712917D01*
X143161657Y-113647485D01*
X143159031Y-113607506D01*
X143147770Y-113575997D01*
X143122801Y-113542378D01*
X143098831Y-113516484D01*
X143061559Y-113479817D01*
X143032599Y-113460121D01*
X143001495Y-113452220D01*
X142966287Y-113450914D01*
X142889124Y-113462335D01*
G37*
X142889124Y-113462335D02*
X142847333Y-113481344D01*
X142814531Y-113504378D01*
X142790497Y-113530133D01*
X142773903Y-113563358D01*
X142763423Y-113608800D01*
X142757729Y-113671207D01*
X142755493Y-113755327D01*
X142755257Y-113810721D01*
X142755257Y-114026826D01*
X142792226Y-114043670D01*
X142821344Y-114055981D01*
X142835769Y-114060514D01*
X142838528Y-114047025D01*
X142840718Y-114010653D01*
X142842058Y-113957542D01*
X142842343Y-113915372D01*
X142843566Y-113854447D01*
X142846864Y-113806115D01*
X142851679Y-113776518D01*
X142855504Y-113770229D01*
X142881217Y-113776652D01*
X142921582Y-113793125D01*
X142968321Y-113815458D01*
X143013155Y-113839457D01*
X143047807Y-113860930D01*
X143063998Y-113875685D01*
X143064062Y-113875845D01*
X143062670Y-113903152D01*
X143050182Y-113929219D01*
X143028257Y-113950392D01*
X142996257Y-113957474D01*
X142968908Y-113956649D01*
X142930174Y-113956042D01*
X142909842Y-113965116D01*
X142897631Y-113989092D01*
X142896091Y-113993613D01*
X142890797Y-114027806D01*
X142904953Y-114048568D01*
X142941852Y-114058462D01*
X142981711Y-114060292D01*
X143053438Y-114046727D01*
X143090568Y-114027355D01*
X143136424Y-113981845D01*
X143160744Y-113925983D01*
X143162927Y-113866957D01*
X143142371Y-113811953D01*
X143111451Y-113777486D01*
X143080580Y-113758189D01*
X143032058Y-113733759D01*
X142975515Y-113708985D01*
X142966090Y-113705199D01*
X142903981Y-113677791D01*
X142868178Y-113653634D01*
X142856663Y-113629619D01*
X142867420Y-113602635D01*
X142885886Y-113581543D01*
X142929531Y-113555572D01*
X142977554Y-113553624D01*
X143021594Y-113573637D01*
X143053291Y-113613551D01*
X143057451Y-113623848D01*
X143081673Y-113661724D01*
X143117035Y-113689842D01*
X143161657Y-113712917D01*
X143161657Y-113647485D01*
X143159031Y-113607506D01*
X143147770Y-113575997D01*
X143122801Y-113542378D01*
X143098831Y-113516484D01*
X143061559Y-113479817D01*
X143032599Y-113460121D01*
X143001495Y-113452220D01*
X142966287Y-113450914D01*
X142889124Y-113462335D01*
G36*
X142381400Y-113464752D02*
G01*
X142364052Y-113472334D01*
X142322644Y-113505128D01*
X142287235Y-113552547D01*
X142265336Y-113603151D01*
X142261771Y-113628098D01*
X142273721Y-113662927D01*
X142299933Y-113681357D01*
X142328036Y-113692516D01*
X142340905Y-113694572D01*
X142347171Y-113679649D01*
X142359544Y-113647175D01*
X142364972Y-113632502D01*
X142395410Y-113581744D01*
X142439480Y-113556427D01*
X142495990Y-113557206D01*
X142500175Y-113558203D01*
X142530345Y-113572507D01*
X142552524Y-113600393D01*
X142567673Y-113645287D01*
X142576750Y-113710615D01*
X142580714Y-113799804D01*
X142581086Y-113847261D01*
X142581270Y-113922071D01*
X142582478Y-113973069D01*
X142585691Y-114005471D01*
X142591891Y-114024495D01*
X142602060Y-114035356D01*
X142617181Y-114043272D01*
X142618054Y-114043670D01*
X142647172Y-114055981D01*
X142661597Y-114060514D01*
X142663814Y-114046809D01*
X142665711Y-114008925D01*
X142667153Y-113951715D01*
X142668002Y-113880027D01*
X142668171Y-113827565D01*
X142667308Y-113726047D01*
X142663930Y-113649032D01*
X142656858Y-113592023D01*
X142644912Y-113550526D01*
X142626910Y-113520043D01*
X142601673Y-113496080D01*
X142576753Y-113479355D01*
X142516829Y-113457097D01*
X142447089Y-113452076D01*
X142381400Y-113464752D01*
G37*
X142381400Y-113464752D02*
X142364052Y-113472334D01*
X142322644Y-113505128D01*
X142287235Y-113552547D01*
X142265336Y-113603151D01*
X142261771Y-113628098D01*
X142273721Y-113662927D01*
X142299933Y-113681357D01*
X142328036Y-113692516D01*
X142340905Y-113694572D01*
X142347171Y-113679649D01*
X142359544Y-113647175D01*
X142364972Y-113632502D01*
X142395410Y-113581744D01*
X142439480Y-113556427D01*
X142495990Y-113557206D01*
X142500175Y-113558203D01*
X142530345Y-113572507D01*
X142552524Y-113600393D01*
X142567673Y-113645287D01*
X142576750Y-113710615D01*
X142580714Y-113799804D01*
X142581086Y-113847261D01*
X142581270Y-113922071D01*
X142582478Y-113973069D01*
X142585691Y-114005471D01*
X142591891Y-114024495D01*
X142602060Y-114035356D01*
X142617181Y-114043272D01*
X142618054Y-114043670D01*
X142647172Y-114055981D01*
X142661597Y-114060514D01*
X142663814Y-114046809D01*
X142665711Y-114008925D01*
X142667153Y-113951715D01*
X142668002Y-113880027D01*
X142668171Y-113827565D01*
X142667308Y-113726047D01*
X142663930Y-113649032D01*
X142656858Y-113592023D01*
X142644912Y-113550526D01*
X142626910Y-113520043D01*
X142601673Y-113496080D01*
X142576753Y-113479355D01*
X142516829Y-113457097D01*
X142447089Y-113452076D01*
X142381400Y-113464752D01*
G36*
X141880405Y-113472966D02*
G01*
X141822979Y-113510497D01*
X141795281Y-113544096D01*
X141773338Y-113605064D01*
X141771595Y-113653308D01*
X141775543Y-113717816D01*
X141924314Y-113782934D01*
X141996651Y-113816202D01*
X142043916Y-113842964D01*
X142068493Y-113866144D01*
X142072763Y-113888667D01*
X142059111Y-113913455D01*
X142044057Y-113929886D01*
X142000254Y-113956235D01*
X141952611Y-113958081D01*
X141908855Y-113937546D01*
X141876711Y-113896752D01*
X141870962Y-113882347D01*
X141843424Y-113837356D01*
X141811742Y-113818182D01*
X141768286Y-113801779D01*
X141768286Y-113863966D01*
X141772128Y-113906283D01*
X141787177Y-113941969D01*
X141818720Y-113982943D01*
X141823408Y-113988267D01*
X141858494Y-114024720D01*
X141888653Y-114044283D01*
X141926385Y-114053283D01*
X141957665Y-114056230D01*
X142013615Y-114056965D01*
X142053445Y-114047660D01*
X142078292Y-114033846D01*
X142117344Y-114003467D01*
X142144375Y-113970613D01*
X142161483Y-113929294D01*
X142170762Y-113873521D01*
X142174307Y-113797305D01*
X142174590Y-113758622D01*
X142173628Y-113712247D01*
X142085993Y-113712247D01*
X142084977Y-113737126D01*
X142082444Y-113741200D01*
X142065726Y-113735665D01*
X142029751Y-113721017D01*
X141981669Y-113700190D01*
X141971614Y-113695714D01*
X141910848Y-113664814D01*
X141877368Y-113637657D01*
X141870010Y-113612220D01*
X141887609Y-113586481D01*
X141902144Y-113575109D01*
X141954590Y-113552364D01*
X142003678Y-113556122D01*
X142044773Y-113583884D01*
X142073242Y-113633152D01*
X142082369Y-113672257D01*
X142085993Y-113712247D01*
X142173628Y-113712247D01*
X142172715Y-113668249D01*
X142165804Y-113601384D01*
X142152116Y-113552695D01*
X142129904Y-113516849D01*
X142097426Y-113488513D01*
X142083267Y-113479355D01*
X142018947Y-113455507D01*
X141948527Y-113454006D01*
X141880405Y-113472966D01*
G37*
X141880405Y-113472966D02*
X141822979Y-113510497D01*
X141795281Y-113544096D01*
X141773338Y-113605064D01*
X141771595Y-113653308D01*
X141775543Y-113717816D01*
X141924314Y-113782934D01*
X141996651Y-113816202D01*
X142043916Y-113842964D01*
X142068493Y-113866144D01*
X142072763Y-113888667D01*
X142059111Y-113913455D01*
X142044057Y-113929886D01*
X142000254Y-113956235D01*
X141952611Y-113958081D01*
X141908855Y-113937546D01*
X141876711Y-113896752D01*
X141870962Y-113882347D01*
X141843424Y-113837356D01*
X141811742Y-113818182D01*
X141768286Y-113801779D01*
X141768286Y-113863966D01*
X141772128Y-113906283D01*
X141787177Y-113941969D01*
X141818720Y-113982943D01*
X141823408Y-113988267D01*
X141858494Y-114024720D01*
X141888653Y-114044283D01*
X141926385Y-114053283D01*
X141957665Y-114056230D01*
X142013615Y-114056965D01*
X142053445Y-114047660D01*
X142078292Y-114033846D01*
X142117344Y-114003467D01*
X142144375Y-113970613D01*
X142161483Y-113929294D01*
X142170762Y-113873521D01*
X142174307Y-113797305D01*
X142174590Y-113758622D01*
X142173628Y-113712247D01*
X142085993Y-113712247D01*
X142084977Y-113737126D01*
X142082444Y-113741200D01*
X142065726Y-113735665D01*
X142029751Y-113721017D01*
X141981669Y-113700190D01*
X141971614Y-113695714D01*
X141910848Y-113664814D01*
X141877368Y-113637657D01*
X141870010Y-113612220D01*
X141887609Y-113586481D01*
X141902144Y-113575109D01*
X141954590Y-113552364D01*
X142003678Y-113556122D01*
X142044773Y-113583884D01*
X142073242Y-113633152D01*
X142082369Y-113672257D01*
X142085993Y-113712247D01*
X142173628Y-113712247D01*
X142172715Y-113668249D01*
X142165804Y-113601384D01*
X142152116Y-113552695D01*
X142129904Y-113516849D01*
X142097426Y-113488513D01*
X142083267Y-113479355D01*
X142018947Y-113455507D01*
X141948527Y-113454006D01*
X141880405Y-113472966D01*
G36*
X144930090Y-108748348D02*
G01*
X144851546Y-108748778D01*
X144794702Y-108749942D01*
X144755895Y-108752207D01*
X144731462Y-108755940D01*
X144717738Y-108761506D01*
X144711060Y-108769273D01*
X144707764Y-108779605D01*
X144707444Y-108780943D01*
X144702438Y-108805079D01*
X144693171Y-108852701D01*
X144680608Y-108918741D01*
X144665713Y-108998128D01*
X144649449Y-109085796D01*
X144648881Y-109088875D01*
X144632590Y-109174789D01*
X144617348Y-109250696D01*
X144604139Y-109312045D01*
X144593946Y-109354282D01*
X144587752Y-109372855D01*
X144587457Y-109373184D01*
X144569212Y-109382253D01*
X144531595Y-109397367D01*
X144482729Y-109415262D01*
X144482457Y-109415358D01*
X144420907Y-109438493D01*
X144348343Y-109467965D01*
X144279943Y-109497597D01*
X144276706Y-109499062D01*
X144165298Y-109549626D01*
X143918601Y-109381160D01*
X143842923Y-109329803D01*
X143774369Y-109283889D01*
X143716912Y-109246030D01*
X143674524Y-109218837D01*
X143651175Y-109204921D01*
X143648958Y-109203889D01*
X143631990Y-109208484D01*
X143600299Y-109230655D01*
X143552648Y-109271447D01*
X143487802Y-109331905D01*
X143421603Y-109396227D01*
X143357786Y-109459612D01*
X143300671Y-109517451D01*
X143253695Y-109566175D01*
X143220297Y-109602210D01*
X143203915Y-109621984D01*
X143203306Y-109623002D01*
X143201495Y-109636572D01*
X143208317Y-109658733D01*
X143225460Y-109692478D01*
X143254607Y-109740800D01*
X143297445Y-109806692D01*
X143354552Y-109891517D01*
X143405234Y-109966177D01*
X143450539Y-110033140D01*
X143487850Y-110088516D01*
X143514548Y-110128420D01*
X143528015Y-110148962D01*
X143528863Y-110150356D01*
X143527219Y-110170038D01*
X143514755Y-110208293D01*
X143493952Y-110257889D01*
X143486538Y-110273728D01*
X143454186Y-110344290D01*
X143419672Y-110424353D01*
X143391635Y-110493629D01*
X143371432Y-110545045D01*
X143355385Y-110584119D01*
X143346112Y-110604541D01*
X143344959Y-110606114D01*
X143327904Y-110608721D01*
X143287702Y-110615863D01*
X143229698Y-110626523D01*
X143159237Y-110639685D01*
X143081665Y-110654333D01*
X143002328Y-110669449D01*
X142926569Y-110684018D01*
X142859736Y-110697022D01*
X142807172Y-110707445D01*
X142774224Y-110714270D01*
X142766143Y-110716199D01*
X142757795Y-110720962D01*
X142751494Y-110731718D01*
X142746955Y-110752098D01*
X142743896Y-110785734D01*
X142742033Y-110836255D01*
X142741082Y-110907292D01*
X142740760Y-111002476D01*
X142740743Y-111041492D01*
X142740743Y-111358799D01*
X142816943Y-111373839D01*
X142859337Y-111381995D01*
X142922600Y-111393899D01*
X142999038Y-111408116D01*
X143080957Y-111423210D01*
X143103600Y-111427355D01*
X143179194Y-111442053D01*
X143245047Y-111456505D01*
X143295634Y-111469375D01*
X143325426Y-111479322D01*
X143330388Y-111482287D01*
X143342574Y-111503283D01*
X143360047Y-111543967D01*
X143379423Y-111596322D01*
X143383266Y-111607600D01*
X143408661Y-111677523D01*
X143440183Y-111756418D01*
X143471031Y-111827266D01*
X143471183Y-111827595D01*
X143522553Y-111938733D01*
X143353601Y-112187253D01*
X143184648Y-112435772D01*
X143401571Y-112653058D01*
X143467181Y-112717726D01*
X143527021Y-112774733D01*
X143577733Y-112821033D01*
X143615954Y-112853584D01*
X143638325Y-112869343D01*
X143641534Y-112870343D01*
X143660374Y-112862469D01*
X143698820Y-112840578D01*
X143752670Y-112807267D01*
X143817724Y-112765131D01*
X143888060Y-112717943D01*
X143959445Y-112669810D01*
X144023092Y-112627928D01*
X144074959Y-112594871D01*
X144111005Y-112573218D01*
X144127133Y-112565543D01*
X144146811Y-112572037D01*
X144184125Y-112589150D01*
X144231379Y-112613326D01*
X144236388Y-112616013D01*
X144300023Y-112647927D01*
X144343659Y-112663579D01*
X144370798Y-112663745D01*
X144384943Y-112649204D01*
X144385025Y-112649000D01*
X144392095Y-112631779D01*
X144408958Y-112590899D01*
X144434305Y-112529525D01*
X144466829Y-112450819D01*
X144505222Y-112357947D01*
X144548178Y-112254072D01*
X144589778Y-112153502D01*
X144635496Y-112042516D01*
X144677474Y-111939703D01*
X144714452Y-111848215D01*
X144745173Y-111771201D01*
X144768378Y-111711815D01*
X144782810Y-111673209D01*
X144787257Y-111658800D01*
X144776104Y-111642272D01*
X144746931Y-111615930D01*
X144708029Y-111586887D01*
X144597243Y-111495039D01*
X144510649Y-111389759D01*
X144449284Y-111273266D01*
X144414185Y-111147776D01*
X144406392Y-111015507D01*
X144412057Y-110954457D01*
X144442922Y-110827795D01*
X144496080Y-110715941D01*
X144568233Y-110620001D01*
X144656083Y-110541076D01*
X144756335Y-110480270D01*
X144865690Y-110438687D01*
X144980853Y-110417428D01*
X145098525Y-110417599D01*
X145215410Y-110440301D01*
X145328211Y-110486638D01*
X145433631Y-110557713D01*
X145477632Y-110597911D01*
X145562021Y-110701129D01*
X145620778Y-110813925D01*
X145654296Y-110933010D01*
X145662965Y-111055095D01*
X145647177Y-111176893D01*
X145607322Y-111295116D01*
X145543793Y-111406475D01*
X145456979Y-111507684D01*
X145359971Y-111586887D01*
X145319563Y-111617162D01*
X145291018Y-111643219D01*
X145280743Y-111658825D01*
X145286123Y-111675843D01*
X145301425Y-111716500D01*
X145325388Y-111777642D01*
X145356756Y-111856119D01*
X145394268Y-111948780D01*
X145436667Y-112052472D01*
X145478337Y-112153526D01*
X145524310Y-112264607D01*
X145566893Y-112367541D01*
X145604779Y-112459165D01*
X145636660Y-112536316D01*
X145661229Y-112595831D01*
X145677180Y-112634544D01*
X145683090Y-112649000D01*
X145697052Y-112663685D01*
X145724060Y-112663642D01*
X145767587Y-112648099D01*
X145831110Y-112616284D01*
X145831612Y-112616013D01*
X145879440Y-112591323D01*
X145918103Y-112573338D01*
X145939905Y-112565614D01*
X145940867Y-112565543D01*
X145957279Y-112573378D01*
X145993513Y-112595165D01*
X146045526Y-112628328D01*
X146109275Y-112670291D01*
X146179940Y-112717943D01*
X146251884Y-112766191D01*
X146316726Y-112808151D01*
X146370265Y-112841227D01*
X146408303Y-112862821D01*
X146426467Y-112870343D01*
X146443192Y-112860457D01*
X146476820Y-112832826D01*
X146523990Y-112790495D01*
X146581342Y-112736505D01*
X146645516Y-112673899D01*
X146666503Y-112652983D01*
X146883501Y-112435623D01*
X146718332Y-112193220D01*
X146668136Y-112118781D01*
X146624081Y-112051972D01*
X146588638Y-111996665D01*
X146564281Y-111956729D01*
X146553478Y-111936036D01*
X146553162Y-111934563D01*
X146558857Y-111915058D01*
X146574174Y-111875822D01*
X146596463Y-111823430D01*
X146612107Y-111788355D01*
X146641359Y-111721201D01*
X146668906Y-111653358D01*
X146690263Y-111596034D01*
X146696065Y-111578572D01*
X146712548Y-111531938D01*
X146728660Y-111495905D01*
X146737510Y-111482287D01*
X146757040Y-111473952D01*
X146799666Y-111462137D01*
X146859855Y-111448181D01*
X146932078Y-111433422D01*
X146964400Y-111427355D01*
X147046478Y-111412273D01*
X147125205Y-111397669D01*
X147192891Y-111384980D01*
X147241840Y-111375642D01*
X147251057Y-111373839D01*
X147327257Y-111358799D01*
X147327257Y-111041492D01*
X147327086Y-110937154D01*
X147326384Y-110858213D01*
X147324866Y-110801038D01*
X147322251Y-110761999D01*
X147318254Y-110737465D01*
X147312591Y-110723805D01*
X147304980Y-110717389D01*
X147301857Y-110716199D01*
X147283022Y-110711980D01*
X147241412Y-110703562D01*
X147182370Y-110691961D01*
X147111243Y-110678195D01*
X147033375Y-110663280D01*
X146954113Y-110648232D01*
X146878802Y-110634069D01*
X146812787Y-110621806D01*
X146761413Y-110612461D01*
X146730025Y-110607050D01*
X146723041Y-110606114D01*
X146716715Y-110593596D01*
X146702710Y-110560246D01*
X146683645Y-110512377D01*
X146676366Y-110493629D01*
X146647004Y-110421195D01*
X146612429Y-110341170D01*
X146581463Y-110273728D01*
X146558677Y-110222159D01*
X146543518Y-110179785D01*
X146538458Y-110153834D01*
X146539264Y-110150356D01*
X146549959Y-110133936D01*
X146574380Y-110097417D01*
X146609905Y-110044687D01*
X146653913Y-109979635D01*
X146703783Y-109906151D01*
X146713644Y-109891645D01*
X146771508Y-109805704D01*
X146814044Y-109740261D01*
X146842946Y-109692304D01*
X146859910Y-109658820D01*
X146866633Y-109636795D01*
X146864810Y-109623217D01*
X146864764Y-109623131D01*
X146850414Y-109605297D01*
X146818677Y-109570817D01*
X146772990Y-109523268D01*
X146716796Y-109466222D01*
X146653532Y-109403255D01*
X146646398Y-109396227D01*
X146566670Y-109319020D01*
X146505143Y-109262330D01*
X146460579Y-109225110D01*
X146431743Y-109206315D01*
X146419042Y-109203889D01*
X146400506Y-109214471D01*
X146362039Y-109238916D01*
X146307614Y-109274612D01*
X146241202Y-109318947D01*
X146166775Y-109369311D01*
X146149399Y-109381160D01*
X145902703Y-109549626D01*
X145791294Y-109499062D01*
X145723543Y-109469595D01*
X145650817Y-109439959D01*
X145588297Y-109416330D01*
X145585543Y-109415358D01*
X145536640Y-109397457D01*
X145498943Y-109382320D01*
X145480575Y-109373210D01*
X145480544Y-109373184D01*
X145474715Y-109356717D01*
X145464808Y-109316219D01*
X145451805Y-109256242D01*
X145436691Y-109181340D01*
X145420448Y-109096064D01*
X145419119Y-109088875D01*
X145402825Y-109001014D01*
X145387867Y-108921260D01*
X145375209Y-108854681D01*
X145365814Y-108806347D01*
X145360646Y-108781325D01*
X145360556Y-108780943D01*
X145357411Y-108770299D01*
X145351296Y-108762262D01*
X145338547Y-108756467D01*
X145315500Y-108752547D01*
X145278491Y-108750135D01*
X145223856Y-108748865D01*
X145147933Y-108748371D01*
X145047056Y-108748286D01*
X145034000Y-108748286D01*
X144930090Y-108748348D01*
G37*
X144930090Y-108748348D02*
X144851546Y-108748778D01*
X144794702Y-108749942D01*
X144755895Y-108752207D01*
X144731462Y-108755940D01*
X144717738Y-108761506D01*
X144711060Y-108769273D01*
X144707764Y-108779605D01*
X144707444Y-108780943D01*
X144702438Y-108805079D01*
X144693171Y-108852701D01*
X144680608Y-108918741D01*
X144665713Y-108998128D01*
X144649449Y-109085796D01*
X144648881Y-109088875D01*
X144632590Y-109174789D01*
X144617348Y-109250696D01*
X144604139Y-109312045D01*
X144593946Y-109354282D01*
X144587752Y-109372855D01*
X144587457Y-109373184D01*
X144569212Y-109382253D01*
X144531595Y-109397367D01*
X144482729Y-109415262D01*
X144482457Y-109415358D01*
X144420907Y-109438493D01*
X144348343Y-109467965D01*
X144279943Y-109497597D01*
X144276706Y-109499062D01*
X144165298Y-109549626D01*
X143918601Y-109381160D01*
X143842923Y-109329803D01*
X143774369Y-109283889D01*
X143716912Y-109246030D01*
X143674524Y-109218837D01*
X143651175Y-109204921D01*
X143648958Y-109203889D01*
X143631990Y-109208484D01*
X143600299Y-109230655D01*
X143552648Y-109271447D01*
X143487802Y-109331905D01*
X143421603Y-109396227D01*
X143357786Y-109459612D01*
X143300671Y-109517451D01*
X143253695Y-109566175D01*
X143220297Y-109602210D01*
X143203915Y-109621984D01*
X143203306Y-109623002D01*
X143201495Y-109636572D01*
X143208317Y-109658733D01*
X143225460Y-109692478D01*
X143254607Y-109740800D01*
X143297445Y-109806692D01*
X143354552Y-109891517D01*
X143405234Y-109966177D01*
X143450539Y-110033140D01*
X143487850Y-110088516D01*
X143514548Y-110128420D01*
X143528015Y-110148962D01*
X143528863Y-110150356D01*
X143527219Y-110170038D01*
X143514755Y-110208293D01*
X143493952Y-110257889D01*
X143486538Y-110273728D01*
X143454186Y-110344290D01*
X143419672Y-110424353D01*
X143391635Y-110493629D01*
X143371432Y-110545045D01*
X143355385Y-110584119D01*
X143346112Y-110604541D01*
X143344959Y-110606114D01*
X143327904Y-110608721D01*
X143287702Y-110615863D01*
X143229698Y-110626523D01*
X143159237Y-110639685D01*
X143081665Y-110654333D01*
X143002328Y-110669449D01*
X142926569Y-110684018D01*
X142859736Y-110697022D01*
X142807172Y-110707445D01*
X142774224Y-110714270D01*
X142766143Y-110716199D01*
X142757795Y-110720962D01*
X142751494Y-110731718D01*
X142746955Y-110752098D01*
X142743896Y-110785734D01*
X142742033Y-110836255D01*
X142741082Y-110907292D01*
X142740760Y-111002476D01*
X142740743Y-111041492D01*
X142740743Y-111358799D01*
X142816943Y-111373839D01*
X142859337Y-111381995D01*
X142922600Y-111393899D01*
X142999038Y-111408116D01*
X143080957Y-111423210D01*
X143103600Y-111427355D01*
X143179194Y-111442053D01*
X143245047Y-111456505D01*
X143295634Y-111469375D01*
X143325426Y-111479322D01*
X143330388Y-111482287D01*
X143342574Y-111503283D01*
X143360047Y-111543967D01*
X143379423Y-111596322D01*
X143383266Y-111607600D01*
X143408661Y-111677523D01*
X143440183Y-111756418D01*
X143471031Y-111827266D01*
X143471183Y-111827595D01*
X143522553Y-111938733D01*
X143353601Y-112187253D01*
X143184648Y-112435772D01*
X143401571Y-112653058D01*
X143467181Y-112717726D01*
X143527021Y-112774733D01*
X143577733Y-112821033D01*
X143615954Y-112853584D01*
X143638325Y-112869343D01*
X143641534Y-112870343D01*
X143660374Y-112862469D01*
X143698820Y-112840578D01*
X143752670Y-112807267D01*
X143817724Y-112765131D01*
X143888060Y-112717943D01*
X143959445Y-112669810D01*
X144023092Y-112627928D01*
X144074959Y-112594871D01*
X144111005Y-112573218D01*
X144127133Y-112565543D01*
X144146811Y-112572037D01*
X144184125Y-112589150D01*
X144231379Y-112613326D01*
X144236388Y-112616013D01*
X144300023Y-112647927D01*
X144343659Y-112663579D01*
X144370798Y-112663745D01*
X144384943Y-112649204D01*
X144385025Y-112649000D01*
X144392095Y-112631779D01*
X144408958Y-112590899D01*
X144434305Y-112529525D01*
X144466829Y-112450819D01*
X144505222Y-112357947D01*
X144548178Y-112254072D01*
X144589778Y-112153502D01*
X144635496Y-112042516D01*
X144677474Y-111939703D01*
X144714452Y-111848215D01*
X144745173Y-111771201D01*
X144768378Y-111711815D01*
X144782810Y-111673209D01*
X144787257Y-111658800D01*
X144776104Y-111642272D01*
X144746931Y-111615930D01*
X144708029Y-111586887D01*
X144597243Y-111495039D01*
X144510649Y-111389759D01*
X144449284Y-111273266D01*
X144414185Y-111147776D01*
X144406392Y-111015507D01*
X144412057Y-110954457D01*
X144442922Y-110827795D01*
X144496080Y-110715941D01*
X144568233Y-110620001D01*
X144656083Y-110541076D01*
X144756335Y-110480270D01*
X144865690Y-110438687D01*
X144980853Y-110417428D01*
X145098525Y-110417599D01*
X145215410Y-110440301D01*
X145328211Y-110486638D01*
X145433631Y-110557713D01*
X145477632Y-110597911D01*
X145562021Y-110701129D01*
X145620778Y-110813925D01*
X145654296Y-110933010D01*
X145662965Y-111055095D01*
X145647177Y-111176893D01*
X145607322Y-111295116D01*
X145543793Y-111406475D01*
X145456979Y-111507684D01*
X145359971Y-111586887D01*
X145319563Y-111617162D01*
X145291018Y-111643219D01*
X145280743Y-111658825D01*
X145286123Y-111675843D01*
X145301425Y-111716500D01*
X145325388Y-111777642D01*
X145356756Y-111856119D01*
X145394268Y-111948780D01*
X145436667Y-112052472D01*
X145478337Y-112153526D01*
X145524310Y-112264607D01*
X145566893Y-112367541D01*
X145604779Y-112459165D01*
X145636660Y-112536316D01*
X145661229Y-112595831D01*
X145677180Y-112634544D01*
X145683090Y-112649000D01*
X145697052Y-112663685D01*
X145724060Y-112663642D01*
X145767587Y-112648099D01*
X145831110Y-112616284D01*
X145831612Y-112616013D01*
X145879440Y-112591323D01*
X145918103Y-112573338D01*
X145939905Y-112565614D01*
X145940867Y-112565543D01*
X145957279Y-112573378D01*
X145993513Y-112595165D01*
X146045526Y-112628328D01*
X146109275Y-112670291D01*
X146179940Y-112717943D01*
X146251884Y-112766191D01*
X146316726Y-112808151D01*
X146370265Y-112841227D01*
X146408303Y-112862821D01*
X146426467Y-112870343D01*
X146443192Y-112860457D01*
X146476820Y-112832826D01*
X146523990Y-112790495D01*
X146581342Y-112736505D01*
X146645516Y-112673899D01*
X146666503Y-112652983D01*
X146883501Y-112435623D01*
X146718332Y-112193220D01*
X146668136Y-112118781D01*
X146624081Y-112051972D01*
X146588638Y-111996665D01*
X146564281Y-111956729D01*
X146553478Y-111936036D01*
X146553162Y-111934563D01*
X146558857Y-111915058D01*
X146574174Y-111875822D01*
X146596463Y-111823430D01*
X146612107Y-111788355D01*
X146641359Y-111721201D01*
X146668906Y-111653358D01*
X146690263Y-111596034D01*
X146696065Y-111578572D01*
X146712548Y-111531938D01*
X146728660Y-111495905D01*
X146737510Y-111482287D01*
X146757040Y-111473952D01*
X146799666Y-111462137D01*
X146859855Y-111448181D01*
X146932078Y-111433422D01*
X146964400Y-111427355D01*
X147046478Y-111412273D01*
X147125205Y-111397669D01*
X147192891Y-111384980D01*
X147241840Y-111375642D01*
X147251057Y-111373839D01*
X147327257Y-111358799D01*
X147327257Y-111041492D01*
X147327086Y-110937154D01*
X147326384Y-110858213D01*
X147324866Y-110801038D01*
X147322251Y-110761999D01*
X147318254Y-110737465D01*
X147312591Y-110723805D01*
X147304980Y-110717389D01*
X147301857Y-110716199D01*
X147283022Y-110711980D01*
X147241412Y-110703562D01*
X147182370Y-110691961D01*
X147111243Y-110678195D01*
X147033375Y-110663280D01*
X146954113Y-110648232D01*
X146878802Y-110634069D01*
X146812787Y-110621806D01*
X146761413Y-110612461D01*
X146730025Y-110607050D01*
X146723041Y-110606114D01*
X146716715Y-110593596D01*
X146702710Y-110560246D01*
X146683645Y-110512377D01*
X146676366Y-110493629D01*
X146647004Y-110421195D01*
X146612429Y-110341170D01*
X146581463Y-110273728D01*
X146558677Y-110222159D01*
X146543518Y-110179785D01*
X146538458Y-110153834D01*
X146539264Y-110150356D01*
X146549959Y-110133936D01*
X146574380Y-110097417D01*
X146609905Y-110044687D01*
X146653913Y-109979635D01*
X146703783Y-109906151D01*
X146713644Y-109891645D01*
X146771508Y-109805704D01*
X146814044Y-109740261D01*
X146842946Y-109692304D01*
X146859910Y-109658820D01*
X146866633Y-109636795D01*
X146864810Y-109623217D01*
X146864764Y-109623131D01*
X146850414Y-109605297D01*
X146818677Y-109570817D01*
X146772990Y-109523268D01*
X146716796Y-109466222D01*
X146653532Y-109403255D01*
X146646398Y-109396227D01*
X146566670Y-109319020D01*
X146505143Y-109262330D01*
X146460579Y-109225110D01*
X146431743Y-109206315D01*
X146419042Y-109203889D01*
X146400506Y-109214471D01*
X146362039Y-109238916D01*
X146307614Y-109274612D01*
X146241202Y-109318947D01*
X146166775Y-109369311D01*
X146149399Y-109381160D01*
X145902703Y-109549626D01*
X145791294Y-109499062D01*
X145723543Y-109469595D01*
X145650817Y-109439959D01*
X145588297Y-109416330D01*
X145585543Y-109415358D01*
X145536640Y-109397457D01*
X145498943Y-109382320D01*
X145480575Y-109373210D01*
X145480544Y-109373184D01*
X145474715Y-109356717D01*
X145464808Y-109316219D01*
X145451805Y-109256242D01*
X145436691Y-109181340D01*
X145420448Y-109096064D01*
X145419119Y-109088875D01*
X145402825Y-109001014D01*
X145387867Y-108921260D01*
X145375209Y-108854681D01*
X145365814Y-108806347D01*
X145360646Y-108781325D01*
X145360556Y-108780943D01*
X145357411Y-108770299D01*
X145351296Y-108762262D01*
X145338547Y-108756467D01*
X145315500Y-108752547D01*
X145278491Y-108750135D01*
X145223856Y-108748865D01*
X145147933Y-108748371D01*
X145047056Y-108748286D01*
X145034000Y-108748286D01*
X144930090Y-108748348D01*
G36*
X160172400Y-108741054D02*
G01*
X160161535Y-108854993D01*
X160129918Y-108962616D01*
X160079015Y-109061615D01*
X160010293Y-109149684D01*
X159925219Y-109224516D01*
X159828232Y-109282384D01*
X159721964Y-109322005D01*
X159614950Y-109340573D01*
X159509300Y-109339434D01*
X159407125Y-109319930D01*
X159310534Y-109283406D01*
X159221638Y-109231205D01*
X159142546Y-109164673D01*
X159075369Y-109085152D01*
X159022217Y-108993987D01*
X158985199Y-108892523D01*
X158966427Y-108782102D01*
X158964489Y-108732206D01*
X158964489Y-108644267D01*
X158912560Y-108644267D01*
X158876253Y-108647111D01*
X158849355Y-108658911D01*
X158822249Y-108682649D01*
X158783867Y-108721031D01*
X158783867Y-110912602D01*
X158783876Y-111174739D01*
X158783908Y-111415241D01*
X158783972Y-111635048D01*
X158784076Y-111835101D01*
X158784227Y-112016344D01*
X158784434Y-112179716D01*
X158784706Y-112326160D01*
X158785050Y-112456617D01*
X158785474Y-112572029D01*
X158785987Y-112673338D01*
X158786597Y-112761484D01*
X158787312Y-112837410D01*
X158788140Y-112902057D01*
X158789089Y-112956367D01*
X158790167Y-113001280D01*
X158791383Y-113037740D01*
X158792745Y-113066687D01*
X158794261Y-113089063D01*
X158795938Y-113105809D01*
X158797786Y-113117868D01*
X158799813Y-113126180D01*
X158802025Y-113131687D01*
X158803108Y-113133537D01*
X158807271Y-113140549D01*
X158810805Y-113146996D01*
X158814635Y-113152900D01*
X158819682Y-113158286D01*
X158826871Y-113163178D01*
X158837123Y-113167598D01*
X158851364Y-113171572D01*
X158870514Y-113175121D01*
X158895499Y-113178270D01*
X158927240Y-113181042D01*
X158966662Y-113183461D01*
X159014686Y-113185551D01*
X159072237Y-113187335D01*
X159140237Y-113188837D01*
X159219610Y-113190080D01*
X159311279Y-113191089D01*
X159416166Y-113191885D01*
X159535196Y-113192494D01*
X159669290Y-113192939D01*
X159819373Y-113193243D01*
X159986367Y-113193430D01*
X160171196Y-113193524D01*
X160374783Y-113193548D01*
X160598050Y-113193525D01*
X160841922Y-113193480D01*
X161107321Y-113193437D01*
X161145704Y-113193432D01*
X161412682Y-113193389D01*
X161658002Y-113193318D01*
X161882583Y-113193213D01*
X162087345Y-113193066D01*
X162273206Y-113192869D01*
X162441088Y-113192616D01*
X162591908Y-113192300D01*
X162726587Y-113191913D01*
X162846044Y-113191447D01*
X162951199Y-113190897D01*
X163042971Y-113190253D01*
X163122279Y-113189511D01*
X163190043Y-113188661D01*
X163247182Y-113187697D01*
X163294617Y-113186611D01*
X163333266Y-113185397D01*
X163364049Y-113184047D01*
X163387885Y-113182555D01*
X163405694Y-113180911D01*
X163418395Y-113179111D01*
X163426908Y-113177145D01*
X163431266Y-113175477D01*
X163439728Y-113171906D01*
X163447497Y-113169270D01*
X163454602Y-113166634D01*
X163461073Y-113163062D01*
X163466939Y-113157621D01*
X163472229Y-113149375D01*
X163476974Y-113137390D01*
X163481202Y-113120731D01*
X163484943Y-113098463D01*
X163488227Y-113069652D01*
X163491083Y-113033363D01*
X163493540Y-112988661D01*
X163495629Y-112934611D01*
X163497378Y-112870279D01*
X163498817Y-112794730D01*
X163499976Y-112707030D01*
X163500883Y-112606243D01*
X163501569Y-112491434D01*
X163502063Y-112361670D01*
X163502395Y-112216015D01*
X163502593Y-112053535D01*
X163502687Y-111873295D01*
X163502708Y-111674360D01*
X163502685Y-111455796D01*
X163502646Y-111216668D01*
X163502622Y-110956040D01*
X163502622Y-110913889D01*
X163502636Y-110650992D01*
X163502661Y-110409732D01*
X163502671Y-110189165D01*
X163502642Y-109988352D01*
X163502548Y-109806349D01*
X163502362Y-109642216D01*
X163502059Y-109495011D01*
X163501614Y-109363792D01*
X163501034Y-109253867D01*
X163198197Y-109253867D01*
X163158407Y-109311711D01*
X163147236Y-109327479D01*
X163137166Y-109341441D01*
X163128138Y-109354784D01*
X163120097Y-109368693D01*
X163112986Y-109384356D01*
X163106747Y-109402958D01*
X163101325Y-109425686D01*
X163096662Y-109453727D01*
X163092701Y-109488267D01*
X163089385Y-109530492D01*
X163086659Y-109581589D01*
X163084464Y-109642744D01*
X163082745Y-109715144D01*
X163081444Y-109799975D01*
X163080505Y-109898422D01*
X163079870Y-110011674D01*
X163079484Y-110140916D01*
X163079288Y-110287334D01*
X163079227Y-110452116D01*
X163079243Y-110636447D01*
X163079280Y-110841513D01*
X163079289Y-110964133D01*
X163079265Y-111181082D01*
X163079231Y-111376642D01*
X163079243Y-111551999D01*
X163079358Y-111708341D01*
X163079630Y-111846857D01*
X163080118Y-111968734D01*
X163080876Y-112075160D01*
X163081962Y-112167322D01*
X163083431Y-112246409D01*
X163085340Y-112313608D01*
X163087744Y-112370107D01*
X163090701Y-112417093D01*
X163094266Y-112455755D01*
X163098495Y-112487280D01*
X163103446Y-112512855D01*
X163109173Y-112533670D01*
X163115733Y-112550911D01*
X163123183Y-112565765D01*
X163131579Y-112579422D01*
X163140976Y-112593069D01*
X163151432Y-112607893D01*
X163157523Y-112616783D01*
X163196296Y-112674400D01*
X162664732Y-112674400D01*
X162541483Y-112674365D01*
X162438987Y-112674215D01*
X162355420Y-112673878D01*
X162288956Y-112673286D01*
X162237771Y-112672367D01*
X162200041Y-112671051D01*
X162173940Y-112669269D01*
X162157644Y-112666951D01*
X162149328Y-112664026D01*
X162147168Y-112660424D01*
X162149339Y-112656075D01*
X162150535Y-112654645D01*
X162175685Y-112617573D01*
X162201583Y-112564772D01*
X162225192Y-112502770D01*
X162233461Y-112476357D01*
X162238078Y-112458416D01*
X162241979Y-112437355D01*
X162245248Y-112411089D01*
X162247966Y-112377532D01*
X162250215Y-112334599D01*
X162252077Y-112280204D01*
X162253636Y-112212262D01*
X162254972Y-112128688D01*
X162256169Y-112027395D01*
X162257308Y-111906300D01*
X162257685Y-111861600D01*
X162258702Y-111736449D01*
X162259460Y-111632082D01*
X162259903Y-111546707D01*
X162259970Y-111478533D01*
X162259605Y-111425765D01*
X162258748Y-111386614D01*
X162257341Y-111359285D01*
X162255325Y-111341986D01*
X162252643Y-111332926D01*
X162249236Y-111330312D01*
X162245044Y-111332351D01*
X162240571Y-111336667D01*
X162230216Y-111349602D01*
X162208158Y-111378676D01*
X162175957Y-111421759D01*
X162135174Y-111476718D01*
X162087370Y-111541423D01*
X162034105Y-111613742D01*
X161976940Y-111691544D01*
X161917437Y-111772698D01*
X161857155Y-111855072D01*
X161797655Y-111936536D01*
X161740498Y-112014957D01*
X161687245Y-112088204D01*
X161639457Y-112154147D01*
X161598693Y-112210654D01*
X161566516Y-112255593D01*
X161544485Y-112286834D01*
X161539917Y-112293466D01*
X161516996Y-112330369D01*
X161490188Y-112378359D01*
X161464789Y-112427897D01*
X161461568Y-112434577D01*
X161439890Y-112482772D01*
X161427304Y-112520334D01*
X161421574Y-112556160D01*
X161420456Y-112598200D01*
X161421090Y-112674400D01*
X160266651Y-112674400D01*
X160357815Y-112580669D01*
X160404612Y-112530775D01*
X160454899Y-112474295D01*
X160500944Y-112420026D01*
X160521369Y-112394673D01*
X160551807Y-112355128D01*
X160591862Y-112301916D01*
X160640361Y-112236667D01*
X160696135Y-112161011D01*
X160758011Y-112076577D01*
X160824819Y-111984994D01*
X160895387Y-111887892D01*
X160968545Y-111786901D01*
X161043121Y-111683650D01*
X161117944Y-111579768D01*
X161191843Y-111476885D01*
X161263646Y-111376631D01*
X161332184Y-111280636D01*
X161396284Y-111190527D01*
X161454775Y-111107936D01*
X161506486Y-111034492D01*
X161550247Y-110971824D01*
X161584885Y-110921561D01*
X161609230Y-110885334D01*
X161622111Y-110864771D01*
X161623869Y-110860668D01*
X161615910Y-110849342D01*
X161595115Y-110822162D01*
X161562847Y-110780829D01*
X161520470Y-110727044D01*
X161469347Y-110662506D01*
X161410841Y-110588918D01*
X161346314Y-110507978D01*
X161277131Y-110421388D01*
X161204653Y-110330848D01*
X161130246Y-110238060D01*
X161070517Y-110163702D01*
X160059511Y-110163702D01*
X160053602Y-110176659D01*
X160039272Y-110198908D01*
X160038225Y-110200391D01*
X160019438Y-110230544D01*
X159999791Y-110267375D01*
X159995892Y-110275511D01*
X159992356Y-110283940D01*
X159989230Y-110294059D01*
X159986486Y-110307260D01*
X159984092Y-110324938D01*
X159982019Y-110348484D01*
X159980235Y-110379293D01*
X159978712Y-110418757D01*
X159977419Y-110468269D01*
X159976326Y-110529223D01*
X159975403Y-110603011D01*
X159974619Y-110691028D01*
X159973945Y-110794665D01*
X159973350Y-110915316D01*
X159972805Y-111054374D01*
X159972279Y-111213232D01*
X159971745Y-111392089D01*
X159971206Y-111577207D01*
X159970772Y-111741145D01*
X159970509Y-111885303D01*
X159970484Y-112011079D01*
X159970765Y-112119871D01*
X159971419Y-112213077D01*
X159972514Y-112292097D01*
X159974118Y-112358328D01*
X159976297Y-112413170D01*
X159979119Y-112458021D01*
X159982651Y-112494278D01*
X159986961Y-112523341D01*
X159992117Y-112546609D01*
X159998185Y-112565479D01*
X160005233Y-112581351D01*
X160013329Y-112595622D01*
X160022540Y-112609691D01*
X160031040Y-112622158D01*
X160048176Y-112648452D01*
X160058322Y-112666037D01*
X160059511Y-112669257D01*
X160048604Y-112670334D01*
X160017411Y-112671335D01*
X159968223Y-112672235D01*
X159903333Y-112673010D01*
X159825030Y-112673637D01*
X159735607Y-112674091D01*
X159637356Y-112674349D01*
X159568445Y-112674400D01*
X159463452Y-112674180D01*
X159366610Y-112673548D01*
X159280107Y-112672549D01*
X159206132Y-112671227D01*
X159146874Y-112669626D01*
X159104520Y-112667791D01*
X159081260Y-112665765D01*
X159077378Y-112664493D01*
X159085076Y-112649591D01*
X159093074Y-112641560D01*
X159106246Y-112624434D01*
X159123485Y-112594183D01*
X159135407Y-112569622D01*
X159162045Y-112510711D01*
X159165120Y-111333845D01*
X159168195Y-110156978D01*
X159613853Y-110156978D01*
X159711670Y-110157142D01*
X159802064Y-110157611D01*
X159882630Y-110158347D01*
X159950962Y-110159316D01*
X160004656Y-110160480D01*
X160041305Y-110161803D01*
X160058504Y-110163249D01*
X160059511Y-110163702D01*
X161070517Y-110163702D01*
X161055270Y-110144722D01*
X160981090Y-110052537D01*
X160909069Y-109963204D01*
X160840569Y-109878424D01*
X160776955Y-109799898D01*
X160719588Y-109729326D01*
X160669833Y-109668409D01*
X160629052Y-109618847D01*
X160611888Y-109598178D01*
X160525596Y-109497516D01*
X160448997Y-109414259D01*
X160380183Y-109346438D01*
X160317248Y-109292089D01*
X160307867Y-109284722D01*
X160268356Y-109254117D01*
X161400116Y-109253867D01*
X161394827Y-109301844D01*
X161398130Y-109359188D01*
X161419661Y-109427463D01*
X161459635Y-109507212D01*
X161504943Y-109579495D01*
X161521161Y-109602140D01*
X161549214Y-109639696D01*
X161587430Y-109690021D01*
X161634137Y-109750973D01*
X161687661Y-109820411D01*
X161746331Y-109896194D01*
X161808475Y-109976180D01*
X161872421Y-110058228D01*
X161936495Y-110140196D01*
X161999027Y-110219943D01*
X162058343Y-110295327D01*
X162112771Y-110364207D01*
X162160639Y-110424442D01*
X162200275Y-110473889D01*
X162230006Y-110510408D01*
X162248161Y-110531858D01*
X162251220Y-110535156D01*
X162254079Y-110527149D01*
X162256293Y-110496855D01*
X162257857Y-110444556D01*
X162258767Y-110370531D01*
X162259020Y-110275063D01*
X162258613Y-110158434D01*
X162257704Y-110038445D01*
X162256382Y-109906333D01*
X162254857Y-109794594D01*
X162252881Y-109701025D01*
X162250206Y-109623419D01*
X162246582Y-109559574D01*
X162241761Y-109507283D01*
X162235494Y-109464344D01*
X162227532Y-109428551D01*
X162217627Y-109397700D01*
X162205531Y-109369586D01*
X162190993Y-109342005D01*
X162176311Y-109316966D01*
X162138314Y-109253867D01*
X163198197Y-109253867D01*
X163501034Y-109253867D01*
X163501001Y-109247617D01*
X163500195Y-109145544D01*
X163499170Y-109056633D01*
X163497900Y-108979941D01*
X163496360Y-108914527D01*
X163494524Y-108859449D01*
X163492367Y-108813765D01*
X163489863Y-108776534D01*
X163486987Y-108746813D01*
X163483713Y-108723662D01*
X163480015Y-108706139D01*
X163475869Y-108693301D01*
X163471247Y-108684208D01*
X163466126Y-108677918D01*
X163460478Y-108673488D01*
X163454279Y-108669978D01*
X163447504Y-108666445D01*
X163441508Y-108662876D01*
X163436275Y-108660300D01*
X163428099Y-108657972D01*
X163415886Y-108655878D01*
X163398541Y-108654007D01*
X163374969Y-108652347D01*
X163344077Y-108650884D01*
X163304768Y-108649608D01*
X163255950Y-108648504D01*
X163196527Y-108647561D01*
X163125404Y-108646767D01*
X163041488Y-108646109D01*
X162943683Y-108645575D01*
X162830894Y-108645153D01*
X162702029Y-108644829D01*
X162555991Y-108644592D01*
X162391686Y-108644430D01*
X162208020Y-108644330D01*
X162003897Y-108644280D01*
X161792753Y-108644267D01*
X160172400Y-108644267D01*
X160172400Y-108741054D01*
G37*
X160172400Y-108741054D02*
X160161535Y-108854993D01*
X160129918Y-108962616D01*
X160079015Y-109061615D01*
X160010293Y-109149684D01*
X159925219Y-109224516D01*
X159828232Y-109282384D01*
X159721964Y-109322005D01*
X159614950Y-109340573D01*
X159509300Y-109339434D01*
X159407125Y-109319930D01*
X159310534Y-109283406D01*
X159221638Y-109231205D01*
X159142546Y-109164673D01*
X159075369Y-109085152D01*
X159022217Y-108993987D01*
X158985199Y-108892523D01*
X158966427Y-108782102D01*
X158964489Y-108732206D01*
X158964489Y-108644267D01*
X158912560Y-108644267D01*
X158876253Y-108647111D01*
X158849355Y-108658911D01*
X158822249Y-108682649D01*
X158783867Y-108721031D01*
X158783867Y-110912602D01*
X158783876Y-111174739D01*
X158783908Y-111415241D01*
X158783972Y-111635048D01*
X158784076Y-111835101D01*
X158784227Y-112016344D01*
X158784434Y-112179716D01*
X158784706Y-112326160D01*
X158785050Y-112456617D01*
X158785474Y-112572029D01*
X158785987Y-112673338D01*
X158786597Y-112761484D01*
X158787312Y-112837410D01*
X158788140Y-112902057D01*
X158789089Y-112956367D01*
X158790167Y-113001280D01*
X158791383Y-113037740D01*
X158792745Y-113066687D01*
X158794261Y-113089063D01*
X158795938Y-113105809D01*
X158797786Y-113117868D01*
X158799813Y-113126180D01*
X158802025Y-113131687D01*
X158803108Y-113133537D01*
X158807271Y-113140549D01*
X158810805Y-113146996D01*
X158814635Y-113152900D01*
X158819682Y-113158286D01*
X158826871Y-113163178D01*
X158837123Y-113167598D01*
X158851364Y-113171572D01*
X158870514Y-113175121D01*
X158895499Y-113178270D01*
X158927240Y-113181042D01*
X158966662Y-113183461D01*
X159014686Y-113185551D01*
X159072237Y-113187335D01*
X159140237Y-113188837D01*
X159219610Y-113190080D01*
X159311279Y-113191089D01*
X159416166Y-113191885D01*
X159535196Y-113192494D01*
X159669290Y-113192939D01*
X159819373Y-113193243D01*
X159986367Y-113193430D01*
X160171196Y-113193524D01*
X160374783Y-113193548D01*
X160598050Y-113193525D01*
X160841922Y-113193480D01*
X161107321Y-113193437D01*
X161145704Y-113193432D01*
X161412682Y-113193389D01*
X161658002Y-113193318D01*
X161882583Y-113193213D01*
X162087345Y-113193066D01*
X162273206Y-113192869D01*
X162441088Y-113192616D01*
X162591908Y-113192300D01*
X162726587Y-113191913D01*
X162846044Y-113191447D01*
X162951199Y-113190897D01*
X163042971Y-113190253D01*
X163122279Y-113189511D01*
X163190043Y-113188661D01*
X163247182Y-113187697D01*
X163294617Y-113186611D01*
X163333266Y-113185397D01*
X163364049Y-113184047D01*
X163387885Y-113182555D01*
X163405694Y-113180911D01*
X163418395Y-113179111D01*
X163426908Y-113177145D01*
X163431266Y-113175477D01*
X163439728Y-113171906D01*
X163447497Y-113169270D01*
X163454602Y-113166634D01*
X163461073Y-113163062D01*
X163466939Y-113157621D01*
X163472229Y-113149375D01*
X163476974Y-113137390D01*
X163481202Y-113120731D01*
X163484943Y-113098463D01*
X163488227Y-113069652D01*
X163491083Y-113033363D01*
X163493540Y-112988661D01*
X163495629Y-112934611D01*
X163497378Y-112870279D01*
X163498817Y-112794730D01*
X163499976Y-112707030D01*
X163500883Y-112606243D01*
X163501569Y-112491434D01*
X163502063Y-112361670D01*
X163502395Y-112216015D01*
X163502593Y-112053535D01*
X163502687Y-111873295D01*
X163502708Y-111674360D01*
X163502685Y-111455796D01*
X163502646Y-111216668D01*
X163502622Y-110956040D01*
X163502622Y-110913889D01*
X163502636Y-110650992D01*
X163502661Y-110409732D01*
X163502671Y-110189165D01*
X163502642Y-109988352D01*
X163502548Y-109806349D01*
X163502362Y-109642216D01*
X163502059Y-109495011D01*
X163501614Y-109363792D01*
X163501034Y-109253867D01*
X163198197Y-109253867D01*
X163158407Y-109311711D01*
X163147236Y-109327479D01*
X163137166Y-109341441D01*
X163128138Y-109354784D01*
X163120097Y-109368693D01*
X163112986Y-109384356D01*
X163106747Y-109402958D01*
X163101325Y-109425686D01*
X163096662Y-109453727D01*
X163092701Y-109488267D01*
X163089385Y-109530492D01*
X163086659Y-109581589D01*
X163084464Y-109642744D01*
X163082745Y-109715144D01*
X163081444Y-109799975D01*
X163080505Y-109898422D01*
X163079870Y-110011674D01*
X163079484Y-110140916D01*
X163079288Y-110287334D01*
X163079227Y-110452116D01*
X163079243Y-110636447D01*
X163079280Y-110841513D01*
X163079289Y-110964133D01*
X163079265Y-111181082D01*
X163079231Y-111376642D01*
X163079243Y-111551999D01*
X163079358Y-111708341D01*
X163079630Y-111846857D01*
X163080118Y-111968734D01*
X163080876Y-112075160D01*
X163081962Y-112167322D01*
X163083431Y-112246409D01*
X163085340Y-112313608D01*
X163087744Y-112370107D01*
X163090701Y-112417093D01*
X163094266Y-112455755D01*
X163098495Y-112487280D01*
X163103446Y-112512855D01*
X163109173Y-112533670D01*
X163115733Y-112550911D01*
X163123183Y-112565765D01*
X163131579Y-112579422D01*
X163140976Y-112593069D01*
X163151432Y-112607893D01*
X163157523Y-112616783D01*
X163196296Y-112674400D01*
X162664732Y-112674400D01*
X162541483Y-112674365D01*
X162438987Y-112674215D01*
X162355420Y-112673878D01*
X162288956Y-112673286D01*
X162237771Y-112672367D01*
X162200041Y-112671051D01*
X162173940Y-112669269D01*
X162157644Y-112666951D01*
X162149328Y-112664026D01*
X162147168Y-112660424D01*
X162149339Y-112656075D01*
X162150535Y-112654645D01*
X162175685Y-112617573D01*
X162201583Y-112564772D01*
X162225192Y-112502770D01*
X162233461Y-112476357D01*
X162238078Y-112458416D01*
X162241979Y-112437355D01*
X162245248Y-112411089D01*
X162247966Y-112377532D01*
X162250215Y-112334599D01*
X162252077Y-112280204D01*
X162253636Y-112212262D01*
X162254972Y-112128688D01*
X162256169Y-112027395D01*
X162257308Y-111906300D01*
X162257685Y-111861600D01*
X162258702Y-111736449D01*
X162259460Y-111632082D01*
X162259903Y-111546707D01*
X162259970Y-111478533D01*
X162259605Y-111425765D01*
X162258748Y-111386614D01*
X162257341Y-111359285D01*
X162255325Y-111341986D01*
X162252643Y-111332926D01*
X162249236Y-111330312D01*
X162245044Y-111332351D01*
X162240571Y-111336667D01*
X162230216Y-111349602D01*
X162208158Y-111378676D01*
X162175957Y-111421759D01*
X162135174Y-111476718D01*
X162087370Y-111541423D01*
X162034105Y-111613742D01*
X161976940Y-111691544D01*
X161917437Y-111772698D01*
X161857155Y-111855072D01*
X161797655Y-111936536D01*
X161740498Y-112014957D01*
X161687245Y-112088204D01*
X161639457Y-112154147D01*
X161598693Y-112210654D01*
X161566516Y-112255593D01*
X161544485Y-112286834D01*
X161539917Y-112293466D01*
X161516996Y-112330369D01*
X161490188Y-112378359D01*
X161464789Y-112427897D01*
X161461568Y-112434577D01*
X161439890Y-112482772D01*
X161427304Y-112520334D01*
X161421574Y-112556160D01*
X161420456Y-112598200D01*
X161421090Y-112674400D01*
X160266651Y-112674400D01*
X160357815Y-112580669D01*
X160404612Y-112530775D01*
X160454899Y-112474295D01*
X160500944Y-112420026D01*
X160521369Y-112394673D01*
X160551807Y-112355128D01*
X160591862Y-112301916D01*
X160640361Y-112236667D01*
X160696135Y-112161011D01*
X160758011Y-112076577D01*
X160824819Y-111984994D01*
X160895387Y-111887892D01*
X160968545Y-111786901D01*
X161043121Y-111683650D01*
X161117944Y-111579768D01*
X161191843Y-111476885D01*
X161263646Y-111376631D01*
X161332184Y-111280636D01*
X161396284Y-111190527D01*
X161454775Y-111107936D01*
X161506486Y-111034492D01*
X161550247Y-110971824D01*
X161584885Y-110921561D01*
X161609230Y-110885334D01*
X161622111Y-110864771D01*
X161623869Y-110860668D01*
X161615910Y-110849342D01*
X161595115Y-110822162D01*
X161562847Y-110780829D01*
X161520470Y-110727044D01*
X161469347Y-110662506D01*
X161410841Y-110588918D01*
X161346314Y-110507978D01*
X161277131Y-110421388D01*
X161204653Y-110330848D01*
X161130246Y-110238060D01*
X161070517Y-110163702D01*
X160059511Y-110163702D01*
X160053602Y-110176659D01*
X160039272Y-110198908D01*
X160038225Y-110200391D01*
X160019438Y-110230544D01*
X159999791Y-110267375D01*
X159995892Y-110275511D01*
X159992356Y-110283940D01*
X159989230Y-110294059D01*
X159986486Y-110307260D01*
X159984092Y-110324938D01*
X159982019Y-110348484D01*
X159980235Y-110379293D01*
X159978712Y-110418757D01*
X159977419Y-110468269D01*
X159976326Y-110529223D01*
X159975403Y-110603011D01*
X159974619Y-110691028D01*
X159973945Y-110794665D01*
X159973350Y-110915316D01*
X159972805Y-111054374D01*
X159972279Y-111213232D01*
X159971745Y-111392089D01*
X159971206Y-111577207D01*
X159970772Y-111741145D01*
X159970509Y-111885303D01*
X159970484Y-112011079D01*
X159970765Y-112119871D01*
X159971419Y-112213077D01*
X159972514Y-112292097D01*
X159974118Y-112358328D01*
X159976297Y-112413170D01*
X159979119Y-112458021D01*
X159982651Y-112494278D01*
X159986961Y-112523341D01*
X159992117Y-112546609D01*
X159998185Y-112565479D01*
X160005233Y-112581351D01*
X160013329Y-112595622D01*
X160022540Y-112609691D01*
X160031040Y-112622158D01*
X160048176Y-112648452D01*
X160058322Y-112666037D01*
X160059511Y-112669257D01*
X160048604Y-112670334D01*
X160017411Y-112671335D01*
X159968223Y-112672235D01*
X159903333Y-112673010D01*
X159825030Y-112673637D01*
X159735607Y-112674091D01*
X159637356Y-112674349D01*
X159568445Y-112674400D01*
X159463452Y-112674180D01*
X159366610Y-112673548D01*
X159280107Y-112672549D01*
X159206132Y-112671227D01*
X159146874Y-112669626D01*
X159104520Y-112667791D01*
X159081260Y-112665765D01*
X159077378Y-112664493D01*
X159085076Y-112649591D01*
X159093074Y-112641560D01*
X159106246Y-112624434D01*
X159123485Y-112594183D01*
X159135407Y-112569622D01*
X159162045Y-112510711D01*
X159165120Y-111333845D01*
X159168195Y-110156978D01*
X159613853Y-110156978D01*
X159711670Y-110157142D01*
X159802064Y-110157611D01*
X159882630Y-110158347D01*
X159950962Y-110159316D01*
X160004656Y-110160480D01*
X160041305Y-110161803D01*
X160058504Y-110163249D01*
X160059511Y-110163702D01*
X161070517Y-110163702D01*
X161055270Y-110144722D01*
X160981090Y-110052537D01*
X160909069Y-109963204D01*
X160840569Y-109878424D01*
X160776955Y-109799898D01*
X160719588Y-109729326D01*
X160669833Y-109668409D01*
X160629052Y-109618847D01*
X160611888Y-109598178D01*
X160525596Y-109497516D01*
X160448997Y-109414259D01*
X160380183Y-109346438D01*
X160317248Y-109292089D01*
X160307867Y-109284722D01*
X160268356Y-109254117D01*
X161400116Y-109253867D01*
X161394827Y-109301844D01*
X161398130Y-109359188D01*
X161419661Y-109427463D01*
X161459635Y-109507212D01*
X161504943Y-109579495D01*
X161521161Y-109602140D01*
X161549214Y-109639696D01*
X161587430Y-109690021D01*
X161634137Y-109750973D01*
X161687661Y-109820411D01*
X161746331Y-109896194D01*
X161808475Y-109976180D01*
X161872421Y-110058228D01*
X161936495Y-110140196D01*
X161999027Y-110219943D01*
X162058343Y-110295327D01*
X162112771Y-110364207D01*
X162160639Y-110424442D01*
X162200275Y-110473889D01*
X162230006Y-110510408D01*
X162248161Y-110531858D01*
X162251220Y-110535156D01*
X162254079Y-110527149D01*
X162256293Y-110496855D01*
X162257857Y-110444556D01*
X162258767Y-110370531D01*
X162259020Y-110275063D01*
X162258613Y-110158434D01*
X162257704Y-110038445D01*
X162256382Y-109906333D01*
X162254857Y-109794594D01*
X162252881Y-109701025D01*
X162250206Y-109623419D01*
X162246582Y-109559574D01*
X162241761Y-109507283D01*
X162235494Y-109464344D01*
X162227532Y-109428551D01*
X162217627Y-109397700D01*
X162205531Y-109369586D01*
X162190993Y-109342005D01*
X162176311Y-109316966D01*
X162138314Y-109253867D01*
X163198197Y-109253867D01*
X163501034Y-109253867D01*
X163501001Y-109247617D01*
X163500195Y-109145544D01*
X163499170Y-109056633D01*
X163497900Y-108979941D01*
X163496360Y-108914527D01*
X163494524Y-108859449D01*
X163492367Y-108813765D01*
X163489863Y-108776534D01*
X163486987Y-108746813D01*
X163483713Y-108723662D01*
X163480015Y-108706139D01*
X163475869Y-108693301D01*
X163471247Y-108684208D01*
X163466126Y-108677918D01*
X163460478Y-108673488D01*
X163454279Y-108669978D01*
X163447504Y-108666445D01*
X163441508Y-108662876D01*
X163436275Y-108660300D01*
X163428099Y-108657972D01*
X163415886Y-108655878D01*
X163398541Y-108654007D01*
X163374969Y-108652347D01*
X163344077Y-108650884D01*
X163304768Y-108649608D01*
X163255950Y-108648504D01*
X163196527Y-108647561D01*
X163125404Y-108646767D01*
X163041488Y-108646109D01*
X162943683Y-108645575D01*
X162830894Y-108645153D01*
X162702029Y-108644829D01*
X162555991Y-108644592D01*
X162391686Y-108644430D01*
X162208020Y-108644330D01*
X162003897Y-108644280D01*
X161792753Y-108644267D01*
X160172400Y-108644267D01*
X160172400Y-108741054D01*
G36*
X156897571Y-109201071D02*
G01*
X156737430Y-109222245D01*
X156573490Y-109262385D01*
X156403687Y-109321889D01*
X156225957Y-109401154D01*
X156214690Y-109406699D01*
X156156995Y-109434725D01*
X156105448Y-109458802D01*
X156063809Y-109477249D01*
X156035838Y-109488386D01*
X156026267Y-109490933D01*
X156007050Y-109495941D01*
X156002439Y-109500147D01*
X156007542Y-109510580D01*
X156023582Y-109536868D01*
X156048712Y-109576257D01*
X156081086Y-109625991D01*
X156118857Y-109683315D01*
X156160178Y-109745476D01*
X156203202Y-109809718D01*
X156246083Y-109873285D01*
X156286974Y-109933425D01*
X156324029Y-109987380D01*
X156355400Y-110032397D01*
X156379241Y-110065721D01*
X156393706Y-110084597D01*
X156395691Y-110086787D01*
X156405809Y-110082138D01*
X156428150Y-110064962D01*
X156458720Y-110038440D01*
X156474464Y-110023964D01*
X156570953Y-109948682D01*
X156677664Y-109893241D01*
X156793168Y-109858141D01*
X156916038Y-109843880D01*
X156985439Y-109845051D01*
X157106577Y-109862212D01*
X157215795Y-109898094D01*
X157313418Y-109952959D01*
X157399772Y-110027070D01*
X157475185Y-110120688D01*
X157539982Y-110234076D01*
X157577399Y-110320667D01*
X157621252Y-110456366D01*
X157653572Y-110603850D01*
X157674443Y-110759314D01*
X157683949Y-110918956D01*
X157682173Y-111078973D01*
X157669197Y-111235561D01*
X157645106Y-111384918D01*
X157609982Y-111523240D01*
X157563908Y-111646724D01*
X157547627Y-111680978D01*
X157479380Y-111795064D01*
X157398921Y-111891557D01*
X157307430Y-111969670D01*
X157206089Y-112028617D01*
X157096080Y-112067612D01*
X156978585Y-112085868D01*
X156937117Y-112087211D01*
X156815559Y-112076290D01*
X156695122Y-112043474D01*
X156577334Y-111989439D01*
X156463723Y-111914865D01*
X156372315Y-111836539D01*
X156325785Y-111792008D01*
X156144517Y-112089271D01*
X156099420Y-112163433D01*
X156058181Y-112231646D01*
X156022265Y-112291459D01*
X155993134Y-112340420D01*
X155972250Y-112376079D01*
X155961076Y-112395984D01*
X155959625Y-112399079D01*
X155967854Y-112408718D01*
X155993433Y-112425999D01*
X156033127Y-112449283D01*
X156083703Y-112476934D01*
X156141926Y-112507315D01*
X156204563Y-112538790D01*
X156268379Y-112569722D01*
X156330140Y-112598473D01*
X156386612Y-112623408D01*
X156434562Y-112642889D01*
X156458014Y-112651318D01*
X156591779Y-112689133D01*
X156729673Y-112714136D01*
X156877378Y-112727140D01*
X157004167Y-112729468D01*
X157072122Y-112728373D01*
X157137723Y-112726275D01*
X157195153Y-112723434D01*
X157238597Y-112720106D01*
X157252702Y-112718422D01*
X157391716Y-112689587D01*
X157533243Y-112644468D01*
X157670725Y-112585750D01*
X157797606Y-112516120D01*
X157875111Y-112463441D01*
X158002519Y-112355239D01*
X158120822Y-112228671D01*
X158227828Y-112086866D01*
X158321348Y-111932951D01*
X158399190Y-111770053D01*
X158443044Y-111652756D01*
X158493292Y-111469128D01*
X158526791Y-111274581D01*
X158543551Y-111073325D01*
X158543584Y-110869568D01*
X158526899Y-110667521D01*
X158493507Y-110471392D01*
X158443420Y-110285391D01*
X158439603Y-110273803D01*
X158376719Y-110111750D01*
X158299972Y-109963832D01*
X158206758Y-109825865D01*
X158094473Y-109693661D01*
X158050608Y-109648399D01*
X157914466Y-109524457D01*
X157774509Y-109421915D01*
X157628589Y-109339656D01*
X157474558Y-109276564D01*
X157310268Y-109231523D01*
X157214711Y-109214033D01*
X157055977Y-109198466D01*
X156897571Y-109201071D01*
G37*
X156897571Y-109201071D02*
X156737430Y-109222245D01*
X156573490Y-109262385D01*
X156403687Y-109321889D01*
X156225957Y-109401154D01*
X156214690Y-109406699D01*
X156156995Y-109434725D01*
X156105448Y-109458802D01*
X156063809Y-109477249D01*
X156035838Y-109488386D01*
X156026267Y-109490933D01*
X156007050Y-109495941D01*
X156002439Y-109500147D01*
X156007542Y-109510580D01*
X156023582Y-109536868D01*
X156048712Y-109576257D01*
X156081086Y-109625991D01*
X156118857Y-109683315D01*
X156160178Y-109745476D01*
X156203202Y-109809718D01*
X156246083Y-109873285D01*
X156286974Y-109933425D01*
X156324029Y-109987380D01*
X156355400Y-110032397D01*
X156379241Y-110065721D01*
X156393706Y-110084597D01*
X156395691Y-110086787D01*
X156405809Y-110082138D01*
X156428150Y-110064962D01*
X156458720Y-110038440D01*
X156474464Y-110023964D01*
X156570953Y-109948682D01*
X156677664Y-109893241D01*
X156793168Y-109858141D01*
X156916038Y-109843880D01*
X156985439Y-109845051D01*
X157106577Y-109862212D01*
X157215795Y-109898094D01*
X157313418Y-109952959D01*
X157399772Y-110027070D01*
X157475185Y-110120688D01*
X157539982Y-110234076D01*
X157577399Y-110320667D01*
X157621252Y-110456366D01*
X157653572Y-110603850D01*
X157674443Y-110759314D01*
X157683949Y-110918956D01*
X157682173Y-111078973D01*
X157669197Y-111235561D01*
X157645106Y-111384918D01*
X157609982Y-111523240D01*
X157563908Y-111646724D01*
X157547627Y-111680978D01*
X157479380Y-111795064D01*
X157398921Y-111891557D01*
X157307430Y-111969670D01*
X157206089Y-112028617D01*
X157096080Y-112067612D01*
X156978585Y-112085868D01*
X156937117Y-112087211D01*
X156815559Y-112076290D01*
X156695122Y-112043474D01*
X156577334Y-111989439D01*
X156463723Y-111914865D01*
X156372315Y-111836539D01*
X156325785Y-111792008D01*
X156144517Y-112089271D01*
X156099420Y-112163433D01*
X156058181Y-112231646D01*
X156022265Y-112291459D01*
X155993134Y-112340420D01*
X155972250Y-112376079D01*
X155961076Y-112395984D01*
X155959625Y-112399079D01*
X155967854Y-112408718D01*
X155993433Y-112425999D01*
X156033127Y-112449283D01*
X156083703Y-112476934D01*
X156141926Y-112507315D01*
X156204563Y-112538790D01*
X156268379Y-112569722D01*
X156330140Y-112598473D01*
X156386612Y-112623408D01*
X156434562Y-112642889D01*
X156458014Y-112651318D01*
X156591779Y-112689133D01*
X156729673Y-112714136D01*
X156877378Y-112727140D01*
X157004167Y-112729468D01*
X157072122Y-112728373D01*
X157137723Y-112726275D01*
X157195153Y-112723434D01*
X157238597Y-112720106D01*
X157252702Y-112718422D01*
X157391716Y-112689587D01*
X157533243Y-112644468D01*
X157670725Y-112585750D01*
X157797606Y-112516120D01*
X157875111Y-112463441D01*
X158002519Y-112355239D01*
X158120822Y-112228671D01*
X158227828Y-112086866D01*
X158321348Y-111932951D01*
X158399190Y-111770053D01*
X158443044Y-111652756D01*
X158493292Y-111469128D01*
X158526791Y-111274581D01*
X158543551Y-111073325D01*
X158543584Y-110869568D01*
X158526899Y-110667521D01*
X158493507Y-110471392D01*
X158443420Y-110285391D01*
X158439603Y-110273803D01*
X158376719Y-110111750D01*
X158299972Y-109963832D01*
X158206758Y-109825865D01*
X158094473Y-109693661D01*
X158050608Y-109648399D01*
X157914466Y-109524457D01*
X157774509Y-109421915D01*
X157628589Y-109339656D01*
X157474558Y-109276564D01*
X157310268Y-109231523D01*
X157214711Y-109214033D01*
X157055977Y-109198466D01*
X156897571Y-109201071D01*
G36*
X154552426Y-110118552D02*
G01*
X154400508Y-110138567D01*
X154265244Y-110172202D01*
X154145761Y-110219725D01*
X154041185Y-110281405D01*
X153963576Y-110344965D01*
X153894735Y-110419099D01*
X153840994Y-110498871D01*
X153798090Y-110591091D01*
X153782616Y-110634161D01*
X153769756Y-110673142D01*
X153758554Y-110709289D01*
X153748880Y-110744434D01*
X153740604Y-110780410D01*
X153733597Y-110819050D01*
X153727728Y-110862185D01*
X153722869Y-110911649D01*
X153718890Y-110969273D01*
X153715660Y-111036891D01*
X153713051Y-111116334D01*
X153710933Y-111209436D01*
X153709176Y-111318027D01*
X153707651Y-111443942D01*
X153706228Y-111589012D01*
X153704975Y-111731778D01*
X153703649Y-111887968D01*
X153702444Y-112023239D01*
X153701234Y-112139246D01*
X153699894Y-112237645D01*
X153698300Y-112320093D01*
X153696325Y-112388246D01*
X153693844Y-112443760D01*
X153690731Y-112488292D01*
X153686862Y-112523498D01*
X153682111Y-112551034D01*
X153676352Y-112572556D01*
X153669461Y-112589722D01*
X153661311Y-112604186D01*
X153651777Y-112617606D01*
X153640734Y-112631638D01*
X153636434Y-112637071D01*
X153620614Y-112659910D01*
X153613578Y-112675463D01*
X153613556Y-112675922D01*
X153624433Y-112678121D01*
X153655418Y-112680147D01*
X153704043Y-112681942D01*
X153767837Y-112683451D01*
X153844331Y-112684616D01*
X153931056Y-112685380D01*
X154025543Y-112685686D01*
X154036450Y-112685689D01*
X154459343Y-112685689D01*
X154462605Y-112589622D01*
X154465867Y-112493556D01*
X154527956Y-112544543D01*
X154625286Y-112612057D01*
X154735187Y-112666749D01*
X154821651Y-112696978D01*
X154890722Y-112711666D01*
X154974075Y-112721659D01*
X155063841Y-112726646D01*
X155152155Y-112726313D01*
X155231149Y-112720351D01*
X155267378Y-112714638D01*
X155407397Y-112676776D01*
X155533822Y-112621932D01*
X155645740Y-112550924D01*
X155742238Y-112464568D01*
X155822400Y-112363679D01*
X155885313Y-112249076D01*
X155929688Y-112122984D01*
X155942022Y-112066401D01*
X155949632Y-112004202D01*
X155953261Y-111929363D01*
X155953755Y-111895467D01*
X155953690Y-111892282D01*
X155193752Y-111892282D01*
X155184459Y-111967333D01*
X155156272Y-112031160D01*
X155107803Y-112086798D01*
X155102746Y-112091211D01*
X155054452Y-112126037D01*
X155002743Y-112148620D01*
X154942011Y-112160540D01*
X154866648Y-112163383D01*
X154848541Y-112162978D01*
X154794722Y-112160325D01*
X154754692Y-112154909D01*
X154719676Y-112144745D01*
X154680897Y-112127850D01*
X154670255Y-112122672D01*
X154609604Y-112086844D01*
X154562785Y-112044212D01*
X154550048Y-112028973D01*
X154505378Y-111972462D01*
X154505378Y-111776586D01*
X154505914Y-111697939D01*
X154507604Y-111639988D01*
X154510572Y-111600875D01*
X154514943Y-111578741D01*
X154519028Y-111572274D01*
X154534953Y-111569111D01*
X154568736Y-111566488D01*
X154615660Y-111564655D01*
X154671007Y-111563857D01*
X154679894Y-111563842D01*
X154800670Y-111569096D01*
X154903340Y-111585263D01*
X154989894Y-111612961D01*
X155062319Y-111652808D01*
X155117249Y-111699758D01*
X155161796Y-111757645D01*
X155186520Y-111820693D01*
X155193752Y-111892282D01*
X155953690Y-111892282D01*
X155951822Y-111801712D01*
X155943478Y-111722812D01*
X155927232Y-111651590D01*
X155901595Y-111580864D01*
X155877599Y-111528493D01*
X155818980Y-111433196D01*
X155740883Y-111345170D01*
X155645685Y-111266017D01*
X155535762Y-111197340D01*
X155413490Y-111140741D01*
X155281245Y-111097821D01*
X155216578Y-111082882D01*
X155080396Y-111060777D01*
X154931951Y-111046194D01*
X154780495Y-111039813D01*
X154653936Y-111041445D01*
X154492050Y-111048224D01*
X154499470Y-110989245D01*
X154518762Y-110890092D01*
X154549896Y-110809372D01*
X154593731Y-110746466D01*
X154651129Y-110700756D01*
X154722952Y-110671622D01*
X154810059Y-110658447D01*
X154913314Y-110660611D01*
X154951289Y-110664612D01*
X155092480Y-110689780D01*
X155229293Y-110730814D01*
X155323822Y-110768815D01*
X155368982Y-110788190D01*
X155407415Y-110803760D01*
X155433766Y-110813405D01*
X155441454Y-110815452D01*
X155451198Y-110806374D01*
X155467917Y-110777405D01*
X155491768Y-110728217D01*
X155522907Y-110658484D01*
X155561493Y-110567879D01*
X155568090Y-110552089D01*
X155598147Y-110479772D01*
X155625126Y-110414425D01*
X155647864Y-110358906D01*
X155665194Y-110316072D01*
X155675952Y-110288781D01*
X155679059Y-110279942D01*
X155669060Y-110275187D01*
X155642783Y-110269910D01*
X155614511Y-110266231D01*
X155584354Y-110261474D01*
X155536567Y-110252028D01*
X155475388Y-110238820D01*
X155405054Y-110222776D01*
X155329806Y-110204820D01*
X155301245Y-110197797D01*
X155196184Y-110172209D01*
X155108520Y-110152147D01*
X155033932Y-110136969D01*
X154968097Y-110126035D01*
X154906693Y-110118704D01*
X154845398Y-110114335D01*
X154779890Y-110112287D01*
X154721872Y-110111889D01*
X154552426Y-110118552D01*
G37*
X154552426Y-110118552D02*
X154400508Y-110138567D01*
X154265244Y-110172202D01*
X154145761Y-110219725D01*
X154041185Y-110281405D01*
X153963576Y-110344965D01*
X153894735Y-110419099D01*
X153840994Y-110498871D01*
X153798090Y-110591091D01*
X153782616Y-110634161D01*
X153769756Y-110673142D01*
X153758554Y-110709289D01*
X153748880Y-110744434D01*
X153740604Y-110780410D01*
X153733597Y-110819050D01*
X153727728Y-110862185D01*
X153722869Y-110911649D01*
X153718890Y-110969273D01*
X153715660Y-111036891D01*
X153713051Y-111116334D01*
X153710933Y-111209436D01*
X153709176Y-111318027D01*
X153707651Y-111443942D01*
X153706228Y-111589012D01*
X153704975Y-111731778D01*
X153703649Y-111887968D01*
X153702444Y-112023239D01*
X153701234Y-112139246D01*
X153699894Y-112237645D01*
X153698300Y-112320093D01*
X153696325Y-112388246D01*
X153693844Y-112443760D01*
X153690731Y-112488292D01*
X153686862Y-112523498D01*
X153682111Y-112551034D01*
X153676352Y-112572556D01*
X153669461Y-112589722D01*
X153661311Y-112604186D01*
X153651777Y-112617606D01*
X153640734Y-112631638D01*
X153636434Y-112637071D01*
X153620614Y-112659910D01*
X153613578Y-112675463D01*
X153613556Y-112675922D01*
X153624433Y-112678121D01*
X153655418Y-112680147D01*
X153704043Y-112681942D01*
X153767837Y-112683451D01*
X153844331Y-112684616D01*
X153931056Y-112685380D01*
X154025543Y-112685686D01*
X154036450Y-112685689D01*
X154459343Y-112685689D01*
X154462605Y-112589622D01*
X154465867Y-112493556D01*
X154527956Y-112544543D01*
X154625286Y-112612057D01*
X154735187Y-112666749D01*
X154821651Y-112696978D01*
X154890722Y-112711666D01*
X154974075Y-112721659D01*
X155063841Y-112726646D01*
X155152155Y-112726313D01*
X155231149Y-112720351D01*
X155267378Y-112714638D01*
X155407397Y-112676776D01*
X155533822Y-112621932D01*
X155645740Y-112550924D01*
X155742238Y-112464568D01*
X155822400Y-112363679D01*
X155885313Y-112249076D01*
X155929688Y-112122984D01*
X155942022Y-112066401D01*
X155949632Y-112004202D01*
X155953261Y-111929363D01*
X155953755Y-111895467D01*
X155953690Y-111892282D01*
X155193752Y-111892282D01*
X155184459Y-111967333D01*
X155156272Y-112031160D01*
X155107803Y-112086798D01*
X155102746Y-112091211D01*
X155054452Y-112126037D01*
X155002743Y-112148620D01*
X154942011Y-112160540D01*
X154866648Y-112163383D01*
X154848541Y-112162978D01*
X154794722Y-112160325D01*
X154754692Y-112154909D01*
X154719676Y-112144745D01*
X154680897Y-112127850D01*
X154670255Y-112122672D01*
X154609604Y-112086844D01*
X154562785Y-112044212D01*
X154550048Y-112028973D01*
X154505378Y-111972462D01*
X154505378Y-111776586D01*
X154505914Y-111697939D01*
X154507604Y-111639988D01*
X154510572Y-111600875D01*
X154514943Y-111578741D01*
X154519028Y-111572274D01*
X154534953Y-111569111D01*
X154568736Y-111566488D01*
X154615660Y-111564655D01*
X154671007Y-111563857D01*
X154679894Y-111563842D01*
X154800670Y-111569096D01*
X154903340Y-111585263D01*
X154989894Y-111612961D01*
X155062319Y-111652808D01*
X155117249Y-111699758D01*
X155161796Y-111757645D01*
X155186520Y-111820693D01*
X155193752Y-111892282D01*
X155953690Y-111892282D01*
X155951822Y-111801712D01*
X155943478Y-111722812D01*
X155927232Y-111651590D01*
X155901595Y-111580864D01*
X155877599Y-111528493D01*
X155818980Y-111433196D01*
X155740883Y-111345170D01*
X155645685Y-111266017D01*
X155535762Y-111197340D01*
X155413490Y-111140741D01*
X155281245Y-111097821D01*
X155216578Y-111082882D01*
X155080396Y-111060777D01*
X154931951Y-111046194D01*
X154780495Y-111039813D01*
X154653936Y-111041445D01*
X154492050Y-111048224D01*
X154499470Y-110989245D01*
X154518762Y-110890092D01*
X154549896Y-110809372D01*
X154593731Y-110746466D01*
X154651129Y-110700756D01*
X154722952Y-110671622D01*
X154810059Y-110658447D01*
X154913314Y-110660611D01*
X154951289Y-110664612D01*
X155092480Y-110689780D01*
X155229293Y-110730814D01*
X155323822Y-110768815D01*
X155368982Y-110788190D01*
X155407415Y-110803760D01*
X155433766Y-110813405D01*
X155441454Y-110815452D01*
X155451198Y-110806374D01*
X155467917Y-110777405D01*
X155491768Y-110728217D01*
X155522907Y-110658484D01*
X155561493Y-110567879D01*
X155568090Y-110552089D01*
X155598147Y-110479772D01*
X155625126Y-110414425D01*
X155647864Y-110358906D01*
X155665194Y-110316072D01*
X155675952Y-110288781D01*
X155679059Y-110279942D01*
X155669060Y-110275187D01*
X155642783Y-110269910D01*
X155614511Y-110266231D01*
X155584354Y-110261474D01*
X155536567Y-110252028D01*
X155475388Y-110238820D01*
X155405054Y-110222776D01*
X155329806Y-110204820D01*
X155301245Y-110197797D01*
X155196184Y-110172209D01*
X155108520Y-110152147D01*
X155033932Y-110136969D01*
X154968097Y-110126035D01*
X154906693Y-110118704D01*
X154845398Y-110114335D01*
X154779890Y-110112287D01*
X154721872Y-110111889D01*
X154552426Y-110118552D01*
G36*
X151039493Y-110724245D02*
G01*
X151039474Y-110958662D01*
X151039448Y-111171603D01*
X151039375Y-111364168D01*
X151039218Y-111537459D01*
X151038936Y-111692576D01*
X151038491Y-111830620D01*
X151037844Y-111952692D01*
X151036955Y-112059894D01*
X151035787Y-112153326D01*
X151034299Y-112234090D01*
X151032454Y-112303286D01*
X151030211Y-112362015D01*
X151027531Y-112411379D01*
X151024377Y-112452478D01*
X151020708Y-112486413D01*
X151016487Y-112514286D01*
X151011673Y-112537198D01*
X151006227Y-112556249D01*
X151000112Y-112572540D01*
X150993288Y-112587173D01*
X150985715Y-112601249D01*
X150977355Y-112615868D01*
X150972161Y-112624974D01*
X150937896Y-112685689D01*
X151796045Y-112685689D01*
X151796045Y-112589733D01*
X151796776Y-112546370D01*
X151798728Y-112513205D01*
X151801537Y-112495424D01*
X151802779Y-112493778D01*
X151814201Y-112500662D01*
X151836916Y-112518505D01*
X151859615Y-112537879D01*
X151914200Y-112578614D01*
X151983679Y-112619617D01*
X152060730Y-112657123D01*
X152138035Y-112687364D01*
X152168887Y-112697012D01*
X152237384Y-112711578D01*
X152320236Y-112721539D01*
X152409629Y-112726583D01*
X152497752Y-112726396D01*
X152576793Y-112720666D01*
X152614489Y-112714858D01*
X152752586Y-112676797D01*
X152879887Y-112619073D01*
X152995708Y-112542211D01*
X153099363Y-112446739D01*
X153190167Y-112333179D01*
X153256969Y-112222381D01*
X153311836Y-112105625D01*
X153353837Y-111986276D01*
X153383833Y-111860283D01*
X153402689Y-111723594D01*
X153411268Y-111572158D01*
X153411994Y-111494711D01*
X153409900Y-111437934D01*
X152580783Y-111437934D01*
X152580576Y-111531002D01*
X152577663Y-111618692D01*
X152572000Y-111695772D01*
X152563545Y-111757009D01*
X152560962Y-111769350D01*
X152529160Y-111876633D01*
X152487502Y-111963658D01*
X152435637Y-112030642D01*
X152373219Y-112077805D01*
X152299900Y-112105365D01*
X152215331Y-112113541D01*
X152119165Y-112102551D01*
X152055689Y-112086829D01*
X152006546Y-112068639D01*
X151952417Y-112042791D01*
X151911756Y-112019089D01*
X151841200Y-111972721D01*
X151841200Y-110822530D01*
X151908608Y-110778962D01*
X151987133Y-110738040D01*
X152071319Y-110711389D01*
X152156443Y-110699465D01*
X152237784Y-110702722D01*
X152310620Y-110721615D01*
X152342574Y-110737184D01*
X152400499Y-110780181D01*
X152449456Y-110836953D01*
X152490610Y-110909575D01*
X152525126Y-111000121D01*
X152554167Y-111110666D01*
X152555448Y-111116533D01*
X152565619Y-111178788D01*
X152573261Y-111256594D01*
X152578330Y-111344720D01*
X152580783Y-111437934D01*
X153409900Y-111437934D01*
X153404143Y-111281895D01*
X153382198Y-111086059D01*
X153346214Y-110907332D01*
X153296241Y-110745845D01*
X153232332Y-110601726D01*
X153154538Y-110475106D01*
X153062911Y-110366115D01*
X152957503Y-110274883D01*
X152912338Y-110243932D01*
X152811389Y-110187785D01*
X152708099Y-110148174D01*
X152598011Y-110124014D01*
X152476670Y-110114219D01*
X152384164Y-110115265D01*
X152254510Y-110126231D01*
X152141916Y-110148046D01*
X152043125Y-110181714D01*
X151954879Y-110228236D01*
X151906014Y-110262448D01*
X151876647Y-110284362D01*
X151854957Y-110299333D01*
X151846747Y-110303733D01*
X151845132Y-110292904D01*
X151843841Y-110262251D01*
X151842862Y-110214526D01*
X151842183Y-110152479D01*
X151841790Y-110078862D01*
X151841670Y-109996427D01*
X151841812Y-109907925D01*
X151842203Y-109816107D01*
X151842829Y-109723724D01*
X151843680Y-109633528D01*
X151844740Y-109548271D01*
X151845999Y-109470703D01*
X151847444Y-109403576D01*
X151849062Y-109349641D01*
X151850839Y-109311650D01*
X151851331Y-109304667D01*
X151858908Y-109234251D01*
X151870469Y-109179102D01*
X151888208Y-109131981D01*
X151914318Y-109085647D01*
X151920585Y-109076067D01*
X151945017Y-109039378D01*
X151039689Y-109039378D01*
X151039493Y-110724245D01*
G37*
X151039493Y-110724245D02*
X151039474Y-110958662D01*
X151039448Y-111171603D01*
X151039375Y-111364168D01*
X151039218Y-111537459D01*
X151038936Y-111692576D01*
X151038491Y-111830620D01*
X151037844Y-111952692D01*
X151036955Y-112059894D01*
X151035787Y-112153326D01*
X151034299Y-112234090D01*
X151032454Y-112303286D01*
X151030211Y-112362015D01*
X151027531Y-112411379D01*
X151024377Y-112452478D01*
X151020708Y-112486413D01*
X151016487Y-112514286D01*
X151011673Y-112537198D01*
X151006227Y-112556249D01*
X151000112Y-112572540D01*
X150993288Y-112587173D01*
X150985715Y-112601249D01*
X150977355Y-112615868D01*
X150972161Y-112624974D01*
X150937896Y-112685689D01*
X151796045Y-112685689D01*
X151796045Y-112589733D01*
X151796776Y-112546370D01*
X151798728Y-112513205D01*
X151801537Y-112495424D01*
X151802779Y-112493778D01*
X151814201Y-112500662D01*
X151836916Y-112518505D01*
X151859615Y-112537879D01*
X151914200Y-112578614D01*
X151983679Y-112619617D01*
X152060730Y-112657123D01*
X152138035Y-112687364D01*
X152168887Y-112697012D01*
X152237384Y-112711578D01*
X152320236Y-112721539D01*
X152409629Y-112726583D01*
X152497752Y-112726396D01*
X152576793Y-112720666D01*
X152614489Y-112714858D01*
X152752586Y-112676797D01*
X152879887Y-112619073D01*
X152995708Y-112542211D01*
X153099363Y-112446739D01*
X153190167Y-112333179D01*
X153256969Y-112222381D01*
X153311836Y-112105625D01*
X153353837Y-111986276D01*
X153383833Y-111860283D01*
X153402689Y-111723594D01*
X153411268Y-111572158D01*
X153411994Y-111494711D01*
X153409900Y-111437934D01*
X152580783Y-111437934D01*
X152580576Y-111531002D01*
X152577663Y-111618692D01*
X152572000Y-111695772D01*
X152563545Y-111757009D01*
X152560962Y-111769350D01*
X152529160Y-111876633D01*
X152487502Y-111963658D01*
X152435637Y-112030642D01*
X152373219Y-112077805D01*
X152299900Y-112105365D01*
X152215331Y-112113541D01*
X152119165Y-112102551D01*
X152055689Y-112086829D01*
X152006546Y-112068639D01*
X151952417Y-112042791D01*
X151911756Y-112019089D01*
X151841200Y-111972721D01*
X151841200Y-110822530D01*
X151908608Y-110778962D01*
X151987133Y-110738040D01*
X152071319Y-110711389D01*
X152156443Y-110699465D01*
X152237784Y-110702722D01*
X152310620Y-110721615D01*
X152342574Y-110737184D01*
X152400499Y-110780181D01*
X152449456Y-110836953D01*
X152490610Y-110909575D01*
X152525126Y-111000121D01*
X152554167Y-111110666D01*
X152555448Y-111116533D01*
X152565619Y-111178788D01*
X152573261Y-111256594D01*
X152578330Y-111344720D01*
X152580783Y-111437934D01*
X153409900Y-111437934D01*
X153404143Y-111281895D01*
X153382198Y-111086059D01*
X153346214Y-110907332D01*
X153296241Y-110745845D01*
X153232332Y-110601726D01*
X153154538Y-110475106D01*
X153062911Y-110366115D01*
X152957503Y-110274883D01*
X152912338Y-110243932D01*
X152811389Y-110187785D01*
X152708099Y-110148174D01*
X152598011Y-110124014D01*
X152476670Y-110114219D01*
X152384164Y-110115265D01*
X152254510Y-110126231D01*
X152141916Y-110148046D01*
X152043125Y-110181714D01*
X151954879Y-110228236D01*
X151906014Y-110262448D01*
X151876647Y-110284362D01*
X151854957Y-110299333D01*
X151846747Y-110303733D01*
X151845132Y-110292904D01*
X151843841Y-110262251D01*
X151842862Y-110214526D01*
X151842183Y-110152479D01*
X151841790Y-110078862D01*
X151841670Y-109996427D01*
X151841812Y-109907925D01*
X151842203Y-109816107D01*
X151842829Y-109723724D01*
X151843680Y-109633528D01*
X151844740Y-109548271D01*
X151845999Y-109470703D01*
X151847444Y-109403576D01*
X151849062Y-109349641D01*
X151850839Y-109311650D01*
X151851331Y-109304667D01*
X151858908Y-109234251D01*
X151870469Y-109179102D01*
X151888208Y-109131981D01*
X151914318Y-109085647D01*
X151920585Y-109076067D01*
X151945017Y-109039378D01*
X151039689Y-109039378D01*
X151039493Y-110724245D01*
G36*
X159499043Y-108278571D02*
G01*
X159402768Y-108302809D01*
X159316184Y-108345641D01*
X159241373Y-108405419D01*
X159180418Y-108480494D01*
X159135399Y-108569220D01*
X159109136Y-108665530D01*
X159103286Y-108762795D01*
X159118140Y-108856654D01*
X159151840Y-108944511D01*
X159202528Y-109023770D01*
X159268345Y-109091836D01*
X159347434Y-109146112D01*
X159437934Y-109184002D01*
X159489200Y-109196426D01*
X159533698Y-109203947D01*
X159567999Y-109206919D01*
X159600960Y-109205094D01*
X159641434Y-109198225D01*
X159674531Y-109191250D01*
X159767947Y-109159741D01*
X159851619Y-109108617D01*
X159923665Y-109039429D01*
X159982200Y-108953728D01*
X159996148Y-108926489D01*
X160012586Y-108890122D01*
X160022894Y-108859582D01*
X160028460Y-108827450D01*
X160030669Y-108786307D01*
X160030948Y-108740222D01*
X160026861Y-108655865D01*
X160013446Y-108586586D01*
X159988256Y-108525961D01*
X159948846Y-108467567D01*
X159910298Y-108423302D01*
X159838406Y-108357484D01*
X159763313Y-108312053D01*
X159680562Y-108284850D01*
X159602928Y-108274576D01*
X159499043Y-108278571D01*
G37*
X159499043Y-108278571D02*
X159402768Y-108302809D01*
X159316184Y-108345641D01*
X159241373Y-108405419D01*
X159180418Y-108480494D01*
X159135399Y-108569220D01*
X159109136Y-108665530D01*
X159103286Y-108762795D01*
X159118140Y-108856654D01*
X159151840Y-108944511D01*
X159202528Y-109023770D01*
X159268345Y-109091836D01*
X159347434Y-109146112D01*
X159437934Y-109184002D01*
X159489200Y-109196426D01*
X159533698Y-109203947D01*
X159567999Y-109206919D01*
X159600960Y-109205094D01*
X159641434Y-109198225D01*
X159674531Y-109191250D01*
X159767947Y-109159741D01*
X159851619Y-109108617D01*
X159923665Y-109039429D01*
X159982200Y-108953728D01*
X159996148Y-108926489D01*
X160012586Y-108890122D01*
X160022894Y-108859582D01*
X160028460Y-108827450D01*
X160030669Y-108786307D01*
X160030948Y-108740222D01*
X160026861Y-108655865D01*
X160013446Y-108586586D01*
X159988256Y-108525961D01*
X159948846Y-108467567D01*
X159910298Y-108423302D01*
X159838406Y-108357484D01*
X159763313Y-108312053D01*
X159680562Y-108284850D01*
X159602928Y-108274576D01*
X159499043Y-108278571D01*
G36*
X163347371Y-113521066D02*
G01*
X163307889Y-113521467D01*
X163192200Y-113524259D01*
X163095311Y-113532550D01*
X163013919Y-113547232D01*
X162944723Y-113569193D01*
X162884420Y-113599322D01*
X162829708Y-113638510D01*
X162810167Y-113655532D01*
X162777750Y-113695363D01*
X162748520Y-113749413D01*
X162725991Y-113809323D01*
X162713679Y-113866739D01*
X162712400Y-113887956D01*
X162720417Y-113946769D01*
X162741899Y-114011013D01*
X162772999Y-114071821D01*
X162809866Y-114120330D01*
X162815854Y-114126182D01*
X162866579Y-114167321D01*
X162922125Y-114199435D01*
X162985696Y-114223365D01*
X163060494Y-114239953D01*
X163149722Y-114250041D01*
X163256582Y-114254469D01*
X163305528Y-114254845D01*
X163367762Y-114254545D01*
X163411528Y-114253292D01*
X163440931Y-114250554D01*
X163460079Y-114245801D01*
X163473077Y-114238501D01*
X163480045Y-114232267D01*
X163486626Y-114224694D01*
X163491788Y-114214924D01*
X163495703Y-114200340D01*
X163498543Y-114178326D01*
X163500480Y-114146264D01*
X163501684Y-114101536D01*
X163502328Y-114041526D01*
X163502583Y-113963617D01*
X163502622Y-113887956D01*
X163502870Y-113787041D01*
X163502817Y-113706427D01*
X163501857Y-113667822D01*
X163355867Y-113667822D01*
X163355867Y-114108089D01*
X163262734Y-114108004D01*
X163206693Y-114106396D01*
X163147999Y-114102256D01*
X163099028Y-114096464D01*
X163097538Y-114096226D01*
X163018392Y-114077090D01*
X162957002Y-114047287D01*
X162910305Y-114004878D01*
X162880635Y-113958961D01*
X162862353Y-113908026D01*
X162863771Y-113860200D01*
X162884988Y-113808933D01*
X162926489Y-113755899D01*
X162983998Y-113716600D01*
X163058750Y-113690331D01*
X163108708Y-113681035D01*
X163165416Y-113674507D01*
X163225519Y-113669782D01*
X163276639Y-113667817D01*
X163279667Y-113667808D01*
X163355867Y-113667822D01*
X163501857Y-113667822D01*
X163501260Y-113643851D01*
X163496998Y-113597055D01*
X163488830Y-113563778D01*
X163475556Y-113541759D01*
X163455974Y-113528739D01*
X163428883Y-113522457D01*
X163393082Y-113520653D01*
X163347371Y-113521066D01*
G37*
X163347371Y-113521066D02*
X163307889Y-113521467D01*
X163192200Y-113524259D01*
X163095311Y-113532550D01*
X163013919Y-113547232D01*
X162944723Y-113569193D01*
X162884420Y-113599322D01*
X162829708Y-113638510D01*
X162810167Y-113655532D01*
X162777750Y-113695363D01*
X162748520Y-113749413D01*
X162725991Y-113809323D01*
X162713679Y-113866739D01*
X162712400Y-113887956D01*
X162720417Y-113946769D01*
X162741899Y-114011013D01*
X162772999Y-114071821D01*
X162809866Y-114120330D01*
X162815854Y-114126182D01*
X162866579Y-114167321D01*
X162922125Y-114199435D01*
X162985696Y-114223365D01*
X163060494Y-114239953D01*
X163149722Y-114250041D01*
X163256582Y-114254469D01*
X163305528Y-114254845D01*
X163367762Y-114254545D01*
X163411528Y-114253292D01*
X163440931Y-114250554D01*
X163460079Y-114245801D01*
X163473077Y-114238501D01*
X163480045Y-114232267D01*
X163486626Y-114224694D01*
X163491788Y-114214924D01*
X163495703Y-114200340D01*
X163498543Y-114178326D01*
X163500480Y-114146264D01*
X163501684Y-114101536D01*
X163502328Y-114041526D01*
X163502583Y-113963617D01*
X163502622Y-113887956D01*
X163502870Y-113787041D01*
X163502817Y-113706427D01*
X163501857Y-113667822D01*
X163355867Y-113667822D01*
X163355867Y-114108089D01*
X163262734Y-114108004D01*
X163206693Y-114106396D01*
X163147999Y-114102256D01*
X163099028Y-114096464D01*
X163097538Y-114096226D01*
X163018392Y-114077090D01*
X162957002Y-114047287D01*
X162910305Y-114004878D01*
X162880635Y-113958961D01*
X162862353Y-113908026D01*
X162863771Y-113860200D01*
X162884988Y-113808933D01*
X162926489Y-113755899D01*
X162983998Y-113716600D01*
X163058750Y-113690331D01*
X163108708Y-113681035D01*
X163165416Y-113674507D01*
X163225519Y-113669782D01*
X163276639Y-113667817D01*
X163279667Y-113667808D01*
X163355867Y-113667822D01*
X163501857Y-113667822D01*
X163501260Y-113643851D01*
X163496998Y-113597055D01*
X163488830Y-113563778D01*
X163475556Y-113541759D01*
X163455974Y-113528739D01*
X163428883Y-113522457D01*
X163393082Y-113520653D01*
X163347371Y-113521066D01*
G36*
X161938794Y-113521146D02*
G01*
X161869386Y-113521518D01*
X161816997Y-113522385D01*
X161778847Y-113523946D01*
X161752159Y-113526403D01*
X161734153Y-113529957D01*
X161722049Y-113534810D01*
X161713069Y-113541161D01*
X161709818Y-113544084D01*
X161690043Y-113575142D01*
X161686482Y-113610828D01*
X161699491Y-113642510D01*
X161705506Y-113648913D01*
X161715235Y-113655121D01*
X161730901Y-113659910D01*
X161755408Y-113663514D01*
X161791661Y-113666164D01*
X161842565Y-113668095D01*
X161911026Y-113669539D01*
X161973617Y-113670418D01*
X162221334Y-113673467D01*
X162224719Y-113738378D01*
X162228105Y-113803289D01*
X162059958Y-113803289D01*
X161986959Y-113803919D01*
X161933517Y-113806553D01*
X161896628Y-113812309D01*
X161873288Y-113822304D01*
X161860494Y-113837656D01*
X161855242Y-113859482D01*
X161854445Y-113879738D01*
X161856923Y-113904592D01*
X161866277Y-113922906D01*
X161885383Y-113935637D01*
X161917118Y-113943741D01*
X161964359Y-113948176D01*
X162029983Y-113949899D01*
X162065801Y-113950045D01*
X162226978Y-113950045D01*
X162226978Y-114108089D01*
X161978622Y-114108089D01*
X161897213Y-114108202D01*
X161835342Y-114108712D01*
X161789968Y-114109870D01*
X161758054Y-114111930D01*
X161736559Y-114115146D01*
X161722443Y-114119772D01*
X161712668Y-114126059D01*
X161707689Y-114130667D01*
X161690610Y-114157560D01*
X161685111Y-114181467D01*
X161692963Y-114210667D01*
X161707689Y-114232267D01*
X161715546Y-114239066D01*
X161725688Y-114244346D01*
X161740844Y-114248298D01*
X161763741Y-114251113D01*
X161797109Y-114252982D01*
X161843675Y-114254098D01*
X161906167Y-114254651D01*
X161987314Y-114254833D01*
X162029422Y-114254845D01*
X162119598Y-114254765D01*
X162189924Y-114254398D01*
X162243129Y-114253552D01*
X162281940Y-114252036D01*
X162309087Y-114249659D01*
X162327298Y-114246229D01*
X162339300Y-114241554D01*
X162347822Y-114235444D01*
X162351156Y-114232267D01*
X162357755Y-114224670D01*
X162362927Y-114214870D01*
X162366846Y-114200239D01*
X162369684Y-114178152D01*
X162371615Y-114145982D01*
X162372812Y-114101103D01*
X162373448Y-114040889D01*
X162373697Y-113962713D01*
X162373734Y-113889923D01*
X162373700Y-113796707D01*
X162373465Y-113723431D01*
X162372830Y-113667458D01*
X162371594Y-113626151D01*
X162369556Y-113596872D01*
X162366517Y-113576984D01*
X162362277Y-113563850D01*
X162356635Y-113554832D01*
X162349391Y-113547293D01*
X162347606Y-113545612D01*
X162338945Y-113538172D01*
X162328882Y-113532409D01*
X162314625Y-113528112D01*
X162293383Y-113525064D01*
X162262364Y-113523051D01*
X162218777Y-113521860D01*
X162159831Y-113521275D01*
X162082734Y-113521083D01*
X162028001Y-113521067D01*
X161938794Y-113521146D01*
G37*
X161938794Y-113521146D02*
X161869386Y-113521518D01*
X161816997Y-113522385D01*
X161778847Y-113523946D01*
X161752159Y-113526403D01*
X161734153Y-113529957D01*
X161722049Y-113534810D01*
X161713069Y-113541161D01*
X161709818Y-113544084D01*
X161690043Y-113575142D01*
X161686482Y-113610828D01*
X161699491Y-113642510D01*
X161705506Y-113648913D01*
X161715235Y-113655121D01*
X161730901Y-113659910D01*
X161755408Y-113663514D01*
X161791661Y-113666164D01*
X161842565Y-113668095D01*
X161911026Y-113669539D01*
X161973617Y-113670418D01*
X162221334Y-113673467D01*
X162224719Y-113738378D01*
X162228105Y-113803289D01*
X162059958Y-113803289D01*
X161986959Y-113803919D01*
X161933517Y-113806553D01*
X161896628Y-113812309D01*
X161873288Y-113822304D01*
X161860494Y-113837656D01*
X161855242Y-113859482D01*
X161854445Y-113879738D01*
X161856923Y-113904592D01*
X161866277Y-113922906D01*
X161885383Y-113935637D01*
X161917118Y-113943741D01*
X161964359Y-113948176D01*
X162029983Y-113949899D01*
X162065801Y-113950045D01*
X162226978Y-113950045D01*
X162226978Y-114108089D01*
X161978622Y-114108089D01*
X161897213Y-114108202D01*
X161835342Y-114108712D01*
X161789968Y-114109870D01*
X161758054Y-114111930D01*
X161736559Y-114115146D01*
X161722443Y-114119772D01*
X161712668Y-114126059D01*
X161707689Y-114130667D01*
X161690610Y-114157560D01*
X161685111Y-114181467D01*
X161692963Y-114210667D01*
X161707689Y-114232267D01*
X161715546Y-114239066D01*
X161725688Y-114244346D01*
X161740844Y-114248298D01*
X161763741Y-114251113D01*
X161797109Y-114252982D01*
X161843675Y-114254098D01*
X161906167Y-114254651D01*
X161987314Y-114254833D01*
X162029422Y-114254845D01*
X162119598Y-114254765D01*
X162189924Y-114254398D01*
X162243129Y-114253552D01*
X162281940Y-114252036D01*
X162309087Y-114249659D01*
X162327298Y-114246229D01*
X162339300Y-114241554D01*
X162347822Y-114235444D01*
X162351156Y-114232267D01*
X162357755Y-114224670D01*
X162362927Y-114214870D01*
X162366846Y-114200239D01*
X162369684Y-114178152D01*
X162371615Y-114145982D01*
X162372812Y-114101103D01*
X162373448Y-114040889D01*
X162373697Y-113962713D01*
X162373734Y-113889923D01*
X162373700Y-113796707D01*
X162373465Y-113723431D01*
X162372830Y-113667458D01*
X162371594Y-113626151D01*
X162369556Y-113596872D01*
X162366517Y-113576984D01*
X162362277Y-113563850D01*
X162356635Y-113554832D01*
X162349391Y-113547293D01*
X162347606Y-113545612D01*
X162338945Y-113538172D01*
X162328882Y-113532409D01*
X162314625Y-113528112D01*
X162293383Y-113525064D01*
X162262364Y-113523051D01*
X162218777Y-113521860D01*
X162159831Y-113521275D01*
X162082734Y-113521083D01*
X162028001Y-113521067D01*
X161938794Y-113521146D01*
G36*
X160917703Y-113522351D02*
G01*
X160842888Y-113527581D01*
X160773306Y-113535750D01*
X160713002Y-113546550D01*
X160666020Y-113559673D01*
X160636406Y-113574813D01*
X160631860Y-113579269D01*
X160616054Y-113613850D01*
X160620847Y-113649351D01*
X160645364Y-113679725D01*
X160646534Y-113680596D01*
X160660954Y-113689954D01*
X160676008Y-113694876D01*
X160697005Y-113695473D01*
X160729257Y-113691861D01*
X160778073Y-113684154D01*
X160782000Y-113683505D01*
X160854739Y-113674569D01*
X160933217Y-113670161D01*
X161011927Y-113670119D01*
X161085361Y-113674279D01*
X161148011Y-113682479D01*
X161194370Y-113694557D01*
X161197416Y-113695771D01*
X161231048Y-113714615D01*
X161242864Y-113733685D01*
X161233614Y-113752439D01*
X161204047Y-113770337D01*
X161154911Y-113786837D01*
X161086957Y-113801396D01*
X161041645Y-113808406D01*
X160947456Y-113821889D01*
X160872544Y-113834214D01*
X160813717Y-113846449D01*
X160767785Y-113859661D01*
X160731555Y-113874917D01*
X160701838Y-113893285D01*
X160675442Y-113915831D01*
X160654230Y-113937971D01*
X160629065Y-113968819D01*
X160616681Y-113995345D01*
X160612808Y-114028026D01*
X160612667Y-114039995D01*
X160615576Y-114079712D01*
X160627202Y-114109259D01*
X160647323Y-114135486D01*
X160688216Y-114175576D01*
X160733817Y-114206149D01*
X160787513Y-114228203D01*
X160852692Y-114242735D01*
X160932744Y-114250741D01*
X161031057Y-114253218D01*
X161047289Y-114253177D01*
X161112849Y-114251818D01*
X161177866Y-114248730D01*
X161235252Y-114244356D01*
X161277922Y-114239140D01*
X161281372Y-114238541D01*
X161323796Y-114228491D01*
X161359780Y-114215796D01*
X161380150Y-114204190D01*
X161399107Y-114173572D01*
X161400427Y-114137918D01*
X161384085Y-114106144D01*
X161380429Y-114102551D01*
X161365315Y-114091876D01*
X161346415Y-114087276D01*
X161317162Y-114088059D01*
X161281651Y-114092127D01*
X161241970Y-114095762D01*
X161186345Y-114098828D01*
X161121406Y-114101053D01*
X161053785Y-114102164D01*
X161036000Y-114102237D01*
X160968128Y-114101964D01*
X160918454Y-114100646D01*
X160882610Y-114097827D01*
X160856224Y-114093050D01*
X160834926Y-114085857D01*
X160822126Y-114079867D01*
X160794000Y-114063233D01*
X160776068Y-114048168D01*
X160773447Y-114043897D01*
X160778976Y-114026263D01*
X160805260Y-114009192D01*
X160850478Y-113993458D01*
X160912808Y-113979838D01*
X160931171Y-113976804D01*
X161027090Y-113961738D01*
X161103641Y-113949146D01*
X161163780Y-113938111D01*
X161210460Y-113927720D01*
X161246637Y-113917056D01*
X161275265Y-113905205D01*
X161299298Y-113891251D01*
X161321692Y-113874281D01*
X161345402Y-113853378D01*
X161353380Y-113846049D01*
X161381353Y-113818699D01*
X161396160Y-113797029D01*
X161401952Y-113772232D01*
X161402889Y-113740983D01*
X161392575Y-113679705D01*
X161361752Y-113627640D01*
X161310595Y-113584958D01*
X161239283Y-113551825D01*
X161188400Y-113536964D01*
X161133100Y-113527366D01*
X161066853Y-113521936D01*
X160993706Y-113520367D01*
X160917703Y-113522351D01*
G37*
X160917703Y-113522351D02*
X160842888Y-113527581D01*
X160773306Y-113535750D01*
X160713002Y-113546550D01*
X160666020Y-113559673D01*
X160636406Y-113574813D01*
X160631860Y-113579269D01*
X160616054Y-113613850D01*
X160620847Y-113649351D01*
X160645364Y-113679725D01*
X160646534Y-113680596D01*
X160660954Y-113689954D01*
X160676008Y-113694876D01*
X160697005Y-113695473D01*
X160729257Y-113691861D01*
X160778073Y-113684154D01*
X160782000Y-113683505D01*
X160854739Y-113674569D01*
X160933217Y-113670161D01*
X161011927Y-113670119D01*
X161085361Y-113674279D01*
X161148011Y-113682479D01*
X161194370Y-113694557D01*
X161197416Y-113695771D01*
X161231048Y-113714615D01*
X161242864Y-113733685D01*
X161233614Y-113752439D01*
X161204047Y-113770337D01*
X161154911Y-113786837D01*
X161086957Y-113801396D01*
X161041645Y-113808406D01*
X160947456Y-113821889D01*
X160872544Y-113834214D01*
X160813717Y-113846449D01*
X160767785Y-113859661D01*
X160731555Y-113874917D01*
X160701838Y-113893285D01*
X160675442Y-113915831D01*
X160654230Y-113937971D01*
X160629065Y-113968819D01*
X160616681Y-113995345D01*
X160612808Y-114028026D01*
X160612667Y-114039995D01*
X160615576Y-114079712D01*
X160627202Y-114109259D01*
X160647323Y-114135486D01*
X160688216Y-114175576D01*
X160733817Y-114206149D01*
X160787513Y-114228203D01*
X160852692Y-114242735D01*
X160932744Y-114250741D01*
X161031057Y-114253218D01*
X161047289Y-114253177D01*
X161112849Y-114251818D01*
X161177866Y-114248730D01*
X161235252Y-114244356D01*
X161277922Y-114239140D01*
X161281372Y-114238541D01*
X161323796Y-114228491D01*
X161359780Y-114215796D01*
X161380150Y-114204190D01*
X161399107Y-114173572D01*
X161400427Y-114137918D01*
X161384085Y-114106144D01*
X161380429Y-114102551D01*
X161365315Y-114091876D01*
X161346415Y-114087276D01*
X161317162Y-114088059D01*
X161281651Y-114092127D01*
X161241970Y-114095762D01*
X161186345Y-114098828D01*
X161121406Y-114101053D01*
X161053785Y-114102164D01*
X161036000Y-114102237D01*
X160968128Y-114101964D01*
X160918454Y-114100646D01*
X160882610Y-114097827D01*
X160856224Y-114093050D01*
X160834926Y-114085857D01*
X160822126Y-114079867D01*
X160794000Y-114063233D01*
X160776068Y-114048168D01*
X160773447Y-114043897D01*
X160778976Y-114026263D01*
X160805260Y-114009192D01*
X160850478Y-113993458D01*
X160912808Y-113979838D01*
X160931171Y-113976804D01*
X161027090Y-113961738D01*
X161103641Y-113949146D01*
X161163780Y-113938111D01*
X161210460Y-113927720D01*
X161246637Y-113917056D01*
X161275265Y-113905205D01*
X161299298Y-113891251D01*
X161321692Y-113874281D01*
X161345402Y-113853378D01*
X161353380Y-113846049D01*
X161381353Y-113818699D01*
X161396160Y-113797029D01*
X161401952Y-113772232D01*
X161402889Y-113740983D01*
X161392575Y-113679705D01*
X161361752Y-113627640D01*
X161310595Y-113584958D01*
X161239283Y-113551825D01*
X161188400Y-113536964D01*
X161133100Y-113527366D01*
X161066853Y-113521936D01*
X160993706Y-113520367D01*
X160917703Y-113522351D01*
G36*
X160149822Y-113543645D02*
G01*
X160143242Y-113551218D01*
X160138079Y-113560987D01*
X160134164Y-113575571D01*
X160131324Y-113597585D01*
X160129387Y-113629648D01*
X160128183Y-113674375D01*
X160127539Y-113734385D01*
X160127284Y-113812294D01*
X160127245Y-113887956D01*
X160127314Y-113981802D01*
X160127638Y-114055689D01*
X160128386Y-114112232D01*
X160129732Y-114154049D01*
X160131846Y-114183757D01*
X160134900Y-114203973D01*
X160139066Y-114217314D01*
X160144516Y-114226398D01*
X160149822Y-114232267D01*
X160182826Y-114251947D01*
X160217991Y-114250181D01*
X160249455Y-114228717D01*
X160256684Y-114220337D01*
X160262334Y-114210614D01*
X160266599Y-114196861D01*
X160269673Y-114176389D01*
X160271752Y-114146512D01*
X160273030Y-114104541D01*
X160273701Y-114047789D01*
X160273959Y-113973567D01*
X160274000Y-113889537D01*
X160274000Y-113576485D01*
X160246291Y-113548776D01*
X160212137Y-113525463D01*
X160179006Y-113524623D01*
X160149822Y-113543645D01*
G37*
X160149822Y-113543645D02*
X160143242Y-113551218D01*
X160138079Y-113560987D01*
X160134164Y-113575571D01*
X160131324Y-113597585D01*
X160129387Y-113629648D01*
X160128183Y-113674375D01*
X160127539Y-113734385D01*
X160127284Y-113812294D01*
X160127245Y-113887956D01*
X160127314Y-113981802D01*
X160127638Y-114055689D01*
X160128386Y-114112232D01*
X160129732Y-114154049D01*
X160131846Y-114183757D01*
X160134900Y-114203973D01*
X160139066Y-114217314D01*
X160144516Y-114226398D01*
X160149822Y-114232267D01*
X160182826Y-114251947D01*
X160217991Y-114250181D01*
X160249455Y-114228717D01*
X160256684Y-114220337D01*
X160262334Y-114210614D01*
X160266599Y-114196861D01*
X160269673Y-114176389D01*
X160271752Y-114146512D01*
X160273030Y-114104541D01*
X160273701Y-114047789D01*
X160273959Y-113973567D01*
X160274000Y-113889537D01*
X160274000Y-113576485D01*
X160246291Y-113548776D01*
X160212137Y-113525463D01*
X160179006Y-113524623D01*
X160149822Y-113543645D01*
G36*
X159176081Y-113526599D02*
G01*
X159107565Y-113538095D01*
X159054943Y-113555967D01*
X159020708Y-113579499D01*
X159011379Y-113592924D01*
X159001893Y-113624148D01*
X159008277Y-113652395D01*
X159028430Y-113679182D01*
X159059745Y-113691713D01*
X159105183Y-113690696D01*
X159140326Y-113683906D01*
X159218419Y-113670971D01*
X159298226Y-113669742D01*
X159387555Y-113680241D01*
X159412229Y-113684690D01*
X159495291Y-113708108D01*
X159560273Y-113742945D01*
X159606461Y-113788604D01*
X159633145Y-113844494D01*
X159638663Y-113873388D01*
X159635051Y-113932012D01*
X159611729Y-113983879D01*
X159570824Y-114027978D01*
X159514459Y-114063299D01*
X159444760Y-114088829D01*
X159363852Y-114103559D01*
X159273860Y-114106478D01*
X159176910Y-114096575D01*
X159171436Y-114095641D01*
X159132875Y-114088459D01*
X159111494Y-114081521D01*
X159102227Y-114071227D01*
X159100006Y-114053976D01*
X159099956Y-114044841D01*
X159099956Y-114006489D01*
X159168431Y-114006489D01*
X159228900Y-114002347D01*
X159270165Y-113989147D01*
X159294175Y-113965730D01*
X159302877Y-113930936D01*
X159302983Y-113926394D01*
X159297892Y-113896654D01*
X159280433Y-113875419D01*
X159247939Y-113861366D01*
X159197743Y-113853173D01*
X159149123Y-113850161D01*
X159078456Y-113848433D01*
X159027198Y-113851070D01*
X158992239Y-113860800D01*
X158970470Y-113880353D01*
X158958780Y-113912456D01*
X158954060Y-113959838D01*
X158953200Y-114022071D01*
X158954609Y-114091535D01*
X158958848Y-114138786D01*
X158965936Y-114164012D01*
X158967311Y-114165988D01*
X159006228Y-114197508D01*
X159063286Y-114222470D01*
X159134869Y-114240340D01*
X159217358Y-114250586D01*
X159307139Y-114252673D01*
X159400592Y-114246068D01*
X159455556Y-114237956D01*
X159541766Y-114213554D01*
X159621892Y-114173662D01*
X159688977Y-114121887D01*
X159699173Y-114111539D01*
X159732302Y-114068035D01*
X159762194Y-114014118D01*
X159785357Y-113957592D01*
X159798298Y-113906259D01*
X159799858Y-113886544D01*
X159793218Y-113845419D01*
X159775568Y-113794252D01*
X159750297Y-113740394D01*
X159720789Y-113691195D01*
X159694719Y-113658334D01*
X159633765Y-113609452D01*
X159554969Y-113570545D01*
X159461157Y-113542494D01*
X159355150Y-113526179D01*
X159258000Y-113522192D01*
X159176081Y-113526599D01*
G37*
X159176081Y-113526599D02*
X159107565Y-113538095D01*
X159054943Y-113555967D01*
X159020708Y-113579499D01*
X159011379Y-113592924D01*
X159001893Y-113624148D01*
X159008277Y-113652395D01*
X159028430Y-113679182D01*
X159059745Y-113691713D01*
X159105183Y-113690696D01*
X159140326Y-113683906D01*
X159218419Y-113670971D01*
X159298226Y-113669742D01*
X159387555Y-113680241D01*
X159412229Y-113684690D01*
X159495291Y-113708108D01*
X159560273Y-113742945D01*
X159606461Y-113788604D01*
X159633145Y-113844494D01*
X159638663Y-113873388D01*
X159635051Y-113932012D01*
X159611729Y-113983879D01*
X159570824Y-114027978D01*
X159514459Y-114063299D01*
X159444760Y-114088829D01*
X159363852Y-114103559D01*
X159273860Y-114106478D01*
X159176910Y-114096575D01*
X159171436Y-114095641D01*
X159132875Y-114088459D01*
X159111494Y-114081521D01*
X159102227Y-114071227D01*
X159100006Y-114053976D01*
X159099956Y-114044841D01*
X159099956Y-114006489D01*
X159168431Y-114006489D01*
X159228900Y-114002347D01*
X159270165Y-113989147D01*
X159294175Y-113965730D01*
X159302877Y-113930936D01*
X159302983Y-113926394D01*
X159297892Y-113896654D01*
X159280433Y-113875419D01*
X159247939Y-113861366D01*
X159197743Y-113853173D01*
X159149123Y-113850161D01*
X159078456Y-113848433D01*
X159027198Y-113851070D01*
X158992239Y-113860800D01*
X158970470Y-113880353D01*
X158958780Y-113912456D01*
X158954060Y-113959838D01*
X158953200Y-114022071D01*
X158954609Y-114091535D01*
X158958848Y-114138786D01*
X158965936Y-114164012D01*
X158967311Y-114165988D01*
X159006228Y-114197508D01*
X159063286Y-114222470D01*
X159134869Y-114240340D01*
X159217358Y-114250586D01*
X159307139Y-114252673D01*
X159400592Y-114246068D01*
X159455556Y-114237956D01*
X159541766Y-114213554D01*
X159621892Y-114173662D01*
X159688977Y-114121887D01*
X159699173Y-114111539D01*
X159732302Y-114068035D01*
X159762194Y-114014118D01*
X159785357Y-113957592D01*
X159798298Y-113906259D01*
X159799858Y-113886544D01*
X159793218Y-113845419D01*
X159775568Y-113794252D01*
X159750297Y-113740394D01*
X159720789Y-113691195D01*
X159694719Y-113658334D01*
X159633765Y-113609452D01*
X159554969Y-113570545D01*
X159461157Y-113542494D01*
X159355150Y-113526179D01*
X159258000Y-113522192D01*
X159176081Y-113526599D01*
G36*
X158526114Y-113525448D02*
G01*
X158502548Y-113539273D01*
X158471735Y-113561881D01*
X158432078Y-113594338D01*
X158381980Y-113637708D01*
X158319843Y-113693058D01*
X158244072Y-113761451D01*
X158157334Y-113840084D01*
X157976711Y-114003878D01*
X157971067Y-113784029D01*
X157969029Y-113708351D01*
X157967063Y-113651994D01*
X157964734Y-113611706D01*
X157961606Y-113584235D01*
X157957245Y-113566329D01*
X157951216Y-113554737D01*
X157943084Y-113546208D01*
X157938772Y-113542623D01*
X157904241Y-113523670D01*
X157871383Y-113526441D01*
X157845318Y-113542633D01*
X157818667Y-113564199D01*
X157815352Y-113879151D01*
X157814435Y-113971779D01*
X157813968Y-114044544D01*
X157814113Y-114100161D01*
X157815032Y-114141342D01*
X157816887Y-114170803D01*
X157819839Y-114191255D01*
X157824050Y-114205413D01*
X157829682Y-114215991D01*
X157835927Y-114224474D01*
X157849439Y-114240207D01*
X157862883Y-114250636D01*
X157878124Y-114254639D01*
X157897026Y-114251094D01*
X157921455Y-114238879D01*
X157953273Y-114216871D01*
X157994348Y-114183949D01*
X158046542Y-114138991D01*
X158111722Y-114080875D01*
X158185556Y-114014099D01*
X158450845Y-113773458D01*
X158456489Y-113992589D01*
X158458531Y-114068128D01*
X158460502Y-114124354D01*
X158462839Y-114164524D01*
X158465981Y-114191896D01*
X158470364Y-114209728D01*
X158476424Y-114221279D01*
X158484600Y-114229807D01*
X158488784Y-114233282D01*
X158525765Y-114252372D01*
X158560708Y-114249493D01*
X158591136Y-114225100D01*
X158598097Y-114215286D01*
X158603523Y-114203826D01*
X158607603Y-114187968D01*
X158610529Y-114164963D01*
X158612492Y-114132062D01*
X158613683Y-114086516D01*
X158614292Y-114025573D01*
X158614511Y-113946486D01*
X158614534Y-113887956D01*
X158614460Y-113796407D01*
X158614113Y-113724687D01*
X158613301Y-113670045D01*
X158611833Y-113629732D01*
X158609519Y-113600998D01*
X158606167Y-113581093D01*
X158601588Y-113567268D01*
X158595589Y-113556772D01*
X158591136Y-113550811D01*
X158579850Y-113536691D01*
X158569301Y-113526029D01*
X158557893Y-113519892D01*
X158544030Y-113519343D01*
X158526114Y-113525448D01*
G37*
X158526114Y-113525448D02*
X158502548Y-113539273D01*
X158471735Y-113561881D01*
X158432078Y-113594338D01*
X158381980Y-113637708D01*
X158319843Y-113693058D01*
X158244072Y-113761451D01*
X158157334Y-113840084D01*
X157976711Y-114003878D01*
X157971067Y-113784029D01*
X157969029Y-113708351D01*
X157967063Y-113651994D01*
X157964734Y-113611706D01*
X157961606Y-113584235D01*
X157957245Y-113566329D01*
X157951216Y-113554737D01*
X157943084Y-113546208D01*
X157938772Y-113542623D01*
X157904241Y-113523670D01*
X157871383Y-113526441D01*
X157845318Y-113542633D01*
X157818667Y-113564199D01*
X157815352Y-113879151D01*
X157814435Y-113971779D01*
X157813968Y-114044544D01*
X157814113Y-114100161D01*
X157815032Y-114141342D01*
X157816887Y-114170803D01*
X157819839Y-114191255D01*
X157824050Y-114205413D01*
X157829682Y-114215991D01*
X157835927Y-114224474D01*
X157849439Y-114240207D01*
X157862883Y-114250636D01*
X157878124Y-114254639D01*
X157897026Y-114251094D01*
X157921455Y-114238879D01*
X157953273Y-114216871D01*
X157994348Y-114183949D01*
X158046542Y-114138991D01*
X158111722Y-114080875D01*
X158185556Y-114014099D01*
X158450845Y-113773458D01*
X158456489Y-113992589D01*
X158458531Y-114068128D01*
X158460502Y-114124354D01*
X158462839Y-114164524D01*
X158465981Y-114191896D01*
X158470364Y-114209728D01*
X158476424Y-114221279D01*
X158484600Y-114229807D01*
X158488784Y-114233282D01*
X158525765Y-114252372D01*
X158560708Y-114249493D01*
X158591136Y-114225100D01*
X158598097Y-114215286D01*
X158603523Y-114203826D01*
X158607603Y-114187968D01*
X158610529Y-114164963D01*
X158612492Y-114132062D01*
X158613683Y-114086516D01*
X158614292Y-114025573D01*
X158614511Y-113946486D01*
X158614534Y-113887956D01*
X158614460Y-113796407D01*
X158614113Y-113724687D01*
X158613301Y-113670045D01*
X158611833Y-113629732D01*
X158609519Y-113600998D01*
X158606167Y-113581093D01*
X158601588Y-113567268D01*
X158595589Y-113556772D01*
X158591136Y-113550811D01*
X158579850Y-113536691D01*
X158569301Y-113526029D01*
X158557893Y-113519892D01*
X158544030Y-113519343D01*
X158526114Y-113525448D01*
G36*
X156995657Y-113521260D02*
G01*
X156919299Y-113522174D01*
X156860783Y-113524311D01*
X156817745Y-113528175D01*
X156787817Y-113534267D01*
X156768632Y-113543090D01*
X156757824Y-113555146D01*
X156753027Y-113570939D01*
X156751873Y-113590970D01*
X156751867Y-113593335D01*
X156752869Y-113615992D01*
X156757604Y-113633503D01*
X156768667Y-113646574D01*
X156788652Y-113655913D01*
X156820154Y-113662227D01*
X156865768Y-113666222D01*
X156928087Y-113668606D01*
X157009707Y-113670086D01*
X157034723Y-113670414D01*
X157276800Y-113673467D01*
X157280186Y-113738378D01*
X157283571Y-113803289D01*
X157115424Y-113803289D01*
X157049734Y-113803531D01*
X157002828Y-113804556D01*
X156970917Y-113806811D01*
X156950209Y-113810742D01*
X156936916Y-113816798D01*
X156927245Y-113825424D01*
X156927183Y-113825493D01*
X156909644Y-113859112D01*
X156910278Y-113895448D01*
X156928686Y-113926423D01*
X156932329Y-113929607D01*
X156945259Y-113937812D01*
X156962976Y-113943521D01*
X156989430Y-113947162D01*
X157028568Y-113949167D01*
X157084338Y-113949964D01*
X157120006Y-113950045D01*
X157282445Y-113950045D01*
X157282445Y-114108089D01*
X157035839Y-114108089D01*
X156954420Y-114108231D01*
X156892590Y-114108814D01*
X156847363Y-114110068D01*
X156815752Y-114112227D01*
X156794769Y-114115523D01*
X156781427Y-114120189D01*
X156772739Y-114126457D01*
X156770550Y-114128733D01*
X156754386Y-114160280D01*
X156753203Y-114196168D01*
X156766464Y-114227285D01*
X156776957Y-114237271D01*
X156787871Y-114242769D01*
X156804783Y-114247022D01*
X156830367Y-114250180D01*
X156867299Y-114252392D01*
X156918254Y-114253806D01*
X156985906Y-114254572D01*
X157072931Y-114254838D01*
X157092606Y-114254845D01*
X157181089Y-114254787D01*
X157249773Y-114254467D01*
X157301436Y-114253667D01*
X157338855Y-114252167D01*
X157364810Y-114249749D01*
X157382078Y-114246194D01*
X157393438Y-114241282D01*
X157401668Y-114234795D01*
X157406183Y-114230138D01*
X157412979Y-114221889D01*
X157418288Y-114211669D01*
X157422294Y-114196800D01*
X157425179Y-114174602D01*
X157427126Y-114142393D01*
X157428319Y-114097496D01*
X157428939Y-114037228D01*
X157429171Y-113958911D01*
X157429200Y-113892994D01*
X157429129Y-113800628D01*
X157428792Y-113728117D01*
X157428002Y-113672737D01*
X157426574Y-113631765D01*
X157424321Y-113602478D01*
X157421057Y-113582153D01*
X157416596Y-113568066D01*
X157410752Y-113557495D01*
X157405803Y-113550811D01*
X157382406Y-113521067D01*
X157092226Y-113521067D01*
X156995657Y-113521260D01*
G37*
X156995657Y-113521260D02*
X156919299Y-113522174D01*
X156860783Y-113524311D01*
X156817745Y-113528175D01*
X156787817Y-113534267D01*
X156768632Y-113543090D01*
X156757824Y-113555146D01*
X156753027Y-113570939D01*
X156751873Y-113590970D01*
X156751867Y-113593335D01*
X156752869Y-113615992D01*
X156757604Y-113633503D01*
X156768667Y-113646574D01*
X156788652Y-113655913D01*
X156820154Y-113662227D01*
X156865768Y-113666222D01*
X156928087Y-113668606D01*
X157009707Y-113670086D01*
X157034723Y-113670414D01*
X157276800Y-113673467D01*
X157280186Y-113738378D01*
X157283571Y-113803289D01*
X157115424Y-113803289D01*
X157049734Y-113803531D01*
X157002828Y-113804556D01*
X156970917Y-113806811D01*
X156950209Y-113810742D01*
X156936916Y-113816798D01*
X156927245Y-113825424D01*
X156927183Y-113825493D01*
X156909644Y-113859112D01*
X156910278Y-113895448D01*
X156928686Y-113926423D01*
X156932329Y-113929607D01*
X156945259Y-113937812D01*
X156962976Y-113943521D01*
X156989430Y-113947162D01*
X157028568Y-113949167D01*
X157084338Y-113949964D01*
X157120006Y-113950045D01*
X157282445Y-113950045D01*
X157282445Y-114108089D01*
X157035839Y-114108089D01*
X156954420Y-114108231D01*
X156892590Y-114108814D01*
X156847363Y-114110068D01*
X156815752Y-114112227D01*
X156794769Y-114115523D01*
X156781427Y-114120189D01*
X156772739Y-114126457D01*
X156770550Y-114128733D01*
X156754386Y-114160280D01*
X156753203Y-114196168D01*
X156766464Y-114227285D01*
X156776957Y-114237271D01*
X156787871Y-114242769D01*
X156804783Y-114247022D01*
X156830367Y-114250180D01*
X156867299Y-114252392D01*
X156918254Y-114253806D01*
X156985906Y-114254572D01*
X157072931Y-114254838D01*
X157092606Y-114254845D01*
X157181089Y-114254787D01*
X157249773Y-114254467D01*
X157301436Y-114253667D01*
X157338855Y-114252167D01*
X157364810Y-114249749D01*
X157382078Y-114246194D01*
X157393438Y-114241282D01*
X157401668Y-114234795D01*
X157406183Y-114230138D01*
X157412979Y-114221889D01*
X157418288Y-114211669D01*
X157422294Y-114196800D01*
X157425179Y-114174602D01*
X157427126Y-114142393D01*
X157428319Y-114097496D01*
X157428939Y-114037228D01*
X157429171Y-113958911D01*
X157429200Y-113892994D01*
X157429129Y-113800628D01*
X157428792Y-113728117D01*
X157428002Y-113672737D01*
X157426574Y-113631765D01*
X157424321Y-113602478D01*
X157421057Y-113582153D01*
X157416596Y-113568066D01*
X157410752Y-113557495D01*
X157405803Y-113550811D01*
X157382406Y-113521067D01*
X157092226Y-113521067D01*
X156995657Y-113521260D01*
G36*
X156207691Y-113521275D02*
G01*
X156078712Y-113525636D01*
X155969009Y-113538861D01*
X155876774Y-113561741D01*
X155800198Y-113595070D01*
X155737473Y-113639638D01*
X155686788Y-113696236D01*
X155646337Y-113765658D01*
X155645541Y-113767351D01*
X155621399Y-113829483D01*
X155612797Y-113884509D01*
X155619769Y-113939887D01*
X155642346Y-114003073D01*
X155646628Y-114012689D01*
X155675828Y-114068966D01*
X155708644Y-114112451D01*
X155750998Y-114149417D01*
X155808810Y-114186135D01*
X155812169Y-114188052D01*
X155862496Y-114212227D01*
X155919379Y-114230282D01*
X155986473Y-114242839D01*
X156067435Y-114250522D01*
X156165918Y-114253953D01*
X156200714Y-114254251D01*
X156366406Y-114254845D01*
X156389803Y-114225100D01*
X156396743Y-114215319D01*
X156402158Y-114203897D01*
X156406235Y-114188095D01*
X156409163Y-114165175D01*
X156411133Y-114132396D01*
X156411775Y-114108089D01*
X156255156Y-114108089D01*
X156161274Y-114108089D01*
X156106336Y-114106483D01*
X156049940Y-114102255D01*
X156003655Y-114096292D01*
X156000861Y-114095790D01*
X155918652Y-114073736D01*
X155854886Y-114040600D01*
X155807548Y-113994847D01*
X155774618Y-113934939D01*
X155768892Y-113919061D01*
X155763279Y-113894333D01*
X155765709Y-113869902D01*
X155777533Y-113837400D01*
X155784660Y-113821434D01*
X155808000Y-113779006D01*
X155836120Y-113749240D01*
X155867060Y-113728511D01*
X155929034Y-113701537D01*
X156008349Y-113681998D01*
X156100747Y-113670746D01*
X156167667Y-113668270D01*
X156255156Y-113667822D01*
X156255156Y-114108089D01*
X156411775Y-114108089D01*
X156412332Y-114087021D01*
X156412950Y-114026311D01*
X156413175Y-113947526D01*
X156413200Y-113885920D01*
X156413200Y-113576485D01*
X156385491Y-113548776D01*
X156373194Y-113537544D01*
X156359897Y-113529853D01*
X156341328Y-113525040D01*
X156313214Y-113522446D01*
X156271283Y-113521410D01*
X156211263Y-113521270D01*
X156207691Y-113521275D01*
G37*
X156207691Y-113521275D02*
X156078712Y-113525636D01*
X155969009Y-113538861D01*
X155876774Y-113561741D01*
X155800198Y-113595070D01*
X155737473Y-113639638D01*
X155686788Y-113696236D01*
X155646337Y-113765658D01*
X155645541Y-113767351D01*
X155621399Y-113829483D01*
X155612797Y-113884509D01*
X155619769Y-113939887D01*
X155642346Y-114003073D01*
X155646628Y-114012689D01*
X155675828Y-114068966D01*
X155708644Y-114112451D01*
X155750998Y-114149417D01*
X155808810Y-114186135D01*
X155812169Y-114188052D01*
X155862496Y-114212227D01*
X155919379Y-114230282D01*
X155986473Y-114242839D01*
X156067435Y-114250522D01*
X156165918Y-114253953D01*
X156200714Y-114254251D01*
X156366406Y-114254845D01*
X156389803Y-114225100D01*
X156396743Y-114215319D01*
X156402158Y-114203897D01*
X156406235Y-114188095D01*
X156409163Y-114165175D01*
X156411133Y-114132396D01*
X156411775Y-114108089D01*
X156255156Y-114108089D01*
X156161274Y-114108089D01*
X156106336Y-114106483D01*
X156049940Y-114102255D01*
X156003655Y-114096292D01*
X156000861Y-114095790D01*
X155918652Y-114073736D01*
X155854886Y-114040600D01*
X155807548Y-113994847D01*
X155774618Y-113934939D01*
X155768892Y-113919061D01*
X155763279Y-113894333D01*
X155765709Y-113869902D01*
X155777533Y-113837400D01*
X155784660Y-113821434D01*
X155808000Y-113779006D01*
X155836120Y-113749240D01*
X155867060Y-113728511D01*
X155929034Y-113701537D01*
X156008349Y-113681998D01*
X156100747Y-113670746D01*
X156167667Y-113668270D01*
X156255156Y-113667822D01*
X156255156Y-114108089D01*
X156411775Y-114108089D01*
X156412332Y-114087021D01*
X156412950Y-114026311D01*
X156413175Y-113947526D01*
X156413200Y-113885920D01*
X156413200Y-113576485D01*
X156385491Y-113548776D01*
X156373194Y-113537544D01*
X156359897Y-113529853D01*
X156341328Y-113525040D01*
X156313214Y-113522446D01*
X156271283Y-113521410D01*
X156211263Y-113521270D01*
X156207691Y-113521275D01*
G36*
X153481335Y-113523034D02*
G01*
X153461745Y-113530035D01*
X153460990Y-113530377D01*
X153434387Y-113550678D01*
X153419730Y-113571561D01*
X153416862Y-113581352D01*
X153417004Y-113594361D01*
X153421039Y-113612895D01*
X153429854Y-113639257D01*
X153444331Y-113675752D01*
X153465355Y-113724687D01*
X153493812Y-113788365D01*
X153530585Y-113869093D01*
X153550825Y-113913216D01*
X153587375Y-113991985D01*
X153621685Y-114064423D01*
X153652448Y-114127880D01*
X153678352Y-114179708D01*
X153698090Y-114217259D01*
X153710350Y-114237884D01*
X153712776Y-114240733D01*
X153743817Y-114253302D01*
X153778879Y-114251619D01*
X153807000Y-114236332D01*
X153808146Y-114235089D01*
X153819332Y-114218154D01*
X153838096Y-114185170D01*
X153862125Y-114140380D01*
X153889103Y-114088032D01*
X153898799Y-114068742D01*
X153971986Y-113922150D01*
X154051760Y-114081393D01*
X154080233Y-114136415D01*
X154106650Y-114184132D01*
X154128852Y-114220893D01*
X154144681Y-114243044D01*
X154150046Y-114247741D01*
X154191743Y-114254102D01*
X154226151Y-114240733D01*
X154236272Y-114226446D01*
X154253786Y-114194692D01*
X154277265Y-114148597D01*
X154305280Y-114091285D01*
X154336401Y-114025880D01*
X154369201Y-113955507D01*
X154402250Y-113883291D01*
X154434119Y-113812355D01*
X154463381Y-113745825D01*
X154488605Y-113686826D01*
X154508364Y-113638481D01*
X154521228Y-113603915D01*
X154525769Y-113586253D01*
X154525723Y-113585613D01*
X154514674Y-113563388D01*
X154492590Y-113540753D01*
X154491290Y-113539768D01*
X154464147Y-113524425D01*
X154439042Y-113524574D01*
X154429632Y-113527466D01*
X154418166Y-113533718D01*
X154405990Y-113546014D01*
X154391643Y-113566908D01*
X154373664Y-113598949D01*
X154350593Y-113644688D01*
X154320970Y-113706677D01*
X154294255Y-113763898D01*
X154263520Y-113830226D01*
X154235979Y-113889874D01*
X154213062Y-113939725D01*
X154196202Y-113976664D01*
X154186827Y-113997573D01*
X154185460Y-114000845D01*
X154179311Y-113995497D01*
X154165178Y-113973109D01*
X154144943Y-113936946D01*
X154120485Y-113890277D01*
X154110752Y-113871022D01*
X154077783Y-113806004D01*
X154052357Y-113758654D01*
X154032388Y-113726219D01*
X154015790Y-113705946D01*
X154000476Y-113695082D01*
X153984360Y-113690875D01*
X153973857Y-113690400D01*
X153955330Y-113692042D01*
X153939096Y-113698831D01*
X153922965Y-113713566D01*
X153904749Y-113739044D01*
X153882261Y-113778061D01*
X153853311Y-113833414D01*
X153837338Y-113864903D01*
X153811430Y-113915087D01*
X153788833Y-113956704D01*
X153771542Y-113986242D01*
X153761550Y-114000189D01*
X153760191Y-114000770D01*
X153753739Y-113989793D01*
X153739292Y-113961290D01*
X153718297Y-113918244D01*
X153692203Y-113863638D01*
X153662454Y-113800454D01*
X153647820Y-113769071D01*
X153609750Y-113688078D01*
X153579095Y-113625756D01*
X153554263Y-113580071D01*
X153533663Y-113548989D01*
X153515702Y-113530478D01*
X153498790Y-113522504D01*
X153481335Y-113523034D01*
G37*
X153481335Y-113523034D02*
X153461745Y-113530035D01*
X153460990Y-113530377D01*
X153434387Y-113550678D01*
X153419730Y-113571561D01*
X153416862Y-113581352D01*
X153417004Y-113594361D01*
X153421039Y-113612895D01*
X153429854Y-113639257D01*
X153444331Y-113675752D01*
X153465355Y-113724687D01*
X153493812Y-113788365D01*
X153530585Y-113869093D01*
X153550825Y-113913216D01*
X153587375Y-113991985D01*
X153621685Y-114064423D01*
X153652448Y-114127880D01*
X153678352Y-114179708D01*
X153698090Y-114217259D01*
X153710350Y-114237884D01*
X153712776Y-114240733D01*
X153743817Y-114253302D01*
X153778879Y-114251619D01*
X153807000Y-114236332D01*
X153808146Y-114235089D01*
X153819332Y-114218154D01*
X153838096Y-114185170D01*
X153862125Y-114140380D01*
X153889103Y-114088032D01*
X153898799Y-114068742D01*
X153971986Y-113922150D01*
X154051760Y-114081393D01*
X154080233Y-114136415D01*
X154106650Y-114184132D01*
X154128852Y-114220893D01*
X154144681Y-114243044D01*
X154150046Y-114247741D01*
X154191743Y-114254102D01*
X154226151Y-114240733D01*
X154236272Y-114226446D01*
X154253786Y-114194692D01*
X154277265Y-114148597D01*
X154305280Y-114091285D01*
X154336401Y-114025880D01*
X154369201Y-113955507D01*
X154402250Y-113883291D01*
X154434119Y-113812355D01*
X154463381Y-113745825D01*
X154488605Y-113686826D01*
X154508364Y-113638481D01*
X154521228Y-113603915D01*
X154525769Y-113586253D01*
X154525723Y-113585613D01*
X154514674Y-113563388D01*
X154492590Y-113540753D01*
X154491290Y-113539768D01*
X154464147Y-113524425D01*
X154439042Y-113524574D01*
X154429632Y-113527466D01*
X154418166Y-113533718D01*
X154405990Y-113546014D01*
X154391643Y-113566908D01*
X154373664Y-113598949D01*
X154350593Y-113644688D01*
X154320970Y-113706677D01*
X154294255Y-113763898D01*
X154263520Y-113830226D01*
X154235979Y-113889874D01*
X154213062Y-113939725D01*
X154196202Y-113976664D01*
X154186827Y-113997573D01*
X154185460Y-114000845D01*
X154179311Y-113995497D01*
X154165178Y-113973109D01*
X154144943Y-113936946D01*
X154120485Y-113890277D01*
X154110752Y-113871022D01*
X154077783Y-113806004D01*
X154052357Y-113758654D01*
X154032388Y-113726219D01*
X154015790Y-113705946D01*
X154000476Y-113695082D01*
X153984360Y-113690875D01*
X153973857Y-113690400D01*
X153955330Y-113692042D01*
X153939096Y-113698831D01*
X153922965Y-113713566D01*
X153904749Y-113739044D01*
X153882261Y-113778061D01*
X153853311Y-113833414D01*
X153837338Y-113864903D01*
X153811430Y-113915087D01*
X153788833Y-113956704D01*
X153771542Y-113986242D01*
X153761550Y-114000189D01*
X153760191Y-114000770D01*
X153753739Y-113989793D01*
X153739292Y-113961290D01*
X153718297Y-113918244D01*
X153692203Y-113863638D01*
X153662454Y-113800454D01*
X153647820Y-113769071D01*
X153609750Y-113688078D01*
X153579095Y-113625756D01*
X153554263Y-113580071D01*
X153533663Y-113548989D01*
X153515702Y-113530478D01*
X153498790Y-113522504D01*
X153481335Y-113523034D01*
G36*
X153037386Y-113527877D02*
G01*
X153013673Y-113542647D01*
X152987022Y-113564227D01*
X152987022Y-113885773D01*
X152987107Y-113979830D01*
X152987471Y-114053932D01*
X152988276Y-114110704D01*
X152989687Y-114152768D01*
X152991867Y-114182748D01*
X152994979Y-114203267D01*
X152999186Y-114216949D01*
X153004652Y-114226416D01*
X153008528Y-114231082D01*
X153039966Y-114251575D01*
X153075767Y-114250739D01*
X153107127Y-114233264D01*
X153133778Y-114211684D01*
X153133778Y-113564227D01*
X153107127Y-113542647D01*
X153081406Y-113526949D01*
X153060400Y-113521067D01*
X153037386Y-113527877D01*
G37*
X153037386Y-113527877D02*
X153013673Y-113542647D01*
X152987022Y-113564227D01*
X152987022Y-113885773D01*
X152987107Y-113979830D01*
X152987471Y-114053932D01*
X152988276Y-114110704D01*
X152989687Y-114152768D01*
X152991867Y-114182748D01*
X152994979Y-114203267D01*
X152999186Y-114216949D01*
X153004652Y-114226416D01*
X153008528Y-114231082D01*
X153039966Y-114251575D01*
X153075767Y-114250739D01*
X153107127Y-114233264D01*
X153133778Y-114211684D01*
X153133778Y-113564227D01*
X153107127Y-113542647D01*
X153081406Y-113526949D01*
X153060400Y-113521067D01*
X153037386Y-113527877D01*
G36*
X152262935Y-113521163D02*
G01*
X152184228Y-113521542D01*
X152123137Y-113522333D01*
X152077183Y-113523670D01*
X152043886Y-113525683D01*
X152020764Y-113528506D01*
X152005338Y-113532269D01*
X151995129Y-113537105D01*
X151990187Y-113540822D01*
X151964543Y-113573358D01*
X151961441Y-113607138D01*
X151977289Y-113637826D01*
X151987652Y-113650089D01*
X151998804Y-113658450D01*
X152014965Y-113663657D01*
X152040358Y-113666457D01*
X152079202Y-113667596D01*
X152135720Y-113667821D01*
X152146820Y-113667822D01*
X152292756Y-113667822D01*
X152292756Y-113938756D01*
X152292852Y-114024154D01*
X152293289Y-114089864D01*
X152294288Y-114138774D01*
X152296072Y-114173773D01*
X152298863Y-114197749D01*
X152302883Y-114213593D01*
X152308355Y-114224191D01*
X152315334Y-114232267D01*
X152348266Y-114252112D01*
X152382646Y-114250548D01*
X152413824Y-114227906D01*
X152416114Y-114225100D01*
X152423571Y-114214492D01*
X152429253Y-114202081D01*
X152433399Y-114184850D01*
X152436250Y-114159784D01*
X152438046Y-114123867D01*
X152439028Y-114074083D01*
X152439436Y-114007417D01*
X152439511Y-113931589D01*
X152439511Y-113667822D01*
X152578873Y-113667822D01*
X152638678Y-113667418D01*
X152680082Y-113665840D01*
X152707252Y-113662547D01*
X152724354Y-113656992D01*
X152735557Y-113648631D01*
X152736917Y-113647178D01*
X152753275Y-113613939D01*
X152751828Y-113576362D01*
X152733022Y-113543645D01*
X152725750Y-113537298D01*
X152716373Y-113532266D01*
X152702391Y-113528396D01*
X152681304Y-113525537D01*
X152650611Y-113523535D01*
X152607811Y-113522239D01*
X152550405Y-113521498D01*
X152475890Y-113521158D01*
X152381767Y-113521068D01*
X152361740Y-113521067D01*
X152262935Y-113521163D01*
G37*
X152262935Y-113521163D02*
X152184228Y-113521542D01*
X152123137Y-113522333D01*
X152077183Y-113523670D01*
X152043886Y-113525683D01*
X152020764Y-113528506D01*
X152005338Y-113532269D01*
X151995129Y-113537105D01*
X151990187Y-113540822D01*
X151964543Y-113573358D01*
X151961441Y-113607138D01*
X151977289Y-113637826D01*
X151987652Y-113650089D01*
X151998804Y-113658450D01*
X152014965Y-113663657D01*
X152040358Y-113666457D01*
X152079202Y-113667596D01*
X152135720Y-113667821D01*
X152146820Y-113667822D01*
X152292756Y-113667822D01*
X152292756Y-113938756D01*
X152292852Y-114024154D01*
X152293289Y-114089864D01*
X152294288Y-114138774D01*
X152296072Y-114173773D01*
X152298863Y-114197749D01*
X152302883Y-114213593D01*
X152308355Y-114224191D01*
X152315334Y-114232267D01*
X152348266Y-114252112D01*
X152382646Y-114250548D01*
X152413824Y-114227906D01*
X152416114Y-114225100D01*
X152423571Y-114214492D01*
X152429253Y-114202081D01*
X152433399Y-114184850D01*
X152436250Y-114159784D01*
X152438046Y-114123867D01*
X152439028Y-114074083D01*
X152439436Y-114007417D01*
X152439511Y-113931589D01*
X152439511Y-113667822D01*
X152578873Y-113667822D01*
X152638678Y-113667418D01*
X152680082Y-113665840D01*
X152707252Y-113662547D01*
X152724354Y-113656992D01*
X152735557Y-113648631D01*
X152736917Y-113647178D01*
X152753275Y-113613939D01*
X152751828Y-113576362D01*
X152733022Y-113543645D01*
X152725750Y-113537298D01*
X152716373Y-113532266D01*
X152702391Y-113528396D01*
X152681304Y-113525537D01*
X152650611Y-113523535D01*
X152607811Y-113522239D01*
X152550405Y-113521498D01*
X152475890Y-113521158D01*
X152381767Y-113521068D01*
X152361740Y-113521067D01*
X152262935Y-113521163D01*
G36*
X150997177Y-113526533D02*
G01*
X150965798Y-113548776D01*
X150938089Y-113576485D01*
X150938089Y-113885920D01*
X150938162Y-113977799D01*
X150938505Y-114049840D01*
X150939308Y-114104780D01*
X150940759Y-114145360D01*
X150943048Y-114174317D01*
X150946364Y-114194391D01*
X150950895Y-114208321D01*
X150956831Y-114218845D01*
X150961486Y-114225100D01*
X150992217Y-114249673D01*
X151027504Y-114252341D01*
X151059755Y-114237271D01*
X151070412Y-114228374D01*
X151077536Y-114216557D01*
X151081833Y-114197526D01*
X151084009Y-114166992D01*
X151084772Y-114120662D01*
X151084845Y-114084871D01*
X151084845Y-113950045D01*
X151581556Y-113950045D01*
X151581556Y-114072700D01*
X151582069Y-114128787D01*
X151584124Y-114167333D01*
X151588492Y-114193361D01*
X151595944Y-114211897D01*
X151604953Y-114225100D01*
X151635856Y-114249604D01*
X151670804Y-114252506D01*
X151704262Y-114235089D01*
X151713396Y-114225959D01*
X151719848Y-114213855D01*
X151724103Y-114195001D01*
X151726648Y-114165620D01*
X151727971Y-114121937D01*
X151728557Y-114060175D01*
X151728625Y-114046000D01*
X151729109Y-113929631D01*
X151729359Y-113833727D01*
X151729277Y-113756177D01*
X151728769Y-113694869D01*
X151727738Y-113647690D01*
X151726087Y-113612530D01*
X151723721Y-113587276D01*
X151720543Y-113569817D01*
X151716456Y-113558041D01*
X151711366Y-113549835D01*
X151705734Y-113543645D01*
X151673872Y-113523844D01*
X151640643Y-113526533D01*
X151609265Y-113548776D01*
X151596567Y-113563126D01*
X151588474Y-113578978D01*
X151583958Y-113601554D01*
X151581994Y-113636078D01*
X151581556Y-113687776D01*
X151581556Y-113803289D01*
X151084845Y-113803289D01*
X151084845Y-113684756D01*
X151084338Y-113630148D01*
X151082302Y-113593275D01*
X151077965Y-113569307D01*
X151070553Y-113553415D01*
X151062267Y-113543645D01*
X151030406Y-113523844D01*
X150997177Y-113526533D01*
G37*
X150997177Y-113526533D02*
X150965798Y-113548776D01*
X150938089Y-113576485D01*
X150938089Y-113885920D01*
X150938162Y-113977799D01*
X150938505Y-114049840D01*
X150939308Y-114104780D01*
X150940759Y-114145360D01*
X150943048Y-114174317D01*
X150946364Y-114194391D01*
X150950895Y-114208321D01*
X150956831Y-114218845D01*
X150961486Y-114225100D01*
X150992217Y-114249673D01*
X151027504Y-114252341D01*
X151059755Y-114237271D01*
X151070412Y-114228374D01*
X151077536Y-114216557D01*
X151081833Y-114197526D01*
X151084009Y-114166992D01*
X151084772Y-114120662D01*
X151084845Y-114084871D01*
X151084845Y-113950045D01*
X151581556Y-113950045D01*
X151581556Y-114072700D01*
X151582069Y-114128787D01*
X151584124Y-114167333D01*
X151588492Y-114193361D01*
X151595944Y-114211897D01*
X151604953Y-114225100D01*
X151635856Y-114249604D01*
X151670804Y-114252506D01*
X151704262Y-114235089D01*
X151713396Y-114225959D01*
X151719848Y-114213855D01*
X151724103Y-114195001D01*
X151726648Y-114165620D01*
X151727971Y-114121937D01*
X151728557Y-114060175D01*
X151728625Y-114046000D01*
X151729109Y-113929631D01*
X151729359Y-113833727D01*
X151729277Y-113756177D01*
X151728769Y-113694869D01*
X151727738Y-113647690D01*
X151726087Y-113612530D01*
X151723721Y-113587276D01*
X151720543Y-113569817D01*
X151716456Y-113558041D01*
X151711366Y-113549835D01*
X151705734Y-113543645D01*
X151673872Y-113523844D01*
X151640643Y-113526533D01*
X151609265Y-113548776D01*
X151596567Y-113563126D01*
X151588474Y-113578978D01*
X151583958Y-113601554D01*
X151581994Y-113636078D01*
X151581556Y-113687776D01*
X151581556Y-113803289D01*
X151084845Y-113803289D01*
X151084845Y-113684756D01*
X151084338Y-113630148D01*
X151082302Y-113593275D01*
X151077965Y-113569307D01*
X151070553Y-113553415D01*
X151062267Y-113543645D01*
X151030406Y-113523844D01*
X150997177Y-113526533D01*
%TD*%
M02*
