%TF.GenerationSoftware,KiCad,Pcbnew,(5.1.6)-1*%
%TF.CreationDate,2022-09-29T14:47:16-04:00*%
%TF.ProjectId,A500-tower-power,41353030-2d74-46f7-9765-722d706f7765,rev?*%
%TF.SameCoordinates,Original*%
%TF.FileFunction,Soldermask,Top*%
%TF.FilePolarity,Negative*%
%FSLAX46Y46*%
G04 Gerber Fmt 4.6, Leading zero omitted, Abs format (unit mm)*
G04 Created by KiCad (PCBNEW (5.1.6)-1) date 2022-09-29 14:47:16*
%MOMM*%
%LPD*%
G01*
G04 APERTURE LIST*
%ADD10R,1.900000X1.900000*%
%ADD11C,1.900000*%
%ADD12C,7.500000*%
%ADD13C,0.900000*%
%ADD14R,2.250000X2.250000*%
%ADD15C,2.250000*%
%ADD16R,2.875000X2.875000*%
%ADD17C,2.875000*%
%ADD18R,1.800000X1.800000*%
%ADD19O,1.800000X1.800000*%
%ADD20R,1.600000X1.600000*%
%ADD21C,1.600000*%
%ADD22C,1.700000*%
%ADD23O,1.700000X1.700000*%
G04 APERTURE END LIST*
D10*
%TO.C,D1*%
X149606000Y-105410000D03*
D11*
X152146000Y-105410000D03*
%TD*%
D12*
%TO.C,H1*%
X131064000Y-108204000D03*
D13*
X133839000Y-108204000D03*
X133026221Y-110166221D03*
X131064000Y-110979000D03*
X129101779Y-110166221D03*
X128289000Y-108204000D03*
X129101779Y-106241779D03*
X131064000Y-105429000D03*
X133026221Y-106241779D03*
%TD*%
%TO.C,H2*%
X175514000Y-106172000D03*
X173551779Y-105359221D03*
X171589558Y-106172000D03*
X170776779Y-108134221D03*
X171589558Y-110096442D03*
X173551779Y-110909221D03*
X175514000Y-110096442D03*
X176326779Y-108134221D03*
D12*
X173551779Y-108134221D03*
%TD*%
D14*
%TO.C,J1*%
X129540000Y-93980000D03*
D15*
X133740000Y-93980000D03*
X137940000Y-93980000D03*
X142140000Y-93980000D03*
X146340000Y-93980000D03*
X150540000Y-93980000D03*
X154740000Y-93980000D03*
X158940000Y-93980000D03*
X163140000Y-93980000D03*
X167340000Y-93980000D03*
X171540000Y-93980000D03*
X175740000Y-93980000D03*
X129540000Y-99480000D03*
X133740000Y-99480000D03*
X137940000Y-99480000D03*
X142140000Y-99480000D03*
X146340000Y-99480000D03*
X150540000Y-99480000D03*
X154740000Y-99480000D03*
X158940000Y-99480000D03*
X163140000Y-99480000D03*
X167340000Y-99480000D03*
X171540000Y-99480000D03*
X175740000Y-99480000D03*
%TD*%
D16*
%TO.C,J2*%
X145288000Y-118364000D03*
D17*
X150368000Y-118364000D03*
X155448000Y-118364000D03*
X160528000Y-118364000D03*
%TD*%
D18*
%TO.C,J3*%
X143764000Y-105410000D03*
D19*
X146304000Y-105410000D03*
%TD*%
D20*
%TO.C,FAN1*%
X182626000Y-83312000D03*
D21*
X185166000Y-83312000D03*
X187706000Y-83312000D03*
%TD*%
%TO.C,FAN2*%
X187706000Y-90932000D03*
X185166000Y-90932000D03*
D20*
X182626000Y-90932000D03*
%TD*%
%TO.C,FAN3*%
X182626000Y-98552000D03*
D21*
X185166000Y-98552000D03*
X187706000Y-98552000D03*
%TD*%
D22*
%TO.C,R1*%
X154940000Y-105410000D03*
D23*
X162560000Y-105410000D03*
%TD*%
M02*
